M48
; DRILL file KiCad 10.0.5 date 2026-08-11T17:36:16
; FORMAT={-:-/ absolute / metric / decimal}
; #@! TF.CreationDate,2026-08-11T17:36:16+02:00
; #@! TF.GenerationSoftware,Kicad,Pcbnew,10.0.5
; #@! TF.FileFunction,Plated,1,6,PTH
FMAT,2
METRIC
; #@! TA.AperFunction,Plated,PTH,ViaDrill
T1C0.200
; #@! TA.AperFunction,Plated,PTH,ComponentDrill
T2C0.400
; #@! TA.AperFunction,Plated,PTH,ComponentDrill
T3C1.000
%
G90
G05
T1
X100.43Y-109.05
X100.45Y-100.95
X100.45Y-101.7
X100.5Y-102.2
X100.61Y-112.1
X100.61Y-114.25
X100.64Y-110.635
X100.8Y-100.425
X100.8Y-101.3
X101.225Y-107.525
X101.29Y-108.31
X101.35Y-114.55
X101.642Y-112.439
X101.65Y-109.25
X101.685Y-110.325
X102.154Y-104.029
X102.233Y-112.432
X102.315Y-107.65
X102.485Y-111.955
X102.5Y-104.75
X102.59Y-108.46
X102.65Y-114.65
X102.79Y-113.09
X102.85Y-105.75
X102.88Y-109.5
X103.1Y-102.7
X103.2Y-111.0
X103.214Y-103.285
X103.35Y-107.9
X103.375Y-100.5
X103.45Y-101.6
X103.499Y-108.808
X103.5Y-105.0
X103.62Y-113.95
X103.666Y-114.488
X103.8Y-106.35
X103.85Y-100.771
X103.95Y-103.0
X104.0Y-102.25
X104.095Y-112.424
X104.2Y-114.4
X104.25Y-100.45
X104.309Y-109.41
X104.393Y-101.528
X104.7Y-100.771
X104.7Y-111.85
X104.75Y-106.35
X104.85Y-115.05
X104.9Y-102.87
X104.95Y-102.3
X105.2Y-101.8
X105.35Y-112.465
X105.4Y-113.2
X105.45Y-100.771
X105.703Y-101.546
X105.72Y-102.25
X105.75Y-106.35
X105.83Y-103.81
X105.85Y-109.45
X106.06Y-112.05
X106.129Y-100.67
X106.2Y-109.05
X106.268Y-106.82
X106.34Y-107.379
X106.34Y-113.1
X106.368Y-101.665
X106.45Y-112.465
X106.664Y-104.105
X106.7Y-106.15
X106.795Y-105.036
X106.8Y-102.15
X106.8Y-109.8
X106.9Y-100.636
X107.046Y-113.779
X107.25Y-102.65
X107.55Y-115.15
X107.574Y-111.89
X107.594Y-107.607
X107.6Y-103.25
X107.6Y-103.95
X107.63Y-114.25
X107.7Y-100.75
X107.7Y-101.7
X107.726Y-112.464
X107.75Y-104.85
X107.881Y-105.453
X108.117Y-110.489
X108.187Y-112.746
X108.2Y-113.45
X108.27Y-114.25
X108.277Y-106.865
X108.33Y-100.964
X108.596Y-112.394
X108.6Y-102.55
X108.654Y-101.448
X108.75Y-106.559
X108.815Y-111.004
X108.985Y-108.769
X108.988Y-113.171
X108.995Y-109.315
X109.0Y-110.353
X109.145Y-109.833
X109.24Y-104.674
X109.25Y-114.35
X109.305Y-107.868
X109.351Y-104.146
X109.4Y-100.78
X109.45Y-103.05
X109.535Y-111.72
X109.535Y-112.68
X109.575Y-102.55
X109.575Y-103.605
X109.575Y-110.88
T2
X100.69Y-116.1
X100.69Y-118.5
X101.69Y-116.1
X101.69Y-118.5
X103.23Y-116.1
X103.23Y-118.5
X104.23Y-116.1
X104.23Y-118.5
X105.77Y-116.1
X105.77Y-118.5
X106.77Y-116.1
X106.77Y-118.5
X108.31Y-116.1
X108.31Y-118.5
X109.31Y-116.1
X109.31Y-118.5
T3
X101.19Y-117.3
X103.73Y-117.3
X106.27Y-117.3
X108.81Y-117.3
M30
