%TF.GenerationSoftware,KiCad,Pcbnew,10.0.5*%
%TF.CreationDate,2026-08-11T17:36:13+02:00*%
%TF.ProjectId,OpenRX-Mono,4f70656e-5258-42d4-9d6f-6e6f2e6b6963,rev?*%
%TF.SameCoordinates,Original*%
%TF.FileFunction,Copper,L1,Top*%
%TF.FilePolarity,Positive*%
%FSLAX46Y46*%
G04 Gerber Fmt 4.6, Leading zero omitted, Abs format (unit mm)*
G04 Created by KiCad (PCBNEW 10.0.5) date 2026-08-11 17:36:13*
%MOMM*%
%LPD*%
G01*
G04 APERTURE LIST*
G04 Aperture macros list*
%AMRoundRect*
0 Rectangle with rounded corners*
0 $1 Rounding radius*
0 $2 $3 $4 $5 $6 $7 $8 $9 X,Y pos of 4 corners*
0 Add a 4 corners polygon primitive as box body*
4,1,4,$2,$3,$4,$5,$6,$7,$8,$9,$2,$3,0*
0 Add four circle primitives for the rounded corners*
1,1,$1+$1,$2,$3*
1,1,$1+$1,$4,$5*
1,1,$1+$1,$6,$7*
1,1,$1+$1,$8,$9*
0 Add four rect primitives between the rounded corners*
20,1,$1+$1,$2,$3,$4,$5,0*
20,1,$1+$1,$4,$5,$6,$7,0*
20,1,$1+$1,$6,$7,$8,$9,0*
20,1,$1+$1,$8,$9,$2,$3,0*%
%AMRotRect*
0 Rectangle, with rotation*
0 The origin of the aperture is its center*
0 $1 length*
0 $2 width*
0 $3 Rotation angle, in degrees counterclockwise*
0 Add horizontal line*
21,1,$1,$2,0,0,$3*%
G04 Aperture macros list end*
%TA.AperFunction,SMDPad,CuDef*%
%ADD10RoundRect,0.100000X-0.100000X0.130000X-0.100000X-0.130000X0.100000X-0.130000X0.100000X0.130000X0*%
%TD*%
%TA.AperFunction,SMDPad,CuDef*%
%ADD11RoundRect,0.147500X-0.147500X-0.172500X0.147500X-0.172500X0.147500X0.172500X-0.147500X0.172500X0*%
%TD*%
%TA.AperFunction,SMDPad,CuDef*%
%ADD12RoundRect,0.100000X0.130000X0.100000X-0.130000X0.100000X-0.130000X-0.100000X0.130000X-0.100000X0*%
%TD*%
%TA.AperFunction,ComponentPad*%
%ADD13C,0.600000*%
%TD*%
%TA.AperFunction,ComponentPad*%
%ADD14RoundRect,0.475000X-0.475000X-1.775000X0.475000X-1.775000X0.475000X1.775000X-0.475000X1.775000X0*%
%TD*%
%TA.AperFunction,SMDPad,CuDef*%
%ADD15R,0.200000X0.440000*%
%TD*%
%TA.AperFunction,SMDPad,CuDef*%
%ADD16R,0.440000X0.200000*%
%TD*%
%TA.AperFunction,SMDPad,CuDef*%
%ADD17R,0.760000X0.760000*%
%TD*%
%TA.AperFunction,SMDPad,CuDef*%
%ADD18RotRect,0.450000X0.500000X45.000000*%
%TD*%
%TA.AperFunction,SMDPad,CuDef*%
%ADD19RotRect,0.300000X0.300000X45.000000*%
%TD*%
%TA.AperFunction,SMDPad,CuDef*%
%ADD20R,0.450000X0.450000*%
%TD*%
%TA.AperFunction,SMDPad,CuDef*%
%ADD21RoundRect,0.140000X-0.170000X0.140000X-0.170000X-0.140000X0.170000X-0.140000X0.170000X0.140000X0*%
%TD*%
%TA.AperFunction,SMDPad,CuDef*%
%ADD22RoundRect,0.250000X0.250000X-0.275000X0.250000X0.275000X-0.250000X0.275000X-0.250000X-0.275000X0*%
%TD*%
%TA.AperFunction,SMDPad,CuDef*%
%ADD23RoundRect,0.250000X0.275000X-0.850000X0.275000X0.850000X-0.275000X0.850000X-0.275000X-0.850000X0*%
%TD*%
%TA.AperFunction,SMDPad,CuDef*%
%ADD24R,0.280000X0.660000*%
%TD*%
%TA.AperFunction,SMDPad,CuDef*%
%ADD25R,0.660000X0.280000*%
%TD*%
%TA.AperFunction,SMDPad,CuDef*%
%ADD26R,1.700000X1.700000*%
%TD*%
%TA.AperFunction,SMDPad,CuDef*%
%ADD27RoundRect,0.062500X-0.337500X-0.062500X0.337500X-0.062500X0.337500X0.062500X-0.337500X0.062500X0*%
%TD*%
%TA.AperFunction,SMDPad,CuDef*%
%ADD28RoundRect,0.062500X-0.062500X-0.337500X0.062500X-0.337500X0.062500X0.337500X-0.062500X0.337500X0*%
%TD*%
%TA.AperFunction,HeatsinkPad*%
%ADD29R,2.800000X2.800000*%
%TD*%
%TA.AperFunction,SMDPad,CuDef*%
%ADD30RoundRect,0.100000X0.100000X-0.130000X0.100000X0.130000X-0.100000X0.130000X-0.100000X-0.130000X0*%
%TD*%
%TA.AperFunction,SMDPad,CuDef*%
%ADD31R,0.300000X0.600000*%
%TD*%
%TA.AperFunction,SMDPad,CuDef*%
%ADD32R,0.600000X0.300000*%
%TD*%
%TA.AperFunction,SMDPad,CuDef*%
%ADD33R,0.900000X0.700000*%
%TD*%
%TA.AperFunction,SMDPad,CuDef*%
%ADD34RoundRect,0.100000X-0.130000X-0.100000X0.130000X-0.100000X0.130000X0.100000X-0.130000X0.100000X0*%
%TD*%
%TA.AperFunction,ViaPad*%
%ADD35C,0.450000*%
%TD*%
%TA.AperFunction,Conductor*%
%ADD36C,0.250000*%
%TD*%
%TA.AperFunction,Conductor*%
%ADD37C,0.120000*%
%TD*%
%TA.AperFunction,Conductor*%
%ADD38C,0.090000*%
%TD*%
%TA.AperFunction,Conductor*%
%ADD39C,0.200000*%
%TD*%
%TA.AperFunction,Conductor*%
%ADD40C,0.150000*%
%TD*%
%TA.AperFunction,Conductor*%
%ADD41C,0.127000*%
%TD*%
G04 APERTURE END LIST*
D10*
%TO.P,R8,1*%
%TO.N,+3V3*%
X109400000Y-100780000D03*
%TO.P,R8,2*%
%TO.N,/ESP32-C3 + LR1121 Mono/RXEN24*%
X109400000Y-101420000D03*
%TD*%
D11*
%TO.P,L5,1,1_1*%
%TO.N,/ESP32-C3 + LR1121 Mono/VR_PA*%
X102315000Y-107150000D03*
%TO.P,L5,2,2_2*%
%TO.N,Net-(T1-RFO_HP_LF)*%
X103285000Y-107150000D03*
%TD*%
D12*
%TO.P,C13,1*%
%TO.N,GND*%
X102770000Y-113950000D03*
%TO.P,C13,2*%
%TO.N,+3V3*%
X102130000Y-113950000D03*
%TD*%
D13*
%TO.P,TP1,1,1_1*%
%TO.N,Net-(U1-U0RXD)*%
X100690000Y-116100000D03*
X100690000Y-118500000D03*
D14*
X101190000Y-117300000D03*
D13*
X101690000Y-116100000D03*
X101690000Y-118500000D03*
%TD*%
D10*
%TO.P,C26,1*%
%TO.N,+3V3*%
X108900000Y-106730000D03*
%TO.P,C26,2*%
%TO.N,GND*%
X108900000Y-107370000D03*
%TD*%
D12*
%TO.P,C12,1*%
%TO.N,+3V3*%
X101070000Y-109050000D03*
%TO.P,C12,2*%
%TO.N,GND*%
X100430000Y-109050000D03*
%TD*%
D10*
%TO.P,L3,1,1_1*%
%TO.N,Net-(C25-Pad1)*%
X109600000Y-108830000D03*
%TO.P,L3,2,2_2*%
%TO.N,+3V3*%
X109600000Y-109470000D03*
%TD*%
%TO.P,C4,1*%
%TO.N,+3V3*%
X109600000Y-106730000D03*
%TO.P,C4,2*%
%TO.N,GND*%
X109600000Y-107370000D03*
%TD*%
D13*
%TO.P,TP4,1,1_1*%
%TO.N,GND*%
X108310000Y-116100000D03*
X108310000Y-118500000D03*
D14*
X108810000Y-117300000D03*
D13*
X109310000Y-116100000D03*
X109310000Y-118500000D03*
%TD*%
D15*
%TO.P,U5,1,J1_1*%
%TO.N,Net-(T1-TX_HP)*%
X104400000Y-104730000D03*
%TO.P,U5,2,GND_2*%
%TO.N,GND*%
X104900000Y-104730000D03*
%TO.P,U5,3,J3_3*%
%TO.N,Net-(T1-RX)*%
X105400000Y-104730000D03*
D16*
%TO.P,U5,4,V1_4*%
%TO.N,/ESP32-C3 + LR1121 Mono/CTRL1*%
X105830000Y-104300000D03*
%TO.P,U5,5,V2_5*%
%TO.N,/ESP32-C3 + LR1121 Mono/CTRL2*%
X105830000Y-103800000D03*
%TO.P,U5,6,VDD_6*%
%TO.N,+3V3*%
X105830000Y-103300000D03*
D15*
%TO.P,U5,7,GND_7*%
%TO.N,GND*%
X105400000Y-102870000D03*
%TO.P,U5,8,GND_8*%
X104900000Y-102870000D03*
%TO.P,U5,9,J2_9*%
%TO.N,Net-(U5-J2)*%
X104400000Y-102870000D03*
D16*
%TO.P,U5,10,GND_10*%
%TO.N,GND*%
X103970000Y-103300000D03*
%TO.P,U5,11,RFC_11*%
%TO.N,Net-(U5-RFC)*%
X103970000Y-103800000D03*
%TO.P,U5,12,GND_12*%
%TO.N,GND*%
X103970000Y-104300000D03*
D17*
%TO.P,U5,13,EP_13*%
X104900000Y-103800000D03*
%TD*%
D18*
%TO.P,FL1,1,IN_1*%
%TO.N,Net-(FL1-IN)*%
X107289878Y-106860122D03*
D19*
%TO.P,FL1,2,GND_2*%
%TO.N,GND*%
X107912132Y-106662132D03*
D18*
%TO.P,FL1,3,OUT_3*%
%TO.N,Net-(FL1-OUT)*%
X108110122Y-106039878D03*
D19*
%TO.P,FL1,4,GND_4*%
%TO.N,GND*%
X107487868Y-106237868D03*
%TD*%
D20*
%TO.P,D1,1,DOUT_1*%
%TO.N,unconnected-(D1-DOUT-Pad1)*%
X100430000Y-107480000D03*
%TO.P,D1,2,VDD_2*%
%TO.N,+3V3*%
X101270000Y-107480000D03*
%TO.P,D1,3,GND_3*%
%TO.N,GND*%
X100430000Y-108320000D03*
%TO.P,D1,4,DIN_4*%
%TO.N,/ESP32-C3 + LR1121 Mono/LED*%
X101270000Y-108320000D03*
%TD*%
D21*
%TO.P,C11,1*%
%TO.N,+3V3*%
X109450000Y-111720000D03*
%TO.P,C11,2*%
%TO.N,GND*%
X109450000Y-112680000D03*
%TD*%
D22*
%TO.P,J1,1,In_1*%
%TO.N,Net-(J1-In)*%
X102200000Y-102825000D03*
D23*
%TO.P,J1,2,Ext_2*%
%TO.N,GND*%
X100725000Y-101300000D03*
X103675000Y-101300000D03*
%TD*%
D10*
%TO.P,R6,1*%
%TO.N,Net-(C7-Pad1)*%
X102200000Y-109780000D03*
%TO.P,R6,2*%
%TO.N,Net-(U3-XTA)*%
X102200000Y-110420000D03*
%TD*%
D13*
%TO.P,TP3,1,1_1*%
%TO.N,+5V*%
X105770000Y-116100000D03*
X105770000Y-118500000D03*
D14*
X106270000Y-117300000D03*
D13*
X106770000Y-116100000D03*
X106770000Y-118500000D03*
%TD*%
D12*
%TO.P,C20,1*%
%TO.N,GND*%
X105420000Y-114200000D03*
%TO.P,C20,2*%
%TO.N,Net-(U3-VREG)*%
X104780000Y-114200000D03*
%TD*%
%TO.P,C22,1*%
%TO.N,+3V3*%
X105720000Y-102250000D03*
%TO.P,C22,2*%
%TO.N,GND*%
X105080000Y-102250000D03*
%TD*%
D24*
%TO.P,U4,1,GND_1*%
%TO.N,GND*%
X107250000Y-104850000D03*
%TO.P,U4,2,GND_2*%
X107750000Y-104850000D03*
%TO.P,U4,3,GND_3*%
X108250000Y-104850000D03*
%TO.P,U4,4,TXRX_4*%
%TO.N,Net-(FL1-OUT)*%
X108750000Y-104850000D03*
D25*
%TO.P,U4,5,TXEN_5*%
%TO.N,/ESP32-C3 + LR1121 Mono/TXEN24*%
X109450000Y-104150000D03*
%TO.P,U4,6,RXEN_6*%
%TO.N,/ESP32-C3 + LR1121 Mono/RXEN24*%
X109450000Y-103650000D03*
%TO.P,U4,7,GND_7*%
%TO.N,GND*%
X109450000Y-103150000D03*
%TO.P,U4,8,GND_8*%
X109450000Y-102650000D03*
D24*
%TO.P,U4,9,GND_9*%
X108750000Y-101950000D03*
%TO.P,U4,10,ANT_10*%
%TO.N,Net-(U4-ANT)*%
X108250000Y-101950000D03*
%TO.P,U4,11,GND_11*%
%TO.N,GND*%
X107750000Y-101950000D03*
%TO.P,U4,12,GND_12*%
X107250000Y-101950000D03*
D25*
%TO.P,U4,13,DNC_13*%
%TO.N,unconnected-(U4-DNC-Pad13)*%
X106550000Y-102650000D03*
%TO.P,U4,14,VDD_14*%
%TO.N,unconnected-(U4-VDD-Pad14)*%
X106550000Y-103150000D03*
%TO.P,U4,15,GND_15*%
%TO.N,GND*%
X106550000Y-103650000D03*
%TO.P,U4,16,VDD_16*%
%TO.N,+3V3*%
X106550000Y-104150000D03*
D26*
%TO.P,U4,17,EP_17*%
%TO.N,GND*%
X108000000Y-103400000D03*
%TD*%
D27*
%TO.P,U3,1,VR_PA_1*%
%TO.N,/ESP32-C3 + LR1121 Mono/VR_PA*%
X103200000Y-109000000D03*
%TO.P,U3,2,VBAT_RF_2*%
%TO.N,+3V3*%
X103200000Y-109500000D03*
%TO.P,U3,3,VTCXO_3*%
%TO.N,unconnected-(U3-VTCXO-Pad3)*%
X103200000Y-110000000D03*
%TO.P,U3,4,XTA_4*%
%TO.N,Net-(U3-XTA)*%
X103200000Y-110500000D03*
%TO.P,U3,6,NRESET_6*%
%TO.N,/ESP32-C3 + LR1121 Mono/RST*%
X103200000Y-111500000D03*
%TO.P,U3,7,32k_P/DIO11_7*%
%TO.N,unconnected-(U3-32k_P{slash}DIO11-Pad7)*%
X103200000Y-112000000D03*
%TO.P,U3,8,32k_N/DIO10_8*%
%TO.N,unconnected-(U3-32k_N{slash}DIO10-Pad8)*%
X103200000Y-112500000D03*
D28*
%TO.P,U3,9,DIO9_9*%
%TO.N,/ESP32-C3 + LR1121 Mono/DIO1*%
X103900000Y-113200000D03*
%TO.P,U3,10,DIO8_10*%
%TO.N,/ESP32-C3 + LR1121 Mono/CTRL2*%
X104400000Y-113200000D03*
%TO.P,U3,11,DIO7_11*%
%TO.N,/ESP32-C3 + LR1121 Mono/CTRL1*%
X104900000Y-113200000D03*
%TO.P,U3,12,VREG_12*%
%TO.N,Net-(U3-VREG)*%
X105400000Y-113200000D03*
%TO.P,U3,13,GND_13*%
%TO.N,GND*%
X105900000Y-113200000D03*
%TO.P,U3,14,DCC_SW_14*%
%TO.N,Net-(U3-DCC_SW)*%
X106400000Y-113200000D03*
%TO.P,U3,15,VBAT_15*%
%TO.N,+3V3*%
X106900000Y-113200000D03*
%TO.P,U3,16,DNC_16*%
%TO.N,unconnected-(U3-DNC-Pad16)*%
X107400000Y-113200000D03*
D27*
%TO.P,U3,19,DIO6_19*%
%TO.N,/ESP32-C3 + LR1121 Mono/TXEN24*%
X108100000Y-111500000D03*
%TO.P,U3,20,DIO5_20*%
%TO.N,/ESP32-C3 + LR1121 Mono/RXEN24*%
X108100000Y-111000000D03*
%TO.P,U3,21,DIO4_21*%
%TO.N,/ESP32-C3 + LR1121 Mono/MISO*%
X108100000Y-110500000D03*
%TO.P,U3,22,DIO3_22*%
%TO.N,/ESP32-C3 + LR1121 Mono/MOSI*%
X108100000Y-110000000D03*
%TO.P,U3,23,DIO2_23*%
%TO.N,/ESP32-C3 + LR1121 Mono/SCK*%
X108100000Y-109500000D03*
%TO.P,U3,24,DIO1_24*%
%TO.N,/ESP32-C3 + LR1121 Mono/NSS*%
X108100000Y-109000000D03*
D28*
%TO.P,U3,25,DIO0/BUSY_25*%
%TO.N,/ESP32-C3 + LR1121 Mono/BUSY*%
X107400000Y-108300000D03*
%TO.P,U3,26,RFIO_HF_26*%
%TO.N,Net-(FL1-IN)*%
X106900000Y-108300000D03*
%TO.P,U3,27,DNC_27*%
%TO.N,unconnected-(U3-DNC-Pad27)*%
X106400000Y-108300000D03*
%TO.P,U3,28,DNC_28*%
%TO.N,unconnected-(U3-DNC-Pad28)*%
X105900000Y-108300000D03*
%TO.P,U3,29,RFI_N_LF0_29*%
%TO.N,Net-(T1-RFI_N_LFO)*%
X105400000Y-108300000D03*
%TO.P,U3,30,RFI_P_LF0_30*%
%TO.N,Net-(T1-RFI_P_LFO)*%
X104900000Y-108300000D03*
%TO.P,U3,31,RFO_LP_LF_31*%
%TO.N,Net-(T1-RFO_LP_LF)*%
X104400000Y-108300000D03*
%TO.P,U3,32,RFO_HP_LF_32*%
%TO.N,Net-(T1-RFO_HP_LF)*%
X103900000Y-108300000D03*
D29*
%TO.P,U3,33,EP_33*%
%TO.N,GND*%
X105650000Y-110750000D03*
%TD*%
D30*
%TO.P,R7,1*%
%TO.N,GND*%
X109600000Y-105970000D03*
%TO.P,R7,2*%
%TO.N,/ESP32-C3 + LR1121 Mono/TXEN24*%
X109600000Y-105330000D03*
%TD*%
D12*
%TO.P,C23,1*%
%TO.N,Net-(U4-ANT)*%
X107070000Y-101150000D03*
%TO.P,C23,2*%
%TO.N,Net-(U5-J2)*%
X106430000Y-101150000D03*
%TD*%
D13*
%TO.P,TP2,1,1_1*%
%TO.N,Net-(U1-U0TXD)*%
X103230000Y-116100000D03*
X103230000Y-118500000D03*
D14*
X103730000Y-117300000D03*
D13*
X104230000Y-116100000D03*
X104230000Y-118500000D03*
%TD*%
D12*
%TO.P,C7,1*%
%TO.N,Net-(C7-Pad1)*%
X101470000Y-109800000D03*
%TO.P,C7,2*%
%TO.N,Net-(OSC1-OutPut)*%
X100830000Y-109800000D03*
%TD*%
%TO.P,C25,1*%
%TO.N,Net-(C25-Pad1)*%
X109420000Y-108100000D03*
%TO.P,C25,2*%
%TO.N,GND*%
X108780000Y-108100000D03*
%TD*%
D10*
%TO.P,C2,1*%
%TO.N,/ESP32-C3 + LR1121 Mono/VR_PA*%
X102200000Y-108030000D03*
%TO.P,C2,2*%
%TO.N,GND*%
X102200000Y-108670000D03*
%TD*%
%TO.P,C9,1*%
%TO.N,+3V3*%
X109600000Y-110230000D03*
%TO.P,C9,2*%
%TO.N,GND*%
X109600000Y-110870000D03*
%TD*%
D31*
%TO.P,T1,1,RFO_HP_LF_1*%
%TO.N,Net-(T1-RFO_HP_LF)*%
X104050000Y-107100000D03*
%TO.P,T1,2,RFO_LP_LF_2*%
%TO.N,Net-(T1-RFO_LP_LF)*%
X104550000Y-107100000D03*
%TO.P,T1,3,RFI_P_LFO_3*%
%TO.N,Net-(T1-RFI_P_LFO)*%
X105050000Y-107100000D03*
%TO.P,T1,4,RFI_N_LFO_4*%
%TO.N,Net-(T1-RFI_N_LFO)*%
X105550000Y-107100000D03*
D32*
%TO.P,T1,5,GND_5*%
%TO.N,GND*%
X105800000Y-106350000D03*
D31*
%TO.P,T1,6,RX_6*%
%TO.N,Net-(T1-RX)*%
X105550000Y-105600000D03*
%TO.P,T1,7,GND_7*%
%TO.N,GND*%
X105050000Y-105600000D03*
%TO.P,T1,8,TX_LP_8*%
%TO.N,unconnected-(T1-TX_LP-Pad8)*%
X104550000Y-105600000D03*
%TO.P,T1,9,TX_HP_9*%
%TO.N,Net-(T1-TX_HP)*%
X104050000Y-105600000D03*
D32*
%TO.P,T1,10,GND_10*%
%TO.N,GND*%
X103800000Y-106350000D03*
%TD*%
D33*
%TO.P,OSC1,1,GND_1*%
%TO.N,GND*%
X101950000Y-113100000D03*
%TO.P,OSC1,2,GND_2*%
X101950000Y-111300000D03*
%TO.P,OSC1,3,OutPut_3*%
%TO.N,Net-(OSC1-OutPut)*%
X100750000Y-111300000D03*
%TO.P,OSC1,4,VDD_4*%
%TO.N,+3V3*%
X100750000Y-113100000D03*
%TD*%
D34*
%TO.P,R1,1*%
%TO.N,/ESP32-C3 + LR1121 Mono/VR_PA*%
X102330000Y-106300000D03*
%TO.P,R1,2*%
%TO.N,Net-(T1-RFO_HP_LF)*%
X102970000Y-106300000D03*
%TD*%
D12*
%TO.P,C24,1*%
%TO.N,Net-(U5-RFC)*%
X103320000Y-103800000D03*
%TO.P,C24,2*%
%TO.N,Net-(J1-In)*%
X102680000Y-103800000D03*
%TD*%
D35*
%TO.N,+3V3*%
X100640000Y-110634998D03*
X106664117Y-104105000D03*
X103200000Y-111000000D03*
X107045926Y-113778663D03*
X108750000Y-106558993D03*
X109400000Y-100780000D03*
X101225000Y-107525000D03*
X107630000Y-114250000D03*
X109535000Y-111720000D03*
X102880000Y-109500000D03*
X108186977Y-112746195D03*
X100610000Y-112100000D03*
X102790441Y-113090441D03*
X105720000Y-102250000D03*
%TO.N,/ESP32-C3 + LR1121 Mono/RXEN24*%
X108988068Y-113171425D03*
X109575000Y-103605002D03*
%TO.N,/ESP32-C3 + LR1121 Mono/VR_PA*%
X103498651Y-108808267D03*
X102315000Y-107650000D03*
%TO.N,GND*%
X107600000Y-103950000D03*
X104950000Y-102300000D03*
X109575000Y-102550000D03*
X102589860Y-108460140D03*
X108600000Y-102550000D03*
X107594203Y-107607471D03*
X100450000Y-100950000D03*
X104900000Y-102870000D03*
X103500000Y-105000000D03*
X104000000Y-102250000D03*
X106800000Y-109800000D03*
X106060000Y-112050000D03*
X100430000Y-109050000D03*
X108200000Y-113450000D03*
X109240001Y-104674112D03*
X103800000Y-106350000D03*
X108653647Y-101447616D03*
X104700000Y-111850000D03*
X103950000Y-103000000D03*
X105750000Y-106350000D03*
X104700000Y-100771500D03*
X100500000Y-102200000D03*
X104393017Y-101528500D03*
X107700000Y-100750000D03*
X102650000Y-114650000D03*
X102500000Y-104750000D03*
X105450000Y-100771500D03*
X102153990Y-104029207D03*
X103375000Y-100500000D03*
X104750000Y-106350000D03*
X107550000Y-115150000D03*
X103214029Y-103285000D03*
X108596185Y-112393844D03*
X109450000Y-103050000D03*
X109575000Y-110880000D03*
X100800000Y-100425000D03*
X105200000Y-101800000D03*
X106129214Y-100669685D03*
X105850000Y-109450000D03*
X106368228Y-101665000D03*
X109535000Y-112680000D03*
X106899549Y-100636491D03*
X103100000Y-102700000D03*
X104308667Y-109410000D03*
X103350000Y-107900000D03*
X100800000Y-101300000D03*
X107600000Y-103250000D03*
X101350000Y-114550000D03*
X108330395Y-100963525D03*
X102850000Y-105750000D03*
X100450000Y-101700000D03*
X104850000Y-115050000D03*
X103450000Y-101600000D03*
X107880785Y-105452947D03*
X107250000Y-102650000D03*
X106800000Y-102150000D03*
X101642312Y-112439453D03*
X108277195Y-106864884D03*
X103850000Y-100771500D03*
X107750000Y-104850000D03*
X105703107Y-101545922D03*
X101650000Y-109250000D03*
X106340000Y-107378666D03*
X107700000Y-101700000D03*
X104250000Y-100450000D03*
X106200000Y-109050000D03*
%TO.N,Net-(U1-U0RXD)*%
X106267703Y-106820059D03*
%TO.N,Net-(C25-Pad1)*%
X109305147Y-107867950D03*
%TO.N,/ESP32-C3 + LR1121 Mono/CTRL1*%
X106795000Y-105035883D03*
X104200000Y-114400000D03*
X102232928Y-112432343D03*
%TO.N,/ESP32-C3 + LR1121 Mono/CTRL2*%
X105830000Y-103810000D03*
X103666266Y-114488017D03*
X102485000Y-111954785D03*
%TO.N,/ESP32-C3 + LR1121 Mono/LED*%
X101290000Y-108310000D03*
%TO.N,+5V*%
X100610000Y-114250000D03*
%TO.N,Net-(U3-VREG)*%
X105400000Y-113200000D03*
%TO.N,/ESP32-C3 + LR1121 Mono/TXEN24*%
X107726432Y-112464240D03*
X109350919Y-104145623D03*
%TO.N,/ESP32-C3 + LR1121 Mono/RST*%
X101685000Y-110325003D03*
X108995000Y-109314671D03*
%TO.N,/ESP32-C3 + LR1121 Mono/DIO1*%
X104094999Y-112424228D03*
X108984820Y-108768956D03*
%TO.N,Net-(U3-DCC_SW)*%
X106340000Y-113100000D03*
%TO.N,/ESP32-C3 + LR1121 Mono/MISO*%
X108117211Y-110489096D03*
%TO.N,/ESP32-C3 + LR1121 Mono/MOSI*%
X108815000Y-111004297D03*
%TO.N,/ESP32-C3 + LR1121 Mono/SCK*%
X107574001Y-111890246D03*
%TO.N,/ESP32-C3 + LR1121 Mono/NSS*%
X106450000Y-112465002D03*
%TO.N,/ESP32-C3 + LR1121 Mono/BUSY*%
X108999957Y-110353389D03*
%TO.N,Net-(U1-U0TXD)*%
X106700000Y-106150000D03*
%TO.N,/ESP32-C3 + LR1121 Mono/BOOT*%
X108270000Y-114250000D03*
X105350000Y-112465002D03*
X109250000Y-114350000D03*
%TO.N,/ESP32-C3 + LR1121 Mono/CHIP_EN*%
X109145333Y-109833323D03*
X103620000Y-113950000D03*
%TD*%
%TO.N,+3V3*%
D36*
X109600000Y-106730000D02*
X108900000Y-106730000D01*
D37*
X109600000Y-110283676D02*
X109600000Y-110230000D01*
D38*
X100750000Y-112240000D02*
X100610000Y-112100000D01*
D39*
X105720000Y-102250000D02*
X105720000Y-103190000D01*
D36*
X109600000Y-110230000D02*
X109600000Y-109470000D01*
X108900000Y-106708993D02*
X108900000Y-106730000D01*
D37*
X109450000Y-111720000D02*
X109190000Y-111460000D01*
D38*
X102130000Y-113950000D02*
X101600000Y-113950000D01*
D40*
X101070000Y-109050000D02*
X100880000Y-108860000D01*
D36*
X108750000Y-106558993D02*
X108900000Y-106708993D01*
X106900000Y-113628115D02*
X106900000Y-113200000D01*
X107045926Y-113778663D02*
X107045926Y-113774041D01*
D40*
X100880000Y-108860000D02*
X100880000Y-107870000D01*
D38*
X100750000Y-113100000D02*
X100750000Y-112240000D01*
D39*
X105720000Y-103190000D02*
X105830000Y-103300000D01*
D37*
X109190000Y-110693676D02*
X109600000Y-110283676D01*
D40*
X100880000Y-107870000D02*
X101225000Y-107525000D01*
D37*
X109190000Y-111460000D02*
X109190000Y-110693676D01*
D38*
X101600000Y-113950000D02*
X100750000Y-113100000D01*
D36*
X107045926Y-113774041D02*
X106900000Y-113628115D01*
D40*
X101225000Y-107525000D02*
X101270000Y-107480000D01*
%TO.N,/ESP32-C3 + LR1121 Mono/RXEN24*%
D38*
X108100000Y-111000000D02*
X108281040Y-111000000D01*
X109400000Y-102000000D02*
X109400000Y-101420000D01*
X109260000Y-103650000D02*
X108985000Y-103375000D01*
X109450000Y-103650000D02*
X109260000Y-103650000D01*
X109550000Y-103605002D02*
X109575000Y-103605002D01*
X108985000Y-103375000D02*
X108985000Y-102415000D01*
X108281040Y-111000000D02*
X108988068Y-111707028D01*
X109450000Y-103650000D02*
X109456106Y-103643894D01*
X108988068Y-111707028D02*
X108988068Y-113171425D01*
X108985000Y-102415000D02*
X109400000Y-102000000D01*
X109456106Y-103643894D02*
G75*
G02*
X109550000Y-103605005I93894J-93906D01*
G01*
%TO.N,/ESP32-C3 + LR1121 Mono/VR_PA*%
D41*
X102315000Y-107650000D02*
X102315000Y-107150000D01*
D38*
X103200000Y-109000000D02*
X103306918Y-109000000D01*
X103306918Y-109000000D02*
X103498651Y-108808267D01*
D41*
X102330000Y-106300000D02*
X102330000Y-107135000D01*
X102330000Y-107135000D02*
X102315000Y-107150000D01*
%TO.N,Net-(T1-RFO_HP_LF)*%
X103285000Y-107150000D02*
X104000000Y-107150000D01*
X102970000Y-106300000D02*
X102970000Y-106835000D01*
X104000000Y-107150000D02*
X104050000Y-107100000D01*
X102970000Y-106835000D02*
X103285000Y-107150000D01*
X103900000Y-108300000D02*
X104050000Y-107100000D01*
%TO.N,GND*%
D39*
X109585000Y-110870000D02*
X109575000Y-110880000D01*
D38*
X105050000Y-105600000D02*
X105050000Y-105750000D01*
X105800000Y-106350000D02*
X104750000Y-106350000D01*
X104900000Y-105450000D02*
X105050000Y-105600000D01*
X104750000Y-106350000D02*
X103800000Y-106350000D01*
X104900000Y-104730000D02*
X104900000Y-105450000D01*
X105050000Y-105750000D02*
X105650000Y-106350000D01*
D36*
X105900000Y-113200000D02*
X105900000Y-113720000D01*
D39*
X109600000Y-110870000D02*
X109585000Y-110870000D01*
D38*
X105050000Y-105750000D02*
X104450000Y-106350000D01*
D36*
X105900000Y-113720000D02*
X105420000Y-114200000D01*
D38*
X100430000Y-109050000D02*
X100430000Y-108320000D01*
X105650000Y-106350000D02*
X105800000Y-106350000D01*
X104450000Y-106350000D02*
X103800000Y-106350000D01*
X104900000Y-103800000D02*
X104900000Y-104730000D01*
%TO.N,Net-(C25-Pad1)*%
D39*
X109600000Y-108280000D02*
X109420000Y-108100000D01*
X109600000Y-108830000D02*
X109600000Y-108280000D01*
X109420000Y-107982803D02*
X109305147Y-107867950D01*
X109420000Y-108100000D02*
X109420000Y-107982803D01*
%TO.N,Net-(T1-TX_HP)*%
D41*
X104050000Y-105600000D02*
X104400000Y-104730000D01*
%TO.N,Net-(T1-RX)*%
X105400000Y-104730000D02*
X105550000Y-105600000D01*
%TO.N,/ESP32-C3 + LR1121 Mono/CTRL1*%
D38*
X104200000Y-114214890D02*
X104200000Y-114400000D01*
X104900000Y-113200000D02*
X104900000Y-113514890D01*
X106565883Y-105035883D02*
X105830000Y-104300000D01*
X106795000Y-105035883D02*
X106565883Y-105035883D01*
X104900000Y-113514890D02*
X104200000Y-114214890D01*
%TO.N,/ESP32-C3 + LR1121 Mono/CTRL2*%
X103666266Y-114488017D02*
X103666266Y-114412851D01*
X104400000Y-113679117D02*
X104400000Y-113200000D01*
X103666266Y-114412851D02*
X104400000Y-113679117D01*
X105830000Y-103810000D02*
X105830000Y-103800000D01*
%TO.N,Net-(U5-J2)*%
D41*
X104400000Y-102870000D02*
X104400000Y-102650000D01*
X105900000Y-101150000D02*
X106430000Y-101150000D01*
X104400000Y-102650000D02*
G75*
G02*
X105900000Y-101150000I1500000J0D01*
G01*
%TO.N,Net-(U5-RFC)*%
X103170000Y-103800000D02*
X103970000Y-103800000D01*
%TO.N,Net-(FL1-IN)*%
X106900000Y-107801371D02*
X106900004Y-107629207D01*
X106900000Y-108300000D02*
X106900000Y-107801371D01*
X107289878Y-106860122D02*
X107168184Y-106981809D01*
X106900004Y-107629207D02*
G75*
G02*
X107168163Y-106981788I915596J7D01*
G01*
%TO.N,Net-(FL1-OUT)*%
X108750000Y-104850000D02*
X108750000Y-105163326D01*
X108361091Y-105788909D02*
X108582640Y-105567364D01*
X108110122Y-106039878D02*
X108361091Y-105788909D01*
X108582640Y-105567364D02*
G75*
G03*
X108750016Y-105163326I-404040J404064D01*
G01*
%TO.N,Net-(J1-In)*%
X102680000Y-103800000D02*
X102200000Y-102825000D01*
%TO.N,Net-(C7-Pad1)*%
D38*
X101470000Y-109800000D02*
X102180000Y-109800000D01*
X102180000Y-109800000D02*
X102200000Y-109780000D01*
%TO.N,Net-(U3-XTA)*%
X103200000Y-110500000D02*
X102280000Y-110500000D01*
X102280000Y-110500000D02*
X102200000Y-110420000D01*
%TO.N,Net-(U3-VREG)*%
D36*
X104780000Y-114114178D02*
X104780000Y-114200000D01*
X105400000Y-113200000D02*
X105400000Y-113494178D01*
X105400000Y-113494178D02*
X104780000Y-114114178D01*
%TO.N,/ESP32-C3 + LR1121 Mono/TXEN24*%
D38*
X107726432Y-112464240D02*
X108100000Y-112090672D01*
X109600000Y-104300000D02*
X109600000Y-105330000D01*
X109350919Y-104145623D02*
X109445623Y-104145623D01*
X108100000Y-112090672D02*
X108100000Y-111500000D01*
X109445623Y-104145623D02*
X109600000Y-104300000D01*
%TO.N,Net-(U4-ANT)*%
D41*
X108250000Y-101600000D02*
X108250000Y-101950000D01*
X107070000Y-101150000D02*
X107800000Y-101150000D01*
X107800000Y-101150000D02*
G75*
G02*
X108250000Y-101600000I0J-450000D01*
G01*
%TO.N,/ESP32-C3 + LR1121 Mono/RST*%
D38*
X102620000Y-110950000D02*
X102620000Y-111319999D01*
X102470000Y-110800000D02*
X102620000Y-110950000D01*
X102014890Y-110800000D02*
X102470000Y-110800000D01*
X101685000Y-110325003D02*
X101685000Y-110470110D01*
X101685000Y-110470110D02*
X102014890Y-110800000D01*
X102620000Y-111319999D02*
X102800001Y-111500000D01*
X102800001Y-111500000D02*
X103200000Y-111500000D01*
%TO.N,/ESP32-C3 + LR1121 Mono/DIO1*%
X104095000Y-112424229D02*
X104095000Y-113005000D01*
X104094999Y-112424228D02*
X104095000Y-112424229D01*
X104095000Y-113005000D02*
X103900000Y-113200000D01*
%TO.N,Net-(U3-DCC_SW)*%
X106400000Y-113200000D02*
X106400000Y-113160000D01*
X106400000Y-113160000D02*
X106340000Y-113100000D01*
%TO.N,/ESP32-C3 + LR1121 Mono/MOSI*%
X108640000Y-110358960D02*
X108281040Y-110000000D01*
X108815000Y-111004297D02*
X108794455Y-111004297D01*
X108281040Y-110000000D02*
X108100000Y-110000000D01*
X108640000Y-110849842D02*
X108640000Y-110358960D01*
X108794455Y-111004297D02*
X108640000Y-110849842D01*
%TO.N,/ESP32-C3 + LR1121 Mono/SCK*%
X107565000Y-109635727D02*
X107565000Y-111881245D01*
X107565000Y-111881245D02*
X107574001Y-111890246D01*
X107700727Y-109500000D02*
X107565000Y-109635727D01*
X108100000Y-109500000D02*
X107700727Y-109500000D01*
%TO.N,/ESP32-C3 + LR1121 Mono/NSS*%
X107700001Y-109000000D02*
X108100000Y-109000000D01*
X106934998Y-112465002D02*
X107185000Y-112215000D01*
X106450000Y-112465002D02*
X106934998Y-112465002D01*
X107185000Y-109515001D02*
X107700001Y-109000000D01*
X107185000Y-112215000D02*
X107185000Y-109515001D01*
%TO.N,/ESP32-C3 + LR1121 Mono/BUSY*%
X109000000Y-110347569D02*
X109000000Y-110313219D01*
X108081040Y-108300000D02*
X107400000Y-108300000D01*
X108999957Y-110353389D02*
X108999957Y-110347612D01*
X108635000Y-109948219D02*
X108635000Y-108853960D01*
X108635000Y-108853960D02*
X108081040Y-108300000D01*
X108999957Y-110347612D02*
X109000000Y-110347569D01*
X109000000Y-110313219D02*
X108635000Y-109948219D01*
%TO.N,Net-(T1-RFI_N_LFO)*%
D41*
X105400000Y-108300000D02*
X105550000Y-107100000D01*
%TO.N,Net-(T1-RFI_P_LFO)*%
X104900000Y-108300000D02*
X105050000Y-107100000D01*
%TO.N,Net-(T1-RFO_LP_LF)*%
X104400000Y-108300000D02*
X104550000Y-107100000D01*
%TO.N,Net-(OSC1-OutPut)*%
D38*
X101000000Y-111110000D02*
X101000000Y-109970000D01*
X100810000Y-111300000D02*
X101000000Y-111110000D01*
X101000000Y-109970000D02*
X100830000Y-109800000D01*
X100830000Y-109800000D02*
X100830000Y-109750000D01*
X100750000Y-111300000D02*
X100810000Y-111300000D01*
%TD*%
%TA.AperFunction,Conductor*%
%TO.N,Net-(T1-RX)*%
G36*
X105496603Y-104725136D02*
G01*
X105500644Y-104733127D01*
X105500659Y-104733363D01*
X105516922Y-105027350D01*
X105513957Y-105035800D01*
X105507228Y-105039526D01*
X105400831Y-105057871D01*
X105392096Y-105055900D01*
X105388425Y-105051666D01*
X105338557Y-104954111D01*
X105337728Y-104945563D01*
X105397585Y-104736842D01*
X105403160Y-104729835D01*
X105407949Y-104728401D01*
X105488097Y-104722342D01*
X105496603Y-104725136D01*
G37*
%TD.AperFunction*%
%TD*%
%TA.AperFunction,Conductor*%
%TO.N,Net-(FL1-IN)*%
G36*
X106951801Y-107775001D02*
G01*
X106960073Y-107778428D01*
X106963500Y-107786701D01*
X106963500Y-107801371D01*
X107018578Y-107934558D01*
X107018871Y-107942713D01*
X106911105Y-108267528D01*
X106905247Y-108274301D01*
X106896316Y-108274949D01*
X106889543Y-108269091D01*
X106888895Y-108267528D01*
X106856666Y-108170390D01*
X106781128Y-107942711D01*
X106781420Y-107934560D01*
X106836500Y-107801371D01*
X106836500Y-107801370D01*
X106836500Y-107786697D01*
X106839927Y-107778426D01*
X106848199Y-107774999D01*
X106951801Y-107775001D01*
G37*
%TD.AperFunction*%
%TD*%
%TA.AperFunction,Conductor*%
%TO.N,Net-(FL1-OUT)*%
G36*
X108391691Y-105685052D02*
G01*
X108464947Y-105758309D01*
X108468374Y-105766582D01*
X108464947Y-105774855D01*
X108405992Y-105833809D01*
X108426918Y-106026946D01*
X108424402Y-106035540D01*
X108416546Y-106039838D01*
X108415312Y-106039906D01*
X108121167Y-106040558D01*
X108112886Y-106037149D01*
X108109441Y-106028884D01*
X108109441Y-106028832D01*
X108110072Y-105744008D01*
X108110093Y-105734686D01*
X108113538Y-105726422D01*
X108121819Y-105723013D01*
X108123050Y-105723080D01*
X108316190Y-105744008D01*
X108316190Y-105744007D01*
X108319384Y-105741140D01*
X108319617Y-105740580D01*
X108325510Y-105734687D01*
X108375147Y-105685050D01*
X108383418Y-105681625D01*
X108391691Y-105685052D01*
G37*
%TD.AperFunction*%
%TD*%
%TA.AperFunction,Conductor*%
%TO.N,Net-(T1-RFI_P_LFO)*%
G36*
X105057308Y-107121561D02*
G01*
X105058101Y-107122440D01*
X105060361Y-107126147D01*
X105160699Y-107392131D01*
X105161446Y-107396633D01*
X105161333Y-107400183D01*
X105159308Y-107406398D01*
X105062241Y-107548882D01*
X105058984Y-107552081D01*
X105056307Y-107553835D01*
X105048444Y-107555659D01*
X104941401Y-107542278D01*
X104937069Y-107540839D01*
X104934539Y-107539400D01*
X104929713Y-107534160D01*
X104929652Y-107534029D01*
X104928835Y-107531607D01*
X104901401Y-107406398D01*
X104901310Y-107405984D01*
X104901129Y-107402047D01*
X104901595Y-107398289D01*
X104902741Y-107394503D01*
X104902843Y-107394299D01*
X104905687Y-107388596D01*
X105037127Y-107125064D01*
X105039918Y-107121461D01*
X105040946Y-107120567D01*
X105049437Y-107117727D01*
X105057308Y-107121561D01*
G37*
%TD.AperFunction*%
%TD*%
%TA.AperFunction,Conductor*%
%TO.N,Net-(T1-TX_HP)*%
G36*
X104312577Y-104712946D02*
G01*
X104389306Y-104727039D01*
X104393546Y-104728724D01*
X104395788Y-104730175D01*
X104400442Y-104736042D01*
X104400618Y-104736532D01*
X104401264Y-104739489D01*
X104418722Y-104943464D01*
X104418323Y-104947649D01*
X104417234Y-104951496D01*
X104415381Y-104955269D01*
X104339846Y-105057332D01*
X104336467Y-105060401D01*
X104334212Y-105061756D01*
X104326814Y-105063346D01*
X104326238Y-105063278D01*
X104323243Y-105062514D01*
X104258488Y-105036463D01*
X104227095Y-105023833D01*
X104223275Y-105021336D01*
X104221722Y-105019813D01*
X104218242Y-105012249D01*
X104218157Y-105010985D01*
X104218547Y-105007105D01*
X104234237Y-104950000D01*
X104296540Y-104723225D01*
X104298587Y-104719143D01*
X104299861Y-104717505D01*
X104307133Y-104713154D01*
X104308516Y-104712920D01*
X104312577Y-104712946D01*
G37*
%TD.AperFunction*%
%TD*%
%TA.AperFunction,Conductor*%
%TO.N,Net-(U5-J2)*%
G36*
X104439355Y-102469463D02*
G01*
X104441742Y-102475226D01*
X104497742Y-102643226D01*
X104500000Y-102657140D01*
X104500000Y-102706000D01*
X104487113Y-102737113D01*
X104456000Y-102750000D01*
X104344000Y-102750000D01*
X104312887Y-102737113D01*
X104300000Y-102706000D01*
X104300000Y-102657140D01*
X104302258Y-102643226D01*
X104358258Y-102475226D01*
X104380323Y-102449785D01*
X104413914Y-102447398D01*
X104439355Y-102469463D01*
G37*
%TD.AperFunction*%
%TD*%
%TA.AperFunction,Conductor*%
%TO.N,Net-(T1-RFO_LP_LF)*%
G36*
X104515886Y-107782263D02*
G01*
X104520214Y-107783701D01*
X104522112Y-107784780D01*
X104527408Y-107791191D01*
X104527809Y-107792373D01*
X104528429Y-107796210D01*
X104525097Y-108293184D01*
X104524176Y-108297655D01*
X104523483Y-108299297D01*
X104517109Y-108305587D01*
X104515699Y-108306160D01*
X104510660Y-108307004D01*
X104411338Y-108301613D01*
X104406915Y-108300481D01*
X104404574Y-108299359D01*
X104399144Y-108293996D01*
X104398861Y-108293424D01*
X104397856Y-108290435D01*
X104324907Y-107909147D01*
X104324868Y-107904969D01*
X104325154Y-107903300D01*
X104325541Y-107901051D01*
X104326970Y-107897129D01*
X104397425Y-107776750D01*
X104400453Y-107773339D01*
X104402896Y-107771488D01*
X104411410Y-107769204D01*
X104515886Y-107782263D01*
G37*
%TD.AperFunction*%
%TD*%
%TA.AperFunction,Conductor*%
%TO.N,Net-(T1-RFI_P_LFO)*%
G36*
X105015886Y-107782263D02*
G01*
X105020214Y-107783701D01*
X105022112Y-107784780D01*
X105027408Y-107791191D01*
X105027809Y-107792373D01*
X105028429Y-107796210D01*
X105025097Y-108293184D01*
X105024176Y-108297655D01*
X105023483Y-108299297D01*
X105017109Y-108305587D01*
X105015699Y-108306160D01*
X105010660Y-108307004D01*
X104911338Y-108301613D01*
X104906915Y-108300481D01*
X104904574Y-108299359D01*
X104899144Y-108293996D01*
X104898861Y-108293424D01*
X104897856Y-108290435D01*
X104824907Y-107909147D01*
X104824868Y-107904969D01*
X104825154Y-107903300D01*
X104825541Y-107901051D01*
X104826970Y-107897129D01*
X104897425Y-107776750D01*
X104900453Y-107773339D01*
X104902896Y-107771488D01*
X104911410Y-107769204D01*
X105015886Y-107782263D01*
G37*
%TD.AperFunction*%
%TD*%
%TA.AperFunction,Conductor*%
%TO.N,Net-(T1-RFO_LP_LF)*%
G36*
X104557308Y-107121561D02*
G01*
X104558101Y-107122440D01*
X104560361Y-107126147D01*
X104660699Y-107392131D01*
X104661446Y-107396633D01*
X104661333Y-107400183D01*
X104659308Y-107406398D01*
X104562241Y-107548882D01*
X104558984Y-107552081D01*
X104556307Y-107553835D01*
X104548444Y-107555659D01*
X104441401Y-107542278D01*
X104437069Y-107540839D01*
X104434539Y-107539400D01*
X104429713Y-107534160D01*
X104429652Y-107534029D01*
X104428835Y-107531607D01*
X104401401Y-107406398D01*
X104401310Y-107405984D01*
X104401129Y-107402047D01*
X104401595Y-107398289D01*
X104402741Y-107394503D01*
X104402843Y-107394299D01*
X104405687Y-107388596D01*
X104537127Y-107125064D01*
X104539918Y-107121461D01*
X104540946Y-107120567D01*
X104549437Y-107117727D01*
X104557308Y-107121561D01*
G37*
%TD.AperFunction*%
%TD*%
%TA.AperFunction,Conductor*%
%TO.N,Net-(FL1-IN)*%
G36*
X107215694Y-106814995D02*
G01*
X107219979Y-106822200D01*
X107277550Y-107157369D01*
X107275573Y-107166103D01*
X107269164Y-107170619D01*
X107065350Y-107227491D01*
X107057728Y-107227031D01*
X106951581Y-107183066D01*
X106945249Y-107176735D01*
X106944363Y-107171919D01*
X106953706Y-106852534D01*
X106957373Y-106844366D01*
X106964025Y-106841260D01*
X107207077Y-106812562D01*
X107215694Y-106814995D01*
G37*
%TD.AperFunction*%
%TD*%
%TA.AperFunction,Conductor*%
%TO.N,Net-(T1-RFO_HP_LF)*%
G36*
X104053856Y-107117738D02*
G01*
X104059581Y-107124078D01*
X104161521Y-107394309D01*
X104161235Y-107403260D01*
X104160243Y-107405026D01*
X104060930Y-107550807D01*
X104053440Y-107555715D01*
X104049810Y-107555830D01*
X103939093Y-107541990D01*
X103931309Y-107537563D01*
X103929115Y-107532884D01*
X103900883Y-107404032D01*
X103901842Y-107396306D01*
X103902838Y-107394309D01*
X104038165Y-107122985D01*
X104044923Y-107117112D01*
X104053856Y-107117738D01*
G37*
%TD.AperFunction*%
%TD*%
%TA.AperFunction,Conductor*%
%TO.N,Net-(T1-RFI_N_LFO)*%
G36*
X105553856Y-107117738D02*
G01*
X105559581Y-107124078D01*
X105661521Y-107394309D01*
X105661235Y-107403260D01*
X105660243Y-107405026D01*
X105560930Y-107550807D01*
X105553440Y-107555715D01*
X105549810Y-107555830D01*
X105439093Y-107541990D01*
X105431309Y-107537563D01*
X105429115Y-107532884D01*
X105400883Y-107404032D01*
X105401842Y-107396306D01*
X105402838Y-107394309D01*
X105538165Y-107122985D01*
X105544923Y-107117112D01*
X105553856Y-107117738D01*
G37*
%TD.AperFunction*%
%TD*%
%TA.AperFunction,Conductor*%
%TO.N,Net-(FL1-OUT)*%
G36*
X108832645Y-104890920D02*
G01*
X108837421Y-104898347D01*
X108889129Y-105175334D01*
X108887376Y-105183952D01*
X108792675Y-105326620D01*
X108785244Y-105331617D01*
X108779898Y-105331450D01*
X108670924Y-105302245D01*
X108663820Y-105296794D01*
X108663145Y-105295424D01*
X108617760Y-105185939D01*
X108617758Y-105176987D01*
X108618989Y-105174745D01*
X108816346Y-104893768D01*
X108823905Y-104888969D01*
X108832645Y-104890920D01*
G37*
%TD.AperFunction*%
%TD*%
%TA.AperFunction,Conductor*%
%TO.N,Net-(J1-In)*%
G36*
X102626954Y-103080191D02*
G01*
X102657073Y-103095248D01*
X102667828Y-103124889D01*
X102667755Y-103128800D01*
X102664962Y-103143434D01*
X102553147Y-103441602D01*
X102553147Y-103441605D01*
X102550000Y-103450000D01*
X102575972Y-103470777D01*
X102575974Y-103470779D01*
X102575976Y-103470781D01*
X102575977Y-103470782D01*
X102612500Y-103500000D01*
X102730010Y-103594008D01*
X102741063Y-103607138D01*
X102744261Y-103612944D01*
X102747984Y-103646413D01*
X102730880Y-103670270D01*
X102728481Y-103671942D01*
X102717236Y-103677586D01*
X102526660Y-103741112D01*
X102509626Y-103743259D01*
X102502945Y-103742784D01*
X102472832Y-103727732D01*
X102472458Y-103727301D01*
X102461775Y-103701181D01*
X102461654Y-103699222D01*
X102462424Y-103687878D01*
X102464483Y-103677586D01*
X102474205Y-103628974D01*
X102500000Y-103500000D01*
X102453247Y-103470779D01*
X102278101Y-103361313D01*
X102265598Y-103349549D01*
X102258174Y-103339139D01*
X102250000Y-103313594D01*
X102250000Y-103240465D01*
X102253348Y-103223631D01*
X102255032Y-103219563D01*
X102257451Y-103213723D01*
X102274974Y-103193128D01*
X102275744Y-103192652D01*
X102284936Y-103188353D01*
X102604204Y-103081931D01*
X102621224Y-103079784D01*
X102626954Y-103080191D01*
G37*
%TD.AperFunction*%
%TD*%
%TA.AperFunction,Conductor*%
%TO.N,Net-(T1-RFI_N_LFO)*%
G36*
X105515886Y-107782263D02*
G01*
X105520214Y-107783701D01*
X105522112Y-107784780D01*
X105527408Y-107791191D01*
X105527809Y-107792373D01*
X105528429Y-107796210D01*
X105525097Y-108293184D01*
X105524176Y-108297655D01*
X105523483Y-108299297D01*
X105517109Y-108305587D01*
X105515699Y-108306160D01*
X105510660Y-108307004D01*
X105411338Y-108301613D01*
X105406915Y-108300481D01*
X105404574Y-108299359D01*
X105399144Y-108293996D01*
X105398861Y-108293424D01*
X105397856Y-108290435D01*
X105324907Y-107909147D01*
X105324868Y-107904969D01*
X105325154Y-107903300D01*
X105325541Y-107901051D01*
X105326970Y-107897129D01*
X105397425Y-107776750D01*
X105400453Y-107773339D01*
X105402896Y-107771488D01*
X105411410Y-107769204D01*
X105515886Y-107782263D01*
G37*
%TD.AperFunction*%
%TD*%
%TA.AperFunction,Conductor*%
%TO.N,Net-(U5-J2)*%
G36*
X106265781Y-100963354D02*
G01*
X106266519Y-100963812D01*
X106269134Y-100966025D01*
X106422662Y-101140524D01*
X106424951Y-101144473D01*
X106425666Y-101146568D01*
X106425405Y-101154818D01*
X106424946Y-101155928D01*
X106422919Y-101159182D01*
X106269187Y-101333914D01*
X106265562Y-101336686D01*
X106263170Y-101337861D01*
X106255712Y-101338832D01*
X106255188Y-101338727D01*
X106252318Y-101337751D01*
X106008618Y-101217743D01*
X106004995Y-101214966D01*
X106002908Y-101212589D01*
X106000000Y-101204870D01*
X106000000Y-101096106D01*
X106000889Y-101091632D01*
X106002101Y-101088704D01*
X106007738Y-101082688D01*
X106245979Y-100965368D01*
X106247006Y-100964923D01*
X106248075Y-100964522D01*
X106249136Y-100964180D01*
X106250992Y-100963684D01*
X106251337Y-100963484D01*
X106255658Y-100962015D01*
X106258085Y-100961695D01*
X106265781Y-100963354D01*
G37*
%TD.AperFunction*%
%TD*%
%TA.AperFunction,Conductor*%
%TO.N,Net-(T1-RX)*%
G36*
X105536922Y-105144600D02*
G01*
X105539644Y-105147286D01*
X105646956Y-105295132D01*
X105649042Y-105303841D01*
X105648587Y-105305705D01*
X105559112Y-105574154D01*
X105553245Y-105580919D01*
X105544312Y-105581554D01*
X105537548Y-105575688D01*
X105401438Y-105302882D01*
X105400239Y-105296789D01*
X105409535Y-105172079D01*
X105413568Y-105164084D01*
X105419215Y-105161419D01*
X105528189Y-105142629D01*
X105536922Y-105144600D01*
G37*
%TD.AperFunction*%
%TD*%
%TA.AperFunction,Conductor*%
%TO.N,Net-(U5-RFC)*%
G36*
X103496303Y-103611569D02*
G01*
X103743470Y-103733284D01*
X103749377Y-103740012D01*
X103750000Y-103743779D01*
X103750000Y-103856220D01*
X103746573Y-103864493D01*
X103743469Y-103866716D01*
X103496303Y-103988430D01*
X103487367Y-103989011D01*
X103482350Y-103985662D01*
X103377698Y-103866716D01*
X103325798Y-103807727D01*
X103322907Y-103799254D01*
X103325799Y-103792272D01*
X103482352Y-103614335D01*
X103490388Y-103610389D01*
X103496303Y-103611569D01*
G37*
%TD.AperFunction*%
%TD*%
%TA.AperFunction,Conductor*%
%TO.N,Net-(U4-ANT)*%
G36*
X107246303Y-100961569D02*
G01*
X107493470Y-101083284D01*
X107499377Y-101090012D01*
X107500000Y-101093779D01*
X107500000Y-101206220D01*
X107496573Y-101214493D01*
X107493469Y-101216716D01*
X107246303Y-101338430D01*
X107237367Y-101339011D01*
X107232350Y-101335662D01*
X107127698Y-101216716D01*
X107075798Y-101157727D01*
X107072907Y-101149254D01*
X107075799Y-101142272D01*
X107232352Y-100964335D01*
X107240388Y-100960389D01*
X107246303Y-100961569D01*
G37*
%TD.AperFunction*%
%TD*%
%TA.AperFunction,Conductor*%
%TO.N,Net-(T1-RFO_HP_LF)*%
G36*
X103906343Y-107006301D02*
G01*
X104042643Y-107141699D01*
X104046097Y-107149961D01*
X104042698Y-107158246D01*
X104042643Y-107158301D01*
X103906343Y-107293698D01*
X103898058Y-107297097D01*
X103892252Y-107295532D01*
X103755855Y-107216876D01*
X103750400Y-107209775D01*
X103750000Y-107206741D01*
X103750000Y-107093258D01*
X103753427Y-107084985D01*
X103755851Y-107083125D01*
X103892254Y-107004466D01*
X103901131Y-107003302D01*
X103906343Y-107006301D01*
G37*
%TD.AperFunction*%
%TD*%
%TA.AperFunction,Conductor*%
%TO.N,Net-(T1-RFO_HP_LF)*%
G36*
X104015886Y-107782263D02*
G01*
X104020214Y-107783701D01*
X104022112Y-107784780D01*
X104027408Y-107791191D01*
X104027809Y-107792373D01*
X104028429Y-107796210D01*
X104025097Y-108293184D01*
X104024176Y-108297655D01*
X104023483Y-108299297D01*
X104017109Y-108305587D01*
X104015699Y-108306160D01*
X104010660Y-108307004D01*
X103911338Y-108301613D01*
X103906915Y-108300481D01*
X103904574Y-108299359D01*
X103899144Y-108293996D01*
X103898861Y-108293424D01*
X103897856Y-108290435D01*
X103824907Y-107909147D01*
X103824868Y-107904969D01*
X103825154Y-107903300D01*
X103825541Y-107901051D01*
X103826970Y-107897129D01*
X103897425Y-107776750D01*
X103900453Y-107773339D01*
X103902896Y-107771488D01*
X103911410Y-107769204D01*
X104015886Y-107782263D01*
G37*
%TD.AperFunction*%
%TD*%
%TA.AperFunction,Conductor*%
%TO.N,Net-(T1-TX_HP)*%
G36*
X104175032Y-105140064D02*
G01*
X104276639Y-105180941D01*
X104283035Y-105187209D01*
X104283761Y-105194008D01*
X104202200Y-105617614D01*
X104197271Y-105625090D01*
X104188561Y-105626903D01*
X104057940Y-105602482D01*
X104050437Y-105597593D01*
X104048495Y-105592548D01*
X104009769Y-105305647D01*
X104012059Y-105296992D01*
X104012977Y-105295926D01*
X104162292Y-105142751D01*
X104170519Y-105139221D01*
X104175032Y-105140064D01*
G37*
%TD.AperFunction*%
%TD*%
%TA.AperFunction,Conductor*%
%TO.N,Net-(U4-ANT)*%
G36*
X108296659Y-101489174D02*
G01*
X108302110Y-101496279D01*
X108309500Y-101523856D01*
X108309782Y-101525235D01*
X108311833Y-101539646D01*
X108311833Y-101539648D01*
X108384688Y-101614540D01*
X108388001Y-101622859D01*
X108387157Y-101627064D01*
X108267242Y-101925192D01*
X108260975Y-101931589D01*
X108252021Y-101931681D01*
X108245695Y-101925575D01*
X108113194Y-101627194D01*
X108112969Y-101618244D01*
X108115463Y-101614330D01*
X108184860Y-101542303D01*
X108184861Y-101542302D01*
X108180513Y-101529719D01*
X108181049Y-101520781D01*
X108187749Y-101514840D01*
X108188537Y-101514598D01*
X108287781Y-101488006D01*
X108296659Y-101489174D01*
G37*
%TD.AperFunction*%
%TD*%
%TA.AperFunction,Conductor*%
%TO.N,Net-(U5-RFC)*%
G36*
X103754349Y-103701968D02*
G01*
X103947441Y-103789340D01*
X103953566Y-103795873D01*
X103953278Y-103804823D01*
X103947441Y-103810660D01*
X103754349Y-103898031D01*
X103745514Y-103898362D01*
X103657688Y-103866306D01*
X103651092Y-103860250D01*
X103650000Y-103855315D01*
X103650000Y-103744684D01*
X103653427Y-103736411D01*
X103657684Y-103733695D01*
X103745514Y-103701637D01*
X103754349Y-103701968D01*
G37*
%TD.AperFunction*%
%TD*%
%TA.AperFunction,Conductor*%
%TO.N,GND*%
G36*
X108014771Y-108438849D02*
G01*
X108029712Y-108445037D01*
X108043989Y-108454575D01*
X108292612Y-108703198D01*
X108302152Y-108717478D01*
X108303964Y-108721854D01*
X108303960Y-108755530D01*
X108280152Y-108779336D01*
X108275776Y-108781149D01*
X108258935Y-108784500D01*
X107747434Y-108784500D01*
X107717678Y-108790418D01*
X107717677Y-108790417D01*
X107702803Y-108793377D01*
X107702802Y-108793377D01*
X107652196Y-108827190D01*
X107652186Y-108827200D01*
X107618378Y-108877800D01*
X107617471Y-108879918D01*
X107617414Y-108879893D01*
X107615406Y-108884699D01*
X107608987Y-108896706D01*
X107601298Y-108907073D01*
X107585129Y-108923244D01*
X107585129Y-108923245D01*
X107121133Y-109387241D01*
X107121127Y-109387243D01*
X107070132Y-109438239D01*
X107070128Y-109438244D01*
X107068955Y-109441079D01*
X107068954Y-109441080D01*
X107049501Y-109488039D01*
X107049500Y-109488044D01*
X107049499Y-109488052D01*
X107049499Y-109548290D01*
X107049500Y-109548308D01*
X107049500Y-112131895D01*
X107046150Y-112148734D01*
X107039961Y-112163675D01*
X107030424Y-112177949D01*
X106897947Y-112310426D01*
X106883673Y-112319963D01*
X106868732Y-112326152D01*
X106851893Y-112329502D01*
X106770232Y-112329502D01*
X106753396Y-112326153D01*
X106741891Y-112321388D01*
X106720582Y-112302666D01*
X106720454Y-112302445D01*
X106715417Y-112293721D01*
X106708651Y-112282001D01*
X106708649Y-112281997D01*
X106703107Y-112272398D01*
X106702635Y-112271520D01*
X106702464Y-112271283D01*
X106673133Y-112241952D01*
X106643725Y-112212543D01*
X106643724Y-112212542D01*
X106643722Y-112212541D01*
X106643721Y-112212540D01*
X106643719Y-112212539D01*
X106642328Y-112211736D01*
X106642323Y-112211729D01*
X106642322Y-112211732D01*
X106601299Y-112188047D01*
X106571782Y-112171005D01*
X106571778Y-112171003D01*
X106571777Y-112171002D01*
X106571778Y-112171002D01*
X106519532Y-112157003D01*
X106491536Y-112149502D01*
X106491534Y-112149502D01*
X106408465Y-112149502D01*
X106408464Y-112149502D01*
X106394324Y-112153291D01*
X106373488Y-112158874D01*
X106328220Y-112171003D01*
X106328214Y-112171006D01*
X106258778Y-112211096D01*
X106256695Y-112212123D01*
X106197121Y-112271697D01*
X106196094Y-112273780D01*
X106156004Y-112343216D01*
X106156001Y-112343221D01*
X106152103Y-112357765D01*
X106152104Y-112357766D01*
X106134500Y-112423466D01*
X106134500Y-112506538D01*
X106142280Y-112535572D01*
X106143937Y-112541757D01*
X106156000Y-112586779D01*
X106156004Y-112586786D01*
X106196053Y-112656151D01*
X106196094Y-112656221D01*
X106197123Y-112658308D01*
X106221799Y-112682985D01*
X106231337Y-112697260D01*
X106233900Y-112703448D01*
X106233899Y-112737124D01*
X106230076Y-112746353D01*
X106226011Y-112753958D01*
X106191607Y-112805449D01*
X106191018Y-112806519D01*
X106180191Y-112822719D01*
X106165611Y-112836374D01*
X106146280Y-112847536D01*
X106146274Y-112847540D01*
X106087122Y-112906693D01*
X106086094Y-112908778D01*
X106046005Y-112978212D01*
X106045979Y-112978263D01*
X106045830Y-112978859D01*
X106024500Y-113058464D01*
X106024500Y-113141536D01*
X106046001Y-113221778D01*
X106046003Y-113221783D01*
X106082016Y-113284159D01*
X106087530Y-113293707D01*
X106087540Y-113293724D01*
X106132046Y-113338229D01*
X106132046Y-113338230D01*
X106132047Y-113338230D01*
X106146299Y-113352482D01*
X106146478Y-113352614D01*
X106147403Y-113353111D01*
X106154923Y-113357453D01*
X106167827Y-113368770D01*
X106175406Y-113378646D01*
X106184500Y-113405433D01*
X106184500Y-113552566D01*
X106189999Y-113580209D01*
X106189999Y-113580218D01*
X106193377Y-113597196D01*
X106193378Y-113597200D01*
X106215869Y-113630861D01*
X106215870Y-113630861D01*
X106227192Y-113647806D01*
X106227196Y-113647810D01*
X106244691Y-113659498D01*
X106244693Y-113659501D01*
X106244694Y-113659500D01*
X106277801Y-113681621D01*
X106277803Y-113681622D01*
X106322434Y-113690500D01*
X106322438Y-113690500D01*
X106477562Y-113690500D01*
X106477566Y-113690500D01*
X106522197Y-113681622D01*
X106572807Y-113647807D01*
X106599054Y-113608523D01*
X106611181Y-113596393D01*
X106615125Y-113593758D01*
X106648149Y-113587181D01*
X106676148Y-113605875D01*
X106677075Y-113607262D01*
X106684500Y-113631721D01*
X106684500Y-113670981D01*
X106710811Y-113734500D01*
X106718724Y-113753604D01*
X106719320Y-113754719D01*
X106727076Y-113773442D01*
X106730426Y-113790281D01*
X106730426Y-113820199D01*
X106732576Y-113828221D01*
X106733384Y-113831238D01*
X106751926Y-113900440D01*
X106755149Y-113906023D01*
X106771591Y-113934500D01*
X106793464Y-113972384D01*
X106852205Y-114031125D01*
X106924148Y-114072662D01*
X107004390Y-114094163D01*
X107004392Y-114094163D01*
X107087460Y-114094163D01*
X107087462Y-114094163D01*
X107167704Y-114072662D01*
X107239647Y-114031125D01*
X107298388Y-113972384D01*
X107339925Y-113900441D01*
X107361426Y-113820199D01*
X107361426Y-113743252D01*
X107364774Y-113726417D01*
X107367337Y-113720228D01*
X107391148Y-113696414D01*
X107391148Y-113696413D01*
X107396196Y-113694323D01*
X107397346Y-113693847D01*
X107414179Y-113690500D01*
X107477562Y-113690500D01*
X107477566Y-113690500D01*
X107522197Y-113681622D01*
X107572807Y-113647807D01*
X107606622Y-113597197D01*
X107615500Y-113552566D01*
X107615500Y-112847434D01*
X107612881Y-112834266D01*
X107612880Y-112817105D01*
X107613271Y-112815140D01*
X107614187Y-112810532D01*
X107632889Y-112782535D01*
X107634006Y-112781789D01*
X107659837Y-112774407D01*
X107660627Y-112774432D01*
X107670599Y-112775908D01*
X107684896Y-112779740D01*
X107684898Y-112779740D01*
X107684899Y-112779740D01*
X107767968Y-112779740D01*
X107767970Y-112779740D01*
X107811593Y-112768050D01*
X107828721Y-112766927D01*
X107835366Y-112767802D01*
X107864525Y-112784637D01*
X107868603Y-112789951D01*
X107876197Y-112805347D01*
X107892978Y-112867973D01*
X107892979Y-112867974D01*
X107892980Y-112867977D01*
X107906303Y-112891053D01*
X107906306Y-112891057D01*
X107934512Y-112939912D01*
X107934516Y-112939917D01*
X107993251Y-112998653D01*
X107993254Y-112998655D01*
X107993256Y-112998657D01*
X108065199Y-113040194D01*
X108145441Y-113061695D01*
X108145443Y-113061695D01*
X108228511Y-113061695D01*
X108228513Y-113061695D01*
X108308755Y-113040194D01*
X108380698Y-112998657D01*
X108439439Y-112939916D01*
X108480976Y-112867973D01*
X108502477Y-112787731D01*
X108502477Y-112704659D01*
X108480976Y-112624417D01*
X108439439Y-112552474D01*
X108380698Y-112493733D01*
X108380697Y-112493732D01*
X108380696Y-112493731D01*
X108308761Y-112452199D01*
X108308753Y-112452195D01*
X108308755Y-112452195D01*
X108256509Y-112438196D01*
X108228513Y-112430695D01*
X108228511Y-112430695D01*
X108145442Y-112430695D01*
X108145441Y-112430695D01*
X108134025Y-112433753D01*
X108101818Y-112442383D01*
X108084686Y-112443505D01*
X108078042Y-112442630D01*
X108048880Y-112425793D01*
X108047095Y-112423467D01*
X108044802Y-112420478D01*
X108037209Y-112405081D01*
X108033371Y-112390756D01*
X108032248Y-112373627D01*
X108033873Y-112361280D01*
X108046383Y-112335912D01*
X108166946Y-112215349D01*
X108166950Y-112215347D01*
X108170560Y-112211737D01*
X108170568Y-112211733D01*
X108170567Y-112211732D01*
X108214870Y-112167429D01*
X108214873Y-112167425D01*
X108220911Y-112152845D01*
X108220913Y-112152839D01*
X108222423Y-112149194D01*
X108235501Y-112117625D01*
X108235501Y-112063719D01*
X108235501Y-112060179D01*
X108235501Y-112059423D01*
X108235500Y-112059367D01*
X108235500Y-111768252D01*
X108238848Y-111751417D01*
X108241411Y-111745228D01*
X108265222Y-111721414D01*
X108265222Y-111721413D01*
X108269590Y-111719604D01*
X108271420Y-111718847D01*
X108288253Y-111715500D01*
X108452562Y-111715500D01*
X108452566Y-111715500D01*
X108497197Y-111706622D01*
X108547807Y-111672807D01*
X108581622Y-111622197D01*
X108585422Y-111603087D01*
X108591989Y-111587235D01*
X108595609Y-111581817D01*
X108623607Y-111563109D01*
X108652933Y-111567458D01*
X108655642Y-111568906D01*
X108666010Y-111576596D01*
X108833492Y-111744078D01*
X108843029Y-111758352D01*
X108849218Y-111773293D01*
X108852568Y-111790132D01*
X108852568Y-112851191D01*
X108849218Y-112868031D01*
X108844453Y-112879533D01*
X108825805Y-112900797D01*
X108794359Y-112918953D01*
X108794348Y-112918961D01*
X108735189Y-112978120D01*
X108734162Y-112980203D01*
X108694072Y-113049639D01*
X108694068Y-113049646D01*
X108690840Y-113061695D01*
X108686412Y-113078222D01*
X108672568Y-113129889D01*
X108672568Y-113212961D01*
X108694069Y-113293203D01*
X108694071Y-113293207D01*
X108694370Y-113293725D01*
X108735606Y-113365146D01*
X108794347Y-113423887D01*
X108866290Y-113465424D01*
X108946532Y-113486925D01*
X108946534Y-113486925D01*
X109029602Y-113486925D01*
X109029604Y-113486925D01*
X109109846Y-113465424D01*
X109181789Y-113423887D01*
X109240530Y-113365146D01*
X109282067Y-113293203D01*
X109303568Y-113212961D01*
X109303568Y-113129889D01*
X109282067Y-113049647D01*
X109240530Y-112977704D01*
X109181789Y-112918963D01*
X109181788Y-112918962D01*
X109181785Y-112918960D01*
X109153146Y-112902424D01*
X109140240Y-112891105D01*
X109132660Y-112881226D01*
X109123568Y-112854441D01*
X109123568Y-112123765D01*
X109126915Y-112106932D01*
X109127248Y-112106128D01*
X109129407Y-112100914D01*
X109153216Y-112077100D01*
X109182833Y-112075645D01*
X109185635Y-112076495D01*
X109185635Y-112076494D01*
X109196088Y-112079666D01*
X109200254Y-112079153D01*
X109257297Y-112090500D01*
X109642702Y-112090499D01*
X109709937Y-112077126D01*
X109709938Y-112077125D01*
X109709939Y-112077125D01*
X109723777Y-112067878D01*
X109739637Y-112061307D01*
X109746026Y-112060036D01*
X109779054Y-112066607D01*
X109796714Y-112090418D01*
X109797605Y-112093355D01*
X109799500Y-112106128D01*
X109799500Y-116894812D01*
X109799364Y-116898258D01*
X109799093Y-116901708D01*
X109798687Y-116905129D01*
X109791368Y-116951341D01*
X109789756Y-116958057D01*
X109787640Y-116964568D01*
X109784998Y-116970944D01*
X109766135Y-117007965D01*
X109762528Y-117013853D01*
X109758508Y-117019386D01*
X109754024Y-117024636D01*
X109724636Y-117054024D01*
X109719386Y-117058508D01*
X109713853Y-117062528D01*
X109707965Y-117066135D01*
X109670944Y-117084998D01*
X109664568Y-117087640D01*
X109658057Y-117089756D01*
X109651341Y-117091368D01*
X109605129Y-117098687D01*
X109601708Y-117099092D01*
X109598258Y-117099364D01*
X109594812Y-117099500D01*
X107363253Y-117099500D01*
X107346415Y-117096151D01*
X107340225Y-117093587D01*
X107316412Y-117069774D01*
X107316411Y-117069771D01*
X107313848Y-117063582D01*
X107310500Y-117046747D01*
X107310500Y-115487932D01*
X107295945Y-115377375D01*
X107238964Y-115239810D01*
X107148320Y-115121680D01*
X107030190Y-115031036D01*
X106892625Y-114974055D01*
X106782068Y-114959500D01*
X105757932Y-114959500D01*
X105647373Y-114974055D01*
X105509808Y-115031036D01*
X105391683Y-115121677D01*
X105391677Y-115121683D01*
X105301036Y-115239808D01*
X105244055Y-115377373D01*
X105229500Y-115487932D01*
X105229500Y-117046747D01*
X105226150Y-117063587D01*
X105223586Y-117069776D01*
X105199776Y-117093586D01*
X105193587Y-117096150D01*
X105176747Y-117099500D01*
X104823253Y-117099500D01*
X104806415Y-117096151D01*
X104800225Y-117093587D01*
X104776412Y-117069774D01*
X104776411Y-117069771D01*
X104773848Y-117063582D01*
X104770500Y-117046747D01*
X104770500Y-115487932D01*
X104755945Y-115377375D01*
X104698964Y-115239810D01*
X104608320Y-115121680D01*
X104490190Y-115031036D01*
X104352625Y-114974055D01*
X104242068Y-114959500D01*
X103217932Y-114959500D01*
X103107373Y-114974055D01*
X102969808Y-115031036D01*
X102851683Y-115121677D01*
X102851677Y-115121683D01*
X102761036Y-115239808D01*
X102704055Y-115377373D01*
X102689500Y-115487932D01*
X102689500Y-117046747D01*
X102686150Y-117063587D01*
X102683586Y-117069776D01*
X102659776Y-117093586D01*
X102653587Y-117096150D01*
X102636747Y-117099500D01*
X102283253Y-117099500D01*
X102266415Y-117096151D01*
X102260225Y-117093587D01*
X102236412Y-117069774D01*
X102236411Y-117069771D01*
X102233848Y-117063582D01*
X102230500Y-117046747D01*
X102230500Y-115487932D01*
X102215945Y-115377375D01*
X102158964Y-115239810D01*
X102068320Y-115121680D01*
X101950190Y-115031036D01*
X101812625Y-114974055D01*
X101702068Y-114959500D01*
X100677932Y-114959500D01*
X100567373Y-114974055D01*
X100429808Y-115031036D01*
X100311679Y-115121680D01*
X100284734Y-115156795D01*
X100271825Y-115168115D01*
X100267723Y-115170483D01*
X100234335Y-115174877D01*
X100207619Y-115154375D01*
X100206394Y-115152253D01*
X100200500Y-115130255D01*
X100200500Y-114208464D01*
X100294500Y-114208464D01*
X100294500Y-114291536D01*
X100316001Y-114371778D01*
X100316003Y-114371782D01*
X100343692Y-114419740D01*
X100357538Y-114443721D01*
X100416279Y-114502462D01*
X100488222Y-114543999D01*
X100568464Y-114565500D01*
X100568466Y-114565500D01*
X100651534Y-114565500D01*
X100651536Y-114565500D01*
X100731778Y-114543999D01*
X100803721Y-114502462D01*
X100862462Y-114443721D01*
X100903999Y-114371778D01*
X100925500Y-114291536D01*
X100925500Y-114208464D01*
X100903999Y-114128222D01*
X100862462Y-114056279D01*
X100803721Y-113997538D01*
X100803720Y-113997537D01*
X100803719Y-113997536D01*
X100731784Y-113956004D01*
X100731776Y-113956000D01*
X100731778Y-113956000D01*
X100679532Y-113942001D01*
X100651536Y-113934500D01*
X100651534Y-113934500D01*
X100568466Y-113934500D01*
X100568464Y-113934500D01*
X100514969Y-113948834D01*
X100488220Y-113956001D01*
X100488214Y-113956004D01*
X100418778Y-113996094D01*
X100416695Y-113997121D01*
X100357121Y-114056695D01*
X100356094Y-114058778D01*
X100316004Y-114128214D01*
X100316002Y-114128218D01*
X100316001Y-114128220D01*
X100316001Y-114128221D01*
X100311848Y-114143720D01*
X100294500Y-114208464D01*
X100200500Y-114208464D01*
X100200500Y-113583263D01*
X100203848Y-113566428D01*
X100203967Y-113566138D01*
X100206411Y-113560238D01*
X100230222Y-113536425D01*
X100230224Y-113536424D01*
X100232037Y-113535673D01*
X100260199Y-113535666D01*
X100260450Y-113534406D01*
X100268298Y-113535966D01*
X100291087Y-113540500D01*
X100971894Y-113540499D01*
X100988730Y-113543848D01*
X101003671Y-113550036D01*
X101017948Y-113559574D01*
X101482062Y-114023688D01*
X101482117Y-114023745D01*
X101514373Y-114056000D01*
X101514373Y-114056001D01*
X101523244Y-114064871D01*
X101523245Y-114064872D01*
X101524547Y-114065411D01*
X101531969Y-114070370D01*
X101540724Y-114072111D01*
X101573048Y-114085501D01*
X101573049Y-114085501D01*
X101632072Y-114085501D01*
X101633424Y-114085501D01*
X101633456Y-114085500D01*
X101767967Y-114085500D01*
X101784801Y-114088848D01*
X101793282Y-114092360D01*
X101815256Y-114112277D01*
X101816798Y-114115163D01*
X101818676Y-114120412D01*
X101818894Y-114120323D01*
X101820553Y-114124330D01*
X101823151Y-114128218D01*
X101823152Y-114128222D01*
X101823154Y-114128222D01*
X101862657Y-114187343D01*
X101925671Y-114229447D01*
X101981238Y-114240500D01*
X101981241Y-114240500D01*
X102278758Y-114240500D01*
X102278762Y-114240500D01*
X102334329Y-114229447D01*
X102397343Y-114187343D01*
X102439447Y-114124329D01*
X102450500Y-114068762D01*
X102450500Y-113908464D01*
X103304500Y-113908464D01*
X103304500Y-113991536D01*
X103313131Y-114023745D01*
X103321774Y-114056001D01*
X103321774Y-114056002D01*
X103326000Y-114071777D01*
X103326002Y-114071781D01*
X103333921Y-114085497D01*
X103333923Y-114085500D01*
X103333924Y-114085501D01*
X103367537Y-114143720D01*
X103367541Y-114143725D01*
X103425796Y-114201979D01*
X103429590Y-114206305D01*
X103436334Y-114215093D01*
X103445053Y-114247614D01*
X103444665Y-114250566D01*
X103432153Y-114275944D01*
X103413808Y-114294289D01*
X103413795Y-114294308D01*
X103372271Y-114366229D01*
X103372245Y-114366280D01*
X103372096Y-114366876D01*
X103365166Y-114392741D01*
X103350766Y-114446481D01*
X103350766Y-114529553D01*
X103372267Y-114609795D01*
X103413804Y-114681738D01*
X103472545Y-114740479D01*
X103544488Y-114782016D01*
X103624730Y-114803517D01*
X103624732Y-114803517D01*
X103707800Y-114803517D01*
X103707802Y-114803517D01*
X103788044Y-114782016D01*
X103859987Y-114740479D01*
X103918728Y-114681738D01*
X103928443Y-114664909D01*
X103939760Y-114652003D01*
X103945077Y-114647924D01*
X103977600Y-114639209D01*
X103980382Y-114639575D01*
X103980559Y-114639599D01*
X104003739Y-114651030D01*
X104003989Y-114650705D01*
X104005626Y-114651961D01*
X104005926Y-114652109D01*
X104006279Y-114652462D01*
X104078222Y-114693999D01*
X104158464Y-114715500D01*
X104158466Y-114715500D01*
X104241534Y-114715500D01*
X104241536Y-114715500D01*
X104321778Y-114693999D01*
X104393721Y-114652462D01*
X104452462Y-114593721D01*
X104493999Y-114521778D01*
X104497864Y-114507350D01*
X104505453Y-114491958D01*
X104509534Y-114486639D01*
X104538693Y-114469803D01*
X104541117Y-114469484D01*
X104571294Y-114476523D01*
X104575664Y-114479442D01*
X104575671Y-114479447D01*
X104631238Y-114490500D01*
X104631241Y-114490500D01*
X104928758Y-114490500D01*
X104928762Y-114490500D01*
X104984329Y-114479447D01*
X105047343Y-114437343D01*
X105089447Y-114374329D01*
X105100500Y-114318762D01*
X105100500Y-114208464D01*
X107314500Y-114208464D01*
X107314500Y-114291536D01*
X107336001Y-114371778D01*
X107336003Y-114371782D01*
X107363692Y-114419740D01*
X107377538Y-114443721D01*
X107436279Y-114502462D01*
X107508222Y-114543999D01*
X107588464Y-114565500D01*
X107588466Y-114565500D01*
X107671534Y-114565500D01*
X107671536Y-114565500D01*
X107751778Y-114543999D01*
X107823721Y-114502462D01*
X107882462Y-114443721D01*
X107907520Y-114400318D01*
X107918840Y-114387412D01*
X107924154Y-114383335D01*
X107956657Y-114374617D01*
X107956879Y-114374646D01*
X107957168Y-114374684D01*
X107982561Y-114387198D01*
X107984010Y-114388647D01*
X107991002Y-114397760D01*
X108017536Y-114443719D01*
X108017538Y-114443721D01*
X108076279Y-114502462D01*
X108148222Y-114543999D01*
X108228464Y-114565500D01*
X108228466Y-114565500D01*
X108311534Y-114565500D01*
X108311536Y-114565500D01*
X108391778Y-114543999D01*
X108463721Y-114502462D01*
X108522462Y-114443721D01*
X108563999Y-114371778D01*
X108580964Y-114308465D01*
X108934500Y-114308465D01*
X108934500Y-114391535D01*
X108946774Y-114437342D01*
X108956001Y-114471778D01*
X108956004Y-114471784D01*
X108960425Y-114479442D01*
X108960427Y-114479445D01*
X108960428Y-114479446D01*
X108997538Y-114543721D01*
X109056279Y-114602462D01*
X109128222Y-114643999D01*
X109208464Y-114665500D01*
X109208466Y-114665500D01*
X109291534Y-114665500D01*
X109291536Y-114665500D01*
X109371778Y-114643999D01*
X109443721Y-114602462D01*
X109502462Y-114543721D01*
X109543999Y-114471778D01*
X109565500Y-114391536D01*
X109565500Y-114308464D01*
X109543999Y-114228222D01*
X109502462Y-114156279D01*
X109443721Y-114097538D01*
X109443720Y-114097537D01*
X109443719Y-114097536D01*
X109371784Y-114056004D01*
X109371777Y-114056000D01*
X109325448Y-114043587D01*
X109291536Y-114034500D01*
X109291534Y-114034500D01*
X109208466Y-114034500D01*
X109208464Y-114034500D01*
X109154969Y-114048834D01*
X109128220Y-114056001D01*
X109128214Y-114056004D01*
X109058778Y-114096094D01*
X109056695Y-114097121D01*
X108997121Y-114156695D01*
X108996094Y-114158778D01*
X108956005Y-114228212D01*
X108956000Y-114228221D01*
X108955673Y-114229446D01*
X108955644Y-114229554D01*
X108938325Y-114294191D01*
X108934500Y-114308465D01*
X108580964Y-114308465D01*
X108585500Y-114291536D01*
X108585500Y-114208464D01*
X108563999Y-114128222D01*
X108522462Y-114056279D01*
X108463721Y-113997538D01*
X108463720Y-113997537D01*
X108463719Y-113997536D01*
X108391784Y-113956004D01*
X108391776Y-113956000D01*
X108391778Y-113956000D01*
X108339532Y-113942001D01*
X108311536Y-113934500D01*
X108311534Y-113934500D01*
X108228466Y-113934500D01*
X108228464Y-113934500D01*
X108174969Y-113948834D01*
X108148220Y-113956001D01*
X108148214Y-113956004D01*
X108078778Y-113996094D01*
X108076695Y-113997121D01*
X108017121Y-114056695D01*
X108016094Y-114058778D01*
X107992481Y-114099677D01*
X107981159Y-114112586D01*
X107975845Y-114116663D01*
X107943342Y-114125381D01*
X107942831Y-114125314D01*
X107917438Y-114112800D01*
X107915989Y-114111351D01*
X107908997Y-114102238D01*
X107907518Y-114099677D01*
X107901266Y-114088848D01*
X107891413Y-114071781D01*
X107891413Y-114071780D01*
X107882464Y-114056282D01*
X107882462Y-114056279D01*
X107823719Y-113997536D01*
X107751784Y-113956004D01*
X107751776Y-113956000D01*
X107751778Y-113956000D01*
X107699532Y-113942001D01*
X107671536Y-113934500D01*
X107671534Y-113934500D01*
X107588466Y-113934500D01*
X107588464Y-113934500D01*
X107534969Y-113948834D01*
X107508220Y-113956001D01*
X107508214Y-113956004D01*
X107438778Y-113996094D01*
X107436695Y-113997121D01*
X107377121Y-114056695D01*
X107376094Y-114058778D01*
X107336004Y-114128214D01*
X107336002Y-114128218D01*
X107336001Y-114128220D01*
X107336001Y-114128221D01*
X107331848Y-114143720D01*
X107314500Y-114208464D01*
X105100500Y-114208464D01*
X105100500Y-114125417D01*
X105103847Y-114108584D01*
X105110037Y-114093637D01*
X105119572Y-114079367D01*
X105504620Y-113694318D01*
X105511284Y-113688850D01*
X105516609Y-113685293D01*
X105516922Y-113685146D01*
X105522196Y-113681622D01*
X105522197Y-113681622D01*
X105572807Y-113647807D01*
X105606622Y-113597197D01*
X105615500Y-113552566D01*
X105615500Y-113457661D01*
X105618849Y-113440825D01*
X105625037Y-113425884D01*
X105634578Y-113411605D01*
X105640242Y-113405941D01*
X105646251Y-113399932D01*
X105652462Y-113393721D01*
X105693999Y-113321778D01*
X105715500Y-113241536D01*
X105715500Y-113158464D01*
X105693999Y-113078222D01*
X105652462Y-113006279D01*
X105634575Y-112988392D01*
X105625037Y-112974115D01*
X105618849Y-112959174D01*
X105615500Y-112942338D01*
X105615500Y-112847437D01*
X105615500Y-112847435D01*
X105615500Y-112847434D01*
X105606622Y-112802803D01*
X105606620Y-112802800D01*
X105606621Y-112802800D01*
X105573985Y-112753955D01*
X105569919Y-112746349D01*
X105569065Y-112744287D01*
X105566097Y-112737120D01*
X105566097Y-112703448D01*
X105566850Y-112701631D01*
X105568660Y-112697259D01*
X105578196Y-112682987D01*
X105602462Y-112658723D01*
X105643999Y-112586780D01*
X105665500Y-112506538D01*
X105665500Y-112423466D01*
X105643999Y-112343224D01*
X105602462Y-112271281D01*
X105543721Y-112212540D01*
X105543720Y-112212539D01*
X105543719Y-112212538D01*
X105471784Y-112171006D01*
X105471776Y-112171002D01*
X105471778Y-112171002D01*
X105419532Y-112157003D01*
X105391536Y-112149502D01*
X105391534Y-112149502D01*
X105308465Y-112149502D01*
X105308464Y-112149502D01*
X105294324Y-112153291D01*
X105273488Y-112158874D01*
X105228220Y-112171003D01*
X105228214Y-112171006D01*
X105158778Y-112211096D01*
X105156695Y-112212123D01*
X105097121Y-112271697D01*
X105096094Y-112273780D01*
X105056004Y-112343216D01*
X105056001Y-112343221D01*
X105052103Y-112357765D01*
X105052104Y-112357766D01*
X105034500Y-112423466D01*
X105034500Y-112506538D01*
X105042280Y-112535572D01*
X105043937Y-112541757D01*
X105056000Y-112586779D01*
X105056004Y-112586786D01*
X105096053Y-112656151D01*
X105096094Y-112656221D01*
X105097122Y-112658306D01*
X105097537Y-112658721D01*
X105097537Y-112658722D01*
X105106946Y-112668131D01*
X105116488Y-112682418D01*
X105117592Y-112685086D01*
X105117580Y-112718762D01*
X105093758Y-112742566D01*
X105064135Y-112744005D01*
X105063789Y-112743900D01*
X105052149Y-112738390D01*
X105034117Y-112726342D01*
X105025801Y-112720786D01*
X105023548Y-112718937D01*
X105020846Y-112717818D01*
X105017945Y-112717532D01*
X105003652Y-112714689D01*
X104977569Y-112709500D01*
X104977566Y-112709500D01*
X104822434Y-112709500D01*
X104792678Y-112715418D01*
X104792677Y-112715417D01*
X104777803Y-112718377D01*
X104777802Y-112718377D01*
X104727196Y-112752190D01*
X104727190Y-112752196D01*
X104690588Y-112806976D01*
X104689312Y-112809674D01*
X104685660Y-112815140D01*
X104657660Y-112833850D01*
X104624631Y-112827281D01*
X104610366Y-112805938D01*
X104608280Y-112806803D01*
X104606622Y-112802804D01*
X104606622Y-112802803D01*
X104572807Y-112752193D01*
X104555861Y-112740870D01*
X104522198Y-112718378D01*
X104513270Y-112716602D01*
X104513265Y-112716601D01*
X104477571Y-112709500D01*
X104477566Y-112709500D01*
X104370889Y-112709500D01*
X104354051Y-112706151D01*
X104349674Y-112704338D01*
X104325861Y-112680525D01*
X104325859Y-112646854D01*
X104327248Y-112643500D01*
X104327672Y-112642475D01*
X104337213Y-112628197D01*
X104347458Y-112617952D01*
X104347461Y-112617949D01*
X104388998Y-112546006D01*
X104410499Y-112465764D01*
X104410499Y-112382692D01*
X104388998Y-112302450D01*
X104388995Y-112302445D01*
X104388994Y-112302442D01*
X104364046Y-112259232D01*
X104347461Y-112230507D01*
X104288720Y-112171766D01*
X104288719Y-112171765D01*
X104288718Y-112171764D01*
X104216783Y-112130232D01*
X104216775Y-112130228D01*
X104216775Y-112130227D01*
X104199618Y-112125631D01*
X104199617Y-112125631D01*
X104136535Y-112108728D01*
X104136534Y-112108728D01*
X104053464Y-112108728D01*
X104053463Y-112108728D01*
X104030008Y-112115013D01*
X104020256Y-112117626D01*
X103973219Y-112130229D01*
X103973213Y-112130232D01*
X103903777Y-112170322D01*
X103901694Y-112171349D01*
X103842120Y-112230923D01*
X103841093Y-112233006D01*
X103801003Y-112302442D01*
X103800999Y-112302449D01*
X103794369Y-112327194D01*
X103790991Y-112339802D01*
X103779499Y-112382692D01*
X103779499Y-112465764D01*
X103786993Y-112493731D01*
X103800999Y-112546005D01*
X103801000Y-112546006D01*
X103801002Y-112546010D01*
X103836069Y-112606747D01*
X103841093Y-112615447D01*
X103842121Y-112617532D01*
X103842536Y-112617947D01*
X103842536Y-112617948D01*
X103852788Y-112628200D01*
X103862327Y-112642480D01*
X103864139Y-112646857D01*
X103864132Y-112680533D01*
X103840323Y-112704338D01*
X103835584Y-112706301D01*
X103824550Y-112709065D01*
X103824553Y-112709079D01*
X103824284Y-112709132D01*
X103823069Y-112709437D01*
X103822441Y-112709499D01*
X103822436Y-112709500D01*
X103822434Y-112709500D01*
X103807663Y-112712437D01*
X103792678Y-112715418D01*
X103792677Y-112715417D01*
X103777803Y-112718377D01*
X103777802Y-112718377D01*
X103727196Y-112752190D01*
X103727190Y-112752196D01*
X103693377Y-112802801D01*
X103692582Y-112806803D01*
X103692582Y-112806804D01*
X103684500Y-112847434D01*
X103684500Y-112847437D01*
X103684500Y-113552571D01*
X103686277Y-113561501D01*
X103688630Y-113573331D01*
X103688631Y-113590492D01*
X103687325Y-113597063D01*
X103668620Y-113625066D01*
X103665606Y-113627080D01*
X103641156Y-113634500D01*
X103578464Y-113634500D01*
X103547276Y-113642857D01*
X103528817Y-113647803D01*
X103498220Y-113656001D01*
X103498214Y-113656004D01*
X103428778Y-113696094D01*
X103426695Y-113697121D01*
X103367121Y-113756695D01*
X103366094Y-113758778D01*
X103326005Y-113828212D01*
X103326000Y-113828222D01*
X103325241Y-113831056D01*
X103325219Y-113831138D01*
X103325193Y-113831238D01*
X103304500Y-113908464D01*
X102450500Y-113908464D01*
X102450500Y-113831238D01*
X102439447Y-113775671D01*
X102397343Y-113712657D01*
X102334329Y-113670553D01*
X102278762Y-113659500D01*
X102278759Y-113659500D01*
X101981240Y-113659500D01*
X101981238Y-113659500D01*
X101939562Y-113667789D01*
X101939559Y-113667789D01*
X101925672Y-113670551D01*
X101862660Y-113712654D01*
X101862654Y-113712660D01*
X101820550Y-113775673D01*
X101819599Y-113777971D01*
X101815534Y-113785576D01*
X101809914Y-113793989D01*
X101786112Y-113811650D01*
X101784122Y-113812254D01*
X101782974Y-113812602D01*
X101770192Y-113814500D01*
X101683105Y-113814500D01*
X101666267Y-113811151D01*
X101651325Y-113804962D01*
X101637050Y-113795424D01*
X101309574Y-113467948D01*
X101300036Y-113453671D01*
X101293848Y-113438730D01*
X101290499Y-113421894D01*
X101290499Y-112741092D01*
X101290499Y-112741088D01*
X101285249Y-112714689D01*
X101265247Y-112684753D01*
X101265245Y-112684751D01*
X101265244Y-112684750D01*
X101253476Y-112676888D01*
X101253475Y-112676887D01*
X101235312Y-112664751D01*
X101228847Y-112663465D01*
X101208913Y-112659500D01*
X101208910Y-112659500D01*
X100938253Y-112659500D01*
X100921415Y-112656151D01*
X100915225Y-112653587D01*
X100891412Y-112629774D01*
X100891411Y-112629771D01*
X100888848Y-112623582D01*
X100885500Y-112606747D01*
X100885500Y-112273307D01*
X100885501Y-112273289D01*
X100885501Y-112271397D01*
X100885567Y-112270893D01*
X100885568Y-112270866D01*
X100885569Y-112270848D01*
X100885573Y-112270848D01*
X100886999Y-112260015D01*
X100889899Y-112249191D01*
X100894291Y-112238591D01*
X100903290Y-112223004D01*
X100903957Y-112221930D01*
X100903996Y-112221781D01*
X100903999Y-112221778D01*
X100925500Y-112141536D01*
X100925500Y-112058464D01*
X100903999Y-111978222D01*
X100862462Y-111906279D01*
X100803721Y-111847538D01*
X100803716Y-111847535D01*
X100768113Y-111826979D01*
X100755207Y-111815660D01*
X100752324Y-111811903D01*
X100743607Y-111779375D01*
X100760444Y-111750211D01*
X100761265Y-111749581D01*
X100788037Y-111740499D01*
X101208908Y-111740499D01*
X101208912Y-111740499D01*
X101235311Y-111735249D01*
X101265247Y-111715247D01*
X101285249Y-111685311D01*
X101290500Y-111658913D01*
X101290499Y-110941088D01*
X101285249Y-110914689D01*
X101265247Y-110884753D01*
X101255473Y-110878223D01*
X101255473Y-110878222D01*
X101235312Y-110864751D01*
X101228847Y-110863465D01*
X101208913Y-110859500D01*
X101208910Y-110859500D01*
X101188253Y-110859500D01*
X101171415Y-110856151D01*
X101165225Y-110853587D01*
X101141412Y-110829774D01*
X101141411Y-110829771D01*
X101138848Y-110823582D01*
X101135500Y-110806747D01*
X101135500Y-110083540D01*
X101138849Y-110066704D01*
X101141341Y-110060687D01*
X101165152Y-110036873D01*
X101194768Y-110035419D01*
X101197701Y-110036309D01*
X101209369Y-110041827D01*
X101265671Y-110079447D01*
X101321238Y-110090500D01*
X101371120Y-110090500D01*
X101387955Y-110093848D01*
X101394144Y-110096411D01*
X101417952Y-110120207D01*
X101418149Y-110120682D01*
X101420005Y-110148931D01*
X101419475Y-110150908D01*
X101415081Y-110161515D01*
X101391005Y-110203215D01*
X101390999Y-110203226D01*
X101389648Y-110208274D01*
X101389647Y-110208279D01*
X101369500Y-110283467D01*
X101369500Y-110366539D01*
X101391001Y-110446781D01*
X101432538Y-110518724D01*
X101491279Y-110577465D01*
X101563222Y-110619002D01*
X101643464Y-110640503D01*
X101643466Y-110640503D01*
X101646250Y-110641249D01*
X101646153Y-110641608D01*
X101651857Y-110643119D01*
X101653646Y-110643860D01*
X101668568Y-110650041D01*
X101682842Y-110659578D01*
X101900017Y-110876753D01*
X101900018Y-110876755D01*
X101938135Y-110914872D01*
X101952722Y-110920913D01*
X101958604Y-110923349D01*
X101958606Y-110923351D01*
X101958609Y-110923352D01*
X101958610Y-110923353D01*
X101976303Y-110930682D01*
X101976304Y-110930682D01*
X101987937Y-110935501D01*
X101987938Y-110935501D01*
X102046962Y-110935501D01*
X102048314Y-110935501D01*
X102048346Y-110935500D01*
X102386895Y-110935500D01*
X102403731Y-110938849D01*
X102418672Y-110945037D01*
X102432949Y-110954575D01*
X102465424Y-110987050D01*
X102474961Y-111001324D01*
X102481150Y-111016265D01*
X102484500Y-111033104D01*
X102484500Y-111288694D01*
X102484499Y-111288750D01*
X102484499Y-111346954D01*
X102487842Y-111355025D01*
X102487844Y-111355028D01*
X102488412Y-111356398D01*
X102490157Y-111365163D01*
X102495116Y-111372585D01*
X102505126Y-111396751D01*
X102505127Y-111396752D01*
X102505128Y-111396754D01*
X102543245Y-111434871D01*
X102543246Y-111434871D01*
X102681510Y-111573135D01*
X102681514Y-111573145D01*
X102681517Y-111573143D01*
X102701299Y-111592925D01*
X102708988Y-111603293D01*
X102714891Y-111614334D01*
X102716736Y-111618234D01*
X102718377Y-111622196D01*
X102719282Y-111623551D01*
X102720747Y-111625744D01*
X102727319Y-111641612D01*
X102728242Y-111646257D01*
X102721666Y-111679285D01*
X102693697Y-111697982D01*
X102693236Y-111698074D01*
X102662626Y-111693030D01*
X102606782Y-111660788D01*
X102606778Y-111660786D01*
X102606777Y-111660785D01*
X102606776Y-111660785D01*
X102599774Y-111658909D01*
X102599773Y-111658909D01*
X102526536Y-111639285D01*
X102526534Y-111639285D01*
X102443466Y-111639285D01*
X102443464Y-111639285D01*
X102389969Y-111653619D01*
X102363220Y-111660786D01*
X102363214Y-111660789D01*
X102293778Y-111700879D01*
X102291695Y-111701906D01*
X102232121Y-111761480D01*
X102231094Y-111763563D01*
X102191005Y-111832997D01*
X102190979Y-111833048D01*
X102190830Y-111833644D01*
X102179310Y-111876634D01*
X102171368Y-111906280D01*
X102169500Y-111913250D01*
X102169500Y-111996320D01*
X102184143Y-112050971D01*
X102187443Y-112063287D01*
X102188566Y-112080415D01*
X102187692Y-112087057D01*
X102170856Y-112116223D01*
X102170849Y-112116228D01*
X102165533Y-112120306D01*
X102150143Y-112127895D01*
X102141431Y-112130230D01*
X102141428Y-112130231D01*
X102111148Y-112138344D01*
X102111142Y-112138347D01*
X102041706Y-112178437D01*
X102039623Y-112179464D01*
X101980049Y-112239038D01*
X101979022Y-112241121D01*
X101938932Y-112310557D01*
X101938929Y-112310563D01*
X101932622Y-112334103D01*
X101917428Y-112390807D01*
X101917428Y-112473878D01*
X101935616Y-112541755D01*
X101935616Y-112541756D01*
X101938928Y-112554120D01*
X101938929Y-112554122D01*
X101938933Y-112554129D01*
X101957342Y-112586014D01*
X101957345Y-112586018D01*
X101980466Y-112626064D01*
X102039207Y-112684805D01*
X102111150Y-112726342D01*
X102191392Y-112747843D01*
X102191394Y-112747843D01*
X102274462Y-112747843D01*
X102274464Y-112747843D01*
X102354706Y-112726342D01*
X102426649Y-112684805D01*
X102485390Y-112626064D01*
X102526927Y-112554121D01*
X102548428Y-112473879D01*
X102548428Y-112390807D01*
X102530481Y-112323831D01*
X102529360Y-112306707D01*
X102530235Y-112300062D01*
X102547071Y-112270903D01*
X102552384Y-112266826D01*
X102567779Y-112259233D01*
X102606778Y-112248784D01*
X102678721Y-112207247D01*
X102697076Y-112188889D01*
X102711343Y-112179356D01*
X102719831Y-112175840D01*
X102749429Y-112174385D01*
X102752566Y-112175336D01*
X102764237Y-112180854D01*
X102801190Y-112205544D01*
X102804562Y-112207797D01*
X102808487Y-112209893D01*
X102811825Y-112212123D01*
X102815143Y-112214340D01*
X102833852Y-112242341D01*
X102827281Y-112275370D01*
X102827163Y-112275546D01*
X102827084Y-112275663D01*
X102807460Y-112291690D01*
X102806999Y-112291881D01*
X102802936Y-112293335D01*
X102802807Y-112293373D01*
X102752196Y-112327190D01*
X102752190Y-112327196D01*
X102718376Y-112377803D01*
X102717746Y-112379881D01*
X102717532Y-112382055D01*
X102709500Y-112422428D01*
X102709500Y-112577570D01*
X102714062Y-112600500D01*
X102714062Y-112600502D01*
X102714063Y-112600502D01*
X102714063Y-112600503D01*
X102718378Y-112622198D01*
X102718378Y-112622199D01*
X102718379Y-112622200D01*
X102740869Y-112655861D01*
X102740870Y-112655861D01*
X102752192Y-112672806D01*
X102752194Y-112672808D01*
X102758301Y-112676888D01*
X102776683Y-112689170D01*
X102776695Y-112689186D01*
X102776699Y-112689181D01*
X102777182Y-112689504D01*
X102789305Y-112701630D01*
X102791937Y-112705569D01*
X102793758Y-112714719D01*
X102795394Y-112717168D01*
X102796240Y-112725755D01*
X102796240Y-112725756D01*
X102795954Y-112725756D01*
X102798509Y-112738597D01*
X102779828Y-112766581D01*
X102778739Y-112767309D01*
X102778445Y-112767506D01*
X102753972Y-112774941D01*
X102748905Y-112774941D01*
X102704237Y-112786910D01*
X102701180Y-112787729D01*
X102668661Y-112796442D01*
X102668655Y-112796445D01*
X102599219Y-112836535D01*
X102597136Y-112837562D01*
X102537562Y-112897136D01*
X102536535Y-112899219D01*
X102496445Y-112968655D01*
X102496442Y-112968661D01*
X102492813Y-112982204D01*
X102488405Y-112998657D01*
X102474941Y-113048905D01*
X102474941Y-113131977D01*
X102496442Y-113212219D01*
X102537979Y-113284162D01*
X102596720Y-113342903D01*
X102668663Y-113384440D01*
X102748905Y-113405941D01*
X102748907Y-113405941D01*
X102831975Y-113405941D01*
X102831977Y-113405941D01*
X102912219Y-113384440D01*
X102984162Y-113342903D01*
X103042903Y-113284162D01*
X103084440Y-113212219D01*
X103105941Y-113131977D01*
X103105941Y-113048905D01*
X103084440Y-112968663D01*
X103042903Y-112896720D01*
X102984162Y-112837979D01*
X102984161Y-112837978D01*
X102957732Y-112822719D01*
X102921812Y-112801980D01*
X102908911Y-112790667D01*
X102906027Y-112786910D01*
X102897304Y-112754383D01*
X102914136Y-112725216D01*
X102914962Y-112724582D01*
X102941735Y-112715500D01*
X103552562Y-112715500D01*
X103552566Y-112715500D01*
X103597197Y-112706622D01*
X103647807Y-112672807D01*
X103681622Y-112622197D01*
X103690500Y-112577566D01*
X103690500Y-112422434D01*
X103681622Y-112377803D01*
X103647807Y-112327193D01*
X103647805Y-112327192D01*
X103647805Y-112327191D01*
X103630135Y-112315386D01*
X103630134Y-112315385D01*
X103595468Y-112292222D01*
X103591516Y-112290110D01*
X103584856Y-112285660D01*
X103566147Y-112257659D01*
X103572718Y-112224630D01*
X103594058Y-112210371D01*
X103593193Y-112208280D01*
X103597192Y-112206622D01*
X103597197Y-112206622D01*
X103647807Y-112172807D01*
X103681622Y-112122197D01*
X103690500Y-112077566D01*
X103690500Y-111922434D01*
X103681622Y-111877803D01*
X103647807Y-111827193D01*
X103616090Y-111806001D01*
X103616090Y-111806000D01*
X103595473Y-111792225D01*
X103591516Y-111790110D01*
X103584856Y-111785660D01*
X103566147Y-111757659D01*
X103572718Y-111724630D01*
X103594058Y-111710371D01*
X103593193Y-111708280D01*
X103597192Y-111706622D01*
X103597197Y-111706622D01*
X103647807Y-111672807D01*
X103681622Y-111622197D01*
X103690500Y-111577566D01*
X103690500Y-111422434D01*
X103681622Y-111377803D01*
X103681075Y-111376985D01*
X103678378Y-111372949D01*
X103656631Y-111340400D01*
X103656630Y-111340398D01*
X103647809Y-111327195D01*
X103647807Y-111327194D01*
X103647807Y-111327193D01*
X103615340Y-111305500D01*
X103615340Y-111305499D01*
X103597199Y-111293378D01*
X103595423Y-111293024D01*
X103588270Y-111291602D01*
X103552571Y-111284500D01*
X103552566Y-111284500D01*
X103552562Y-111284500D01*
X103476662Y-111284500D01*
X103459824Y-111281151D01*
X103455447Y-111279338D01*
X103431634Y-111255525D01*
X103431632Y-111221854D01*
X103433445Y-111217475D01*
X103442986Y-111203197D01*
X103452459Y-111193724D01*
X103452462Y-111193721D01*
X103493999Y-111121778D01*
X103515500Y-111041536D01*
X103515500Y-110958464D01*
X103493999Y-110878222D01*
X103452462Y-110806279D01*
X103442984Y-110796801D01*
X103433444Y-110782521D01*
X103431632Y-110778145D01*
X103431636Y-110744469D01*
X103455450Y-110720660D01*
X103457499Y-110719811D01*
X103459832Y-110718846D01*
X103476662Y-110715500D01*
X103552562Y-110715500D01*
X103552566Y-110715500D01*
X103597197Y-110706622D01*
X103647807Y-110672807D01*
X103681622Y-110622197D01*
X103690500Y-110577566D01*
X103690500Y-110422434D01*
X103681622Y-110377803D01*
X103647807Y-110327193D01*
X103630861Y-110315870D01*
X103630861Y-110315869D01*
X103595473Y-110292225D01*
X103591516Y-110290110D01*
X103584856Y-110285660D01*
X103566147Y-110257659D01*
X103572718Y-110224630D01*
X103594058Y-110210371D01*
X103593193Y-110208280D01*
X103597192Y-110206622D01*
X103597197Y-110206622D01*
X103647807Y-110172807D01*
X103681622Y-110122197D01*
X103690500Y-110077566D01*
X103690500Y-109922434D01*
X103681622Y-109877803D01*
X103647807Y-109827193D01*
X103630861Y-109815870D01*
X103630861Y-109815869D01*
X103595473Y-109792225D01*
X103591516Y-109790110D01*
X103584856Y-109785660D01*
X103566147Y-109757659D01*
X103572718Y-109724630D01*
X103594058Y-109710371D01*
X103593193Y-109708280D01*
X103597192Y-109706622D01*
X103597197Y-109706622D01*
X103647807Y-109672807D01*
X103681622Y-109622197D01*
X103690500Y-109577566D01*
X103690500Y-109422434D01*
X103681622Y-109377803D01*
X103647807Y-109327193D01*
X103630861Y-109315870D01*
X103630861Y-109315869D01*
X103595473Y-109292225D01*
X103591516Y-109290110D01*
X103584856Y-109285660D01*
X103566147Y-109257659D01*
X103572718Y-109224630D01*
X103594058Y-109210371D01*
X103593193Y-109208280D01*
X103597192Y-109206622D01*
X103597197Y-109206622D01*
X103647807Y-109172807D01*
X103681622Y-109122197D01*
X103689694Y-109081615D01*
X103693069Y-109071400D01*
X103696353Y-109064455D01*
X103700002Y-109056735D01*
X103708661Y-109044438D01*
X103751113Y-109001988D01*
X103792650Y-108930045D01*
X103814151Y-108849803D01*
X103814151Y-108843252D01*
X103817499Y-108826417D01*
X103820062Y-108820228D01*
X103843873Y-108796414D01*
X103843873Y-108796413D01*
X103848241Y-108794604D01*
X103850071Y-108793847D01*
X103866904Y-108790500D01*
X103977562Y-108790500D01*
X103977566Y-108790500D01*
X104022197Y-108781622D01*
X104072807Y-108747807D01*
X104106622Y-108697197D01*
X104106622Y-108697196D01*
X104107787Y-108695453D01*
X104109893Y-108691509D01*
X104114342Y-108684852D01*
X104142344Y-108666146D01*
X104150924Y-108665301D01*
X104150925Y-108665301D01*
X104182038Y-108678188D01*
X104190364Y-108693761D01*
X104191721Y-108693199D01*
X104193377Y-108697196D01*
X104193378Y-108697198D01*
X104205607Y-108715500D01*
X104227193Y-108747808D01*
X104227194Y-108747809D01*
X104244691Y-108759498D01*
X104244693Y-108759501D01*
X104244694Y-108759500D01*
X104277801Y-108781621D01*
X104277803Y-108781622D01*
X104322434Y-108790500D01*
X104322438Y-108790500D01*
X104477562Y-108790500D01*
X104477566Y-108790500D01*
X104522197Y-108781622D01*
X104572807Y-108747807D01*
X104606622Y-108697197D01*
X104606622Y-108697196D01*
X104607787Y-108695453D01*
X104609893Y-108691509D01*
X104614342Y-108684852D01*
X104642344Y-108666146D01*
X104650924Y-108665301D01*
X104650925Y-108665301D01*
X104682038Y-108678188D01*
X104690364Y-108693761D01*
X104691721Y-108693199D01*
X104693377Y-108697196D01*
X104693378Y-108697198D01*
X104705607Y-108715500D01*
X104727193Y-108747808D01*
X104727194Y-108747809D01*
X104744691Y-108759498D01*
X104744693Y-108759501D01*
X104744694Y-108759500D01*
X104777801Y-108781621D01*
X104777803Y-108781622D01*
X104822434Y-108790500D01*
X104822438Y-108790500D01*
X104977562Y-108790500D01*
X104977566Y-108790500D01*
X105022197Y-108781622D01*
X105072807Y-108747807D01*
X105106622Y-108697197D01*
X105106622Y-108697196D01*
X105107787Y-108695453D01*
X105109893Y-108691509D01*
X105114342Y-108684852D01*
X105142344Y-108666146D01*
X105150924Y-108665301D01*
X105150925Y-108665301D01*
X105182038Y-108678188D01*
X105190364Y-108693761D01*
X105191721Y-108693199D01*
X105193377Y-108697196D01*
X105193378Y-108697198D01*
X105205607Y-108715500D01*
X105227193Y-108747808D01*
X105227194Y-108747809D01*
X105244691Y-108759498D01*
X105244693Y-108759501D01*
X105244694Y-108759500D01*
X105277801Y-108781621D01*
X105277803Y-108781622D01*
X105322434Y-108790500D01*
X105322438Y-108790500D01*
X105477562Y-108790500D01*
X105477566Y-108790500D01*
X105522197Y-108781622D01*
X105572807Y-108747807D01*
X105606622Y-108697197D01*
X105606622Y-108697196D01*
X105607787Y-108695453D01*
X105609893Y-108691509D01*
X105614342Y-108684852D01*
X105642344Y-108666146D01*
X105650924Y-108665301D01*
X105650925Y-108665301D01*
X105682038Y-108678188D01*
X105690364Y-108693761D01*
X105691721Y-108693199D01*
X105693377Y-108697196D01*
X105693378Y-108697198D01*
X105705607Y-108715500D01*
X105727193Y-108747808D01*
X105727194Y-108747809D01*
X105744691Y-108759498D01*
X105744693Y-108759501D01*
X105744694Y-108759500D01*
X105777801Y-108781621D01*
X105777803Y-108781622D01*
X105822434Y-108790500D01*
X105822438Y-108790500D01*
X105977562Y-108790500D01*
X105977566Y-108790500D01*
X106022197Y-108781622D01*
X106072807Y-108747807D01*
X106106622Y-108697197D01*
X106106622Y-108697196D01*
X106107787Y-108695453D01*
X106109893Y-108691509D01*
X106114342Y-108684852D01*
X106142344Y-108666146D01*
X106150924Y-108665301D01*
X106150925Y-108665301D01*
X106182038Y-108678188D01*
X106190364Y-108693761D01*
X106191721Y-108693199D01*
X106193377Y-108697196D01*
X106193378Y-108697198D01*
X106205607Y-108715500D01*
X106227193Y-108747808D01*
X106227194Y-108747809D01*
X106244691Y-108759498D01*
X106244693Y-108759501D01*
X106244694Y-108759500D01*
X106277801Y-108781621D01*
X106277803Y-108781622D01*
X106322434Y-108790500D01*
X106322438Y-108790500D01*
X106477562Y-108790500D01*
X106477566Y-108790500D01*
X106522197Y-108781622D01*
X106572807Y-108747807D01*
X106606622Y-108697197D01*
X106606622Y-108697196D01*
X106607787Y-108695453D01*
X106609893Y-108691509D01*
X106614342Y-108684852D01*
X106642344Y-108666146D01*
X106650924Y-108665301D01*
X106650925Y-108665301D01*
X106682038Y-108678188D01*
X106690364Y-108693761D01*
X106691721Y-108693199D01*
X106693377Y-108697196D01*
X106693378Y-108697198D01*
X106705607Y-108715500D01*
X106727193Y-108747808D01*
X106727194Y-108747809D01*
X106744691Y-108759498D01*
X106744693Y-108759501D01*
X106744694Y-108759500D01*
X106777801Y-108781621D01*
X106777803Y-108781622D01*
X106822434Y-108790500D01*
X106822438Y-108790500D01*
X106977562Y-108790500D01*
X106977566Y-108790500D01*
X107022197Y-108781622D01*
X107072807Y-108747807D01*
X107106622Y-108697197D01*
X107106622Y-108697196D01*
X107107787Y-108695453D01*
X107109893Y-108691509D01*
X107114342Y-108684852D01*
X107142344Y-108666146D01*
X107150924Y-108665301D01*
X107150925Y-108665301D01*
X107182038Y-108678188D01*
X107190364Y-108693761D01*
X107191721Y-108693199D01*
X107193377Y-108697196D01*
X107193378Y-108697198D01*
X107205607Y-108715500D01*
X107227193Y-108747808D01*
X107227194Y-108747809D01*
X107244691Y-108759498D01*
X107244693Y-108759501D01*
X107244694Y-108759500D01*
X107277801Y-108781621D01*
X107277803Y-108781622D01*
X107322434Y-108790500D01*
X107322438Y-108790500D01*
X107477562Y-108790500D01*
X107477566Y-108790500D01*
X107522197Y-108781622D01*
X107572807Y-108747807D01*
X107606622Y-108697197D01*
X107615500Y-108652566D01*
X107615500Y-108488252D01*
X107618848Y-108471417D01*
X107620350Y-108467790D01*
X107621411Y-108465227D01*
X107645222Y-108441414D01*
X107645222Y-108441413D01*
X107651415Y-108438849D01*
X107651420Y-108438847D01*
X107668253Y-108435500D01*
X107997935Y-108435500D01*
X108014771Y-108438849D01*
G37*
%TD.AperFunction*%
%TA.AperFunction,Conductor*%
G36*
X109762074Y-110547914D02*
G01*
X109790064Y-110566614D01*
X109792081Y-110569631D01*
X109799500Y-110594080D01*
X109799500Y-111331647D01*
X109796148Y-111348491D01*
X109793655Y-111354507D01*
X109769839Y-111378316D01*
X109740243Y-111379771D01*
X109737307Y-111378881D01*
X109725625Y-111373357D01*
X109725014Y-111372949D01*
X109709937Y-111362874D01*
X109642703Y-111349500D01*
X109642700Y-111349500D01*
X109393253Y-111349500D01*
X109376415Y-111346151D01*
X109370225Y-111343587D01*
X109346412Y-111319774D01*
X109346411Y-111319771D01*
X109343848Y-111313582D01*
X109340500Y-111296747D01*
X109340500Y-110782993D01*
X109343849Y-110766157D01*
X109350037Y-110751216D01*
X109359572Y-110736942D01*
X109526942Y-110569572D01*
X109541214Y-110560037D01*
X109549459Y-110556622D01*
X109556159Y-110553848D01*
X109572994Y-110550500D01*
X109718759Y-110550500D01*
X109718762Y-110550500D01*
X109738337Y-110546606D01*
X109755499Y-110546606D01*
X109762074Y-110547914D01*
G37*
%TD.AperFunction*%
%TA.AperFunction,Conductor*%
G36*
X102659296Y-106498135D02*
G01*
X102661220Y-106498518D01*
X102689214Y-106517225D01*
X102691446Y-106520565D01*
X102702657Y-106537343D01*
X102765671Y-106579447D01*
X102772003Y-106580706D01*
X102787858Y-106587273D01*
X102795492Y-106592374D01*
X102813153Y-106616183D01*
X102814104Y-106619317D01*
X102816000Y-106632093D01*
X102816000Y-106804367D01*
X102816000Y-106865633D01*
X102823872Y-106884637D01*
X102839445Y-106922234D01*
X102880424Y-106963214D01*
X102889961Y-106977486D01*
X102896150Y-106992426D01*
X102899500Y-107009266D01*
X102899500Y-107345942D01*
X102913309Y-107415363D01*
X102965911Y-107494089D01*
X103044637Y-107546691D01*
X103114058Y-107560500D01*
X103114062Y-107560500D01*
X103455938Y-107560500D01*
X103455942Y-107560500D01*
X103525363Y-107546691D01*
X103604089Y-107494089D01*
X103656691Y-107415363D01*
X103668869Y-107354140D01*
X103671370Y-107345898D01*
X103672184Y-107343933D01*
X103674748Y-107337741D01*
X103698560Y-107313929D01*
X103732236Y-107313928D01*
X103737368Y-107316456D01*
X103785022Y-107343937D01*
X103805535Y-107370641D01*
X103806705Y-107387468D01*
X103806109Y-107392264D01*
X103806109Y-107392265D01*
X103807595Y-107424470D01*
X103807596Y-107424478D01*
X103835680Y-107552650D01*
X103836360Y-107567525D01*
X103817692Y-107716864D01*
X103812006Y-107733632D01*
X103757632Y-107826534D01*
X103744105Y-107840891D01*
X103727197Y-107852189D01*
X103727190Y-107852196D01*
X103693378Y-107902800D01*
X103693376Y-107902804D01*
X103689998Y-107919786D01*
X103689999Y-107919787D01*
X103688830Y-107925665D01*
X103686349Y-107938141D01*
X103684500Y-107947435D01*
X103684500Y-108466295D01*
X103681150Y-108483135D01*
X103678586Y-108489324D01*
X103654806Y-108513121D01*
X103654317Y-108513324D01*
X103626084Y-108515194D01*
X103608257Y-108510428D01*
X103606682Y-108510583D01*
X103596435Y-108507838D01*
X103596432Y-108507838D01*
X103540187Y-108492767D01*
X103540185Y-108492767D01*
X103457117Y-108492767D01*
X103457115Y-108492767D01*
X103407128Y-108506161D01*
X103403620Y-108507101D01*
X103376871Y-108514268D01*
X103376865Y-108514271D01*
X103307429Y-108554361D01*
X103305346Y-108555388D01*
X103245772Y-108614962D01*
X103244745Y-108617045D01*
X103204656Y-108686478D01*
X103204651Y-108686489D01*
X103200210Y-108703063D01*
X103189391Y-108743436D01*
X103181798Y-108758833D01*
X103175719Y-108766755D01*
X103152220Y-108782464D01*
X103150242Y-108782995D01*
X103138834Y-108784500D01*
X102847434Y-108784500D01*
X102817678Y-108790418D01*
X102817677Y-108790417D01*
X102802803Y-108793377D01*
X102802802Y-108793377D01*
X102752196Y-108827190D01*
X102752190Y-108827196D01*
X102718376Y-108877803D01*
X102717746Y-108879881D01*
X102717532Y-108882055D01*
X102709500Y-108922428D01*
X102709500Y-108922434D01*
X102709500Y-109077566D01*
X102713434Y-109097341D01*
X102715307Y-109106758D01*
X102713990Y-109115632D01*
X102738914Y-109152935D01*
X102745484Y-109168799D01*
X102746790Y-109175368D01*
X102740221Y-109208390D01*
X102737218Y-109212885D01*
X102722633Y-109226548D01*
X102686279Y-109247537D01*
X102627121Y-109306695D01*
X102626094Y-109308778D01*
X102586005Y-109378212D01*
X102585979Y-109378263D01*
X102585830Y-109378859D01*
X102564500Y-109458464D01*
X102564500Y-109541536D01*
X102579858Y-109598851D01*
X102586001Y-109621778D01*
X102586003Y-109621782D01*
X102620331Y-109681239D01*
X102626094Y-109691219D01*
X102627122Y-109693304D01*
X102627537Y-109693719D01*
X102627537Y-109693720D01*
X102686279Y-109752462D01*
X102686281Y-109752463D01*
X102686282Y-109752464D01*
X102721612Y-109772862D01*
X102734519Y-109784181D01*
X102738596Y-109789494D01*
X102747313Y-109822018D01*
X102746608Y-109827378D01*
X102739570Y-109846084D01*
X102718349Y-109877845D01*
X102718131Y-109878522D01*
X102717974Y-109878980D01*
X102717753Y-109879862D01*
X102717747Y-109879880D01*
X102717534Y-109882043D01*
X102709500Y-109922434D01*
X102709500Y-110077566D01*
X102711735Y-110088803D01*
X102715670Y-110108585D01*
X102715669Y-110108585D01*
X102718376Y-110122194D01*
X102718379Y-110122201D01*
X102738728Y-110152656D01*
X102738729Y-110152656D01*
X102752193Y-110172807D01*
X102797711Y-110203220D01*
X102797717Y-110203224D01*
X102804534Y-110207779D01*
X102808478Y-110209887D01*
X102809203Y-110210371D01*
X102815143Y-110214340D01*
X102833852Y-110242341D01*
X102827281Y-110275370D01*
X102827163Y-110275546D01*
X102827084Y-110275663D01*
X102807460Y-110291690D01*
X102806999Y-110291881D01*
X102802936Y-110293335D01*
X102802807Y-110293373D01*
X102752196Y-110327190D01*
X102752190Y-110327196D01*
X102745193Y-110337669D01*
X102733055Y-110349807D01*
X102722167Y-110357083D01*
X102697720Y-110364500D01*
X102543253Y-110364500D01*
X102526415Y-110361151D01*
X102520225Y-110358587D01*
X102496412Y-110334774D01*
X102496411Y-110334771D01*
X102493848Y-110328582D01*
X102490500Y-110311747D01*
X102490500Y-110271241D01*
X102490500Y-110271238D01*
X102479447Y-110215671D01*
X102437343Y-110152657D01*
X102437341Y-110152656D01*
X102437341Y-110152655D01*
X102420566Y-110141447D01*
X102408423Y-110129304D01*
X102404702Y-110123734D01*
X102398131Y-110090728D01*
X102398513Y-110088803D01*
X102417206Y-110060797D01*
X102437343Y-110047343D01*
X102479447Y-109984329D01*
X102490500Y-109928762D01*
X102490500Y-109631238D01*
X102479447Y-109575671D01*
X102437343Y-109512657D01*
X102374329Y-109470553D01*
X102318762Y-109459500D01*
X102318759Y-109459500D01*
X102081240Y-109459500D01*
X102081238Y-109459500D01*
X102039562Y-109467789D01*
X102039559Y-109467789D01*
X102025672Y-109470551D01*
X101962660Y-109512654D01*
X101962654Y-109512660D01*
X101920551Y-109575672D01*
X101920201Y-109576827D01*
X101919707Y-109579919D01*
X101911634Y-109620502D01*
X101905064Y-109636363D01*
X101899965Y-109643994D01*
X101876166Y-109661650D01*
X101873031Y-109662602D01*
X101860246Y-109664500D01*
X101832033Y-109664500D01*
X101815196Y-109661151D01*
X101806714Y-109657638D01*
X101790680Y-109643104D01*
X101787380Y-109641244D01*
X101786957Y-109639728D01*
X101784743Y-109637721D01*
X101783197Y-109634830D01*
X101781322Y-109629586D01*
X101781106Y-109629676D01*
X101779447Y-109625671D01*
X101776846Y-109621778D01*
X101737343Y-109562657D01*
X101674329Y-109520553D01*
X101618762Y-109509500D01*
X101618759Y-109509500D01*
X101321240Y-109509500D01*
X101321238Y-109509500D01*
X101279562Y-109517789D01*
X101279559Y-109517789D01*
X101265672Y-109520551D01*
X101202660Y-109562654D01*
X101202651Y-109562663D01*
X101191445Y-109579435D01*
X101179307Y-109591574D01*
X101173740Y-109595294D01*
X101140712Y-109601865D01*
X101138786Y-109601482D01*
X101110785Y-109582774D01*
X101110783Y-109582772D01*
X101097343Y-109562657D01*
X101034329Y-109520553D01*
X100978762Y-109509500D01*
X100978759Y-109509500D01*
X100681240Y-109509500D01*
X100681238Y-109509500D01*
X100639562Y-109517789D01*
X100639559Y-109517789D01*
X100625672Y-109520551D01*
X100562660Y-109562654D01*
X100562654Y-109562660D01*
X100520551Y-109625672D01*
X100519921Y-109627749D01*
X100519708Y-109629918D01*
X100519445Y-109631241D01*
X100509500Y-109681238D01*
X100509500Y-109918762D01*
X100520553Y-109974329D01*
X100562657Y-110037343D01*
X100625671Y-110079447D01*
X100681238Y-110090500D01*
X100811747Y-110090500D01*
X100828582Y-110093848D01*
X100834771Y-110096411D01*
X100858585Y-110120222D01*
X100858586Y-110120223D01*
X100861150Y-110126412D01*
X100864500Y-110143252D01*
X100864500Y-110315342D01*
X100861150Y-110332182D01*
X100858586Y-110338371D01*
X100834792Y-110362174D01*
X100834317Y-110362371D01*
X100806078Y-110364230D01*
X100804099Y-110363700D01*
X100793485Y-110359304D01*
X100761783Y-110341001D01*
X100761778Y-110340999D01*
X100761775Y-110340998D01*
X100738535Y-110334771D01*
X100681536Y-110319498D01*
X100681534Y-110319498D01*
X100598466Y-110319498D01*
X100598464Y-110319498D01*
X100551127Y-110332182D01*
X100544969Y-110333832D01*
X100518220Y-110340999D01*
X100518214Y-110341002D01*
X100448778Y-110381092D01*
X100446695Y-110382119D01*
X100387121Y-110441693D01*
X100386094Y-110443776D01*
X100346004Y-110513212D01*
X100346001Y-110513218D01*
X100336012Y-110550500D01*
X100324500Y-110593462D01*
X100324500Y-110676533D01*
X100337017Y-110723247D01*
X100344502Y-110751181D01*
X100344502Y-110751182D01*
X100346001Y-110756778D01*
X100347573Y-110759500D01*
X100356085Y-110774241D01*
X100361138Y-110782993D01*
X100362829Y-110785922D01*
X100368347Y-110802180D01*
X100369221Y-110808821D01*
X100360517Y-110841331D01*
X100360205Y-110841738D01*
X100336688Y-110857466D01*
X100334709Y-110857997D01*
X100323306Y-110859500D01*
X100291086Y-110859500D01*
X100274879Y-110862723D01*
X100264690Y-110864750D01*
X100264687Y-110864750D01*
X100262571Y-110865172D01*
X100262500Y-110864819D01*
X100259218Y-110865304D01*
X100258106Y-110865906D01*
X100257126Y-110865614D01*
X100253579Y-110866139D01*
X100245880Y-110866138D01*
X100214771Y-110853248D01*
X100213376Y-110851852D01*
X100200500Y-110820751D01*
X100200500Y-107848251D01*
X100203848Y-107831416D01*
X100204260Y-107830421D01*
X100206411Y-107825226D01*
X100230222Y-107801413D01*
X100230222Y-107801412D01*
X100236287Y-107798901D01*
X100236420Y-107798846D01*
X100253253Y-107795499D01*
X100655516Y-107795499D01*
X100664054Y-107796335D01*
X100666203Y-107796760D01*
X100666204Y-107796761D01*
X100677028Y-107798902D01*
X100705046Y-107817580D01*
X100707058Y-107820584D01*
X100714500Y-107845069D01*
X100714500Y-108827080D01*
X100714500Y-108892920D01*
X100738322Y-108950430D01*
X100741355Y-108957752D01*
X100741248Y-108957795D01*
X100743979Y-108963567D01*
X100747605Y-108975519D01*
X100749500Y-108988293D01*
X100749500Y-109168762D01*
X100760553Y-109224329D01*
X100802657Y-109287343D01*
X100865671Y-109329447D01*
X100921238Y-109340500D01*
X100921241Y-109340500D01*
X101218758Y-109340500D01*
X101218762Y-109340500D01*
X101274329Y-109329447D01*
X101337343Y-109287343D01*
X101379447Y-109224329D01*
X101390500Y-109168762D01*
X101390500Y-108931238D01*
X101379447Y-108875671D01*
X101337343Y-108812657D01*
X101274329Y-108770553D01*
X101218762Y-108759500D01*
X101218759Y-108759500D01*
X101098253Y-108759500D01*
X101081415Y-108756151D01*
X101075225Y-108753587D01*
X101051412Y-108729774D01*
X101051411Y-108729771D01*
X101048848Y-108723582D01*
X101045500Y-108706747D01*
X101045500Y-108688251D01*
X101048848Y-108671416D01*
X101050233Y-108668072D01*
X101051411Y-108665226D01*
X101075222Y-108641413D01*
X101075222Y-108641412D01*
X101079590Y-108639603D01*
X101081420Y-108638846D01*
X101098253Y-108635499D01*
X101503908Y-108635499D01*
X101503912Y-108635499D01*
X101530311Y-108630249D01*
X101560247Y-108610247D01*
X101580249Y-108580311D01*
X101585500Y-108553913D01*
X101585499Y-108434855D01*
X101585875Y-108429118D01*
X101586621Y-108423446D01*
X101587740Y-108417810D01*
X101605500Y-108351535D01*
X101605500Y-108268465D01*
X101598437Y-108242107D01*
X101587742Y-108202193D01*
X101586621Y-108196550D01*
X101585875Y-108190878D01*
X101585499Y-108185140D01*
X101585499Y-108086092D01*
X101585499Y-108086088D01*
X101580249Y-108059689D01*
X101560247Y-108029753D01*
X101530311Y-108009751D01*
X101503913Y-108004500D01*
X101503909Y-108004500D01*
X101377537Y-108004500D01*
X101371794Y-108004124D01*
X101366120Y-108003377D01*
X101360476Y-108002254D01*
X101346644Y-107998548D01*
X101331536Y-107994500D01*
X101331535Y-107994500D01*
X101248463Y-107994500D01*
X101224017Y-108001049D01*
X101221220Y-108000680D01*
X101214917Y-108002489D01*
X101213439Y-108002565D01*
X101210394Y-108003294D01*
X101200164Y-108004500D01*
X101098253Y-108004500D01*
X101081416Y-108001151D01*
X101075723Y-107998793D01*
X101051910Y-107974981D01*
X101051908Y-107941306D01*
X101055038Y-107933749D01*
X101064572Y-107919479D01*
X101095818Y-107888234D01*
X101127837Y-107856212D01*
X101136470Y-107850445D01*
X101136400Y-107850348D01*
X101138907Y-107848530D01*
X101140292Y-107847892D01*
X101142119Y-107846673D01*
X101145402Y-107845314D01*
X101145481Y-107845507D01*
X101154518Y-107841353D01*
X101155562Y-107841103D01*
X101155569Y-107841103D01*
X101155574Y-107841100D01*
X101158965Y-107840291D01*
X101159264Y-107841546D01*
X101180603Y-107840146D01*
X101180607Y-107840123D01*
X101180723Y-107840138D01*
X101181841Y-107840065D01*
X101183464Y-107840500D01*
X101183465Y-107840500D01*
X101266534Y-107840500D01*
X101266536Y-107840500D01*
X101346778Y-107818999D01*
X101372253Y-107804289D01*
X101382862Y-107799894D01*
X101393680Y-107796996D01*
X101405061Y-107795499D01*
X101503908Y-107795499D01*
X101503912Y-107795499D01*
X101530311Y-107790249D01*
X101560247Y-107770247D01*
X101580249Y-107740311D01*
X101585500Y-107713913D01*
X101585500Y-107552750D01*
X101588848Y-107535917D01*
X101589119Y-107535263D01*
X101591411Y-107529727D01*
X101615222Y-107505914D01*
X101615222Y-107505913D01*
X101619590Y-107504104D01*
X101621420Y-107503347D01*
X101638253Y-107500000D01*
X101962468Y-107500000D01*
X101979303Y-107503348D01*
X101984901Y-107505666D01*
X101985489Y-107505910D01*
X101985492Y-107505911D01*
X102009306Y-107529722D01*
X102009310Y-107529731D01*
X102010449Y-107532482D01*
X102012297Y-107560701D01*
X102000083Y-107606292D01*
X101999770Y-107607459D01*
X101999500Y-107608465D01*
X101999500Y-107608466D01*
X101999500Y-107691536D01*
X101999644Y-107692074D01*
X101999716Y-107693176D01*
X101999876Y-107694390D01*
X101999796Y-107694400D01*
X102000765Y-107709194D01*
X101999357Y-107719892D01*
X101987845Y-107744231D01*
X101987312Y-107744800D01*
X101979646Y-107751304D01*
X101962662Y-107762652D01*
X101962654Y-107762660D01*
X101920551Y-107825672D01*
X101919921Y-107827749D01*
X101919708Y-107829918D01*
X101916006Y-107848530D01*
X101909500Y-107881238D01*
X101909500Y-108178762D01*
X101920553Y-108234329D01*
X101962657Y-108297343D01*
X102025671Y-108339447D01*
X102081238Y-108350500D01*
X102081241Y-108350500D01*
X102318758Y-108350500D01*
X102318762Y-108350500D01*
X102374329Y-108339447D01*
X102437343Y-108297343D01*
X102479447Y-108234329D01*
X102490500Y-108178762D01*
X102490500Y-107946893D01*
X102493849Y-107930057D01*
X102499494Y-107916427D01*
X102509033Y-107902150D01*
X102567458Y-107843725D01*
X102567462Y-107843721D01*
X102608999Y-107771778D01*
X102630500Y-107691536D01*
X102630500Y-107608464D01*
X102615475Y-107552393D01*
X102614354Y-107535268D01*
X102615762Y-107524571D01*
X102627277Y-107500235D01*
X102627812Y-107499664D01*
X102632433Y-107495744D01*
X102634087Y-107494091D01*
X102634087Y-107494089D01*
X102634089Y-107494089D01*
X102686691Y-107415363D01*
X102700500Y-107345942D01*
X102700500Y-106954058D01*
X102686691Y-106884637D01*
X102634089Y-106805911D01*
X102555363Y-106753309D01*
X102555358Y-106753307D01*
X102527996Y-106747864D01*
X102512137Y-106741294D01*
X102504502Y-106736193D01*
X102486845Y-106712380D01*
X102485894Y-106709244D01*
X102484000Y-106696475D01*
X102484000Y-106634319D01*
X102487349Y-106617482D01*
X102490862Y-106609000D01*
X102510766Y-106587035D01*
X102513657Y-106585490D01*
X102525814Y-106581140D01*
X102534329Y-106579447D01*
X102597343Y-106537343D01*
X102608553Y-106520564D01*
X102620687Y-106508428D01*
X102626261Y-106504704D01*
X102659286Y-106498133D01*
X102659296Y-106498135D01*
G37*
%TD.AperFunction*%
%TA.AperFunction,Conductor*%
G36*
X109598264Y-100200636D02*
G01*
X109601694Y-100200906D01*
X109605114Y-100201310D01*
X109616092Y-100203048D01*
X109651347Y-100208632D01*
X109658055Y-100210242D01*
X109664560Y-100212355D01*
X109670943Y-100214999D01*
X109707970Y-100233866D01*
X109713853Y-100237471D01*
X109719385Y-100241490D01*
X109724636Y-100245974D01*
X109754024Y-100275362D01*
X109758505Y-100280609D01*
X109762531Y-100286150D01*
X109766135Y-100292033D01*
X109784998Y-100329054D01*
X109787640Y-100335430D01*
X109789756Y-100341941D01*
X109791368Y-100348657D01*
X109798687Y-100394869D01*
X109799092Y-100398287D01*
X109799364Y-100401741D01*
X109799500Y-100405186D01*
X109799500Y-100708991D01*
X109796151Y-100725829D01*
X109794763Y-100729180D01*
X109770950Y-100752993D01*
X109737274Y-100752993D01*
X109715970Y-100734278D01*
X109715859Y-100734085D01*
X109711500Y-100723538D01*
X109694052Y-100658422D01*
X109693406Y-100655644D01*
X109691344Y-100645266D01*
X109690500Y-100636691D01*
X109690500Y-100631241D01*
X109690500Y-100631239D01*
X109690500Y-100631238D01*
X109679447Y-100575671D01*
X109637343Y-100512657D01*
X109574329Y-100470553D01*
X109518762Y-100459500D01*
X109518759Y-100459500D01*
X109281240Y-100459500D01*
X109281238Y-100459500D01*
X109239562Y-100467789D01*
X109239559Y-100467789D01*
X109225672Y-100470551D01*
X109162660Y-100512654D01*
X109162654Y-100512660D01*
X109120551Y-100575672D01*
X109119921Y-100577749D01*
X109119708Y-100579918D01*
X109109500Y-100631239D01*
X109109500Y-100636693D01*
X109108654Y-100645277D01*
X109106659Y-100655306D01*
X109106338Y-100656787D01*
X109106162Y-100657536D01*
X109105830Y-100658859D01*
X109085674Y-100734085D01*
X109084500Y-100738465D01*
X109084500Y-100821535D01*
X109090052Y-100842256D01*
X109105931Y-100901516D01*
X109106585Y-100904321D01*
X109108655Y-100914729D01*
X109109500Y-100923312D01*
X109109500Y-100928758D01*
X109109499Y-100928758D01*
X109110298Y-100932774D01*
X109120553Y-100984329D01*
X109162657Y-101047343D01*
X109179436Y-101058554D01*
X109191572Y-101070690D01*
X109195294Y-101076260D01*
X109201866Y-101109282D01*
X109201483Y-101111209D01*
X109182778Y-101139213D01*
X109182772Y-101139217D01*
X109162660Y-101152654D01*
X109162654Y-101152660D01*
X109120551Y-101215672D01*
X109119921Y-101217749D01*
X109119708Y-101219918D01*
X109109500Y-101271238D01*
X109109500Y-101568762D01*
X109120553Y-101624329D01*
X109162657Y-101687343D01*
X109225671Y-101729447D01*
X109225673Y-101729447D01*
X109225674Y-101729448D01*
X109227967Y-101730398D01*
X109235580Y-101734466D01*
X109243993Y-101740087D01*
X109261653Y-101763896D01*
X109262604Y-101767030D01*
X109264500Y-101779806D01*
X109264500Y-101916894D01*
X109261150Y-101933733D01*
X109254961Y-101948674D01*
X109245424Y-101962948D01*
X108921133Y-102287240D01*
X108921129Y-102287241D01*
X108870127Y-102338242D01*
X108866780Y-102346327D01*
X108866778Y-102346331D01*
X108855073Y-102374591D01*
X108855072Y-102374594D01*
X108849499Y-102388045D01*
X108849499Y-102448289D01*
X108849500Y-102448307D01*
X108849500Y-103343695D01*
X108849499Y-103343751D01*
X108849499Y-103401955D01*
X108852842Y-103410026D01*
X108852844Y-103410029D01*
X108853340Y-103411227D01*
X108853412Y-103411399D01*
X108855157Y-103420164D01*
X108860116Y-103427586D01*
X108870126Y-103451752D01*
X108870127Y-103451753D01*
X108870128Y-103451755D01*
X108908245Y-103489872D01*
X108908246Y-103489872D01*
X109010424Y-103592050D01*
X109019961Y-103606324D01*
X109026150Y-103621265D01*
X109029500Y-103638104D01*
X109029500Y-103798910D01*
X109029501Y-103798915D01*
X109033905Y-103821060D01*
X109034190Y-103823959D01*
X109035309Y-103826660D01*
X109037156Y-103828911D01*
X109052942Y-103852537D01*
X109054754Y-103855248D01*
X109059699Y-103858552D01*
X109060874Y-103860310D01*
X109071839Y-103870690D01*
X109075560Y-103876258D01*
X109077270Y-103884846D01*
X109078410Y-103886552D01*
X109078040Y-103888716D01*
X109082135Y-103909275D01*
X109081753Y-103911199D01*
X109063053Y-103939206D01*
X109063042Y-103939213D01*
X109058510Y-103942241D01*
X109058508Y-103942243D01*
X109054754Y-103944752D01*
X109054750Y-103944756D01*
X109034751Y-103974688D01*
X109034751Y-103974689D01*
X109032442Y-103986296D01*
X109032441Y-103986298D01*
X109030099Y-103998074D01*
X109029501Y-104001085D01*
X109029500Y-104001088D01*
X109029500Y-104298910D01*
X109029501Y-104298915D01*
X109033905Y-104321060D01*
X109033785Y-104322982D01*
X109035309Y-104326660D01*
X109037156Y-104328911D01*
X109054753Y-104355247D01*
X109084689Y-104375249D01*
X109111087Y-104380500D01*
X109112626Y-104380499D01*
X109129464Y-104383845D01*
X109144412Y-104390036D01*
X109154542Y-104396804D01*
X109154908Y-104396328D01*
X109157194Y-104398081D01*
X109157198Y-104398085D01*
X109229141Y-104439622D01*
X109309383Y-104461123D01*
X109309385Y-104461123D01*
X109392456Y-104461123D01*
X109392457Y-104461123D01*
X109400656Y-104458925D01*
X109417782Y-104457801D01*
X109424428Y-104458675D01*
X109453590Y-104475508D01*
X109455403Y-104477870D01*
X109464500Y-104504661D01*
X109464500Y-104967966D01*
X109461150Y-104984805D01*
X109457636Y-104993288D01*
X109437728Y-105015254D01*
X109434845Y-105016795D01*
X109429586Y-105018677D01*
X109429676Y-105018893D01*
X109425675Y-105020549D01*
X109362660Y-105062654D01*
X109362654Y-105062660D01*
X109320551Y-105125672D01*
X109319921Y-105127749D01*
X109319708Y-105129918D01*
X109317642Y-105140306D01*
X109309500Y-105181238D01*
X109309500Y-105478762D01*
X109320553Y-105534329D01*
X109362657Y-105597343D01*
X109425671Y-105639447D01*
X109481238Y-105650500D01*
X109481241Y-105650500D01*
X109718758Y-105650500D01*
X109718759Y-105650500D01*
X109718762Y-105650500D01*
X109738337Y-105646606D01*
X109755499Y-105646606D01*
X109762074Y-105647914D01*
X109790064Y-105666614D01*
X109792081Y-105669631D01*
X109799500Y-105694080D01*
X109799500Y-106363192D01*
X109796150Y-106380032D01*
X109793586Y-106386221D01*
X109769772Y-106410033D01*
X109769768Y-106410034D01*
X109766418Y-106411421D01*
X109741004Y-106413923D01*
X109732868Y-106412305D01*
X109732868Y-106412304D01*
X109718766Y-106409500D01*
X109718762Y-106409500D01*
X109481238Y-106409500D01*
X109439562Y-106417789D01*
X109439559Y-106417789D01*
X109425672Y-106420551D01*
X109362660Y-106462654D01*
X109362658Y-106462655D01*
X109362658Y-106462656D01*
X109362653Y-106462661D01*
X109362652Y-106462663D01*
X109345942Y-106487669D01*
X109333807Y-106499805D01*
X109322919Y-106507082D01*
X109298470Y-106514500D01*
X109204255Y-106514500D01*
X109187418Y-106511151D01*
X109175315Y-106506138D01*
X109155568Y-106489932D01*
X109139243Y-106465500D01*
X109137345Y-106462659D01*
X109137344Y-106462657D01*
X109074329Y-106420553D01*
X109074319Y-106420549D01*
X109057329Y-106417170D01*
X109041470Y-106410601D01*
X109029100Y-106402336D01*
X109015441Y-106387751D01*
X109003126Y-106366420D01*
X109002641Y-106365520D01*
X109002464Y-106365274D01*
X108980909Y-106343719D01*
X108943725Y-106306534D01*
X108943719Y-106306530D01*
X108943717Y-106306528D01*
X108943707Y-106306522D01*
X108871784Y-106264997D01*
X108871776Y-106264993D01*
X108871778Y-106264993D01*
X108819532Y-106250994D01*
X108791536Y-106243493D01*
X108791534Y-106243493D01*
X108708466Y-106243493D01*
X108708464Y-106243493D01*
X108654969Y-106257827D01*
X108628220Y-106264994D01*
X108628214Y-106264997D01*
X108558778Y-106305087D01*
X108556695Y-106306114D01*
X108497121Y-106365688D01*
X108496094Y-106367771D01*
X108456004Y-106437207D01*
X108456000Y-106437214D01*
X108451516Y-106453952D01*
X108434500Y-106517457D01*
X108434500Y-106600529D01*
X108434651Y-106601091D01*
X108434655Y-106601122D01*
X108434659Y-106601121D01*
X108456001Y-106680771D01*
X108456003Y-106680775D01*
X108475619Y-106714750D01*
X108481393Y-106724751D01*
X108487166Y-106734751D01*
X108497536Y-106752711D01*
X108497540Y-106752717D01*
X108529043Y-106784219D01*
X108529043Y-106784220D01*
X108549191Y-106804367D01*
X108556279Y-106811455D01*
X108571269Y-106820109D01*
X108579920Y-106825104D01*
X108592826Y-106836421D01*
X108600406Y-106846300D01*
X108609500Y-106873086D01*
X108609500Y-106878762D01*
X108620553Y-106934329D01*
X108662657Y-106997343D01*
X108725671Y-107039447D01*
X108781238Y-107050500D01*
X108781241Y-107050500D01*
X109018758Y-107050500D01*
X109018762Y-107050500D01*
X109074329Y-107039447D01*
X109137343Y-106997343D01*
X109146570Y-106983534D01*
X109148299Y-106980947D01*
X109151455Y-106976222D01*
X109154055Y-106972331D01*
X109166193Y-106960193D01*
X109177086Y-106952915D01*
X109201530Y-106945500D01*
X109295745Y-106945500D01*
X109312582Y-106948849D01*
X109324683Y-106953861D01*
X109344430Y-106970067D01*
X109362652Y-106997338D01*
X109362655Y-106997340D01*
X109362657Y-106997343D01*
X109425671Y-107039447D01*
X109481238Y-107050500D01*
X109481241Y-107050500D01*
X109718758Y-107050500D01*
X109718759Y-107050500D01*
X109718762Y-107050500D01*
X109738337Y-107046606D01*
X109755499Y-107046606D01*
X109762074Y-107047914D01*
X109790064Y-107066614D01*
X109792081Y-107069631D01*
X109799500Y-107094080D01*
X109799500Y-107876711D01*
X109796149Y-107893552D01*
X109794336Y-107897928D01*
X109770522Y-107921739D01*
X109736864Y-107921744D01*
X109735327Y-107921108D01*
X109715566Y-107904896D01*
X109687343Y-107862657D01*
X109638353Y-107829923D01*
X109627037Y-107818970D01*
X109618305Y-107806786D01*
X109611572Y-107792548D01*
X109608857Y-107782414D01*
X109599146Y-107746172D01*
X109557609Y-107674229D01*
X109498868Y-107615488D01*
X109498867Y-107615487D01*
X109498866Y-107615486D01*
X109426933Y-107573955D01*
X109426926Y-107573951D01*
X109426924Y-107573950D01*
X109425152Y-107573476D01*
X109402943Y-107567525D01*
X109346683Y-107552450D01*
X109346682Y-107552450D01*
X109263613Y-107552450D01*
X109263611Y-107552450D01*
X109211042Y-107566536D01*
X109183367Y-107573951D01*
X109183361Y-107573954D01*
X109113925Y-107614044D01*
X109111842Y-107615071D01*
X109052268Y-107674645D01*
X109051241Y-107676728D01*
X109011151Y-107746164D01*
X109011148Y-107746170D01*
X109007023Y-107761567D01*
X109004698Y-107770243D01*
X108989647Y-107826414D01*
X108989647Y-107909486D01*
X108996176Y-107933851D01*
X108999816Y-107947437D01*
X109011147Y-107989727D01*
X109017471Y-108000680D01*
X109034257Y-108029754D01*
X109051241Y-108059169D01*
X109052270Y-108061256D01*
X109080424Y-108089411D01*
X109089961Y-108103684D01*
X109096150Y-108118625D01*
X109099500Y-108135464D01*
X109099500Y-108218762D01*
X109110553Y-108274329D01*
X109152657Y-108337343D01*
X109215671Y-108379447D01*
X109271238Y-108390500D01*
X109356747Y-108390500D01*
X109373582Y-108393848D01*
X109379771Y-108396411D01*
X109403585Y-108420222D01*
X109403586Y-108420223D01*
X109406150Y-108426412D01*
X109409500Y-108443252D01*
X109409500Y-108499085D01*
X109406150Y-108515925D01*
X109401137Y-108528026D01*
X109384934Y-108547770D01*
X109362658Y-108562655D01*
X109362654Y-108562659D01*
X109335674Y-108603038D01*
X109323536Y-108615177D01*
X109317969Y-108618897D01*
X109284958Y-108625471D01*
X109283668Y-108625215D01*
X109260127Y-108612144D01*
X109259585Y-108611564D01*
X109253592Y-108603484D01*
X109253334Y-108603038D01*
X109247990Y-108593782D01*
X109247989Y-108593781D01*
X109237282Y-108575235D01*
X109209817Y-108547770D01*
X109178544Y-108516496D01*
X109178538Y-108516492D01*
X109176040Y-108515050D01*
X109106602Y-108474959D01*
X109106598Y-108474957D01*
X109106596Y-108474956D01*
X109106598Y-108474956D01*
X109054352Y-108460957D01*
X109026356Y-108453456D01*
X109026354Y-108453456D01*
X108943286Y-108453456D01*
X108943284Y-108453456D01*
X108889789Y-108467790D01*
X108863040Y-108474957D01*
X108863034Y-108474960D01*
X108793598Y-108515050D01*
X108791513Y-108516078D01*
X108732361Y-108575229D01*
X108732359Y-108575232D01*
X108697887Y-108634937D01*
X108686571Y-108647841D01*
X108683834Y-108649941D01*
X108681257Y-108651918D01*
X108648732Y-108660637D01*
X108648725Y-108660636D01*
X108645771Y-108660247D01*
X108620403Y-108647737D01*
X108195912Y-108223246D01*
X108195912Y-108223245D01*
X108157795Y-108185127D01*
X108120701Y-108169761D01*
X108120697Y-108169761D01*
X108107995Y-108164499D01*
X108107994Y-108164499D01*
X108107993Y-108164499D01*
X108054087Y-108164499D01*
X108048968Y-108164499D01*
X108047616Y-108164499D01*
X108047584Y-108164500D01*
X107668253Y-108164500D01*
X107651415Y-108161151D01*
X107645225Y-108158587D01*
X107621412Y-108134774D01*
X107621411Y-108134771D01*
X107618848Y-108128582D01*
X107615500Y-108111747D01*
X107615500Y-107947437D01*
X107615500Y-107947435D01*
X107615500Y-107947434D01*
X107606622Y-107902803D01*
X107605127Y-107900566D01*
X107579799Y-107862658D01*
X107572807Y-107852193D01*
X107542682Y-107832065D01*
X107522198Y-107818378D01*
X107522194Y-107818376D01*
X107509627Y-107815876D01*
X107509619Y-107815876D01*
X107477566Y-107809500D01*
X107477563Y-107809500D01*
X107322434Y-107809500D01*
X107292678Y-107815418D01*
X107292677Y-107815417D01*
X107277803Y-107818377D01*
X107277802Y-107818377D01*
X107227196Y-107852190D01*
X107227190Y-107852196D01*
X107190591Y-107906972D01*
X107189314Y-107909672D01*
X107186553Y-107913805D01*
X107158554Y-107932517D01*
X107125524Y-107925950D01*
X107107735Y-107899830D01*
X107107414Y-107899931D01*
X107107083Y-107898872D01*
X107106969Y-107898705D01*
X107106941Y-107898575D01*
X107106830Y-107898063D01*
X107059002Y-107782410D01*
X107056509Y-107774181D01*
X107054845Y-107765812D01*
X107054000Y-107757229D01*
X107054001Y-107744800D01*
X107054001Y-107729696D01*
X107054002Y-107632391D01*
X107054055Y-107630289D01*
X107054161Y-107628133D01*
X107054319Y-107625999D01*
X107054946Y-107619638D01*
X107068005Y-107487080D01*
X107068633Y-107482850D01*
X107069482Y-107478582D01*
X107070519Y-107474443D01*
X107110102Y-107343968D01*
X107111542Y-107339942D01*
X107113202Y-107335935D01*
X107115034Y-107332060D01*
X107118285Y-107325978D01*
X107144317Y-107304615D01*
X107145223Y-107304350D01*
X107239815Y-107277956D01*
X107268482Y-107279688D01*
X107272241Y-107281245D01*
X107272244Y-107281247D01*
X107307556Y-107288271D01*
X107342867Y-107281247D01*
X107365246Y-107266293D01*
X107696048Y-106935490D01*
X107711003Y-106913111D01*
X107718027Y-106877800D01*
X107711003Y-106842488D01*
X107696049Y-106820109D01*
X107329891Y-106453952D01*
X107329890Y-106453951D01*
X107329889Y-106453950D01*
X107314997Y-106443999D01*
X107307512Y-106438997D01*
X107272200Y-106431973D01*
X107236887Y-106438997D01*
X107214509Y-106453951D01*
X106883708Y-106784752D01*
X106879473Y-106791090D01*
X106870601Y-106804367D01*
X106870600Y-106804369D01*
X106870599Y-106804368D01*
X106868754Y-106807129D01*
X106867572Y-106809983D01*
X106867143Y-106811327D01*
X106867271Y-106811370D01*
X106866582Y-106813421D01*
X106858247Y-106849739D01*
X106858246Y-106849745D01*
X106849150Y-107160695D01*
X106844373Y-107179384D01*
X106824406Y-107218570D01*
X106824371Y-107218640D01*
X106772348Y-107378738D01*
X106772346Y-107378747D01*
X106772343Y-107378762D01*
X106746006Y-107545014D01*
X106746006Y-107545015D01*
X106746004Y-107545031D01*
X106746004Y-107618748D01*
X106746000Y-107757231D01*
X106745154Y-107765815D01*
X106743489Y-107774184D01*
X106740995Y-107782414D01*
X106693169Y-107898062D01*
X106693058Y-107898575D01*
X106692873Y-107899009D01*
X106692585Y-107899932D01*
X106692493Y-107899903D01*
X106686649Y-107913660D01*
X106685658Y-107915143D01*
X106657656Y-107933851D01*
X106624628Y-107927280D01*
X106624522Y-107927209D01*
X106624406Y-107927131D01*
X106608318Y-107907481D01*
X106608116Y-107906994D01*
X106606657Y-107902919D01*
X106606622Y-107902804D01*
X106606622Y-107902803D01*
X106579799Y-107862658D01*
X106572807Y-107852193D01*
X106542682Y-107832065D01*
X106522198Y-107818378D01*
X106522194Y-107818376D01*
X106509627Y-107815876D01*
X106509619Y-107815876D01*
X106477566Y-107809500D01*
X106477563Y-107809500D01*
X106322434Y-107809500D01*
X106292678Y-107815418D01*
X106292677Y-107815417D01*
X106277803Y-107818377D01*
X106277802Y-107818377D01*
X106227196Y-107852190D01*
X106227190Y-107852196D01*
X106190592Y-107906970D01*
X106189315Y-107909671D01*
X106185663Y-107915138D01*
X106157664Y-107933851D01*
X106124636Y-107927285D01*
X106124453Y-107927163D01*
X106124336Y-107927084D01*
X106108318Y-107907481D01*
X106108116Y-107906994D01*
X106106657Y-107902919D01*
X106106622Y-107902804D01*
X106106622Y-107902803D01*
X106079799Y-107862658D01*
X106072807Y-107852193D01*
X106042682Y-107832065D01*
X106022198Y-107818378D01*
X106022194Y-107818376D01*
X106009627Y-107815876D01*
X106009619Y-107815876D01*
X105977566Y-107809500D01*
X105977563Y-107809500D01*
X105822434Y-107809500D01*
X105792678Y-107815418D01*
X105792677Y-107815417D01*
X105777803Y-107818377D01*
X105777802Y-107818377D01*
X105727196Y-107852190D01*
X105727190Y-107852196D01*
X105704073Y-107886794D01*
X105676072Y-107905504D01*
X105643043Y-107898934D01*
X105624333Y-107870933D01*
X105623489Y-107862062D01*
X105623927Y-107796850D01*
X105622706Y-107780976D01*
X105622227Y-107778017D01*
X105622004Y-107765541D01*
X105641317Y-107611032D01*
X105648612Y-107591720D01*
X105708795Y-107503378D01*
X105731820Y-107488146D01*
X105731307Y-107486908D01*
X105735307Y-107485251D01*
X105735309Y-107485249D01*
X105735311Y-107485249D01*
X105765247Y-107465247D01*
X105785249Y-107435311D01*
X105790500Y-107408913D01*
X105790499Y-106791088D01*
X105788000Y-106778523D01*
X105952203Y-106778523D01*
X105952203Y-106861595D01*
X105966006Y-106913109D01*
X105966005Y-106913109D01*
X105973703Y-106941836D01*
X105973704Y-106941837D01*
X105973706Y-106941841D01*
X105983259Y-106958387D01*
X106015241Y-107013780D01*
X106073982Y-107072521D01*
X106145925Y-107114058D01*
X106226167Y-107135559D01*
X106226169Y-107135559D01*
X106309237Y-107135559D01*
X106309239Y-107135559D01*
X106389481Y-107114058D01*
X106461424Y-107072521D01*
X106520165Y-107013780D01*
X106561702Y-106941837D01*
X106583203Y-106861595D01*
X106583203Y-106778523D01*
X106561702Y-106698281D01*
X106520165Y-106626338D01*
X106461424Y-106567597D01*
X106461423Y-106567596D01*
X106461422Y-106567595D01*
X106389487Y-106526063D01*
X106389479Y-106526059D01*
X106389481Y-106526059D01*
X106333840Y-106511151D01*
X106309239Y-106504559D01*
X106309237Y-106504559D01*
X106226168Y-106504559D01*
X106226167Y-106504559D01*
X106178898Y-106517225D01*
X106178032Y-106517457D01*
X106145923Y-106526060D01*
X106145917Y-106526063D01*
X106076481Y-106566153D01*
X106074398Y-106567180D01*
X106014824Y-106626754D01*
X106013797Y-106628837D01*
X105973707Y-106698273D01*
X105973704Y-106698279D01*
X105972438Y-106703004D01*
X105969291Y-106714750D01*
X105952203Y-106778523D01*
X105788000Y-106778523D01*
X105785249Y-106764689D01*
X105765247Y-106734753D01*
X105754316Y-106727449D01*
X105754315Y-106727448D01*
X105754315Y-106727449D01*
X105735311Y-106714751D01*
X105735296Y-106714748D01*
X105708913Y-106709500D01*
X105708910Y-106709500D01*
X105391088Y-106709500D01*
X105391083Y-106709501D01*
X105370803Y-106713534D01*
X105370799Y-106713535D01*
X105364690Y-106714750D01*
X105364689Y-106714750D01*
X105363207Y-106715740D01*
X105363204Y-106715741D01*
X105345235Y-106727747D01*
X105341603Y-106728657D01*
X105323736Y-106740596D01*
X105290710Y-106747166D01*
X105288648Y-106746756D01*
X105266116Y-106734714D01*
X105263572Y-106732170D01*
X105261299Y-106731919D01*
X105260254Y-106730615D01*
X105258056Y-106729948D01*
X105254315Y-106727449D01*
X105254313Y-106727447D01*
X105235311Y-106714751D01*
X105235296Y-106714748D01*
X105208913Y-106709500D01*
X105208910Y-106709500D01*
X104891088Y-106709500D01*
X104891083Y-106709501D01*
X104870803Y-106713534D01*
X104870799Y-106713535D01*
X104864690Y-106714750D01*
X104864689Y-106714750D01*
X104863207Y-106715740D01*
X104863204Y-106715741D01*
X104845235Y-106727747D01*
X104841603Y-106728657D01*
X104823736Y-106740596D01*
X104790710Y-106747166D01*
X104788648Y-106746756D01*
X104766116Y-106734714D01*
X104763572Y-106732170D01*
X104761299Y-106731919D01*
X104760254Y-106730615D01*
X104758056Y-106729948D01*
X104754315Y-106727449D01*
X104754313Y-106727447D01*
X104735311Y-106714751D01*
X104735296Y-106714748D01*
X104708913Y-106709500D01*
X104708910Y-106709500D01*
X104391088Y-106709500D01*
X104391083Y-106709501D01*
X104370803Y-106713534D01*
X104370799Y-106713535D01*
X104364690Y-106714750D01*
X104364689Y-106714750D01*
X104363207Y-106715740D01*
X104363204Y-106715741D01*
X104345235Y-106727747D01*
X104341603Y-106728657D01*
X104323736Y-106740596D01*
X104290710Y-106747166D01*
X104288648Y-106746756D01*
X104266116Y-106734714D01*
X104263572Y-106732170D01*
X104261299Y-106731919D01*
X104260254Y-106730615D01*
X104258056Y-106729948D01*
X104254315Y-106727449D01*
X104254313Y-106727447D01*
X104235311Y-106714751D01*
X104235296Y-106714748D01*
X104208913Y-106709500D01*
X104208910Y-106709500D01*
X103891088Y-106709500D01*
X103891083Y-106709501D01*
X103868939Y-106713905D01*
X103866767Y-106714118D01*
X103864691Y-106714748D01*
X103834756Y-106734750D01*
X103834754Y-106734751D01*
X103834754Y-106734752D01*
X103834750Y-106734756D01*
X103828473Y-106744151D01*
X103814749Y-106764690D01*
X103814119Y-106766767D01*
X103813906Y-106768936D01*
X103809500Y-106791088D01*
X103809500Y-106916526D01*
X103796613Y-106947639D01*
X103787481Y-106954642D01*
X103737380Y-106983534D01*
X103703989Y-106987913D01*
X103677283Y-106967399D01*
X103674748Y-106962256D01*
X103671370Y-106954101D01*
X103668868Y-106945853D01*
X103656691Y-106884637D01*
X103604089Y-106805911D01*
X103525363Y-106753309D01*
X103455942Y-106739500D01*
X103455938Y-106739500D01*
X103176753Y-106739500D01*
X103159915Y-106736151D01*
X103153725Y-106733587D01*
X103129912Y-106709774D01*
X103129911Y-106709771D01*
X103127348Y-106703582D01*
X103124000Y-106686747D01*
X103124000Y-106634319D01*
X103127349Y-106617482D01*
X103130862Y-106609000D01*
X103150766Y-106587035D01*
X103153657Y-106585490D01*
X103165814Y-106581140D01*
X103174329Y-106579447D01*
X103237343Y-106537343D01*
X103279447Y-106474329D01*
X103290500Y-106418762D01*
X103290500Y-106181238D01*
X103279447Y-106125671D01*
X103267950Y-106108464D01*
X106384500Y-106108464D01*
X106384500Y-106191536D01*
X106398422Y-106243493D01*
X106406001Y-106271778D01*
X106406003Y-106271782D01*
X106447536Y-106343719D01*
X106447538Y-106343721D01*
X106506279Y-106402462D01*
X106578222Y-106443999D01*
X106658464Y-106465500D01*
X106658466Y-106465500D01*
X106741534Y-106465500D01*
X106741536Y-106465500D01*
X106821778Y-106443999D01*
X106893721Y-106402462D01*
X106952462Y-106343721D01*
X106993999Y-106271778D01*
X107015500Y-106191536D01*
X107015500Y-106108464D01*
X106993999Y-106028222D01*
X106990522Y-106022200D01*
X107681973Y-106022200D01*
X107682446Y-106024579D01*
X107682446Y-106024580D01*
X107683376Y-106029254D01*
X107688997Y-106057512D01*
X107703951Y-106079891D01*
X108070109Y-106446048D01*
X108092488Y-106461003D01*
X108127800Y-106468027D01*
X108163111Y-106461003D01*
X108185490Y-106446049D01*
X108516292Y-106115246D01*
X108531247Y-106092867D01*
X108538271Y-106057556D01*
X108531247Y-106022244D01*
X108528270Y-106017789D01*
X108526763Y-106015533D01*
X108519604Y-105995828D01*
X108519027Y-105990498D01*
X108508132Y-105889946D01*
X108517593Y-105857627D01*
X108520754Y-105854103D01*
X108532475Y-105842384D01*
X108544311Y-105824669D01*
X108549775Y-105818012D01*
X108672386Y-105695405D01*
X108688323Y-105679470D01*
X108691535Y-105676259D01*
X108742053Y-105625742D01*
X108751417Y-105611729D01*
X108821441Y-105506931D01*
X108875961Y-105375305D01*
X108879943Y-105367829D01*
X108966942Y-105236767D01*
X108969915Y-105229603D01*
X108980955Y-105203002D01*
X108980956Y-105202996D01*
X108980960Y-105202988D01*
X108982713Y-105194370D01*
X108983007Y-105157809D01*
X108981246Y-105148383D01*
X108980499Y-105140306D01*
X108980499Y-104511092D01*
X108980499Y-104511090D01*
X108980499Y-104511088D01*
X108975249Y-104484689D01*
X108955247Y-104454753D01*
X108955245Y-104454752D01*
X108955245Y-104454751D01*
X108945269Y-104448086D01*
X108940280Y-104444753D01*
X108940280Y-104444752D01*
X108925317Y-104434753D01*
X108925311Y-104434751D01*
X108925296Y-104434748D01*
X108898913Y-104429500D01*
X108898910Y-104429500D01*
X108601088Y-104429500D01*
X108601083Y-104429501D01*
X108578939Y-104433905D01*
X108576767Y-104434118D01*
X108574691Y-104434748D01*
X108544756Y-104454750D01*
X108544748Y-104454758D01*
X108524749Y-104484690D01*
X108524119Y-104486767D01*
X108523906Y-104488936D01*
X108522929Y-104493848D01*
X108519501Y-104511085D01*
X108519500Y-104511088D01*
X108519500Y-105188910D01*
X108519501Y-105188914D01*
X108523905Y-105211060D01*
X108524190Y-105213959D01*
X108526425Y-105219354D01*
X108531181Y-105226471D01*
X108557967Y-105291088D01*
X108560193Y-105296458D01*
X108560202Y-105330134D01*
X108558351Y-105334049D01*
X108528716Y-105389490D01*
X108526499Y-105393190D01*
X108524112Y-105396763D01*
X108521537Y-105400234D01*
X108475801Y-105455963D01*
X108474385Y-105457605D01*
X108472947Y-105459191D01*
X108471472Y-105460740D01*
X108467827Y-105464387D01*
X108467818Y-105464396D01*
X108331986Y-105600222D01*
X108325320Y-105605693D01*
X108307615Y-105617522D01*
X108295903Y-105629235D01*
X108264789Y-105642121D01*
X108260051Y-105641865D01*
X108154163Y-105630391D01*
X108134456Y-105623230D01*
X108127759Y-105618755D01*
X108127758Y-105618754D01*
X108127756Y-105618753D01*
X108092444Y-105611729D01*
X108057131Y-105618753D01*
X108034753Y-105633707D01*
X107850454Y-105818007D01*
X107703952Y-105964509D01*
X107703459Y-105965247D01*
X107688997Y-105986889D01*
X107681973Y-106022200D01*
X106990522Y-106022200D01*
X106952462Y-105956279D01*
X106893721Y-105897538D01*
X106893720Y-105897537D01*
X106893719Y-105897536D01*
X106821784Y-105856004D01*
X106821776Y-105856000D01*
X106821778Y-105856000D01*
X106769532Y-105842001D01*
X106741536Y-105834500D01*
X106741534Y-105834500D01*
X106658466Y-105834500D01*
X106658464Y-105834500D01*
X106604969Y-105848834D01*
X106578220Y-105856001D01*
X106578214Y-105856004D01*
X106508778Y-105896094D01*
X106506695Y-105897121D01*
X106447121Y-105956695D01*
X106446094Y-105958778D01*
X106406005Y-106028212D01*
X106405979Y-106028263D01*
X106405830Y-106028859D01*
X106384500Y-106108464D01*
X103267950Y-106108464D01*
X103237343Y-106062657D01*
X103174329Y-106020553D01*
X103118762Y-106009500D01*
X103118759Y-106009500D01*
X102821240Y-106009500D01*
X102821238Y-106009500D01*
X102779562Y-106017789D01*
X102779559Y-106017789D01*
X102765672Y-106020551D01*
X102702660Y-106062654D01*
X102702651Y-106062663D01*
X102691445Y-106079435D01*
X102679307Y-106091574D01*
X102673740Y-106095294D01*
X102640712Y-106101865D01*
X102638786Y-106101482D01*
X102610785Y-106082774D01*
X102610783Y-106082772D01*
X102608858Y-106079891D01*
X102608553Y-106079435D01*
X102597343Y-106062657D01*
X102534329Y-106020553D01*
X102478762Y-106009500D01*
X102478759Y-106009500D01*
X102302753Y-106009500D01*
X102285915Y-106006151D01*
X102279725Y-106003587D01*
X102255912Y-105979774D01*
X102255911Y-105979771D01*
X102253348Y-105973582D01*
X102250000Y-105956747D01*
X102250000Y-105291087D01*
X103809500Y-105291087D01*
X103809500Y-105291088D01*
X103809500Y-105291090D01*
X103809500Y-105292958D01*
X103809500Y-105908910D01*
X103809501Y-105908915D01*
X103813905Y-105931060D01*
X103814190Y-105933959D01*
X103815309Y-105936660D01*
X103817156Y-105938911D01*
X103834753Y-105965247D01*
X103864689Y-105985249D01*
X103891087Y-105990500D01*
X104208912Y-105990499D01*
X104235311Y-105985249D01*
X104254765Y-105972250D01*
X104258480Y-105971318D01*
X104269837Y-105963708D01*
X104269838Y-105963709D01*
X104276218Y-105959433D01*
X104309234Y-105952820D01*
X104309891Y-105952949D01*
X104311302Y-105953229D01*
X104333847Y-105965252D01*
X104337218Y-105968617D01*
X104341942Y-105970050D01*
X104364689Y-105985249D01*
X104391087Y-105990500D01*
X104708912Y-105990499D01*
X104735311Y-105985249D01*
X104765247Y-105965247D01*
X104785249Y-105935311D01*
X104790500Y-105908913D01*
X104790499Y-105291088D01*
X104785249Y-105264689D01*
X104765247Y-105234753D01*
X104757540Y-105229604D01*
X104757540Y-105229603D01*
X104735312Y-105214751D01*
X104728847Y-105213465D01*
X104708913Y-105209500D01*
X104708910Y-105209500D01*
X104446971Y-105209500D01*
X104430133Y-105206151D01*
X104423943Y-105203587D01*
X104400133Y-105179781D01*
X104399355Y-105177904D01*
X104399183Y-105144642D01*
X104404395Y-105131685D01*
X104412582Y-105118595D01*
X104416610Y-105114144D01*
X104457921Y-105058323D01*
X104486789Y-105040982D01*
X104493289Y-105040499D01*
X104508908Y-105040499D01*
X104508912Y-105040499D01*
X104535311Y-105035249D01*
X104565247Y-105015247D01*
X104585249Y-104985311D01*
X104590500Y-104958913D01*
X104590499Y-104501088D01*
X105209500Y-104501088D01*
X105209500Y-104958910D01*
X105209501Y-104958915D01*
X105213905Y-104981060D01*
X105214190Y-104983959D01*
X105215309Y-104986660D01*
X105217156Y-104988911D01*
X105234753Y-105015247D01*
X105264689Y-105035249D01*
X105264690Y-105035249D01*
X105267454Y-105037096D01*
X105282187Y-105053654D01*
X105303388Y-105095130D01*
X105303945Y-105096073D01*
X105309408Y-105110954D01*
X105315350Y-105145417D01*
X105314482Y-105162826D01*
X105314669Y-105162859D01*
X105314405Y-105164367D01*
X105314392Y-105164645D01*
X105314298Y-105164982D01*
X105314297Y-105164985D01*
X105305003Y-105289688D01*
X105305003Y-105289695D01*
X105306536Y-105315224D01*
X105306536Y-105315228D01*
X105307735Y-105321323D01*
X105308004Y-105322326D01*
X105309500Y-105333702D01*
X105309500Y-105908910D01*
X105309501Y-105908915D01*
X105313905Y-105931060D01*
X105314190Y-105933959D01*
X105315309Y-105936660D01*
X105317156Y-105938911D01*
X105334753Y-105965247D01*
X105364689Y-105985249D01*
X105391087Y-105990500D01*
X105708912Y-105990499D01*
X105735311Y-105985249D01*
X105765247Y-105965247D01*
X105785249Y-105935311D01*
X105790500Y-105908913D01*
X105790499Y-105291088D01*
X105785249Y-105264689D01*
X105765247Y-105234753D01*
X105757540Y-105229604D01*
X105757540Y-105229603D01*
X105735312Y-105214751D01*
X105735302Y-105214749D01*
X105735284Y-105214745D01*
X105718675Y-105211441D01*
X105691652Y-105194133D01*
X105670492Y-105164980D01*
X105625058Y-105102385D01*
X105617309Y-105084019D01*
X105610899Y-105046847D01*
X105610698Y-105033184D01*
X105612275Y-105022084D01*
X105612275Y-105022082D01*
X105612276Y-105022075D01*
X105596013Y-104728088D01*
X105596009Y-104728012D01*
X105595974Y-104727411D01*
X105595952Y-104727074D01*
X105595952Y-104727069D01*
X105592044Y-104712714D01*
X105590499Y-104701156D01*
X105590499Y-104543251D01*
X105593847Y-104526415D01*
X105596412Y-104520222D01*
X105620220Y-104496412D01*
X105626417Y-104493845D01*
X105643248Y-104490499D01*
X105801894Y-104490499D01*
X105818730Y-104493848D01*
X105833671Y-104500036D01*
X105847948Y-104509574D01*
X106447945Y-105109571D01*
X106448000Y-105109628D01*
X106448512Y-105110140D01*
X106448513Y-105110141D01*
X106466121Y-105127749D01*
X106480986Y-105142613D01*
X106483244Y-105147191D01*
X106491744Y-105154643D01*
X106491744Y-105154644D01*
X106501497Y-105163193D01*
X106510593Y-105174276D01*
X106519042Y-105188910D01*
X106519045Y-105188914D01*
X106542538Y-105229604D01*
X106601279Y-105288345D01*
X106673222Y-105329882D01*
X106753464Y-105351383D01*
X106753466Y-105351383D01*
X106836534Y-105351383D01*
X106836536Y-105351383D01*
X106916778Y-105329882D01*
X106988721Y-105288345D01*
X107047462Y-105229604D01*
X107088999Y-105157661D01*
X107110500Y-105077419D01*
X107110500Y-104994347D01*
X107088999Y-104914105D01*
X107047462Y-104842162D01*
X106988721Y-104783421D01*
X106988720Y-104783420D01*
X106988719Y-104783419D01*
X106916784Y-104741887D01*
X106916776Y-104741883D01*
X106916778Y-104741883D01*
X106864532Y-104727884D01*
X106836536Y-104720383D01*
X106836534Y-104720383D01*
X106753466Y-104720383D01*
X106753464Y-104720383D01*
X106699969Y-104734717D01*
X106673220Y-104741884D01*
X106673214Y-104741887D01*
X106603780Y-104781976D01*
X106601694Y-104783004D01*
X106590464Y-104794235D01*
X106576188Y-104803773D01*
X106570000Y-104806336D01*
X106536328Y-104806337D01*
X106530139Y-104803774D01*
X106515861Y-104794235D01*
X106183364Y-104461738D01*
X106173824Y-104447458D01*
X106172012Y-104443082D01*
X106172016Y-104409406D01*
X106195824Y-104385600D01*
X106200049Y-104383849D01*
X106216884Y-104380499D01*
X106492715Y-104380499D01*
X106504101Y-104381998D01*
X106514907Y-104384893D01*
X106525521Y-104389288D01*
X106542339Y-104398999D01*
X106622581Y-104420500D01*
X106622583Y-104420500D01*
X106705651Y-104420500D01*
X106705653Y-104420500D01*
X106785895Y-104398999D01*
X106802711Y-104389288D01*
X106813326Y-104384893D01*
X106824133Y-104381998D01*
X106835518Y-104380499D01*
X106888908Y-104380499D01*
X106888912Y-104380499D01*
X106915311Y-104375249D01*
X106945247Y-104355247D01*
X106965249Y-104325311D01*
X106970500Y-104298913D01*
X106970499Y-104189233D01*
X106970875Y-104183494D01*
X106971623Y-104177815D01*
X106972742Y-104172188D01*
X106974753Y-104164689D01*
X106979617Y-104146536D01*
X106979617Y-104063464D01*
X106972745Y-104037816D01*
X106971622Y-104032171D01*
X106970875Y-104026496D01*
X106970499Y-104020754D01*
X106970499Y-104001092D01*
X106970499Y-104001090D01*
X106970499Y-104001088D01*
X106965249Y-103974689D01*
X106945247Y-103944753D01*
X106945243Y-103944750D01*
X106945242Y-103944749D01*
X106942776Y-103943101D01*
X106935109Y-103936596D01*
X106928368Y-103929399D01*
X106922377Y-103921322D01*
X106916579Y-103911279D01*
X106905724Y-103900424D01*
X106893807Y-103888506D01*
X106893805Y-103888505D01*
X106857842Y-103852541D01*
X106857841Y-103852540D01*
X106857840Y-103852539D01*
X106857838Y-103852538D01*
X106857826Y-103852530D01*
X106856108Y-103851539D01*
X106856103Y-103851533D01*
X106856102Y-103851536D01*
X106810677Y-103825309D01*
X106810677Y-103825308D01*
X106785901Y-103811004D01*
X106785893Y-103811000D01*
X106785895Y-103811000D01*
X106733649Y-103797001D01*
X106705653Y-103789500D01*
X106705651Y-103789500D01*
X106622583Y-103789500D01*
X106622581Y-103789500D01*
X106569086Y-103803834D01*
X106542337Y-103811001D01*
X106542331Y-103811004D01*
X106470408Y-103852529D01*
X106470389Y-103852542D01*
X106422506Y-103900424D01*
X106408234Y-103909961D01*
X106393294Y-103916150D01*
X106376454Y-103919500D01*
X106211085Y-103919500D01*
X106201660Y-103921374D01*
X106184497Y-103921372D01*
X106177928Y-103920065D01*
X106149929Y-103901356D01*
X106148461Y-103899159D01*
X106141423Y-103868969D01*
X106141622Y-103867458D01*
X106142744Y-103861817D01*
X106145500Y-103851536D01*
X106145500Y-103768464D01*
X106142744Y-103758179D01*
X106141622Y-103752536D01*
X106140875Y-103746860D01*
X106140499Y-103741119D01*
X106140499Y-103691092D01*
X106140499Y-103691090D01*
X106140499Y-103691088D01*
X106135249Y-103664689D01*
X106115247Y-103634753D01*
X106115243Y-103634750D01*
X106115242Y-103634749D01*
X106096958Y-103622532D01*
X106096771Y-103622252D01*
X106075255Y-103607876D01*
X106068587Y-103602404D01*
X106037818Y-103571635D01*
X106028281Y-103557362D01*
X106028254Y-103557296D01*
X106026108Y-103552117D01*
X106026108Y-103518443D01*
X106047945Y-103495505D01*
X106053353Y-103492947D01*
X106063572Y-103489572D01*
X106085311Y-103485249D01*
X106115247Y-103465247D01*
X106135249Y-103435311D01*
X106138332Y-103419807D01*
X106144898Y-103403954D01*
X106148623Y-103398379D01*
X106176618Y-103379673D01*
X106183189Y-103378366D01*
X106200359Y-103378366D01*
X106202578Y-103378807D01*
X106211087Y-103380500D01*
X106888912Y-103380499D01*
X106915311Y-103375249D01*
X106945247Y-103355247D01*
X106965249Y-103325311D01*
X106970500Y-103298913D01*
X106970499Y-103001088D01*
X106965249Y-102974689D01*
X106945247Y-102944753D01*
X106940295Y-102941444D01*
X106928156Y-102929304D01*
X106924436Y-102923736D01*
X106917864Y-102890729D01*
X106918246Y-102888804D01*
X106936939Y-102860797D01*
X106945247Y-102855247D01*
X106965249Y-102825311D01*
X106970500Y-102798913D01*
X106970499Y-102501088D01*
X106965249Y-102474689D01*
X106945247Y-102444753D01*
X106945243Y-102444750D01*
X106942462Y-102442892D01*
X106942461Y-102442891D01*
X106915312Y-102424751D01*
X106908847Y-102423465D01*
X106888913Y-102419500D01*
X106888910Y-102419500D01*
X106211088Y-102419500D01*
X106211083Y-102419501D01*
X106188939Y-102423905D01*
X106186767Y-102424118D01*
X106184691Y-102424748D01*
X106154756Y-102444750D01*
X106154748Y-102444758D01*
X106134749Y-102474690D01*
X106134119Y-102476767D01*
X106133906Y-102478936D01*
X106129501Y-102501085D01*
X106129500Y-102501088D01*
X106129500Y-102798910D01*
X106129501Y-102798915D01*
X106133905Y-102821060D01*
X106134190Y-102823959D01*
X106135309Y-102826660D01*
X106137158Y-102828913D01*
X106154754Y-102855248D01*
X106159699Y-102858552D01*
X106160874Y-102860310D01*
X106171839Y-102870690D01*
X106175560Y-102876258D01*
X106177270Y-102884846D01*
X106178410Y-102886552D01*
X106178040Y-102888716D01*
X106182135Y-102909275D01*
X106181753Y-102911199D01*
X106163053Y-102939206D01*
X106163042Y-102939213D01*
X106158510Y-102942241D01*
X106158508Y-102942243D01*
X106154754Y-102944752D01*
X106154750Y-102944756D01*
X106134751Y-102974688D01*
X106134751Y-102974689D01*
X106132442Y-102986296D01*
X106132441Y-102986298D01*
X106130099Y-102998074D01*
X106129501Y-103001085D01*
X106129500Y-103001088D01*
X106129500Y-103061173D01*
X106126150Y-103078013D01*
X106123586Y-103084202D01*
X106099772Y-103108014D01*
X106096423Y-103109401D01*
X106071010Y-103111905D01*
X106069269Y-103111559D01*
X106069267Y-103111559D01*
X106069262Y-103111558D01*
X106058913Y-103109500D01*
X106058911Y-103109500D01*
X106058910Y-103109500D01*
X105963253Y-103109500D01*
X105946415Y-103106151D01*
X105940225Y-103103587D01*
X105916412Y-103079774D01*
X105916411Y-103079771D01*
X105913848Y-103073582D01*
X105910500Y-103056747D01*
X105910500Y-102570957D01*
X105913849Y-102554120D01*
X105918861Y-102542019D01*
X105935066Y-102522272D01*
X105987343Y-102487343D01*
X106029447Y-102424329D01*
X106040500Y-102368762D01*
X106040500Y-102131238D01*
X106029447Y-102075671D01*
X105987343Y-102012657D01*
X105924329Y-101970553D01*
X105868762Y-101959500D01*
X105868759Y-101959500D01*
X105863312Y-101959500D01*
X105854729Y-101958655D01*
X105844321Y-101956585D01*
X105841521Y-101955932D01*
X105761536Y-101934500D01*
X105761534Y-101934500D01*
X105678466Y-101934500D01*
X105678464Y-101934500D01*
X105624969Y-101948834D01*
X105624968Y-101948834D01*
X105598482Y-101955930D01*
X105595682Y-101956583D01*
X105585274Y-101958654D01*
X105576687Y-101959500D01*
X105571238Y-101959500D01*
X105529562Y-101967789D01*
X105529559Y-101967789D01*
X105515672Y-101970551D01*
X105452660Y-102012654D01*
X105452654Y-102012660D01*
X105410554Y-102075668D01*
X105410551Y-102075676D01*
X105410337Y-102076751D01*
X105410337Y-102076755D01*
X105399500Y-102131238D01*
X105399500Y-102131241D01*
X105399500Y-102368758D01*
X105399499Y-102368758D01*
X105399846Y-102370500D01*
X105410553Y-102424329D01*
X105452657Y-102487343D01*
X105492402Y-102513899D01*
X105502669Y-102520759D01*
X105514808Y-102532898D01*
X105522084Y-102543788D01*
X105529500Y-102568233D01*
X105529500Y-103140139D01*
X105528654Y-103148723D01*
X105526998Y-103157048D01*
X105524882Y-103164025D01*
X105523906Y-103168928D01*
X105523906Y-103168936D01*
X105519819Y-103189486D01*
X105519500Y-103191088D01*
X105519500Y-103408910D01*
X105519501Y-103408915D01*
X105523905Y-103431060D01*
X105524190Y-103433959D01*
X105525309Y-103436660D01*
X105527156Y-103438911D01*
X105544753Y-103465247D01*
X105574689Y-103485249D01*
X105595310Y-103489350D01*
X105607456Y-103493696D01*
X105614284Y-103497344D01*
X105635653Y-103523372D01*
X105633326Y-103554963D01*
X105631632Y-103558545D01*
X105622968Y-103570847D01*
X105591412Y-103602402D01*
X105584749Y-103607871D01*
X105563236Y-103622248D01*
X105563052Y-103622526D01*
X105562971Y-103622580D01*
X105544758Y-103634748D01*
X105544748Y-103634758D01*
X105524749Y-103664690D01*
X105524119Y-103666767D01*
X105523906Y-103668936D01*
X105519501Y-103691085D01*
X105519500Y-103691088D01*
X105519500Y-103741126D01*
X105519124Y-103746869D01*
X105518378Y-103752536D01*
X105517255Y-103758179D01*
X105514500Y-103768463D01*
X105514500Y-103768464D01*
X105514500Y-103851536D01*
X105514769Y-103852541D01*
X105516380Y-103858552D01*
X105517254Y-103861817D01*
X105518375Y-103867452D01*
X105519123Y-103873128D01*
X105519500Y-103878877D01*
X105519500Y-103908906D01*
X105519501Y-103908909D01*
X105519502Y-103908920D01*
X105521968Y-103921319D01*
X105524750Y-103935309D01*
X105524750Y-103935310D01*
X105524751Y-103935311D01*
X105544753Y-103965247D01*
X105547296Y-103966946D01*
X105553434Y-103971047D01*
X105565755Y-103984203D01*
X105567541Y-103986748D01*
X105567686Y-103987402D01*
X105569625Y-103990016D01*
X105576018Y-104001090D01*
X105577537Y-104003720D01*
X105605278Y-104031462D01*
X105614814Y-104045733D01*
X105617306Y-104051748D01*
X105617309Y-104085424D01*
X105597400Y-104107393D01*
X105594695Y-104108839D01*
X105582533Y-104113190D01*
X105574689Y-104114749D01*
X105544756Y-104134750D01*
X105544748Y-104134758D01*
X105524749Y-104164690D01*
X105524119Y-104166767D01*
X105523906Y-104168936D01*
X105519500Y-104191088D01*
X105519500Y-104366747D01*
X105516150Y-104383587D01*
X105513586Y-104389776D01*
X105489776Y-104413586D01*
X105483587Y-104416150D01*
X105466747Y-104419500D01*
X105291088Y-104419500D01*
X105291083Y-104419501D01*
X105268939Y-104423905D01*
X105266767Y-104424118D01*
X105264691Y-104424748D01*
X105234756Y-104444750D01*
X105234748Y-104444758D01*
X105214749Y-104474690D01*
X105214119Y-104476767D01*
X105213906Y-104478936D01*
X105209500Y-104501088D01*
X104590499Y-104501088D01*
X104585249Y-104474689D01*
X104565247Y-104444753D01*
X104560854Y-104441818D01*
X104557563Y-104439619D01*
X104535310Y-104424750D01*
X104535308Y-104424749D01*
X104533740Y-104424438D01*
X104533734Y-104424437D01*
X104533732Y-104424437D01*
X104508913Y-104419500D01*
X104508909Y-104419500D01*
X104291088Y-104419500D01*
X104291083Y-104419501D01*
X104268939Y-104423905D01*
X104266767Y-104424118D01*
X104264691Y-104424748D01*
X104234756Y-104444750D01*
X104234748Y-104444758D01*
X104214749Y-104474690D01*
X104214119Y-104476767D01*
X104213906Y-104478936D01*
X104209500Y-104501088D01*
X104209500Y-104676618D01*
X104206580Y-104692380D01*
X104204454Y-104697920D01*
X104204449Y-104697933D01*
X104142150Y-104924697D01*
X104142150Y-104924698D01*
X104126456Y-104981817D01*
X104123525Y-104997558D01*
X104123205Y-105000743D01*
X104120246Y-105012765D01*
X104098623Y-105066513D01*
X104089310Y-105080804D01*
X103976810Y-105196213D01*
X103945865Y-105209496D01*
X103945303Y-105209500D01*
X103891088Y-105209500D01*
X103891083Y-105209501D01*
X103868939Y-105213905D01*
X103866767Y-105214118D01*
X103864691Y-105214748D01*
X103834756Y-105234750D01*
X103834746Y-105234760D01*
X103814751Y-105264686D01*
X103814751Y-105264687D01*
X103814607Y-105265407D01*
X103814297Y-105266970D01*
X103809500Y-105291087D01*
X102250000Y-105291087D01*
X102250000Y-103535754D01*
X102262887Y-103504641D01*
X102294000Y-103491754D01*
X102317318Y-103498441D01*
X102367618Y-103529879D01*
X102387171Y-103557296D01*
X102387444Y-103575819D01*
X102382143Y-103602325D01*
X102375586Y-103618135D01*
X102370555Y-103625666D01*
X102370552Y-103625671D01*
X102369820Y-103628771D01*
X102369708Y-103629918D01*
X102368746Y-103634753D01*
X102359500Y-103681238D01*
X102359500Y-103918762D01*
X102370553Y-103974329D01*
X102412657Y-104037343D01*
X102475671Y-104079447D01*
X102531238Y-104090500D01*
X102531241Y-104090500D01*
X102828758Y-104090500D01*
X102828762Y-104090500D01*
X102884329Y-104079447D01*
X102947343Y-104037343D01*
X102958553Y-104020564D01*
X102970687Y-104008428D01*
X102976261Y-104004704D01*
X103009286Y-103998133D01*
X103009296Y-103998135D01*
X103011220Y-103998518D01*
X103039214Y-104017225D01*
X103045409Y-104026496D01*
X103052657Y-104037343D01*
X103115671Y-104079447D01*
X103171238Y-104090500D01*
X103171241Y-104090500D01*
X103468758Y-104090500D01*
X103468762Y-104090500D01*
X103524329Y-104079447D01*
X103524332Y-104079444D01*
X103528331Y-104077788D01*
X103528441Y-104078055D01*
X103535243Y-104074973D01*
X103538493Y-104074105D01*
X103538495Y-104074103D01*
X103538498Y-104074103D01*
X103538499Y-104074102D01*
X103549343Y-104068762D01*
X103700584Y-103994284D01*
X103726868Y-103990294D01*
X103749089Y-103993795D01*
X103757924Y-103993464D01*
X103764188Y-103991988D01*
X103765543Y-103991670D01*
X103775628Y-103990499D01*
X104198908Y-103990499D01*
X104198912Y-103990499D01*
X104225311Y-103985249D01*
X104255247Y-103965247D01*
X104275249Y-103935311D01*
X104280500Y-103908913D01*
X104280499Y-103691088D01*
X104275249Y-103664689D01*
X104255247Y-103634753D01*
X104255245Y-103634752D01*
X104255245Y-103634751D01*
X104241655Y-103625672D01*
X104241653Y-103625670D01*
X104225314Y-103614752D01*
X104225311Y-103614751D01*
X104225309Y-103614750D01*
X104225307Y-103614750D01*
X104219851Y-103613664D01*
X104219846Y-103613664D01*
X104198913Y-103609500D01*
X104198911Y-103609500D01*
X103775628Y-103609500D01*
X103765546Y-103608329D01*
X103757926Y-103606535D01*
X103749088Y-103606203D01*
X103726867Y-103609704D01*
X103700583Y-103605713D01*
X103538498Y-103525896D01*
X103538494Y-103525894D01*
X103531426Y-103523494D01*
X103528414Y-103522009D01*
X103528331Y-103522210D01*
X103524327Y-103520552D01*
X103523362Y-103520360D01*
X103517819Y-103518875D01*
X103514989Y-103517915D01*
X103514988Y-103517914D01*
X103514986Y-103517914D01*
X103514984Y-103517913D01*
X103514982Y-103517913D01*
X103509061Y-103516732D01*
X103506719Y-103516295D01*
X103506344Y-103516288D01*
X103498693Y-103515453D01*
X103492830Y-103514287D01*
X103468762Y-103509500D01*
X103468761Y-103509500D01*
X103171240Y-103509500D01*
X103171238Y-103509500D01*
X103129562Y-103517789D01*
X103129559Y-103517789D01*
X103115672Y-103520551D01*
X103052660Y-103562654D01*
X103052651Y-103562663D01*
X103041445Y-103579435D01*
X103029307Y-103591574D01*
X103023740Y-103595294D01*
X102990717Y-103601866D01*
X102988790Y-103601483D01*
X102960787Y-103582779D01*
X102959522Y-103580885D01*
X102959521Y-103580883D01*
X102959521Y-103580884D01*
X102947343Y-103562657D01*
X102884329Y-103520553D01*
X102828762Y-103509500D01*
X102828759Y-103509500D01*
X102792684Y-103509500D01*
X102765197Y-103499858D01*
X102688648Y-103438619D01*
X102681531Y-103425695D01*
X102673131Y-103413570D01*
X102673332Y-103410806D01*
X102672404Y-103409120D01*
X102673928Y-103402632D01*
X102674935Y-103388814D01*
X102690918Y-103346194D01*
X102700998Y-103330541D01*
X102733223Y-103298317D01*
X102733224Y-103298316D01*
X102783972Y-103189487D01*
X102790500Y-103139901D01*
X102790499Y-102657140D01*
X104204500Y-102657140D01*
X104204500Y-102706000D01*
X104209228Y-102729769D01*
X104209413Y-102732700D01*
X104209500Y-102735472D01*
X104209500Y-103098910D01*
X104209501Y-103098915D01*
X104213905Y-103121060D01*
X104214190Y-103123959D01*
X104215309Y-103126660D01*
X104217156Y-103128911D01*
X104234753Y-103155247D01*
X104264689Y-103175249D01*
X104291087Y-103180500D01*
X104508912Y-103180499D01*
X104535311Y-103175249D01*
X104565247Y-103155247D01*
X104585249Y-103125311D01*
X104590500Y-103098913D01*
X104590499Y-102735472D01*
X104591344Y-102726893D01*
X104595500Y-102706000D01*
X104595500Y-102657140D01*
X104594267Y-102641842D01*
X104592009Y-102627928D01*
X104588341Y-102613026D01*
X104565733Y-102545205D01*
X104563612Y-102527843D01*
X104570164Y-102444602D01*
X104570566Y-102441205D01*
X104571112Y-102437757D01*
X104571784Y-102434389D01*
X104574201Y-102424326D01*
X104586140Y-102374594D01*
X104618672Y-102239082D01*
X104619596Y-102235804D01*
X104620672Y-102232494D01*
X104621852Y-102229294D01*
X104669248Y-102114872D01*
X104698735Y-102043684D01*
X104700159Y-102040596D01*
X104701734Y-102037502D01*
X104703404Y-102034521D01*
X104808361Y-101863249D01*
X104810269Y-101860395D01*
X104812286Y-101857618D01*
X104814418Y-101854911D01*
X104944875Y-101702165D01*
X104947212Y-101699639D01*
X104949651Y-101697201D01*
X104952170Y-101694871D01*
X105104911Y-101564418D01*
X105107618Y-101562286D01*
X105110395Y-101560269D01*
X105113249Y-101558361D01*
X105284521Y-101453404D01*
X105287502Y-101451734D01*
X105290596Y-101450159D01*
X105293684Y-101448735D01*
X105479293Y-101371853D01*
X105482509Y-101370667D01*
X105485795Y-101369600D01*
X105489102Y-101368667D01*
X105684423Y-101321775D01*
X105687747Y-101321114D01*
X105691216Y-101320564D01*
X105694605Y-101320164D01*
X105897411Y-101304202D01*
X105899141Y-101304101D01*
X105900856Y-101304034D01*
X105902574Y-101304000D01*
X105957365Y-101304000D01*
X105976803Y-101308527D01*
X106210101Y-101423413D01*
X106210119Y-101423421D01*
X106210128Y-101423426D01*
X106213858Y-101424971D01*
X106221568Y-101428165D01*
X106221571Y-101428166D01*
X106224441Y-101429142D01*
X106236425Y-101432366D01*
X106236440Y-101432369D01*
X106236444Y-101432370D01*
X106236944Y-101432470D01*
X106236949Y-101432471D01*
X106237115Y-101432476D01*
X106238114Y-101432511D01*
X106245200Y-101433331D01*
X106279981Y-101440250D01*
X106281238Y-101440500D01*
X106281241Y-101440500D01*
X106578758Y-101440500D01*
X106578762Y-101440500D01*
X106634329Y-101429447D01*
X106697343Y-101387343D01*
X106708553Y-101370564D01*
X106720687Y-101358428D01*
X106726261Y-101354704D01*
X106759286Y-101348133D01*
X106759296Y-101348135D01*
X106761220Y-101348518D01*
X106789214Y-101367225D01*
X106802557Y-101387193D01*
X106802657Y-101387343D01*
X106865671Y-101429447D01*
X106921238Y-101440500D01*
X106921241Y-101440500D01*
X107218758Y-101440500D01*
X107218762Y-101440500D01*
X107274329Y-101429447D01*
X107274332Y-101429444D01*
X107278331Y-101427788D01*
X107278441Y-101428055D01*
X107285245Y-101424972D01*
X107288493Y-101424105D01*
X107523199Y-101308527D01*
X107542637Y-101304000D01*
X107794812Y-101304000D01*
X107798245Y-101304134D01*
X107801720Y-101304408D01*
X107805120Y-101304810D01*
X107881170Y-101316855D01*
X107887871Y-101318463D01*
X107894386Y-101320580D01*
X107900755Y-101323218D01*
X107964693Y-101355797D01*
X107970574Y-101359401D01*
X107976106Y-101363420D01*
X107981357Y-101367904D01*
X108032094Y-101418641D01*
X108036575Y-101423888D01*
X108040601Y-101429429D01*
X108044205Y-101435312D01*
X108068021Y-101482054D01*
X108072679Y-101498549D01*
X108072765Y-101499633D01*
X108062379Y-101531668D01*
X108060590Y-101533640D01*
X108046699Y-101548058D01*
X108034922Y-101563012D01*
X108032431Y-101566921D01*
X108032429Y-101566926D01*
X108031333Y-101570870D01*
X108025531Y-101583521D01*
X108024751Y-101584688D01*
X108024118Y-101586773D01*
X108023906Y-101588936D01*
X108019286Y-101612160D01*
X108018120Y-101618409D01*
X108017500Y-101620639D01*
X108017499Y-101620648D01*
X108017723Y-101629591D01*
X108018425Y-101632705D01*
X108019500Y-101642374D01*
X108019500Y-102288910D01*
X108019501Y-102288915D01*
X108023905Y-102311060D01*
X108024190Y-102313959D01*
X108025309Y-102316660D01*
X108027156Y-102318911D01*
X108044753Y-102345247D01*
X108074689Y-102365249D01*
X108101087Y-102370500D01*
X108398912Y-102370499D01*
X108425311Y-102365249D01*
X108455247Y-102345247D01*
X108475249Y-102315311D01*
X108480500Y-102288913D01*
X108480499Y-101651676D01*
X108481358Y-101643026D01*
X108481634Y-101641652D01*
X108480679Y-101631123D01*
X108480499Y-101627149D01*
X108480499Y-101611093D01*
X108480499Y-101611090D01*
X108480499Y-101611088D01*
X108477941Y-101598227D01*
X108477277Y-101593622D01*
X108476724Y-101587529D01*
X108476724Y-101587525D01*
X108473411Y-101579206D01*
X108453141Y-101547949D01*
X108425359Y-101519390D01*
X108408251Y-101501803D01*
X108397290Y-101482513D01*
X108394355Y-101471559D01*
X108388934Y-101460566D01*
X108385502Y-101450903D01*
X108373713Y-101399249D01*
X108314658Y-101276619D01*
X108229795Y-101170205D01*
X108125297Y-101086870D01*
X108124389Y-101086058D01*
X108123538Y-101085417D01*
X108000749Y-101026286D01*
X107868059Y-100996000D01*
X107868057Y-100996000D01*
X107868055Y-100996000D01*
X107830632Y-100996000D01*
X107542638Y-100996000D01*
X107523200Y-100991473D01*
X107288498Y-100875896D01*
X107288494Y-100875894D01*
X107281426Y-100873494D01*
X107278414Y-100872009D01*
X107278331Y-100872210D01*
X107274327Y-100870552D01*
X107273362Y-100870360D01*
X107267819Y-100868875D01*
X107264989Y-100867915D01*
X107264988Y-100867914D01*
X107264986Y-100867914D01*
X107264984Y-100867913D01*
X107264982Y-100867913D01*
X107259061Y-100866732D01*
X107256719Y-100866295D01*
X107256344Y-100866288D01*
X107248693Y-100865453D01*
X107242830Y-100864287D01*
X107218762Y-100859500D01*
X107218761Y-100859500D01*
X106921240Y-100859500D01*
X106921238Y-100859500D01*
X106879562Y-100867789D01*
X106879559Y-100867789D01*
X106865672Y-100870551D01*
X106802660Y-100912654D01*
X106802651Y-100912663D01*
X106791445Y-100929435D01*
X106779307Y-100941574D01*
X106773740Y-100945294D01*
X106740712Y-100951865D01*
X106738786Y-100951482D01*
X106710785Y-100932774D01*
X106710783Y-100932772D01*
X106708101Y-100928758D01*
X106708101Y-100928757D01*
X106697346Y-100912661D01*
X106697345Y-100912660D01*
X106697343Y-100912657D01*
X106634329Y-100870553D01*
X106578762Y-100859500D01*
X106578759Y-100859500D01*
X106281240Y-100859500D01*
X106281238Y-100859500D01*
X106239562Y-100867789D01*
X106239559Y-100867789D01*
X106225668Y-100870552D01*
X106221667Y-100872210D01*
X106221633Y-100872129D01*
X106218277Y-100873800D01*
X106217267Y-100874153D01*
X106214520Y-100875110D01*
X106213478Y-100875502D01*
X106213465Y-100875507D01*
X106212627Y-100875845D01*
X106209022Y-100877300D01*
X106208014Y-100877737D01*
X106203769Y-100879701D01*
X105976798Y-100991473D01*
X105957360Y-100996000D01*
X105781700Y-100996000D01*
X105547994Y-101029602D01*
X105547568Y-101029658D01*
X105547532Y-101029667D01*
X105432598Y-101063415D01*
X105322013Y-101095885D01*
X105320794Y-101096196D01*
X105105297Y-101194609D01*
X105105281Y-101194619D01*
X104906271Y-101322515D01*
X104727468Y-101477448D01*
X104727448Y-101477468D01*
X104572515Y-101656271D01*
X104444619Y-101855281D01*
X104444609Y-101855297D01*
X104346196Y-102070794D01*
X104345883Y-102072021D01*
X104344492Y-102076753D01*
X104344493Y-102076754D01*
X104279670Y-102297520D01*
X104279659Y-102297564D01*
X104279602Y-102297994D01*
X104252047Y-102489635D01*
X104250237Y-102497287D01*
X104211663Y-102613012D01*
X104211662Y-102613016D01*
X104211659Y-102613026D01*
X104207991Y-102627928D01*
X104207991Y-102627930D01*
X104205732Y-102641842D01*
X104205732Y-102641846D01*
X104204580Y-102656139D01*
X104204580Y-102656143D01*
X104204500Y-102657140D01*
X102790499Y-102657140D01*
X102790499Y-102510100D01*
X102783972Y-102460513D01*
X102741186Y-102368758D01*
X102737348Y-102360529D01*
X102733267Y-102343850D01*
X102732975Y-102337157D01*
X102744493Y-102305514D01*
X102744499Y-102305508D01*
X102745567Y-102304343D01*
X102768482Y-102291118D01*
X102768826Y-102291041D01*
X102778344Y-102290000D01*
X103149999Y-102290000D01*
X103150000Y-102290000D01*
X103150000Y-100253252D01*
X103153348Y-100236417D01*
X103153754Y-100235437D01*
X103155911Y-100230227D01*
X103179722Y-100206414D01*
X103179722Y-100206413D01*
X103184090Y-100204604D01*
X103185920Y-100203847D01*
X103202753Y-100200500D01*
X109594811Y-100200500D01*
X109598264Y-100200636D01*
G37*
%TD.AperFunction*%
%TA.AperFunction,Conductor*%
G36*
X109782226Y-100812923D02*
G01*
X109797900Y-100836287D01*
X109797959Y-100836504D01*
X109799500Y-100848048D01*
X109799500Y-103285346D01*
X109796150Y-103302186D01*
X109793586Y-103308375D01*
X109769792Y-103332178D01*
X109769317Y-103332375D01*
X109741078Y-103334234D01*
X109739099Y-103333704D01*
X109728485Y-103329308D01*
X109696783Y-103311005D01*
X109696778Y-103311003D01*
X109696775Y-103311002D01*
X109675275Y-103305241D01*
X109616536Y-103289502D01*
X109616534Y-103289502D01*
X109533466Y-103289502D01*
X109533464Y-103289502D01*
X109498357Y-103298909D01*
X109491867Y-103300648D01*
X109453220Y-103311003D01*
X109381279Y-103352539D01*
X109381277Y-103352541D01*
X109381275Y-103352543D01*
X109355453Y-103378366D01*
X109333395Y-103400424D01*
X109319121Y-103409961D01*
X109304180Y-103416150D01*
X109287342Y-103419500D01*
X109248105Y-103419500D01*
X109231267Y-103416151D01*
X109216325Y-103409962D01*
X109202050Y-103400424D01*
X109139575Y-103337949D01*
X109130037Y-103323672D01*
X109123849Y-103308731D01*
X109120500Y-103291895D01*
X109120500Y-102498102D01*
X109123847Y-102481269D01*
X109130037Y-102466322D01*
X109139571Y-102452053D01*
X109476753Y-102114872D01*
X109476755Y-102114872D01*
X109514872Y-102076755D01*
X109531242Y-102037234D01*
X109535501Y-102026953D01*
X109535501Y-101973047D01*
X109535501Y-101969507D01*
X109535501Y-101968751D01*
X109535500Y-101968695D01*
X109535500Y-101782032D01*
X109538849Y-101765195D01*
X109542362Y-101756713D01*
X109562266Y-101734748D01*
X109565162Y-101733200D01*
X109570418Y-101731321D01*
X109570328Y-101731103D01*
X109574323Y-101729448D01*
X109574329Y-101729447D01*
X109637343Y-101687343D01*
X109679447Y-101624329D01*
X109690500Y-101568762D01*
X109690500Y-101271238D01*
X109679447Y-101215671D01*
X109637343Y-101152657D01*
X109637341Y-101152656D01*
X109637341Y-101152655D01*
X109620566Y-101141447D01*
X109608423Y-101129304D01*
X109604702Y-101123734D01*
X109598131Y-101090728D01*
X109598513Y-101088803D01*
X109617206Y-101060797D01*
X109637343Y-101047343D01*
X109679447Y-100984329D01*
X109690500Y-100928762D01*
X109690500Y-100923308D01*
X109691345Y-100914726D01*
X109691757Y-100912657D01*
X109693360Y-100904593D01*
X109693411Y-100904337D01*
X109694065Y-100901532D01*
X109699914Y-100879701D01*
X109710735Y-100839315D01*
X109718324Y-100823926D01*
X109720536Y-100821044D01*
X109749697Y-100804208D01*
X109782226Y-100812923D01*
G37*
%TD.AperFunction*%
%TA.AperFunction,Conductor*%
G36*
X101214082Y-100203848D02*
G01*
X101219680Y-100206166D01*
X101220268Y-100206410D01*
X101220271Y-100206411D01*
X101244085Y-100230222D01*
X101244086Y-100230223D01*
X101246650Y-100236412D01*
X101250000Y-100253252D01*
X101250000Y-102290000D01*
X101617720Y-102290000D01*
X101634555Y-102293348D01*
X101640744Y-102295911D01*
X101664558Y-102319722D01*
X101664559Y-102319723D01*
X101665163Y-102321181D01*
X101667456Y-102347605D01*
X101667379Y-102347950D01*
X101664315Y-102356959D01*
X101659792Y-102366660D01*
X101649643Y-102380503D01*
X101640988Y-102388436D01*
X101611258Y-102400000D01*
X100253253Y-102400000D01*
X100236415Y-102396651D01*
X100230225Y-102394087D01*
X100206412Y-102370274D01*
X100206411Y-102370271D01*
X100203848Y-102364082D01*
X100200500Y-102347247D01*
X100200500Y-100405188D01*
X100200634Y-100401752D01*
X100200909Y-100398266D01*
X100201312Y-100394869D01*
X100208633Y-100348640D01*
X100210238Y-100341954D01*
X100212358Y-100335425D01*
X100214996Y-100329061D01*
X100215000Y-100329054D01*
X100233869Y-100292021D01*
X100237466Y-100286150D01*
X100241492Y-100280608D01*
X100245964Y-100275372D01*
X100275372Y-100245964D01*
X100280608Y-100241492D01*
X100286150Y-100237466D01*
X100292021Y-100233869D01*
X100329065Y-100214994D01*
X100335425Y-100212358D01*
X100341954Y-100210238D01*
X100348642Y-100208633D01*
X100386165Y-100202691D01*
X100394895Y-100201308D01*
X100398294Y-100200906D01*
X100401747Y-100200635D01*
X100405189Y-100200500D01*
X101197247Y-100200500D01*
X101214082Y-100203848D01*
G37*
%TD.AperFunction*%
%TD*%
M02*
