%TF.GenerationSoftware,KiCad,Pcbnew,10.0.0*%
%TF.CreationDate,2026-08-06T18:40:37+02:00*%
%TF.ProjectId,OpenRX-Mono,4f70656e-5258-42d4-9d6f-6e6f2e6b6963,rev?*%
%TF.SameCoordinates,Original*%
%TF.FileFunction,Paste,Bot*%
%TF.FilePolarity,Positive*%
%FSLAX46Y46*%
G04 Gerber Fmt 4.6, Leading zero omitted, Abs format (unit mm)*
G04 Created by KiCad (PCBNEW 10.0.0) date 2026-08-06 18:40:37*
%MOMM*%
%LPD*%
G01*
G04 APERTURE LIST*
G04 Aperture macros list*
%AMRoundRect*
0 Rectangle with rounded corners*
0 $1 Rounding radius*
0 $2 $3 $4 $5 $6 $7 $8 $9 X,Y pos of 4 corners*
0 Add a 4 corners polygon primitive as box body*
4,1,4,$2,$3,$4,$5,$6,$7,$8,$9,$2,$3,0*
0 Add four circle primitives for the rounded corners*
1,1,$1+$1,$2,$3*
1,1,$1+$1,$4,$5*
1,1,$1+$1,$6,$7*
1,1,$1+$1,$8,$9*
0 Add four rect primitives between the rounded corners*
20,1,$1+$1,$2,$3,$4,$5,0*
20,1,$1+$1,$4,$5,$6,$7,0*
20,1,$1+$1,$6,$7,$8,$9,0*
20,1,$1+$1,$8,$9,$2,$3,0*%
%AMRotRect*
0 Rectangle, with rotation*
0 The origin of the aperture is its center*
0 $1 length*
0 $2 width*
0 $3 Rotation angle, in degrees counterclockwise*
0 Add horizontal line*
21,1,$1,$2,0,0,$3*%
%AMFreePoly0*
4,1,15,0.020663,0.130920,0.194661,-0.004411,0.209153,-0.029894,0.209200,-0.030649,0.209200,-0.105861,0.199435,-0.129435,0.175862,-0.139200,-0.175862,-0.139200,-0.199435,-0.129435,-0.209200,-0.105861,-0.209200,0.105861,-0.199435,0.129435,-0.175862,0.139200,-0.003468,0.139200,0.020663,0.130920,0.020663,0.130920,$1*%
%AMFreePoly1*
4,1,15,0.199435,0.139435,0.209200,0.115861,0.209200,0.044138,0.197979,0.017050,0.197419,0.016556,0.020663,-0.120920,-0.003468,-0.129200,-0.175862,-0.129200,-0.199435,-0.119435,-0.209200,-0.095861,-0.209200,0.115861,-0.199435,0.139435,-0.175862,0.149200,0.175862,0.149200,0.199435,0.139435,0.199435,0.139435,$1*%
%AMFreePoly2*
4,1,15,0.199435,0.139435,0.209200,0.115861,0.209200,-0.095861,0.199435,-0.119435,0.175862,-0.129200,0.003468,-0.129200,-0.020663,-0.120920,-0.194661,0.014411,-0.209153,0.039894,-0.209200,0.040649,-0.209200,0.115861,-0.199435,0.139435,-0.175862,0.149200,0.175862,0.149200,0.199435,0.139435,0.199435,0.139435,$1*%
%AMFreePoly3*
4,1,15,0.199435,0.129435,0.209200,0.105861,0.209200,-0.105861,0.199435,-0.129435,0.175862,-0.139200,-0.175862,-0.139200,-0.199435,-0.129435,-0.209200,-0.105861,-0.209200,-0.034138,-0.197979,-0.007050,-0.197419,-0.006556,-0.020663,0.130920,0.003468,0.139200,0.175862,0.139200,0.199435,0.129435,0.199435,0.129435,$1*%
G04 Aperture macros list end*
%ADD10R,0.573200X0.464000*%
%ADD11RoundRect,0.079500X-0.100500X0.079500X-0.100500X-0.079500X0.100500X-0.079500X0.100500X0.079500X0*%
%ADD12FreePoly0,270.000000*%
%ADD13FreePoly1,270.000000*%
%ADD14FreePoly2,270.000000*%
%ADD15FreePoly3,270.000000*%
%ADD16RotRect,0.363200X0.363200X225.000000*%
%ADD17RoundRect,0.079500X-0.079500X-0.100500X0.079500X-0.100500X0.079500X0.100500X-0.079500X0.100500X0*%
%ADD18RoundRect,0.173750X0.173750X0.205250X-0.173750X0.205250X-0.173750X-0.205250X0.173750X-0.205250X0*%
%ADD19R,1.430000X0.800000*%
%ADD20RoundRect,0.079500X0.079500X0.100500X-0.079500X0.100500X-0.079500X-0.100500X0.079500X-0.100500X0*%
%ADD21RoundRect,0.079500X0.100500X-0.079500X0.100500X0.079500X-0.100500X0.079500X-0.100500X-0.079500X0*%
%ADD22RoundRect,0.167785X0.332215X0.332215X-0.332215X0.332215X-0.332215X-0.332215X0.332215X-0.332215X0*%
%ADD23RoundRect,0.042500X0.273500X0.042500X-0.273500X0.042500X-0.273500X-0.042500X0.273500X-0.042500X0*%
%ADD24RoundRect,0.042500X0.252500X0.042500X-0.252500X0.042500X-0.252500X-0.042500X0.252500X-0.042500X0*%
%ADD25RoundRect,0.042500X0.042500X0.273500X-0.042500X0.273500X-0.042500X-0.273500X0.042500X-0.273500X0*%
%ADD26RoundRect,0.107600X-0.107600X-0.132800X0.107600X-0.132800X0.107600X0.132800X-0.107600X0.132800X0*%
G04 APERTURE END LIST*
D10*
%TO.C,X1*%
X104000000Y-104250000D03*
X105100000Y-104250000D03*
X105100000Y-105050000D03*
X104000000Y-105050000D03*
%TD*%
D11*
%TO.C,L4*%
X108450000Y-103755000D03*
X108450000Y-104445000D03*
%TD*%
%TO.C,C27*%
X103150000Y-110905000D03*
X103150000Y-111595000D03*
%TD*%
%TO.C,R3*%
X101250000Y-107605000D03*
X101250000Y-108295000D03*
%TD*%
D12*
%TO.C,U2*%
X101030000Y-112520000D03*
D13*
X101670000Y-112520000D03*
D14*
X101670000Y-113380000D03*
D15*
X101030000Y-113380000D03*
D16*
X101350000Y-112950000D03*
%TD*%
D17*
%TO.C,C15*%
X102805000Y-109500000D03*
X103495000Y-109500000D03*
%TD*%
D11*
%TO.C,C6*%
X103850000Y-111105000D03*
X103850000Y-111795000D03*
%TD*%
D17*
%TO.C,C30*%
X108305000Y-103050000D03*
X108995000Y-103050000D03*
%TD*%
D18*
%TO.C,L1*%
X106337500Y-113300000D03*
X104762500Y-113300000D03*
%TD*%
D19*
%TO.C,AE1*%
X101100000Y-103270000D03*
X101100000Y-106430000D03*
%TD*%
D20*
%TO.C,R5*%
X103645000Y-113250000D03*
X102955000Y-113250000D03*
%TD*%
D21*
%TO.C,C16*%
X107212500Y-113295000D03*
X107212500Y-112605000D03*
%TD*%
D17*
%TO.C,L2*%
X104655000Y-103450000D03*
X105345000Y-103450000D03*
%TD*%
%TO.C,C14*%
X102805000Y-110200000D03*
X103495000Y-110200000D03*
%TD*%
D11*
%TO.C,C1*%
X103150000Y-104255000D03*
X103150000Y-104945000D03*
%TD*%
D17*
%TO.C,C31*%
X106805000Y-103350000D03*
X107495000Y-103350000D03*
%TD*%
D22*
%TO.C,U1*%
X107700000Y-109350000D03*
X107700000Y-107850000D03*
X106200000Y-109350000D03*
X106200000Y-107850000D03*
D23*
X109400000Y-106850000D03*
X109400000Y-107350000D03*
X109400000Y-107850000D03*
D24*
X109425000Y-108350000D03*
D23*
X109400000Y-108850000D03*
X109400000Y-109350000D03*
X109400000Y-109850000D03*
X109400000Y-110350000D03*
D25*
X108700000Y-111050000D03*
X108200000Y-111050000D03*
X107700000Y-111050000D03*
X107200000Y-111050000D03*
X106700000Y-111050000D03*
X106200000Y-111050000D03*
X105700000Y-111050000D03*
X105200000Y-111050000D03*
D23*
X104500000Y-110350000D03*
X104500000Y-109850000D03*
X104500000Y-108850000D03*
X104500000Y-108350000D03*
X104500000Y-107850000D03*
X104500000Y-107350000D03*
X104500000Y-106850000D03*
D25*
X105200000Y-106150000D03*
X106200000Y-106150000D03*
X106700000Y-106150000D03*
X107200000Y-106150000D03*
X107700000Y-106150000D03*
X108200000Y-106150000D03*
X108700000Y-106150000D03*
%TD*%
D21*
%TO.C,C10*%
X100400000Y-113395000D03*
X100400000Y-112705000D03*
%TD*%
D17*
%TO.C,C29*%
X108905000Y-105150000D03*
X109595000Y-105150000D03*
%TD*%
%TO.C,C21*%
X106805000Y-104050000D03*
X107495000Y-104050000D03*
%TD*%
%TO.C,R2*%
X101105000Y-110000000D03*
X101795000Y-110000000D03*
%TD*%
%TO.C,C5*%
X108105000Y-112050000D03*
X108795000Y-112050000D03*
%TD*%
D26*
%TO.C,C18*%
X100570000Y-110950000D03*
X101530000Y-110950000D03*
%TD*%
D20*
%TO.C,C28*%
X103645000Y-113950000D03*
X102955000Y-113950000D03*
%TD*%
D17*
%TO.C,R4*%
X107605000Y-114250000D03*
X108295000Y-114250000D03*
%TD*%
%TO.C,C17*%
X100905000Y-111800000D03*
X101595000Y-111800000D03*
%TD*%
D26*
%TO.C,C8*%
X100570000Y-114250000D03*
X101530000Y-114250000D03*
%TD*%
D20*
%TO.C,C19*%
X103495000Y-108800000D03*
X102805000Y-108800000D03*
%TD*%
D21*
%TO.C,C3*%
X105950000Y-105145000D03*
X105950000Y-104455000D03*
%TD*%
M02*
