%TF.GenerationSoftware,KiCad,Pcbnew,10.0.0*%
%TF.CreationDate,2026-08-06T18:40:37+02:00*%
%TF.ProjectId,OpenRX-Mono,4f70656e-5258-42d4-9d6f-6e6f2e6b6963,rev?*%
%TF.SameCoordinates,Original*%
%TF.FileFunction,AssemblyDrawing,Bot*%
%FSLAX46Y46*%
G04 Gerber Fmt 4.6, Leading zero omitted, Abs format (unit mm)*
G04 Created by KiCad (PCBNEW 10.0.0) date 2026-08-06 18:40:37*
%MOMM*%
%LPD*%
G01*
G04 APERTURE LIST*
%ADD10C,0.150000*%
%ADD11C,0.040000*%
%ADD12C,0.060000*%
%ADD13C,0.100000*%
G04 APERTURE END LIST*
D10*
X105359523Y-104104819D02*
X104692857Y-105104819D01*
X104692857Y-104104819D02*
X105359523Y-105104819D01*
X103788095Y-105104819D02*
X104359523Y-105104819D01*
X104073809Y-105104819D02*
X104073809Y-104104819D01*
X104073809Y-104104819D02*
X104169047Y-104247676D01*
X104169047Y-104247676D02*
X104264285Y-104342914D01*
X104264285Y-104342914D02*
X104359523Y-104390533D01*
D11*
X108563574Y-104058333D02*
X108563574Y-103939285D01*
X108563574Y-103939285D02*
X108313574Y-103939285D01*
X108396908Y-104248809D02*
X108563574Y-104248809D01*
X108301670Y-104189285D02*
X108480241Y-104129762D01*
X108480241Y-104129762D02*
X108480241Y-104284523D01*
X103239765Y-111089285D02*
X103251670Y-111077381D01*
X103251670Y-111077381D02*
X103263574Y-111041666D01*
X103263574Y-111041666D02*
X103263574Y-111017857D01*
X103263574Y-111017857D02*
X103251670Y-110982143D01*
X103251670Y-110982143D02*
X103227860Y-110958333D01*
X103227860Y-110958333D02*
X103204050Y-110946428D01*
X103204050Y-110946428D02*
X103156431Y-110934524D01*
X103156431Y-110934524D02*
X103120717Y-110934524D01*
X103120717Y-110934524D02*
X103073098Y-110946428D01*
X103073098Y-110946428D02*
X103049289Y-110958333D01*
X103049289Y-110958333D02*
X103025479Y-110982143D01*
X103025479Y-110982143D02*
X103013574Y-111017857D01*
X103013574Y-111017857D02*
X103013574Y-111041666D01*
X103013574Y-111041666D02*
X103025479Y-111077381D01*
X103025479Y-111077381D02*
X103037384Y-111089285D01*
X103037384Y-111184524D02*
X103025479Y-111196428D01*
X103025479Y-111196428D02*
X103013574Y-111220238D01*
X103013574Y-111220238D02*
X103013574Y-111279762D01*
X103013574Y-111279762D02*
X103025479Y-111303571D01*
X103025479Y-111303571D02*
X103037384Y-111315476D01*
X103037384Y-111315476D02*
X103061193Y-111327381D01*
X103061193Y-111327381D02*
X103085003Y-111327381D01*
X103085003Y-111327381D02*
X103120717Y-111315476D01*
X103120717Y-111315476D02*
X103263574Y-111172619D01*
X103263574Y-111172619D02*
X103263574Y-111327381D01*
X103013574Y-111410714D02*
X103013574Y-111577380D01*
X103013574Y-111577380D02*
X103263574Y-111470238D01*
X101363574Y-107908333D02*
X101244527Y-107825000D01*
X101363574Y-107765476D02*
X101113574Y-107765476D01*
X101113574Y-107765476D02*
X101113574Y-107860714D01*
X101113574Y-107860714D02*
X101125479Y-107884524D01*
X101125479Y-107884524D02*
X101137384Y-107896429D01*
X101137384Y-107896429D02*
X101161193Y-107908333D01*
X101161193Y-107908333D02*
X101196908Y-107908333D01*
X101196908Y-107908333D02*
X101220717Y-107896429D01*
X101220717Y-107896429D02*
X101232622Y-107884524D01*
X101232622Y-107884524D02*
X101244527Y-107860714D01*
X101244527Y-107860714D02*
X101244527Y-107765476D01*
X101113574Y-107991667D02*
X101113574Y-108146429D01*
X101113574Y-108146429D02*
X101208812Y-108063095D01*
X101208812Y-108063095D02*
X101208812Y-108098810D01*
X101208812Y-108098810D02*
X101220717Y-108122619D01*
X101220717Y-108122619D02*
X101232622Y-108134524D01*
X101232622Y-108134524D02*
X101256431Y-108146429D01*
X101256431Y-108146429D02*
X101315955Y-108146429D01*
X101315955Y-108146429D02*
X101339765Y-108134524D01*
X101339765Y-108134524D02*
X101351670Y-108122619D01*
X101351670Y-108122619D02*
X101363574Y-108098810D01*
X101363574Y-108098810D02*
X101363574Y-108027381D01*
X101363574Y-108027381D02*
X101351670Y-108003572D01*
X101351670Y-108003572D02*
X101339765Y-107991667D01*
D10*
X101019771Y-112492857D02*
X101505485Y-112492857D01*
X101505485Y-112492857D02*
X101562628Y-112521428D01*
X101562628Y-112521428D02*
X101591200Y-112550000D01*
X101591200Y-112550000D02*
X101619771Y-112607142D01*
X101619771Y-112607142D02*
X101619771Y-112721428D01*
X101619771Y-112721428D02*
X101591200Y-112778571D01*
X101591200Y-112778571D02*
X101562628Y-112807142D01*
X101562628Y-112807142D02*
X101505485Y-112835714D01*
X101505485Y-112835714D02*
X101019771Y-112835714D01*
X101076914Y-113092856D02*
X101048342Y-113121428D01*
X101048342Y-113121428D02*
X101019771Y-113178571D01*
X101019771Y-113178571D02*
X101019771Y-113321428D01*
X101019771Y-113321428D02*
X101048342Y-113378571D01*
X101048342Y-113378571D02*
X101076914Y-113407142D01*
X101076914Y-113407142D02*
X101134057Y-113435713D01*
X101134057Y-113435713D02*
X101191200Y-113435713D01*
X101191200Y-113435713D02*
X101276914Y-113407142D01*
X101276914Y-113407142D02*
X101619771Y-113064285D01*
X101619771Y-113064285D02*
X101619771Y-113435713D01*
D11*
X103310714Y-109589765D02*
X103322618Y-109601670D01*
X103322618Y-109601670D02*
X103358333Y-109613574D01*
X103358333Y-109613574D02*
X103382142Y-109613574D01*
X103382142Y-109613574D02*
X103417856Y-109601670D01*
X103417856Y-109601670D02*
X103441666Y-109577860D01*
X103441666Y-109577860D02*
X103453571Y-109554050D01*
X103453571Y-109554050D02*
X103465475Y-109506431D01*
X103465475Y-109506431D02*
X103465475Y-109470717D01*
X103465475Y-109470717D02*
X103453571Y-109423098D01*
X103453571Y-109423098D02*
X103441666Y-109399289D01*
X103441666Y-109399289D02*
X103417856Y-109375479D01*
X103417856Y-109375479D02*
X103382142Y-109363574D01*
X103382142Y-109363574D02*
X103358333Y-109363574D01*
X103358333Y-109363574D02*
X103322618Y-109375479D01*
X103322618Y-109375479D02*
X103310714Y-109387384D01*
X103072618Y-109613574D02*
X103215475Y-109613574D01*
X103144047Y-109613574D02*
X103144047Y-109363574D01*
X103144047Y-109363574D02*
X103167856Y-109399289D01*
X103167856Y-109399289D02*
X103191666Y-109423098D01*
X103191666Y-109423098D02*
X103215475Y-109435003D01*
X102846428Y-109363574D02*
X102965476Y-109363574D01*
X102965476Y-109363574D02*
X102977380Y-109482622D01*
X102977380Y-109482622D02*
X102965476Y-109470717D01*
X102965476Y-109470717D02*
X102941666Y-109458812D01*
X102941666Y-109458812D02*
X102882142Y-109458812D01*
X102882142Y-109458812D02*
X102858333Y-109470717D01*
X102858333Y-109470717D02*
X102846428Y-109482622D01*
X102846428Y-109482622D02*
X102834523Y-109506431D01*
X102834523Y-109506431D02*
X102834523Y-109565955D01*
X102834523Y-109565955D02*
X102846428Y-109589765D01*
X102846428Y-109589765D02*
X102858333Y-109601670D01*
X102858333Y-109601670D02*
X102882142Y-109613574D01*
X102882142Y-109613574D02*
X102941666Y-109613574D01*
X102941666Y-109613574D02*
X102965476Y-109601670D01*
X102965476Y-109601670D02*
X102977380Y-109589765D01*
X103939765Y-111408333D02*
X103951670Y-111396429D01*
X103951670Y-111396429D02*
X103963574Y-111360714D01*
X103963574Y-111360714D02*
X103963574Y-111336905D01*
X103963574Y-111336905D02*
X103951670Y-111301191D01*
X103951670Y-111301191D02*
X103927860Y-111277381D01*
X103927860Y-111277381D02*
X103904050Y-111265476D01*
X103904050Y-111265476D02*
X103856431Y-111253572D01*
X103856431Y-111253572D02*
X103820717Y-111253572D01*
X103820717Y-111253572D02*
X103773098Y-111265476D01*
X103773098Y-111265476D02*
X103749289Y-111277381D01*
X103749289Y-111277381D02*
X103725479Y-111301191D01*
X103725479Y-111301191D02*
X103713574Y-111336905D01*
X103713574Y-111336905D02*
X103713574Y-111360714D01*
X103713574Y-111360714D02*
X103725479Y-111396429D01*
X103725479Y-111396429D02*
X103737384Y-111408333D01*
X103713574Y-111622619D02*
X103713574Y-111575000D01*
X103713574Y-111575000D02*
X103725479Y-111551191D01*
X103725479Y-111551191D02*
X103737384Y-111539286D01*
X103737384Y-111539286D02*
X103773098Y-111515476D01*
X103773098Y-111515476D02*
X103820717Y-111503572D01*
X103820717Y-111503572D02*
X103915955Y-111503572D01*
X103915955Y-111503572D02*
X103939765Y-111515476D01*
X103939765Y-111515476D02*
X103951670Y-111527381D01*
X103951670Y-111527381D02*
X103963574Y-111551191D01*
X103963574Y-111551191D02*
X103963574Y-111598810D01*
X103963574Y-111598810D02*
X103951670Y-111622619D01*
X103951670Y-111622619D02*
X103939765Y-111634524D01*
X103939765Y-111634524D02*
X103915955Y-111646429D01*
X103915955Y-111646429D02*
X103856431Y-111646429D01*
X103856431Y-111646429D02*
X103832622Y-111634524D01*
X103832622Y-111634524D02*
X103820717Y-111622619D01*
X103820717Y-111622619D02*
X103808812Y-111598810D01*
X103808812Y-111598810D02*
X103808812Y-111551191D01*
X103808812Y-111551191D02*
X103820717Y-111527381D01*
X103820717Y-111527381D02*
X103832622Y-111515476D01*
X103832622Y-111515476D02*
X103856431Y-111503572D01*
X108810714Y-103139765D02*
X108822618Y-103151670D01*
X108822618Y-103151670D02*
X108858333Y-103163574D01*
X108858333Y-103163574D02*
X108882142Y-103163574D01*
X108882142Y-103163574D02*
X108917856Y-103151670D01*
X108917856Y-103151670D02*
X108941666Y-103127860D01*
X108941666Y-103127860D02*
X108953571Y-103104050D01*
X108953571Y-103104050D02*
X108965475Y-103056431D01*
X108965475Y-103056431D02*
X108965475Y-103020717D01*
X108965475Y-103020717D02*
X108953571Y-102973098D01*
X108953571Y-102973098D02*
X108941666Y-102949289D01*
X108941666Y-102949289D02*
X108917856Y-102925479D01*
X108917856Y-102925479D02*
X108882142Y-102913574D01*
X108882142Y-102913574D02*
X108858333Y-102913574D01*
X108858333Y-102913574D02*
X108822618Y-102925479D01*
X108822618Y-102925479D02*
X108810714Y-102937384D01*
X108727380Y-102913574D02*
X108572618Y-102913574D01*
X108572618Y-102913574D02*
X108655952Y-103008812D01*
X108655952Y-103008812D02*
X108620237Y-103008812D01*
X108620237Y-103008812D02*
X108596428Y-103020717D01*
X108596428Y-103020717D02*
X108584523Y-103032622D01*
X108584523Y-103032622D02*
X108572618Y-103056431D01*
X108572618Y-103056431D02*
X108572618Y-103115955D01*
X108572618Y-103115955D02*
X108584523Y-103139765D01*
X108584523Y-103139765D02*
X108596428Y-103151670D01*
X108596428Y-103151670D02*
X108620237Y-103163574D01*
X108620237Y-103163574D02*
X108691666Y-103163574D01*
X108691666Y-103163574D02*
X108715475Y-103151670D01*
X108715475Y-103151670D02*
X108727380Y-103139765D01*
X108417857Y-102913574D02*
X108394047Y-102913574D01*
X108394047Y-102913574D02*
X108370238Y-102925479D01*
X108370238Y-102925479D02*
X108358333Y-102937384D01*
X108358333Y-102937384D02*
X108346428Y-102961193D01*
X108346428Y-102961193D02*
X108334523Y-103008812D01*
X108334523Y-103008812D02*
X108334523Y-103068336D01*
X108334523Y-103068336D02*
X108346428Y-103115955D01*
X108346428Y-103115955D02*
X108358333Y-103139765D01*
X108358333Y-103139765D02*
X108370238Y-103151670D01*
X108370238Y-103151670D02*
X108394047Y-103163574D01*
X108394047Y-103163574D02*
X108417857Y-103163574D01*
X108417857Y-103163574D02*
X108441666Y-103151670D01*
X108441666Y-103151670D02*
X108453571Y-103139765D01*
X108453571Y-103139765D02*
X108465476Y-103115955D01*
X108465476Y-103115955D02*
X108477380Y-103068336D01*
X108477380Y-103068336D02*
X108477380Y-103008812D01*
X108477380Y-103008812D02*
X108465476Y-102961193D01*
X108465476Y-102961193D02*
X108453571Y-102937384D01*
X108453571Y-102937384D02*
X108441666Y-102925479D01*
X108441666Y-102925479D02*
X108417857Y-102913574D01*
D12*
X105616666Y-113481927D02*
X105807142Y-113481927D01*
X105807142Y-113481927D02*
X105807142Y-113081927D01*
X105273809Y-113481927D02*
X105502380Y-113481927D01*
X105388094Y-113481927D02*
X105388094Y-113081927D01*
X105388094Y-113081927D02*
X105426190Y-113139070D01*
X105426190Y-113139070D02*
X105464285Y-113177165D01*
X105464285Y-113177165D02*
X105502380Y-113196213D01*
D10*
X101269104Y-103683333D02*
X101269104Y-104159523D01*
X101554819Y-103588095D02*
X100554819Y-103921428D01*
X100554819Y-103921428D02*
X101554819Y-104254761D01*
X101031009Y-104588095D02*
X101031009Y-104921428D01*
X101554819Y-105064285D02*
X101554819Y-104588095D01*
X101554819Y-104588095D02*
X100554819Y-104588095D01*
X100554819Y-104588095D02*
X100554819Y-105064285D01*
X101554819Y-106016666D02*
X101554819Y-105445238D01*
X101554819Y-105730952D02*
X100554819Y-105730952D01*
X100554819Y-105730952D02*
X100697676Y-105635714D01*
X100697676Y-105635714D02*
X100792914Y-105540476D01*
X100792914Y-105540476D02*
X100840533Y-105445238D01*
D11*
X103341666Y-113363574D02*
X103424999Y-113244527D01*
X103484523Y-113363574D02*
X103484523Y-113113574D01*
X103484523Y-113113574D02*
X103389285Y-113113574D01*
X103389285Y-113113574D02*
X103365475Y-113125479D01*
X103365475Y-113125479D02*
X103353570Y-113137384D01*
X103353570Y-113137384D02*
X103341666Y-113161193D01*
X103341666Y-113161193D02*
X103341666Y-113196908D01*
X103341666Y-113196908D02*
X103353570Y-113220717D01*
X103353570Y-113220717D02*
X103365475Y-113232622D01*
X103365475Y-113232622D02*
X103389285Y-113244527D01*
X103389285Y-113244527D02*
X103484523Y-113244527D01*
X103115475Y-113113574D02*
X103234523Y-113113574D01*
X103234523Y-113113574D02*
X103246427Y-113232622D01*
X103246427Y-113232622D02*
X103234523Y-113220717D01*
X103234523Y-113220717D02*
X103210713Y-113208812D01*
X103210713Y-113208812D02*
X103151189Y-113208812D01*
X103151189Y-113208812D02*
X103127380Y-113220717D01*
X103127380Y-113220717D02*
X103115475Y-113232622D01*
X103115475Y-113232622D02*
X103103570Y-113256431D01*
X103103570Y-113256431D02*
X103103570Y-113315955D01*
X103103570Y-113315955D02*
X103115475Y-113339765D01*
X103115475Y-113339765D02*
X103127380Y-113351670D01*
X103127380Y-113351670D02*
X103151189Y-113363574D01*
X103151189Y-113363574D02*
X103210713Y-113363574D01*
X103210713Y-113363574D02*
X103234523Y-113351670D01*
X103234523Y-113351670D02*
X103246427Y-113339765D01*
X107302265Y-112789285D02*
X107314170Y-112777381D01*
X107314170Y-112777381D02*
X107326074Y-112741666D01*
X107326074Y-112741666D02*
X107326074Y-112717857D01*
X107326074Y-112717857D02*
X107314170Y-112682143D01*
X107314170Y-112682143D02*
X107290360Y-112658333D01*
X107290360Y-112658333D02*
X107266550Y-112646428D01*
X107266550Y-112646428D02*
X107218931Y-112634524D01*
X107218931Y-112634524D02*
X107183217Y-112634524D01*
X107183217Y-112634524D02*
X107135598Y-112646428D01*
X107135598Y-112646428D02*
X107111789Y-112658333D01*
X107111789Y-112658333D02*
X107087979Y-112682143D01*
X107087979Y-112682143D02*
X107076074Y-112717857D01*
X107076074Y-112717857D02*
X107076074Y-112741666D01*
X107076074Y-112741666D02*
X107087979Y-112777381D01*
X107087979Y-112777381D02*
X107099884Y-112789285D01*
X107326074Y-113027381D02*
X107326074Y-112884524D01*
X107326074Y-112955952D02*
X107076074Y-112955952D01*
X107076074Y-112955952D02*
X107111789Y-112932143D01*
X107111789Y-112932143D02*
X107135598Y-112908333D01*
X107135598Y-112908333D02*
X107147503Y-112884524D01*
X107076074Y-113241666D02*
X107076074Y-113194047D01*
X107076074Y-113194047D02*
X107087979Y-113170238D01*
X107087979Y-113170238D02*
X107099884Y-113158333D01*
X107099884Y-113158333D02*
X107135598Y-113134523D01*
X107135598Y-113134523D02*
X107183217Y-113122619D01*
X107183217Y-113122619D02*
X107278455Y-113122619D01*
X107278455Y-113122619D02*
X107302265Y-113134523D01*
X107302265Y-113134523D02*
X107314170Y-113146428D01*
X107314170Y-113146428D02*
X107326074Y-113170238D01*
X107326074Y-113170238D02*
X107326074Y-113217857D01*
X107326074Y-113217857D02*
X107314170Y-113241666D01*
X107314170Y-113241666D02*
X107302265Y-113253571D01*
X107302265Y-113253571D02*
X107278455Y-113265476D01*
X107278455Y-113265476D02*
X107218931Y-113265476D01*
X107218931Y-113265476D02*
X107195122Y-113253571D01*
X107195122Y-113253571D02*
X107183217Y-113241666D01*
X107183217Y-113241666D02*
X107171312Y-113217857D01*
X107171312Y-113217857D02*
X107171312Y-113170238D01*
X107171312Y-113170238D02*
X107183217Y-113146428D01*
X107183217Y-113146428D02*
X107195122Y-113134523D01*
X107195122Y-113134523D02*
X107218931Y-113122619D01*
X105041666Y-103563574D02*
X105160714Y-103563574D01*
X105160714Y-103563574D02*
X105160714Y-103313574D01*
X104970237Y-103337384D02*
X104958333Y-103325479D01*
X104958333Y-103325479D02*
X104934523Y-103313574D01*
X104934523Y-103313574D02*
X104874999Y-103313574D01*
X104874999Y-103313574D02*
X104851190Y-103325479D01*
X104851190Y-103325479D02*
X104839285Y-103337384D01*
X104839285Y-103337384D02*
X104827380Y-103361193D01*
X104827380Y-103361193D02*
X104827380Y-103385003D01*
X104827380Y-103385003D02*
X104839285Y-103420717D01*
X104839285Y-103420717D02*
X104982142Y-103563574D01*
X104982142Y-103563574D02*
X104827380Y-103563574D01*
X103310714Y-110289765D02*
X103322618Y-110301670D01*
X103322618Y-110301670D02*
X103358333Y-110313574D01*
X103358333Y-110313574D02*
X103382142Y-110313574D01*
X103382142Y-110313574D02*
X103417856Y-110301670D01*
X103417856Y-110301670D02*
X103441666Y-110277860D01*
X103441666Y-110277860D02*
X103453571Y-110254050D01*
X103453571Y-110254050D02*
X103465475Y-110206431D01*
X103465475Y-110206431D02*
X103465475Y-110170717D01*
X103465475Y-110170717D02*
X103453571Y-110123098D01*
X103453571Y-110123098D02*
X103441666Y-110099289D01*
X103441666Y-110099289D02*
X103417856Y-110075479D01*
X103417856Y-110075479D02*
X103382142Y-110063574D01*
X103382142Y-110063574D02*
X103358333Y-110063574D01*
X103358333Y-110063574D02*
X103322618Y-110075479D01*
X103322618Y-110075479D02*
X103310714Y-110087384D01*
X103072618Y-110313574D02*
X103215475Y-110313574D01*
X103144047Y-110313574D02*
X103144047Y-110063574D01*
X103144047Y-110063574D02*
X103167856Y-110099289D01*
X103167856Y-110099289D02*
X103191666Y-110123098D01*
X103191666Y-110123098D02*
X103215475Y-110135003D01*
X102858333Y-110146908D02*
X102858333Y-110313574D01*
X102917857Y-110051670D02*
X102977380Y-110230241D01*
X102977380Y-110230241D02*
X102822619Y-110230241D01*
X103239765Y-104558333D02*
X103251670Y-104546429D01*
X103251670Y-104546429D02*
X103263574Y-104510714D01*
X103263574Y-104510714D02*
X103263574Y-104486905D01*
X103263574Y-104486905D02*
X103251670Y-104451191D01*
X103251670Y-104451191D02*
X103227860Y-104427381D01*
X103227860Y-104427381D02*
X103204050Y-104415476D01*
X103204050Y-104415476D02*
X103156431Y-104403572D01*
X103156431Y-104403572D02*
X103120717Y-104403572D01*
X103120717Y-104403572D02*
X103073098Y-104415476D01*
X103073098Y-104415476D02*
X103049289Y-104427381D01*
X103049289Y-104427381D02*
X103025479Y-104451191D01*
X103025479Y-104451191D02*
X103013574Y-104486905D01*
X103013574Y-104486905D02*
X103013574Y-104510714D01*
X103013574Y-104510714D02*
X103025479Y-104546429D01*
X103025479Y-104546429D02*
X103037384Y-104558333D01*
X103263574Y-104796429D02*
X103263574Y-104653572D01*
X103263574Y-104725000D02*
X103013574Y-104725000D01*
X103013574Y-104725000D02*
X103049289Y-104701191D01*
X103049289Y-104701191D02*
X103073098Y-104677381D01*
X103073098Y-104677381D02*
X103085003Y-104653572D01*
X107310714Y-103439765D02*
X107322618Y-103451670D01*
X107322618Y-103451670D02*
X107358333Y-103463574D01*
X107358333Y-103463574D02*
X107382142Y-103463574D01*
X107382142Y-103463574D02*
X107417856Y-103451670D01*
X107417856Y-103451670D02*
X107441666Y-103427860D01*
X107441666Y-103427860D02*
X107453571Y-103404050D01*
X107453571Y-103404050D02*
X107465475Y-103356431D01*
X107465475Y-103356431D02*
X107465475Y-103320717D01*
X107465475Y-103320717D02*
X107453571Y-103273098D01*
X107453571Y-103273098D02*
X107441666Y-103249289D01*
X107441666Y-103249289D02*
X107417856Y-103225479D01*
X107417856Y-103225479D02*
X107382142Y-103213574D01*
X107382142Y-103213574D02*
X107358333Y-103213574D01*
X107358333Y-103213574D02*
X107322618Y-103225479D01*
X107322618Y-103225479D02*
X107310714Y-103237384D01*
X107227380Y-103213574D02*
X107072618Y-103213574D01*
X107072618Y-103213574D02*
X107155952Y-103308812D01*
X107155952Y-103308812D02*
X107120237Y-103308812D01*
X107120237Y-103308812D02*
X107096428Y-103320717D01*
X107096428Y-103320717D02*
X107084523Y-103332622D01*
X107084523Y-103332622D02*
X107072618Y-103356431D01*
X107072618Y-103356431D02*
X107072618Y-103415955D01*
X107072618Y-103415955D02*
X107084523Y-103439765D01*
X107084523Y-103439765D02*
X107096428Y-103451670D01*
X107096428Y-103451670D02*
X107120237Y-103463574D01*
X107120237Y-103463574D02*
X107191666Y-103463574D01*
X107191666Y-103463574D02*
X107215475Y-103451670D01*
X107215475Y-103451670D02*
X107227380Y-103439765D01*
X106834523Y-103463574D02*
X106977380Y-103463574D01*
X106905952Y-103463574D02*
X106905952Y-103213574D01*
X106905952Y-103213574D02*
X106929761Y-103249289D01*
X106929761Y-103249289D02*
X106953571Y-103273098D01*
X106953571Y-103273098D02*
X106977380Y-103285003D01*
D10*
X107711904Y-108054819D02*
X107711904Y-108864342D01*
X107711904Y-108864342D02*
X107664285Y-108959580D01*
X107664285Y-108959580D02*
X107616666Y-109007200D01*
X107616666Y-109007200D02*
X107521428Y-109054819D01*
X107521428Y-109054819D02*
X107330952Y-109054819D01*
X107330952Y-109054819D02*
X107235714Y-109007200D01*
X107235714Y-109007200D02*
X107188095Y-108959580D01*
X107188095Y-108959580D02*
X107140476Y-108864342D01*
X107140476Y-108864342D02*
X107140476Y-108054819D01*
X106140476Y-109054819D02*
X106711904Y-109054819D01*
X106426190Y-109054819D02*
X106426190Y-108054819D01*
X106426190Y-108054819D02*
X106521428Y-108197676D01*
X106521428Y-108197676D02*
X106616666Y-108292914D01*
X106616666Y-108292914D02*
X106711904Y-108340533D01*
D11*
X100489765Y-112889285D02*
X100501670Y-112877381D01*
X100501670Y-112877381D02*
X100513574Y-112841666D01*
X100513574Y-112841666D02*
X100513574Y-112817857D01*
X100513574Y-112817857D02*
X100501670Y-112782143D01*
X100501670Y-112782143D02*
X100477860Y-112758333D01*
X100477860Y-112758333D02*
X100454050Y-112746428D01*
X100454050Y-112746428D02*
X100406431Y-112734524D01*
X100406431Y-112734524D02*
X100370717Y-112734524D01*
X100370717Y-112734524D02*
X100323098Y-112746428D01*
X100323098Y-112746428D02*
X100299289Y-112758333D01*
X100299289Y-112758333D02*
X100275479Y-112782143D01*
X100275479Y-112782143D02*
X100263574Y-112817857D01*
X100263574Y-112817857D02*
X100263574Y-112841666D01*
X100263574Y-112841666D02*
X100275479Y-112877381D01*
X100275479Y-112877381D02*
X100287384Y-112889285D01*
X100513574Y-113127381D02*
X100513574Y-112984524D01*
X100513574Y-113055952D02*
X100263574Y-113055952D01*
X100263574Y-113055952D02*
X100299289Y-113032143D01*
X100299289Y-113032143D02*
X100323098Y-113008333D01*
X100323098Y-113008333D02*
X100335003Y-112984524D01*
X100263574Y-113282142D02*
X100263574Y-113305952D01*
X100263574Y-113305952D02*
X100275479Y-113329761D01*
X100275479Y-113329761D02*
X100287384Y-113341666D01*
X100287384Y-113341666D02*
X100311193Y-113353571D01*
X100311193Y-113353571D02*
X100358812Y-113365476D01*
X100358812Y-113365476D02*
X100418336Y-113365476D01*
X100418336Y-113365476D02*
X100465955Y-113353571D01*
X100465955Y-113353571D02*
X100489765Y-113341666D01*
X100489765Y-113341666D02*
X100501670Y-113329761D01*
X100501670Y-113329761D02*
X100513574Y-113305952D01*
X100513574Y-113305952D02*
X100513574Y-113282142D01*
X100513574Y-113282142D02*
X100501670Y-113258333D01*
X100501670Y-113258333D02*
X100489765Y-113246428D01*
X100489765Y-113246428D02*
X100465955Y-113234523D01*
X100465955Y-113234523D02*
X100418336Y-113222619D01*
X100418336Y-113222619D02*
X100358812Y-113222619D01*
X100358812Y-113222619D02*
X100311193Y-113234523D01*
X100311193Y-113234523D02*
X100287384Y-113246428D01*
X100287384Y-113246428D02*
X100275479Y-113258333D01*
X100275479Y-113258333D02*
X100263574Y-113282142D01*
X109410714Y-105239765D02*
X109422618Y-105251670D01*
X109422618Y-105251670D02*
X109458333Y-105263574D01*
X109458333Y-105263574D02*
X109482142Y-105263574D01*
X109482142Y-105263574D02*
X109517856Y-105251670D01*
X109517856Y-105251670D02*
X109541666Y-105227860D01*
X109541666Y-105227860D02*
X109553571Y-105204050D01*
X109553571Y-105204050D02*
X109565475Y-105156431D01*
X109565475Y-105156431D02*
X109565475Y-105120717D01*
X109565475Y-105120717D02*
X109553571Y-105073098D01*
X109553571Y-105073098D02*
X109541666Y-105049289D01*
X109541666Y-105049289D02*
X109517856Y-105025479D01*
X109517856Y-105025479D02*
X109482142Y-105013574D01*
X109482142Y-105013574D02*
X109458333Y-105013574D01*
X109458333Y-105013574D02*
X109422618Y-105025479D01*
X109422618Y-105025479D02*
X109410714Y-105037384D01*
X109315475Y-105037384D02*
X109303571Y-105025479D01*
X109303571Y-105025479D02*
X109279761Y-105013574D01*
X109279761Y-105013574D02*
X109220237Y-105013574D01*
X109220237Y-105013574D02*
X109196428Y-105025479D01*
X109196428Y-105025479D02*
X109184523Y-105037384D01*
X109184523Y-105037384D02*
X109172618Y-105061193D01*
X109172618Y-105061193D02*
X109172618Y-105085003D01*
X109172618Y-105085003D02*
X109184523Y-105120717D01*
X109184523Y-105120717D02*
X109327380Y-105263574D01*
X109327380Y-105263574D02*
X109172618Y-105263574D01*
X109053571Y-105263574D02*
X109005952Y-105263574D01*
X109005952Y-105263574D02*
X108982142Y-105251670D01*
X108982142Y-105251670D02*
X108970238Y-105239765D01*
X108970238Y-105239765D02*
X108946428Y-105204050D01*
X108946428Y-105204050D02*
X108934523Y-105156431D01*
X108934523Y-105156431D02*
X108934523Y-105061193D01*
X108934523Y-105061193D02*
X108946428Y-105037384D01*
X108946428Y-105037384D02*
X108958333Y-105025479D01*
X108958333Y-105025479D02*
X108982142Y-105013574D01*
X108982142Y-105013574D02*
X109029761Y-105013574D01*
X109029761Y-105013574D02*
X109053571Y-105025479D01*
X109053571Y-105025479D02*
X109065476Y-105037384D01*
X109065476Y-105037384D02*
X109077380Y-105061193D01*
X109077380Y-105061193D02*
X109077380Y-105120717D01*
X109077380Y-105120717D02*
X109065476Y-105144527D01*
X109065476Y-105144527D02*
X109053571Y-105156431D01*
X109053571Y-105156431D02*
X109029761Y-105168336D01*
X109029761Y-105168336D02*
X108982142Y-105168336D01*
X108982142Y-105168336D02*
X108958333Y-105156431D01*
X108958333Y-105156431D02*
X108946428Y-105144527D01*
X108946428Y-105144527D02*
X108934523Y-105120717D01*
X107310714Y-104139765D02*
X107322618Y-104151670D01*
X107322618Y-104151670D02*
X107358333Y-104163574D01*
X107358333Y-104163574D02*
X107382142Y-104163574D01*
X107382142Y-104163574D02*
X107417856Y-104151670D01*
X107417856Y-104151670D02*
X107441666Y-104127860D01*
X107441666Y-104127860D02*
X107453571Y-104104050D01*
X107453571Y-104104050D02*
X107465475Y-104056431D01*
X107465475Y-104056431D02*
X107465475Y-104020717D01*
X107465475Y-104020717D02*
X107453571Y-103973098D01*
X107453571Y-103973098D02*
X107441666Y-103949289D01*
X107441666Y-103949289D02*
X107417856Y-103925479D01*
X107417856Y-103925479D02*
X107382142Y-103913574D01*
X107382142Y-103913574D02*
X107358333Y-103913574D01*
X107358333Y-103913574D02*
X107322618Y-103925479D01*
X107322618Y-103925479D02*
X107310714Y-103937384D01*
X107215475Y-103937384D02*
X107203571Y-103925479D01*
X107203571Y-103925479D02*
X107179761Y-103913574D01*
X107179761Y-103913574D02*
X107120237Y-103913574D01*
X107120237Y-103913574D02*
X107096428Y-103925479D01*
X107096428Y-103925479D02*
X107084523Y-103937384D01*
X107084523Y-103937384D02*
X107072618Y-103961193D01*
X107072618Y-103961193D02*
X107072618Y-103985003D01*
X107072618Y-103985003D02*
X107084523Y-104020717D01*
X107084523Y-104020717D02*
X107227380Y-104163574D01*
X107227380Y-104163574D02*
X107072618Y-104163574D01*
X106834523Y-104163574D02*
X106977380Y-104163574D01*
X106905952Y-104163574D02*
X106905952Y-103913574D01*
X106905952Y-103913574D02*
X106929761Y-103949289D01*
X106929761Y-103949289D02*
X106953571Y-103973098D01*
X106953571Y-103973098D02*
X106977380Y-103985003D01*
X101491666Y-110113574D02*
X101574999Y-109994527D01*
X101634523Y-110113574D02*
X101634523Y-109863574D01*
X101634523Y-109863574D02*
X101539285Y-109863574D01*
X101539285Y-109863574D02*
X101515475Y-109875479D01*
X101515475Y-109875479D02*
X101503570Y-109887384D01*
X101503570Y-109887384D02*
X101491666Y-109911193D01*
X101491666Y-109911193D02*
X101491666Y-109946908D01*
X101491666Y-109946908D02*
X101503570Y-109970717D01*
X101503570Y-109970717D02*
X101515475Y-109982622D01*
X101515475Y-109982622D02*
X101539285Y-109994527D01*
X101539285Y-109994527D02*
X101634523Y-109994527D01*
X101396427Y-109887384D02*
X101384523Y-109875479D01*
X101384523Y-109875479D02*
X101360713Y-109863574D01*
X101360713Y-109863574D02*
X101301189Y-109863574D01*
X101301189Y-109863574D02*
X101277380Y-109875479D01*
X101277380Y-109875479D02*
X101265475Y-109887384D01*
X101265475Y-109887384D02*
X101253570Y-109911193D01*
X101253570Y-109911193D02*
X101253570Y-109935003D01*
X101253570Y-109935003D02*
X101265475Y-109970717D01*
X101265475Y-109970717D02*
X101408332Y-110113574D01*
X101408332Y-110113574D02*
X101253570Y-110113574D01*
X108491666Y-112139765D02*
X108503570Y-112151670D01*
X108503570Y-112151670D02*
X108539285Y-112163574D01*
X108539285Y-112163574D02*
X108563094Y-112163574D01*
X108563094Y-112163574D02*
X108598808Y-112151670D01*
X108598808Y-112151670D02*
X108622618Y-112127860D01*
X108622618Y-112127860D02*
X108634523Y-112104050D01*
X108634523Y-112104050D02*
X108646427Y-112056431D01*
X108646427Y-112056431D02*
X108646427Y-112020717D01*
X108646427Y-112020717D02*
X108634523Y-111973098D01*
X108634523Y-111973098D02*
X108622618Y-111949289D01*
X108622618Y-111949289D02*
X108598808Y-111925479D01*
X108598808Y-111925479D02*
X108563094Y-111913574D01*
X108563094Y-111913574D02*
X108539285Y-111913574D01*
X108539285Y-111913574D02*
X108503570Y-111925479D01*
X108503570Y-111925479D02*
X108491666Y-111937384D01*
X108265475Y-111913574D02*
X108384523Y-111913574D01*
X108384523Y-111913574D02*
X108396427Y-112032622D01*
X108396427Y-112032622D02*
X108384523Y-112020717D01*
X108384523Y-112020717D02*
X108360713Y-112008812D01*
X108360713Y-112008812D02*
X108301189Y-112008812D01*
X108301189Y-112008812D02*
X108277380Y-112020717D01*
X108277380Y-112020717D02*
X108265475Y-112032622D01*
X108265475Y-112032622D02*
X108253570Y-112056431D01*
X108253570Y-112056431D02*
X108253570Y-112115955D01*
X108253570Y-112115955D02*
X108265475Y-112139765D01*
X108265475Y-112139765D02*
X108277380Y-112151670D01*
X108277380Y-112151670D02*
X108301189Y-112163574D01*
X108301189Y-112163574D02*
X108360713Y-112163574D01*
X108360713Y-112163574D02*
X108384523Y-112151670D01*
X108384523Y-112151670D02*
X108396427Y-112139765D01*
X101210714Y-111039765D02*
X101222618Y-111051670D01*
X101222618Y-111051670D02*
X101258333Y-111063574D01*
X101258333Y-111063574D02*
X101282142Y-111063574D01*
X101282142Y-111063574D02*
X101317856Y-111051670D01*
X101317856Y-111051670D02*
X101341666Y-111027860D01*
X101341666Y-111027860D02*
X101353571Y-111004050D01*
X101353571Y-111004050D02*
X101365475Y-110956431D01*
X101365475Y-110956431D02*
X101365475Y-110920717D01*
X101365475Y-110920717D02*
X101353571Y-110873098D01*
X101353571Y-110873098D02*
X101341666Y-110849289D01*
X101341666Y-110849289D02*
X101317856Y-110825479D01*
X101317856Y-110825479D02*
X101282142Y-110813574D01*
X101282142Y-110813574D02*
X101258333Y-110813574D01*
X101258333Y-110813574D02*
X101222618Y-110825479D01*
X101222618Y-110825479D02*
X101210714Y-110837384D01*
X100972618Y-111063574D02*
X101115475Y-111063574D01*
X101044047Y-111063574D02*
X101044047Y-110813574D01*
X101044047Y-110813574D02*
X101067856Y-110849289D01*
X101067856Y-110849289D02*
X101091666Y-110873098D01*
X101091666Y-110873098D02*
X101115475Y-110885003D01*
X100829761Y-110920717D02*
X100853571Y-110908812D01*
X100853571Y-110908812D02*
X100865476Y-110896908D01*
X100865476Y-110896908D02*
X100877380Y-110873098D01*
X100877380Y-110873098D02*
X100877380Y-110861193D01*
X100877380Y-110861193D02*
X100865476Y-110837384D01*
X100865476Y-110837384D02*
X100853571Y-110825479D01*
X100853571Y-110825479D02*
X100829761Y-110813574D01*
X100829761Y-110813574D02*
X100782142Y-110813574D01*
X100782142Y-110813574D02*
X100758333Y-110825479D01*
X100758333Y-110825479D02*
X100746428Y-110837384D01*
X100746428Y-110837384D02*
X100734523Y-110861193D01*
X100734523Y-110861193D02*
X100734523Y-110873098D01*
X100734523Y-110873098D02*
X100746428Y-110896908D01*
X100746428Y-110896908D02*
X100758333Y-110908812D01*
X100758333Y-110908812D02*
X100782142Y-110920717D01*
X100782142Y-110920717D02*
X100829761Y-110920717D01*
X100829761Y-110920717D02*
X100853571Y-110932622D01*
X100853571Y-110932622D02*
X100865476Y-110944527D01*
X100865476Y-110944527D02*
X100877380Y-110968336D01*
X100877380Y-110968336D02*
X100877380Y-111015955D01*
X100877380Y-111015955D02*
X100865476Y-111039765D01*
X100865476Y-111039765D02*
X100853571Y-111051670D01*
X100853571Y-111051670D02*
X100829761Y-111063574D01*
X100829761Y-111063574D02*
X100782142Y-111063574D01*
X100782142Y-111063574D02*
X100758333Y-111051670D01*
X100758333Y-111051670D02*
X100746428Y-111039765D01*
X100746428Y-111039765D02*
X100734523Y-111015955D01*
X100734523Y-111015955D02*
X100734523Y-110968336D01*
X100734523Y-110968336D02*
X100746428Y-110944527D01*
X100746428Y-110944527D02*
X100758333Y-110932622D01*
X100758333Y-110932622D02*
X100782142Y-110920717D01*
X103460714Y-114039765D02*
X103472618Y-114051670D01*
X103472618Y-114051670D02*
X103508333Y-114063574D01*
X103508333Y-114063574D02*
X103532142Y-114063574D01*
X103532142Y-114063574D02*
X103567856Y-114051670D01*
X103567856Y-114051670D02*
X103591666Y-114027860D01*
X103591666Y-114027860D02*
X103603571Y-114004050D01*
X103603571Y-114004050D02*
X103615475Y-113956431D01*
X103615475Y-113956431D02*
X103615475Y-113920717D01*
X103615475Y-113920717D02*
X103603571Y-113873098D01*
X103603571Y-113873098D02*
X103591666Y-113849289D01*
X103591666Y-113849289D02*
X103567856Y-113825479D01*
X103567856Y-113825479D02*
X103532142Y-113813574D01*
X103532142Y-113813574D02*
X103508333Y-113813574D01*
X103508333Y-113813574D02*
X103472618Y-113825479D01*
X103472618Y-113825479D02*
X103460714Y-113837384D01*
X103365475Y-113837384D02*
X103353571Y-113825479D01*
X103353571Y-113825479D02*
X103329761Y-113813574D01*
X103329761Y-113813574D02*
X103270237Y-113813574D01*
X103270237Y-113813574D02*
X103246428Y-113825479D01*
X103246428Y-113825479D02*
X103234523Y-113837384D01*
X103234523Y-113837384D02*
X103222618Y-113861193D01*
X103222618Y-113861193D02*
X103222618Y-113885003D01*
X103222618Y-113885003D02*
X103234523Y-113920717D01*
X103234523Y-113920717D02*
X103377380Y-114063574D01*
X103377380Y-114063574D02*
X103222618Y-114063574D01*
X103079761Y-113920717D02*
X103103571Y-113908812D01*
X103103571Y-113908812D02*
X103115476Y-113896908D01*
X103115476Y-113896908D02*
X103127380Y-113873098D01*
X103127380Y-113873098D02*
X103127380Y-113861193D01*
X103127380Y-113861193D02*
X103115476Y-113837384D01*
X103115476Y-113837384D02*
X103103571Y-113825479D01*
X103103571Y-113825479D02*
X103079761Y-113813574D01*
X103079761Y-113813574D02*
X103032142Y-113813574D01*
X103032142Y-113813574D02*
X103008333Y-113825479D01*
X103008333Y-113825479D02*
X102996428Y-113837384D01*
X102996428Y-113837384D02*
X102984523Y-113861193D01*
X102984523Y-113861193D02*
X102984523Y-113873098D01*
X102984523Y-113873098D02*
X102996428Y-113896908D01*
X102996428Y-113896908D02*
X103008333Y-113908812D01*
X103008333Y-113908812D02*
X103032142Y-113920717D01*
X103032142Y-113920717D02*
X103079761Y-113920717D01*
X103079761Y-113920717D02*
X103103571Y-113932622D01*
X103103571Y-113932622D02*
X103115476Y-113944527D01*
X103115476Y-113944527D02*
X103127380Y-113968336D01*
X103127380Y-113968336D02*
X103127380Y-114015955D01*
X103127380Y-114015955D02*
X103115476Y-114039765D01*
X103115476Y-114039765D02*
X103103571Y-114051670D01*
X103103571Y-114051670D02*
X103079761Y-114063574D01*
X103079761Y-114063574D02*
X103032142Y-114063574D01*
X103032142Y-114063574D02*
X103008333Y-114051670D01*
X103008333Y-114051670D02*
X102996428Y-114039765D01*
X102996428Y-114039765D02*
X102984523Y-114015955D01*
X102984523Y-114015955D02*
X102984523Y-113968336D01*
X102984523Y-113968336D02*
X102996428Y-113944527D01*
X102996428Y-113944527D02*
X103008333Y-113932622D01*
X103008333Y-113932622D02*
X103032142Y-113920717D01*
X107991666Y-114363574D02*
X108074999Y-114244527D01*
X108134523Y-114363574D02*
X108134523Y-114113574D01*
X108134523Y-114113574D02*
X108039285Y-114113574D01*
X108039285Y-114113574D02*
X108015475Y-114125479D01*
X108015475Y-114125479D02*
X108003570Y-114137384D01*
X108003570Y-114137384D02*
X107991666Y-114161193D01*
X107991666Y-114161193D02*
X107991666Y-114196908D01*
X107991666Y-114196908D02*
X108003570Y-114220717D01*
X108003570Y-114220717D02*
X108015475Y-114232622D01*
X108015475Y-114232622D02*
X108039285Y-114244527D01*
X108039285Y-114244527D02*
X108134523Y-114244527D01*
X107777380Y-114196908D02*
X107777380Y-114363574D01*
X107836904Y-114101670D02*
X107896427Y-114280241D01*
X107896427Y-114280241D02*
X107741666Y-114280241D01*
X101410714Y-111889765D02*
X101422618Y-111901670D01*
X101422618Y-111901670D02*
X101458333Y-111913574D01*
X101458333Y-111913574D02*
X101482142Y-111913574D01*
X101482142Y-111913574D02*
X101517856Y-111901670D01*
X101517856Y-111901670D02*
X101541666Y-111877860D01*
X101541666Y-111877860D02*
X101553571Y-111854050D01*
X101553571Y-111854050D02*
X101565475Y-111806431D01*
X101565475Y-111806431D02*
X101565475Y-111770717D01*
X101565475Y-111770717D02*
X101553571Y-111723098D01*
X101553571Y-111723098D02*
X101541666Y-111699289D01*
X101541666Y-111699289D02*
X101517856Y-111675479D01*
X101517856Y-111675479D02*
X101482142Y-111663574D01*
X101482142Y-111663574D02*
X101458333Y-111663574D01*
X101458333Y-111663574D02*
X101422618Y-111675479D01*
X101422618Y-111675479D02*
X101410714Y-111687384D01*
X101172618Y-111913574D02*
X101315475Y-111913574D01*
X101244047Y-111913574D02*
X101244047Y-111663574D01*
X101244047Y-111663574D02*
X101267856Y-111699289D01*
X101267856Y-111699289D02*
X101291666Y-111723098D01*
X101291666Y-111723098D02*
X101315475Y-111735003D01*
X101089285Y-111663574D02*
X100922619Y-111663574D01*
X100922619Y-111663574D02*
X101029761Y-111913574D01*
X101091666Y-114339765D02*
X101103570Y-114351670D01*
X101103570Y-114351670D02*
X101139285Y-114363574D01*
X101139285Y-114363574D02*
X101163094Y-114363574D01*
X101163094Y-114363574D02*
X101198808Y-114351670D01*
X101198808Y-114351670D02*
X101222618Y-114327860D01*
X101222618Y-114327860D02*
X101234523Y-114304050D01*
X101234523Y-114304050D02*
X101246427Y-114256431D01*
X101246427Y-114256431D02*
X101246427Y-114220717D01*
X101246427Y-114220717D02*
X101234523Y-114173098D01*
X101234523Y-114173098D02*
X101222618Y-114149289D01*
X101222618Y-114149289D02*
X101198808Y-114125479D01*
X101198808Y-114125479D02*
X101163094Y-114113574D01*
X101163094Y-114113574D02*
X101139285Y-114113574D01*
X101139285Y-114113574D02*
X101103570Y-114125479D01*
X101103570Y-114125479D02*
X101091666Y-114137384D01*
X100948808Y-114220717D02*
X100972618Y-114208812D01*
X100972618Y-114208812D02*
X100984523Y-114196908D01*
X100984523Y-114196908D02*
X100996427Y-114173098D01*
X100996427Y-114173098D02*
X100996427Y-114161193D01*
X100996427Y-114161193D02*
X100984523Y-114137384D01*
X100984523Y-114137384D02*
X100972618Y-114125479D01*
X100972618Y-114125479D02*
X100948808Y-114113574D01*
X100948808Y-114113574D02*
X100901189Y-114113574D01*
X100901189Y-114113574D02*
X100877380Y-114125479D01*
X100877380Y-114125479D02*
X100865475Y-114137384D01*
X100865475Y-114137384D02*
X100853570Y-114161193D01*
X100853570Y-114161193D02*
X100853570Y-114173098D01*
X100853570Y-114173098D02*
X100865475Y-114196908D01*
X100865475Y-114196908D02*
X100877380Y-114208812D01*
X100877380Y-114208812D02*
X100901189Y-114220717D01*
X100901189Y-114220717D02*
X100948808Y-114220717D01*
X100948808Y-114220717D02*
X100972618Y-114232622D01*
X100972618Y-114232622D02*
X100984523Y-114244527D01*
X100984523Y-114244527D02*
X100996427Y-114268336D01*
X100996427Y-114268336D02*
X100996427Y-114315955D01*
X100996427Y-114315955D02*
X100984523Y-114339765D01*
X100984523Y-114339765D02*
X100972618Y-114351670D01*
X100972618Y-114351670D02*
X100948808Y-114363574D01*
X100948808Y-114363574D02*
X100901189Y-114363574D01*
X100901189Y-114363574D02*
X100877380Y-114351670D01*
X100877380Y-114351670D02*
X100865475Y-114339765D01*
X100865475Y-114339765D02*
X100853570Y-114315955D01*
X100853570Y-114315955D02*
X100853570Y-114268336D01*
X100853570Y-114268336D02*
X100865475Y-114244527D01*
X100865475Y-114244527D02*
X100877380Y-114232622D01*
X100877380Y-114232622D02*
X100901189Y-114220717D01*
X103310714Y-108889765D02*
X103322618Y-108901670D01*
X103322618Y-108901670D02*
X103358333Y-108913574D01*
X103358333Y-108913574D02*
X103382142Y-108913574D01*
X103382142Y-108913574D02*
X103417856Y-108901670D01*
X103417856Y-108901670D02*
X103441666Y-108877860D01*
X103441666Y-108877860D02*
X103453571Y-108854050D01*
X103453571Y-108854050D02*
X103465475Y-108806431D01*
X103465475Y-108806431D02*
X103465475Y-108770717D01*
X103465475Y-108770717D02*
X103453571Y-108723098D01*
X103453571Y-108723098D02*
X103441666Y-108699289D01*
X103441666Y-108699289D02*
X103417856Y-108675479D01*
X103417856Y-108675479D02*
X103382142Y-108663574D01*
X103382142Y-108663574D02*
X103358333Y-108663574D01*
X103358333Y-108663574D02*
X103322618Y-108675479D01*
X103322618Y-108675479D02*
X103310714Y-108687384D01*
X103072618Y-108913574D02*
X103215475Y-108913574D01*
X103144047Y-108913574D02*
X103144047Y-108663574D01*
X103144047Y-108663574D02*
X103167856Y-108699289D01*
X103167856Y-108699289D02*
X103191666Y-108723098D01*
X103191666Y-108723098D02*
X103215475Y-108735003D01*
X102953571Y-108913574D02*
X102905952Y-108913574D01*
X102905952Y-108913574D02*
X102882142Y-108901670D01*
X102882142Y-108901670D02*
X102870238Y-108889765D01*
X102870238Y-108889765D02*
X102846428Y-108854050D01*
X102846428Y-108854050D02*
X102834523Y-108806431D01*
X102834523Y-108806431D02*
X102834523Y-108711193D01*
X102834523Y-108711193D02*
X102846428Y-108687384D01*
X102846428Y-108687384D02*
X102858333Y-108675479D01*
X102858333Y-108675479D02*
X102882142Y-108663574D01*
X102882142Y-108663574D02*
X102929761Y-108663574D01*
X102929761Y-108663574D02*
X102953571Y-108675479D01*
X102953571Y-108675479D02*
X102965476Y-108687384D01*
X102965476Y-108687384D02*
X102977380Y-108711193D01*
X102977380Y-108711193D02*
X102977380Y-108770717D01*
X102977380Y-108770717D02*
X102965476Y-108794527D01*
X102965476Y-108794527D02*
X102953571Y-108806431D01*
X102953571Y-108806431D02*
X102929761Y-108818336D01*
X102929761Y-108818336D02*
X102882142Y-108818336D01*
X102882142Y-108818336D02*
X102858333Y-108806431D01*
X102858333Y-108806431D02*
X102846428Y-108794527D01*
X102846428Y-108794527D02*
X102834523Y-108770717D01*
X106039765Y-104758333D02*
X106051670Y-104746429D01*
X106051670Y-104746429D02*
X106063574Y-104710714D01*
X106063574Y-104710714D02*
X106063574Y-104686905D01*
X106063574Y-104686905D02*
X106051670Y-104651191D01*
X106051670Y-104651191D02*
X106027860Y-104627381D01*
X106027860Y-104627381D02*
X106004050Y-104615476D01*
X106004050Y-104615476D02*
X105956431Y-104603572D01*
X105956431Y-104603572D02*
X105920717Y-104603572D01*
X105920717Y-104603572D02*
X105873098Y-104615476D01*
X105873098Y-104615476D02*
X105849289Y-104627381D01*
X105849289Y-104627381D02*
X105825479Y-104651191D01*
X105825479Y-104651191D02*
X105813574Y-104686905D01*
X105813574Y-104686905D02*
X105813574Y-104710714D01*
X105813574Y-104710714D02*
X105825479Y-104746429D01*
X105825479Y-104746429D02*
X105837384Y-104758333D01*
X105813574Y-104841667D02*
X105813574Y-104996429D01*
X105813574Y-104996429D02*
X105908812Y-104913095D01*
X105908812Y-104913095D02*
X105908812Y-104948810D01*
X105908812Y-104948810D02*
X105920717Y-104972619D01*
X105920717Y-104972619D02*
X105932622Y-104984524D01*
X105932622Y-104984524D02*
X105956431Y-104996429D01*
X105956431Y-104996429D02*
X106015955Y-104996429D01*
X106015955Y-104996429D02*
X106039765Y-104984524D01*
X106039765Y-104984524D02*
X106051670Y-104972619D01*
X106051670Y-104972619D02*
X106063574Y-104948810D01*
X106063574Y-104948810D02*
X106063574Y-104877381D01*
X106063574Y-104877381D02*
X106051670Y-104853572D01*
X106051670Y-104853572D02*
X106039765Y-104841667D01*
%TO.C,X1*%
D12*
X103780000Y-104050000D02*
G75*
G02*
X103720000Y-104050000I-30000J0D01*
G01*
X103720000Y-104050000D02*
G75*
G02*
X103780000Y-104050000I30000J0D01*
G01*
%TO.C,L4*%
D13*
X108300000Y-103800000D02*
X108600000Y-103800000D01*
X108600000Y-104400000D01*
X108300000Y-104400000D01*
X108300000Y-103800000D01*
%TO.C,C27*%
X103000000Y-110950000D02*
X103300000Y-110950000D01*
X103300000Y-111550000D01*
X103000000Y-111550000D01*
X103000000Y-110950000D01*
%TO.C,R3*%
X101100000Y-107650000D02*
X101400000Y-107650000D01*
X101400000Y-108250000D01*
X101100000Y-108250000D01*
X101100000Y-107650000D01*
%TO.C,U2*%
D12*
X100880000Y-112450000D02*
G75*
G02*
X100820000Y-112450000I-30000J0D01*
G01*
X100820000Y-112450000D02*
G75*
G02*
X100880000Y-112450000I30000J0D01*
G01*
%TO.C,C15*%
D13*
X102850000Y-109350000D02*
X103450000Y-109350000D01*
X103450000Y-109650000D01*
X102850000Y-109650000D01*
X102850000Y-109350000D01*
%TO.C,C6*%
X103700000Y-111150000D02*
X104000000Y-111150000D01*
X104000000Y-111750000D01*
X103700000Y-111750000D01*
X103700000Y-111150000D01*
%TO.C,C30*%
X108350000Y-102900000D02*
X108950000Y-102900000D01*
X108950000Y-103200000D01*
X108350000Y-103200000D01*
X108350000Y-102900000D01*
%TO.C,L1*%
X104750000Y-112900000D02*
X106350000Y-112900000D01*
X106350000Y-113700000D01*
X104750000Y-113700000D01*
X104750000Y-112900000D01*
%TO.C,AE1*%
D12*
X101930000Y-103250000D02*
G75*
G02*
X101870000Y-103250000I-30000J0D01*
G01*
X101870000Y-103250000D02*
G75*
G02*
X101930000Y-103250000I30000J0D01*
G01*
%TO.C,R5*%
D13*
X103000000Y-113100000D02*
X103600000Y-113100000D01*
X103600000Y-113400000D01*
X103000000Y-113400000D01*
X103000000Y-113100000D01*
%TO.C,C16*%
X107062500Y-112650000D02*
X107362500Y-112650000D01*
X107362500Y-113250000D01*
X107062500Y-113250000D01*
X107062500Y-112650000D01*
%TO.C,L2*%
X104700000Y-103300000D02*
X105300000Y-103300000D01*
X105300000Y-103600000D01*
X104700000Y-103600000D01*
X104700000Y-103300000D01*
%TO.C,C14*%
X102850000Y-110050000D02*
X103450000Y-110050000D01*
X103450000Y-110350000D01*
X102850000Y-110350000D01*
X102850000Y-110050000D01*
%TO.C,C1*%
X103000000Y-104300000D02*
X103300000Y-104300000D01*
X103300000Y-104900000D01*
X103000000Y-104900000D01*
X103000000Y-104300000D01*
%TO.C,C31*%
X106850000Y-103200000D02*
X107450000Y-103200000D01*
X107450000Y-103500000D01*
X106850000Y-103500000D01*
X106850000Y-103200000D01*
%TO.C,U1*%
X109450000Y-107100000D02*
X109450000Y-111100000D01*
X104450000Y-111100000D01*
X104450000Y-106100000D01*
X108450000Y-106100000D01*
X109450000Y-107100000D01*
%TO.C,C10*%
X100250000Y-112750000D02*
X100550000Y-112750000D01*
X100550000Y-113350000D01*
X100250000Y-113350000D01*
X100250000Y-112750000D01*
%TO.C,C29*%
X108950000Y-105000000D02*
X109550000Y-105000000D01*
X109550000Y-105300000D01*
X108950000Y-105300000D01*
X108950000Y-105000000D01*
%TO.C,C21*%
X106850000Y-103900000D02*
X107450000Y-103900000D01*
X107450000Y-104200000D01*
X106850000Y-104200000D01*
X106850000Y-103900000D01*
%TO.C,R2*%
X101150000Y-109850000D02*
X101750000Y-109850000D01*
X101750000Y-110150000D01*
X101150000Y-110150000D01*
X101150000Y-109850000D01*
%TO.C,C5*%
X108150000Y-111900000D02*
X108750000Y-111900000D01*
X108750000Y-112200000D01*
X108150000Y-112200000D01*
X108150000Y-111900000D01*
%TO.C,C18*%
X100550000Y-110700000D02*
X101550000Y-110700000D01*
X101550000Y-111200000D01*
X100550000Y-111200000D01*
X100550000Y-110700000D01*
%TO.C,C28*%
X103000000Y-113800000D02*
X103600000Y-113800000D01*
X103600000Y-114100000D01*
X103000000Y-114100000D01*
X103000000Y-113800000D01*
%TO.C,R4*%
X107650000Y-114100000D02*
X108250000Y-114100000D01*
X108250000Y-114400000D01*
X107650000Y-114400000D01*
X107650000Y-114100000D01*
%TO.C,C17*%
X100950000Y-111650000D02*
X101550000Y-111650000D01*
X101550000Y-111950000D01*
X100950000Y-111950000D01*
X100950000Y-111650000D01*
%TO.C,C8*%
X100550000Y-114000000D02*
X101550000Y-114000000D01*
X101550000Y-114500000D01*
X100550000Y-114500000D01*
X100550000Y-114000000D01*
%TO.C,C19*%
X102850000Y-108650000D02*
X103450000Y-108650000D01*
X103450000Y-108950000D01*
X102850000Y-108950000D01*
X102850000Y-108650000D01*
%TO.C,C3*%
X105800000Y-104500000D02*
X106100000Y-104500000D01*
X106100000Y-105100000D01*
X105800000Y-105100000D01*
X105800000Y-104500000D01*
%TD*%
M02*
