%TF.GenerationSoftware,KiCad,Pcbnew,10.0.0*%
%TF.CreationDate,2026-08-06T18:40:37+02:00*%
%TF.ProjectId,OpenRX-Mono,4f70656e-5258-42d4-9d6f-6e6f2e6b6963,rev?*%
%TF.SameCoordinates,Original*%
%TF.FileFunction,Other,User*%
%FSLAX46Y46*%
G04 Gerber Fmt 4.6, Leading zero omitted, Abs format (unit mm)*
G04 Created by KiCad (PCBNEW 10.0.0) date 2026-08-06 18:40:37*
%MOMM*%
%LPD*%
G01*
G04 APERTURE LIST*
%ADD10C,0.050000*%
G04 APERTURE END LIST*
%TO.C,X1*%
D10*
X103500000Y-103800000D02*
X105600000Y-103800000D01*
X105600000Y-105500000D01*
X103500000Y-105500000D01*
X103500000Y-103800000D01*
%TO.C,L4*%
X108100000Y-103400000D02*
X108800000Y-103400000D01*
X108800000Y-104800000D01*
X108100000Y-104800000D01*
X108100000Y-103400000D01*
%TO.C,C27*%
X102800000Y-110550000D02*
X103500000Y-110550000D01*
X103500000Y-111950000D01*
X102800000Y-111950000D01*
X102800000Y-110550000D01*
%TO.C,R3*%
X100900000Y-107250000D02*
X101600000Y-107250000D01*
X101600000Y-108650000D01*
X100900000Y-108650000D01*
X100900000Y-107250000D01*
%TO.C,TP5*%
X108650000Y-113450000D02*
X109850000Y-113450000D01*
X109850000Y-114950000D01*
X108650000Y-114950000D01*
X108650000Y-113450000D01*
%TO.C,U2*%
X100750000Y-112150000D02*
X101950000Y-112150000D01*
X101950000Y-113750000D01*
X100750000Y-113750000D01*
X100750000Y-112150000D01*
%TO.C,C15*%
X102450000Y-109150000D02*
X103850000Y-109150000D01*
X103850000Y-109850000D01*
X102450000Y-109850000D01*
X102450000Y-109150000D01*
%TO.C,C6*%
X103500000Y-110750000D02*
X104200000Y-110750000D01*
X104200000Y-112150000D01*
X103500000Y-112150000D01*
X103500000Y-110750000D01*
%TO.C,C30*%
X107950000Y-102700000D02*
X109350000Y-102700000D01*
X109350000Y-103400000D01*
X107950000Y-103400000D01*
X107950000Y-102700000D01*
%TO.C,L1*%
X104250000Y-112750000D02*
X106850000Y-112750000D01*
X106850000Y-113850000D01*
X104250000Y-113850000D01*
X104250000Y-112750000D01*
%TO.C,AE1*%
X100100000Y-102650000D02*
X102100000Y-102650000D01*
X102100000Y-107050000D01*
X100100000Y-107050000D01*
X100100000Y-102650000D01*
%TO.C,R5*%
X102600000Y-112900000D02*
X104000000Y-112900000D01*
X104000000Y-113600000D01*
X102600000Y-113600000D01*
X102600000Y-112900000D01*
%TO.C,C16*%
X106862500Y-112250000D02*
X107562500Y-112250000D01*
X107562500Y-113650000D01*
X106862500Y-113650000D01*
X106862500Y-112250000D01*
%TO.C,L2*%
X104300000Y-103100000D02*
X105700000Y-103100000D01*
X105700000Y-103800000D01*
X104300000Y-103800000D01*
X104300000Y-103100000D01*
%TO.C,C14*%
X102450000Y-109850000D02*
X103850000Y-109850000D01*
X103850000Y-110550000D01*
X102450000Y-110550000D01*
X102450000Y-109850000D01*
%TO.C,C1*%
X102800000Y-103900000D02*
X103500000Y-103900000D01*
X103500000Y-105300000D01*
X102800000Y-105300000D01*
X102800000Y-103900000D01*
%TO.C,C31*%
X106450000Y-103000000D02*
X107850000Y-103000000D01*
X107850000Y-103700000D01*
X106450000Y-103700000D01*
X106450000Y-103000000D01*
%TO.C,U1*%
X103850000Y-106470000D02*
X103850000Y-110730000D01*
X103850000Y-110730000D02*
X104200000Y-110730000D01*
X104200000Y-105850000D02*
X104200000Y-106470000D01*
X104200000Y-106470000D02*
X103850000Y-106470000D01*
X104200000Y-110730000D02*
X104200000Y-111350000D01*
X104200000Y-111350000D02*
X104820000Y-111350000D01*
X104820000Y-105500000D02*
X104820000Y-105850000D01*
X104820000Y-105850000D02*
X104200000Y-105850000D01*
X104820000Y-111350000D02*
X104820000Y-111700000D01*
X104820000Y-111700000D02*
X109080000Y-111700000D01*
X109080000Y-105500000D02*
X104820000Y-105500000D01*
X109080000Y-105850000D02*
X109080000Y-105500000D01*
X109080000Y-111350000D02*
X109700000Y-111350000D01*
X109080000Y-111700000D02*
X109080000Y-111350000D01*
X109700000Y-105850000D02*
X109080000Y-105850000D01*
X109700000Y-106470000D02*
X109700000Y-105850000D01*
X109700000Y-110730000D02*
X110050000Y-110730000D01*
X109700000Y-111350000D02*
X109700000Y-110730000D01*
X110050000Y-106470000D02*
X109700000Y-106470000D01*
X110050000Y-110730000D02*
X110050000Y-106470000D01*
%TO.C,C10*%
X100050000Y-112350000D02*
X100750000Y-112350000D01*
X100750000Y-113750000D01*
X100050000Y-113750000D01*
X100050000Y-112350000D01*
%TO.C,C29*%
X108550000Y-104800000D02*
X109950000Y-104800000D01*
X109950000Y-105500000D01*
X108550000Y-105500000D01*
X108550000Y-104800000D01*
%TO.C,C21*%
X106450000Y-103700000D02*
X107850000Y-103700000D01*
X107850000Y-104400000D01*
X106450000Y-104400000D01*
X106450000Y-103700000D01*
%TO.C,R2*%
X100750000Y-109650000D02*
X102150000Y-109650000D01*
X102150000Y-110350000D01*
X100750000Y-110350000D01*
X100750000Y-109650000D01*
%TO.C,C5*%
X107750000Y-111700000D02*
X109150000Y-111700000D01*
X109150000Y-112400000D01*
X107750000Y-112400000D01*
X107750000Y-111700000D01*
%TO.C,C18*%
X100140000Y-110490000D02*
X101960000Y-110490000D01*
X101960000Y-111410000D01*
X100140000Y-111410000D01*
X100140000Y-110490000D01*
%TO.C,C28*%
X102600000Y-113600000D02*
X104000000Y-113600000D01*
X104000000Y-114300000D01*
X102600000Y-114300000D01*
X102600000Y-113600000D01*
%TO.C,R4*%
X107250000Y-113900000D02*
X108650000Y-113900000D01*
X108650000Y-114600000D01*
X107250000Y-114600000D01*
X107250000Y-113900000D01*
%TO.C,C17*%
X100550000Y-111450000D02*
X101950000Y-111450000D01*
X101950000Y-112150000D01*
X100550000Y-112150000D01*
X100550000Y-111450000D01*
%TO.C,C8*%
X100140000Y-113790000D02*
X101960000Y-113790000D01*
X101960000Y-114710000D01*
X100140000Y-114710000D01*
X100140000Y-113790000D01*
%TO.C,C19*%
X102450000Y-108450000D02*
X103850000Y-108450000D01*
X103850000Y-109150000D01*
X102450000Y-109150000D01*
X102450000Y-108450000D01*
%TO.C,C3*%
X105600000Y-104100000D02*
X106300000Y-104100000D01*
X106300000Y-105500000D01*
X105600000Y-105500000D01*
X105600000Y-104100000D01*
%TD*%
M02*
