%TF.GenerationSoftware,KiCad,Pcbnew,10.0.0*%
%TF.CreationDate,2026-08-06T18:40:37+02:00*%
%TF.ProjectId,OpenRX-Mono,4f70656e-5258-42d4-9d6f-6e6f2e6b6963,rev?*%
%TF.SameCoordinates,Original*%
%TF.FileFunction,Legend,Top*%
%TF.FilePolarity,Positive*%
%FSLAX46Y46*%
G04 Gerber Fmt 4.6, Leading zero omitted, Abs format (unit mm)*
G04 Created by KiCad (PCBNEW 10.0.0) date 2026-08-06 18:40:37*
%MOMM*%
%LPD*%
G01*
G04 APERTURE LIST*
%ADD10C,0.150000*%
%ADD11C,0.120000*%
%ADD12C,0.100000*%
%ADD13C,0.250000*%
%ADD14C,0.060000*%
%ADD15C,0.240000*%
G04 APERTURE END LIST*
D10*
G36*
X101037308Y-113789032D02*
G01*
X101073199Y-113803722D01*
X101105765Y-113828631D01*
X101131140Y-113860708D01*
X101146162Y-113896651D01*
X101151304Y-113937777D01*
X101151304Y-114259170D01*
X101146143Y-114299232D01*
X101130959Y-114334704D01*
X101105093Y-114366838D01*
X101081988Y-114386787D01*
X101189858Y-114863000D01*
X101004948Y-114863000D01*
X100902384Y-114411639D01*
X100880488Y-114411639D01*
X100880488Y-114863000D01*
X100700279Y-114863000D01*
X100700279Y-114231296D01*
X100880488Y-114231296D01*
X100946110Y-114231296D01*
X100963304Y-114223706D01*
X100971096Y-114205370D01*
X100971096Y-113988757D01*
X100963304Y-113971293D01*
X100946110Y-113964375D01*
X100880488Y-113964375D01*
X100880488Y-114231296D01*
X100700279Y-114231296D01*
X100700279Y-113784032D01*
X100996888Y-113784032D01*
X101037308Y-113789032D01*
G37*
G36*
X101705833Y-114167958D02*
G01*
X101700628Y-114208992D01*
X101685402Y-114244887D01*
X101659622Y-114276969D01*
X101614957Y-114321501D01*
X101659622Y-114366368D01*
X101685384Y-114398669D01*
X101700620Y-114434852D01*
X101705833Y-114476253D01*
X101705833Y-114863000D01*
X101525625Y-114863000D01*
X101525625Y-114433266D01*
X101519378Y-114417885D01*
X101505340Y-114411639D01*
X101455301Y-114411639D01*
X101440457Y-114417885D01*
X101435017Y-114433266D01*
X101435017Y-114863000D01*
X101254808Y-114863000D01*
X101254808Y-114476253D01*
X101259874Y-114434748D01*
X101274637Y-114398558D01*
X101299474Y-114366368D01*
X101344140Y-114321501D01*
X101299474Y-114276969D01*
X101274620Y-114244998D01*
X101259866Y-114209096D01*
X101254808Y-114167958D01*
X101254808Y-113784032D01*
X101435017Y-113784032D01*
X101435017Y-114211415D01*
X101440457Y-114225184D01*
X101455301Y-114231296D01*
X101505340Y-114231296D01*
X101519378Y-114225184D01*
X101525625Y-114211415D01*
X101525625Y-113784032D01*
X101705833Y-113784032D01*
X101705833Y-114167958D01*
G37*
G36*
X103204040Y-113784032D02*
G01*
X103655401Y-113784032D01*
X103655401Y-113964375D01*
X103517843Y-113964375D01*
X103517843Y-114863000D01*
X103337635Y-114863000D01*
X103337635Y-113964375D01*
X103204040Y-113964375D01*
X103204040Y-113784032D01*
G37*
G36*
X104150487Y-114167958D02*
G01*
X104145282Y-114208992D01*
X104130056Y-114244887D01*
X104104277Y-114276969D01*
X104059611Y-114321501D01*
X104104277Y-114366368D01*
X104130039Y-114398669D01*
X104145275Y-114434852D01*
X104150487Y-114476253D01*
X104150487Y-114863000D01*
X103970279Y-114863000D01*
X103970279Y-114431722D01*
X103964032Y-114417818D01*
X103949994Y-114411639D01*
X103899955Y-114411639D01*
X103885111Y-114417885D01*
X103879671Y-114431789D01*
X103879671Y-114863000D01*
X103699462Y-114863000D01*
X103699462Y-114476253D01*
X103704528Y-114434748D01*
X103719291Y-114398558D01*
X103744128Y-114366368D01*
X103788794Y-114321501D01*
X103744128Y-114276969D01*
X103719275Y-114244998D01*
X103704521Y-114209096D01*
X103699462Y-114167958D01*
X103699462Y-113784032D01*
X103879671Y-113784032D01*
X103879671Y-114209870D01*
X103885111Y-114225184D01*
X103899955Y-114231296D01*
X103949994Y-114231296D01*
X103964032Y-114225184D01*
X103970279Y-114209870D01*
X103970279Y-113784032D01*
X104150487Y-113784032D01*
X104150487Y-114167958D01*
G37*
G36*
X106055770Y-114863000D02*
G01*
X106014365Y-114857923D01*
X105978242Y-114843121D01*
X105946087Y-114818199D01*
X105921208Y-114786047D01*
X105906425Y-114749903D01*
X105901354Y-114708449D01*
X105901354Y-114502986D01*
X106081562Y-114502986D01*
X106081562Y-114654782D01*
X106083573Y-114666195D01*
X106089353Y-114674933D01*
X106098159Y-114680657D01*
X106109705Y-114682657D01*
X106144027Y-114682657D01*
X106163573Y-114674933D01*
X106169980Y-114666128D01*
X106172170Y-114654782D01*
X106172170Y-114439513D01*
X106170097Y-114429407D01*
X106163640Y-114420169D01*
X106154448Y-114413717D01*
X106144296Y-114411639D01*
X105901354Y-114411639D01*
X105901354Y-113784032D01*
X106352379Y-113784032D01*
X106352379Y-113964375D01*
X106081562Y-113964375D01*
X106081562Y-114231296D01*
X106197626Y-114231296D01*
X106238115Y-114236330D01*
X106274071Y-114251125D01*
X106306705Y-114276230D01*
X106332229Y-114308460D01*
X106347259Y-114344155D01*
X106352379Y-114384571D01*
X106352379Y-114708180D01*
X106347225Y-114749624D01*
X106332174Y-114785834D01*
X106306772Y-114818132D01*
X106274187Y-114843202D01*
X106238297Y-114857974D01*
X106197895Y-114863000D01*
X106055770Y-114863000D01*
G37*
G36*
X106727774Y-113784032D02*
G01*
X106907982Y-113784032D01*
X106907982Y-114583989D01*
X106902765Y-114640216D01*
X106887512Y-114691155D01*
X106862223Y-114737927D01*
X106826106Y-114781325D01*
X106782657Y-114817339D01*
X106735812Y-114842569D01*
X106684778Y-114857791D01*
X106628434Y-114863000D01*
X106456957Y-114863000D01*
X106456957Y-113784032D01*
X106637166Y-113784032D01*
X106637166Y-114682657D01*
X106671929Y-114676099D01*
X106701176Y-114656462D01*
X106721139Y-114627528D01*
X106727774Y-114593258D01*
X106727774Y-113784032D01*
G37*
G36*
X108490816Y-114141292D02*
G01*
X108310607Y-114141292D01*
X108310607Y-113990301D01*
X108302816Y-113972032D01*
X108284077Y-113964375D01*
X108246597Y-113964375D01*
X108227858Y-113972099D01*
X108219999Y-113990570D01*
X108219999Y-114656327D01*
X108227791Y-114674933D01*
X108246597Y-114682657D01*
X108284077Y-114682657D01*
X108302816Y-114674933D01*
X108310607Y-114656327D01*
X108310607Y-114411639D01*
X108265337Y-114411639D01*
X108265337Y-114231296D01*
X108490816Y-114231296D01*
X108490816Y-114708180D01*
X108485662Y-114749624D01*
X108470612Y-114785834D01*
X108445210Y-114818132D01*
X108412625Y-114843202D01*
X108376735Y-114857974D01*
X108336332Y-114863000D01*
X108194207Y-114863000D01*
X108152838Y-114857938D01*
X108116736Y-114843179D01*
X108084591Y-114818334D01*
X108059664Y-114786222D01*
X108044865Y-114750165D01*
X108039791Y-114708852D01*
X108039791Y-113938180D01*
X108044866Y-113896868D01*
X108059667Y-113860835D01*
X108084591Y-113828765D01*
X108116740Y-113803880D01*
X108152842Y-113789100D01*
X108194207Y-113784032D01*
X108336332Y-113784032D01*
X108376761Y-113789020D01*
X108412653Y-113803668D01*
X108445210Y-113828497D01*
X108470628Y-113860493D01*
X108485668Y-113896346D01*
X108490816Y-113937374D01*
X108490816Y-114141292D01*
G37*
G36*
X108865136Y-113784032D02*
G01*
X109045345Y-113784032D01*
X109045345Y-114863000D01*
X108865136Y-114863000D01*
X108774528Y-114408280D01*
X108774528Y-114863000D01*
X108594320Y-114863000D01*
X108594320Y-113784032D01*
X108774528Y-113784032D01*
X108865136Y-114243386D01*
X108865136Y-113784032D01*
G37*
G36*
X109488018Y-113789045D02*
G01*
X109523909Y-113803776D01*
X109556484Y-113828765D01*
X109581851Y-113860888D01*
X109596877Y-113896918D01*
X109602023Y-113938180D01*
X109602023Y-114708852D01*
X109596879Y-114750116D01*
X109581853Y-114786170D01*
X109556484Y-114818334D01*
X109523913Y-114843283D01*
X109488022Y-114857993D01*
X109447607Y-114863000D01*
X109150998Y-114863000D01*
X109150998Y-114682657D01*
X109331207Y-114682657D01*
X109396829Y-114682657D01*
X109414023Y-114675739D01*
X109421815Y-114658006D01*
X109421815Y-113989025D01*
X109414023Y-113971360D01*
X109396829Y-113964375D01*
X109331207Y-113964375D01*
X109331207Y-114682657D01*
X109150998Y-114682657D01*
X109150998Y-113784032D01*
X109447607Y-113784032D01*
X109488018Y-113789045D01*
G37*
%TO.C,U5*%
D11*
X103750000Y-102650000D02*
X103900000Y-102650000D01*
X103750000Y-102800000D02*
X103750000Y-102650000D01*
X103750000Y-104800000D02*
X103750000Y-105020000D01*
X106050000Y-102650000D02*
X105900000Y-102650000D01*
X106050000Y-102800000D02*
X106050000Y-102650000D01*
X106050000Y-104800000D02*
X106050000Y-104950000D01*
X106050000Y-104950000D02*
X105900000Y-104950000D01*
%TO.C,FL1*%
D12*
X106893898Y-106718701D02*
X107162599Y-106450000D01*
X107431299Y-107256102D02*
X107700000Y-106987401D01*
X107700000Y-105912599D02*
X107968701Y-105643898D01*
X108237401Y-106450000D02*
X108506102Y-106181299D01*
D13*
X106953899Y-107256102D02*
G75*
G02*
X106833897Y-107256102I-60001J0D01*
G01*
X106833897Y-107256102D02*
G75*
G02*
X106953899Y-107256102I60001J0D01*
G01*
D14*
X107199670Y-106626777D02*
G75*
G02*
X107139670Y-106626777I-30000J0D01*
G01*
X107139670Y-106626777D02*
G75*
G02*
X107199670Y-106626777I30000J0D01*
G01*
%TO.C,D1*%
D12*
X100100000Y-107100000D02*
G75*
G02*
X100000000Y-107100000I-50000J0D01*
G01*
X100000000Y-107100000D02*
G75*
G02*
X100100000Y-107100000I50000J0D01*
G01*
%TO.C,C11*%
D11*
X109090000Y-112092164D02*
X109090000Y-112307836D01*
X109810000Y-112092164D02*
X109810000Y-112307836D01*
%TO.C,J1*%
X100800000Y-102660000D02*
X101440000Y-102660000D01*
X100850000Y-99940000D02*
X103550000Y-99940000D01*
X101440000Y-102660000D02*
X101440000Y-103290000D01*
X103600000Y-102660000D02*
X102960000Y-102660000D01*
%TO.C,U4*%
D10*
X106420000Y-101820000D02*
X106920000Y-101820000D01*
X106420000Y-102320000D02*
X106420000Y-101820000D01*
X106420000Y-104480000D02*
X106420000Y-104980000D01*
X106420000Y-104980000D02*
X106920000Y-104980000D01*
X106920000Y-104980000D02*
X106420000Y-104480000D01*
X109580000Y-101820000D02*
X109080000Y-101820000D01*
X109580000Y-102320000D02*
X109580000Y-101820000D01*
X109580000Y-104480000D02*
X109580000Y-104980000D01*
X109580000Y-104980000D02*
X109080000Y-104980000D01*
X106930000Y-105300000D02*
G75*
G02*
X106790000Y-105300000I-70000J0D01*
G01*
X106790000Y-105300000D02*
G75*
G02*
X106930000Y-105300000I70000J0D01*
G01*
%TO.C,U3*%
D11*
X103040000Y-108140000D02*
X103515000Y-108140000D01*
X103040000Y-108615000D02*
X103040000Y-108140000D01*
X103040000Y-113360000D02*
X103040000Y-112885000D01*
X103515000Y-113360000D02*
X103040000Y-113360000D01*
X107785000Y-108140000D02*
X108260000Y-108140000D01*
X108260000Y-108140000D02*
X108260000Y-108615000D01*
X108260000Y-112885000D02*
X108260000Y-113360000D01*
X108260000Y-113360000D02*
X107785000Y-113360000D01*
X102540000Y-109000000D02*
X102210000Y-109240000D01*
X102210000Y-108760000D01*
X102540000Y-109000000D01*
G36*
X102540000Y-109000000D02*
G01*
X102210000Y-109240000D01*
X102210000Y-108760000D01*
X102540000Y-109000000D01*
G37*
%TO.C,T1*%
D10*
X103700000Y-105550000D02*
X103700000Y-106020000D01*
X103700000Y-106680000D02*
X103700000Y-107150000D01*
X103700000Y-107150000D02*
X103720000Y-107150000D01*
X103720000Y-105550000D02*
X103700000Y-105550000D01*
X105880000Y-107150000D02*
X105900000Y-107150000D01*
X105900000Y-105550000D02*
X105880000Y-105550000D01*
X105900000Y-106020000D02*
X105900000Y-105550000D01*
X105900000Y-107150000D02*
X105900000Y-106680000D01*
%TO.C,OSC1*%
D13*
X100450000Y-112520000D02*
X100450000Y-111890000D01*
X102250000Y-112520000D02*
X102250000Y-111890000D01*
D15*
X102870000Y-113700000D02*
G75*
G02*
X102630000Y-113700000I-120000J0D01*
G01*
X102630000Y-113700000D02*
G75*
G02*
X102870000Y-113700000I120000J0D01*
G01*
%TD*%
M02*
