%TF.GenerationSoftware,KiCad,Pcbnew,10.0.0*%
%TF.CreationDate,2026-08-06T18:40:37+02:00*%
%TF.ProjectId,OpenRX-Mono,4f70656e-5258-42d4-9d6f-6e6f2e6b6963,rev?*%
%TF.SameCoordinates,Original*%
%TF.FileFunction,Copper,L4,Inr*%
%TF.FilePolarity,Positive*%
%FSLAX46Y46*%
G04 Gerber Fmt 4.6, Leading zero omitted, Abs format (unit mm)*
G04 Created by KiCad (PCBNEW 10.0.0) date 2026-08-06 18:40:37*
%MOMM*%
%LPD*%
G01*
G04 APERTURE LIST*
G04 Aperture macros list*
%AMRoundRect*
0 Rectangle with rounded corners*
0 $1 Rounding radius*
0 $2 $3 $4 $5 $6 $7 $8 $9 X,Y pos of 4 corners*
0 Add a 4 corners polygon primitive as box body*
4,1,4,$2,$3,$4,$5,$6,$7,$8,$9,$2,$3,0*
0 Add four circle primitives for the rounded corners*
1,1,$1+$1,$2,$3*
1,1,$1+$1,$4,$5*
1,1,$1+$1,$6,$7*
1,1,$1+$1,$8,$9*
0 Add four rect primitives between the rounded corners*
20,1,$1+$1,$2,$3,$4,$5,0*
20,1,$1+$1,$4,$5,$6,$7,0*
20,1,$1+$1,$6,$7,$8,$9,0*
20,1,$1+$1,$8,$9,$2,$3,0*%
G04 Aperture macros list end*
%TA.AperFunction,ComponentPad*%
%ADD10C,0.600000*%
%TD*%
%TA.AperFunction,ComponentPad*%
%ADD11RoundRect,0.475000X-0.475000X-1.775000X0.475000X-1.775000X0.475000X1.775000X-0.475000X1.775000X0*%
%TD*%
%TA.AperFunction,ViaPad*%
%ADD12C,0.450000*%
%TD*%
%TA.AperFunction,Conductor*%
%ADD13C,0.090000*%
%TD*%
%TA.AperFunction,Conductor*%
%ADD14C,0.300000*%
%TD*%
G04 APERTURE END LIST*
D10*
%TO.N,Net-(U1-U0RXD)*%
%TO.C,TP1*%
X100690000Y-116100000D03*
X100690000Y-118500000D03*
D11*
X101190000Y-117300000D03*
D10*
X101690000Y-116100000D03*
X101690000Y-118500000D03*
%TD*%
%TO.N,GND*%
%TO.C,TP4*%
X108310000Y-116100000D03*
X108310000Y-118500000D03*
D11*
X108810000Y-117300000D03*
D10*
X109310000Y-116100000D03*
X109310000Y-118500000D03*
%TD*%
%TO.N,+5V*%
%TO.C,TP3*%
X105770000Y-116100000D03*
X105770000Y-118500000D03*
D11*
X106270000Y-117300000D03*
D10*
X106770000Y-116100000D03*
X106770000Y-118500000D03*
%TD*%
%TO.N,Net-(U1-U0TXD)*%
%TO.C,TP2*%
X103230000Y-116100000D03*
X103230000Y-118500000D03*
D11*
X103730000Y-117300000D03*
D10*
X104230000Y-116100000D03*
X104230000Y-118500000D03*
%TD*%
D12*
%TO.N,+3V3*%
X100640000Y-110634998D03*
X106664117Y-104105000D03*
X103200000Y-111000000D03*
X107045926Y-113778663D03*
X108750000Y-106558993D03*
X109400000Y-100780000D03*
X101225000Y-107525000D03*
X107630000Y-114250000D03*
X109535000Y-111720000D03*
X102880000Y-109500000D03*
X108186977Y-112746195D03*
X100610000Y-112100000D03*
X102790441Y-113090441D03*
X105720000Y-102250000D03*
%TO.N,/ESP32-C3 + LR1121 Mono/RXEN24*%
X108988068Y-113171425D03*
X109575000Y-103605002D03*
%TO.N,/ESP32-C3 + LR1121 Mono/VR_PA*%
X103498651Y-108808267D03*
X102315000Y-107650000D03*
%TO.N,GND*%
X107600000Y-103950000D03*
X104950000Y-102300000D03*
X109575000Y-102550000D03*
X102589860Y-108460140D03*
X108600000Y-102550000D03*
X107594203Y-107607471D03*
X100450000Y-100950000D03*
X104900000Y-102870000D03*
X103500000Y-105000000D03*
X104000000Y-102250000D03*
X106800000Y-109800000D03*
X106060000Y-112050000D03*
X100430000Y-109050000D03*
X108200000Y-113450000D03*
X109240001Y-104674112D03*
X103800000Y-106350000D03*
X108653647Y-101447616D03*
X104700000Y-111850000D03*
X103950000Y-103000000D03*
X105750000Y-106350000D03*
X104700000Y-100771500D03*
X100500000Y-102200000D03*
X104393017Y-101528500D03*
X107700000Y-100750000D03*
X102650000Y-114650000D03*
X102500000Y-104750000D03*
X105450000Y-100771500D03*
X102153990Y-104029207D03*
X103375000Y-100500000D03*
X104750000Y-106350000D03*
X107550000Y-115150000D03*
X103214029Y-103285000D03*
X108596185Y-112393844D03*
X109450000Y-103050000D03*
X109575000Y-110880000D03*
X100800000Y-100425000D03*
X105200000Y-101800000D03*
X106129214Y-100669685D03*
X105850000Y-109450000D03*
X106368228Y-101665000D03*
X109535000Y-112680000D03*
X106899549Y-100636491D03*
X103100000Y-102700000D03*
X104308667Y-109410000D03*
X103350000Y-107900000D03*
X100800000Y-101300000D03*
X107600000Y-103250000D03*
X101350000Y-114550000D03*
X108330395Y-100963525D03*
X102850000Y-105750000D03*
X100450000Y-101700000D03*
X104850000Y-115050000D03*
X103450000Y-101600000D03*
X107880785Y-105452947D03*
X107250000Y-102650000D03*
X106800000Y-102150000D03*
X101642312Y-112439453D03*
X108277195Y-106864884D03*
X103850000Y-100771500D03*
X107750000Y-104850000D03*
X105703107Y-101545922D03*
X101650000Y-109250000D03*
X106340000Y-107378666D03*
X107700000Y-101700000D03*
X104250000Y-100450000D03*
X106200000Y-109050000D03*
%TO.N,Net-(U1-U0RXD)*%
X106267703Y-106820059D03*
%TO.N,Net-(C25-Pad1)*%
X109305147Y-107867950D03*
%TO.N,/ESP32-C3 + LR1121 Mono/CTRL1*%
X106795000Y-105035883D03*
X104200000Y-114400000D03*
X102232928Y-112432343D03*
%TO.N,/ESP32-C3 + LR1121 Mono/CTRL2*%
X105830000Y-103810000D03*
X103666266Y-114488017D03*
X102485000Y-111954785D03*
%TO.N,/ESP32-C3 + LR1121 Mono/LED*%
X101290000Y-108310000D03*
%TO.N,+5V*%
X100610000Y-114250000D03*
%TO.N,Net-(U3-VREG)*%
X105400000Y-113200000D03*
%TO.N,/ESP32-C3 + LR1121 Mono/TXEN24*%
X107726432Y-112464240D03*
X109350919Y-104145623D03*
%TO.N,/ESP32-C3 + LR1121 Mono/RST*%
X101685000Y-110325003D03*
X108995000Y-109314671D03*
%TO.N,/ESP32-C3 + LR1121 Mono/DIO1*%
X104094999Y-112424228D03*
X108984820Y-108768956D03*
%TO.N,Net-(U3-DCC_SW)*%
X106340000Y-113100000D03*
%TO.N,/ESP32-C3 + LR1121 Mono/MISO*%
X108117211Y-110489096D03*
%TO.N,/ESP32-C3 + LR1121 Mono/MOSI*%
X108815000Y-111004297D03*
%TO.N,/ESP32-C3 + LR1121 Mono/SCK*%
X107574001Y-111890246D03*
%TO.N,/ESP32-C3 + LR1121 Mono/NSS*%
X106450000Y-112465002D03*
%TO.N,/ESP32-C3 + LR1121 Mono/BUSY*%
X108999957Y-110353389D03*
%TO.N,Net-(U1-U0TXD)*%
X106700000Y-106150000D03*
%TO.N,/ESP32-C3 + LR1121 Mono/BOOT*%
X108270000Y-114250000D03*
X105350000Y-112465002D03*
X109250000Y-114350000D03*
%TO.N,/ESP32-C3 + LR1121 Mono/CHIP_EN*%
X109145333Y-109833323D03*
X103620000Y-113950000D03*
%TD*%
%TO.N,/ESP32-C3 + LR1121 Mono/CTRL1*%
D13*
X106795000Y-105035883D02*
X106842463Y-105035883D01*
X102767657Y-112432343D02*
X102232928Y-112432343D01*
X107300000Y-105493420D02*
X107300000Y-107400000D01*
X103600000Y-111100000D02*
X103600000Y-111600000D01*
X107300000Y-107400000D02*
X103600000Y-111100000D01*
X106842463Y-105035883D02*
X107300000Y-105493420D01*
X103600000Y-111600000D02*
X102767657Y-112432343D01*
%TO.N,/ESP32-C3 + LR1121 Mono/CTRL2*%
X102485000Y-110404117D02*
X102485000Y-111954785D01*
X105300000Y-107589117D02*
X102485000Y-110404117D01*
X105830000Y-103810000D02*
X105300000Y-104340000D01*
X105300000Y-104340000D02*
X105300000Y-107589117D01*
%TO.N,+5V*%
D14*
X104000000Y-113450000D02*
X105770000Y-115220000D01*
X100610000Y-114250000D02*
X100810000Y-114050000D01*
X102550000Y-114050000D02*
X103150000Y-113450000D01*
X105770000Y-115220000D02*
X105770000Y-115600000D01*
X100810000Y-114050000D02*
X102550000Y-114050000D01*
X103150000Y-113450000D02*
X104000000Y-113450000D01*
%TO.N,/ESP32-C3 + LR1121 Mono/TXEN24*%
D13*
X108945147Y-108095147D02*
X108945147Y-107718833D01*
X108236185Y-112092229D02*
X109175000Y-111153414D01*
X108800000Y-104604996D02*
X109259373Y-104145623D01*
X108945147Y-107718833D02*
X109110000Y-107553980D01*
X109505332Y-108655332D02*
X108945147Y-108095147D01*
X109175000Y-110725000D02*
X109505332Y-110394668D01*
X109110000Y-107553980D02*
X109110000Y-106000883D01*
X108800000Y-105690883D02*
X108800000Y-104604996D01*
X109505332Y-110394668D02*
X109505332Y-108655332D01*
X109110000Y-106000883D02*
X108800000Y-105690883D01*
X109259373Y-104145623D02*
X109350919Y-104145623D01*
X107726432Y-112464240D02*
X108098443Y-112092229D01*
X108098443Y-112092229D02*
X108236185Y-112092229D01*
X109175000Y-111153414D02*
X109175000Y-110725000D01*
%TO.N,/ESP32-C3 + LR1121 Mono/DIO1*%
X104095000Y-111755000D02*
X107081044Y-108768956D01*
X104095000Y-112424227D02*
X104095000Y-111755000D01*
X104094999Y-112424228D02*
X104095000Y-112424227D01*
X107081044Y-108768956D02*
X108984820Y-108768956D01*
%TD*%
%TA.AperFunction,Conductor*%
%TO.N,+3V3*%
G36*
X103153204Y-100213387D02*
G01*
X103166091Y-100244500D01*
X103153204Y-100275613D01*
X103122537Y-100306279D01*
X103122537Y-100306280D01*
X103081003Y-100378217D01*
X103081001Y-100378221D01*
X103074238Y-100403460D01*
X103059500Y-100458464D01*
X103059500Y-100541536D01*
X103080181Y-100618719D01*
X103081001Y-100621778D01*
X103081003Y-100621782D01*
X103088346Y-100634500D01*
X103122538Y-100693721D01*
X103181279Y-100752462D01*
X103253222Y-100793999D01*
X103333464Y-100815500D01*
X103333466Y-100815500D01*
X103416534Y-100815500D01*
X103416536Y-100815500D01*
X103484715Y-100797231D01*
X103518101Y-100801627D01*
X103538601Y-100828343D01*
X103547997Y-100863406D01*
X103556001Y-100893278D01*
X103556003Y-100893282D01*
X103572578Y-100921990D01*
X103597538Y-100965221D01*
X103656279Y-101023962D01*
X103728222Y-101065499D01*
X103808464Y-101087000D01*
X103808466Y-101087000D01*
X103891534Y-101087000D01*
X103891536Y-101087000D01*
X103971778Y-101065499D01*
X104043721Y-101023962D01*
X104102462Y-100965221D01*
X104143999Y-100893278D01*
X104165500Y-100813036D01*
X104165500Y-100809500D01*
X104178387Y-100778387D01*
X104209500Y-100765500D01*
X104291537Y-100765500D01*
X104301877Y-100762728D01*
X104329112Y-100755431D01*
X104362499Y-100759825D01*
X104383000Y-100786542D01*
X104384500Y-100797931D01*
X104384500Y-100813036D01*
X104397997Y-100863406D01*
X104406001Y-100893278D01*
X104406003Y-100893282D01*
X104422578Y-100921990D01*
X104447538Y-100965221D01*
X104506279Y-101023962D01*
X104578222Y-101065499D01*
X104658464Y-101087000D01*
X104658466Y-101087000D01*
X104741534Y-101087000D01*
X104741536Y-101087000D01*
X104821778Y-101065499D01*
X104893721Y-101023962D01*
X104952462Y-100965221D01*
X104993999Y-100893278D01*
X105015500Y-100813036D01*
X105015500Y-100729964D01*
X105134500Y-100729964D01*
X105134500Y-100813036D01*
X105147997Y-100863406D01*
X105156001Y-100893278D01*
X105156003Y-100893282D01*
X105172578Y-100921990D01*
X105197538Y-100965221D01*
X105256279Y-101023962D01*
X105328222Y-101065499D01*
X105408464Y-101087000D01*
X105408466Y-101087000D01*
X105491534Y-101087000D01*
X105491536Y-101087000D01*
X105571778Y-101065499D01*
X105643721Y-101023962D01*
X105702462Y-100965221D01*
X105743999Y-100893278D01*
X105764054Y-100818431D01*
X105784554Y-100791716D01*
X105817942Y-100787320D01*
X105844659Y-100807821D01*
X105857587Y-100830212D01*
X105876752Y-100863406D01*
X105935493Y-100922147D01*
X106007436Y-100963684D01*
X106087678Y-100985185D01*
X106087680Y-100985185D01*
X106170748Y-100985185D01*
X106170750Y-100985185D01*
X106250992Y-100963684D01*
X106322935Y-100922147D01*
X106381676Y-100863406D01*
X106423213Y-100791463D01*
X106444714Y-100711221D01*
X106444714Y-100628149D01*
X106435820Y-100594955D01*
X106584049Y-100594955D01*
X106584049Y-100678027D01*
X106605550Y-100758269D01*
X106647087Y-100830212D01*
X106705828Y-100888953D01*
X106777771Y-100930490D01*
X106858013Y-100951991D01*
X106858015Y-100951991D01*
X106941083Y-100951991D01*
X106941085Y-100951991D01*
X107021327Y-100930490D01*
X107093270Y-100888953D01*
X107152011Y-100830212D01*
X107193548Y-100758269D01*
X107206893Y-100708464D01*
X107384500Y-100708464D01*
X107384500Y-100791536D01*
X107397953Y-100841742D01*
X107406001Y-100871778D01*
X107406003Y-100871782D01*
X107427182Y-100908464D01*
X107447538Y-100943721D01*
X107506279Y-101002462D01*
X107578222Y-101043999D01*
X107658464Y-101065500D01*
X107658466Y-101065500D01*
X107741534Y-101065500D01*
X107741536Y-101065500D01*
X107821778Y-101043999D01*
X107893721Y-101002462D01*
X107939782Y-100956401D01*
X107970895Y-100943514D01*
X108002008Y-100956401D01*
X108014895Y-100987514D01*
X108014895Y-101005061D01*
X108031090Y-101065500D01*
X108036396Y-101085303D01*
X108036398Y-101085307D01*
X108063424Y-101132116D01*
X108077933Y-101157246D01*
X108136674Y-101215987D01*
X108208617Y-101257524D01*
X108288859Y-101279025D01*
X108288861Y-101279025D01*
X108314850Y-101279025D01*
X108345963Y-101291912D01*
X108358850Y-101323025D01*
X108357351Y-101334407D01*
X108338147Y-101406080D01*
X108338147Y-101489152D01*
X108353792Y-101547538D01*
X108359648Y-101569394D01*
X108359650Y-101569398D01*
X108364742Y-101578217D01*
X108401185Y-101641337D01*
X108459926Y-101700078D01*
X108531869Y-101741615D01*
X108612111Y-101763116D01*
X108612113Y-101763116D01*
X108695181Y-101763116D01*
X108695183Y-101763116D01*
X108775425Y-101741615D01*
X108847368Y-101700078D01*
X108906109Y-101641337D01*
X108947646Y-101569394D01*
X108969147Y-101489152D01*
X108969147Y-101406080D01*
X108947646Y-101325838D01*
X108906109Y-101253895D01*
X108847368Y-101195154D01*
X108847367Y-101195153D01*
X108775429Y-101153619D01*
X108775425Y-101153617D01*
X108749547Y-101146683D01*
X108695183Y-101132116D01*
X108669192Y-101132116D01*
X108638079Y-101119229D01*
X108625192Y-101088116D01*
X108626690Y-101076733D01*
X108645895Y-101005061D01*
X108645895Y-100921989D01*
X108624394Y-100841747D01*
X108582857Y-100769804D01*
X108524116Y-100711063D01*
X108524115Y-100711062D01*
X108452177Y-100669528D01*
X108452173Y-100669526D01*
X108371931Y-100648025D01*
X108288859Y-100648025D01*
X108235364Y-100662359D01*
X108208616Y-100669526D01*
X108208612Y-100669528D01*
X108136675Y-100711062D01*
X108136674Y-100711062D01*
X108090613Y-100757124D01*
X108059500Y-100770011D01*
X108028387Y-100757124D01*
X108015500Y-100726011D01*
X108015500Y-100708465D01*
X108015500Y-100708464D01*
X107993999Y-100628222D01*
X107952462Y-100556279D01*
X107893721Y-100497538D01*
X107893720Y-100497537D01*
X107821782Y-100456003D01*
X107821778Y-100456001D01*
X107821774Y-100456000D01*
X107741536Y-100434500D01*
X107658464Y-100434500D01*
X107604969Y-100448834D01*
X107578221Y-100456001D01*
X107578217Y-100456003D01*
X107506280Y-100497537D01*
X107506279Y-100497537D01*
X107447537Y-100556279D01*
X107447537Y-100556280D01*
X107406003Y-100628217D01*
X107406001Y-100628221D01*
X107398557Y-100656003D01*
X107384500Y-100708464D01*
X107206893Y-100708464D01*
X107215049Y-100678027D01*
X107215049Y-100594955D01*
X107193548Y-100514713D01*
X107152011Y-100442770D01*
X107093270Y-100384029D01*
X107093269Y-100384028D01*
X107021331Y-100342494D01*
X107021327Y-100342492D01*
X106941085Y-100320991D01*
X106858013Y-100320991D01*
X106804518Y-100335325D01*
X106777770Y-100342492D01*
X106777766Y-100342494D01*
X106705829Y-100384028D01*
X106705828Y-100384028D01*
X106647086Y-100442770D01*
X106647086Y-100442771D01*
X106605552Y-100514708D01*
X106605550Y-100514712D01*
X106605550Y-100514713D01*
X106584049Y-100594955D01*
X106435820Y-100594955D01*
X106423213Y-100547907D01*
X106381676Y-100475964D01*
X106322935Y-100417223D01*
X106322934Y-100417222D01*
X106250996Y-100375688D01*
X106250992Y-100375686D01*
X106170750Y-100354185D01*
X106087678Y-100354185D01*
X106034183Y-100368519D01*
X106007435Y-100375686D01*
X106007431Y-100375688D01*
X105935494Y-100417222D01*
X105935493Y-100417222D01*
X105876751Y-100475964D01*
X105876751Y-100475965D01*
X105835217Y-100547902D01*
X105835215Y-100547905D01*
X105835215Y-100547907D01*
X105822608Y-100594955D01*
X105815160Y-100622752D01*
X105794658Y-100649468D01*
X105761270Y-100653864D01*
X105734554Y-100633363D01*
X105728428Y-100622752D01*
X105702462Y-100577779D01*
X105643721Y-100519038D01*
X105643720Y-100519037D01*
X105571782Y-100477503D01*
X105571778Y-100477501D01*
X105491536Y-100456000D01*
X105408464Y-100456000D01*
X105369144Y-100466536D01*
X105328221Y-100477501D01*
X105328217Y-100477503D01*
X105256280Y-100519037D01*
X105256279Y-100519037D01*
X105197537Y-100577779D01*
X105197537Y-100577780D01*
X105156003Y-100649717D01*
X105156001Y-100649721D01*
X105149085Y-100675531D01*
X105134500Y-100729964D01*
X105015500Y-100729964D01*
X104993999Y-100649722D01*
X104952462Y-100577779D01*
X104893721Y-100519038D01*
X104893720Y-100519037D01*
X104821782Y-100477503D01*
X104821778Y-100477501D01*
X104741536Y-100456000D01*
X104658464Y-100456000D01*
X104620886Y-100466068D01*
X104587500Y-100461673D01*
X104566999Y-100434956D01*
X104565500Y-100423568D01*
X104565500Y-100408465D01*
X104562315Y-100396577D01*
X104543999Y-100328222D01*
X104508362Y-100266499D01*
X104503967Y-100233113D01*
X104524467Y-100206395D01*
X104546468Y-100200500D01*
X109560119Y-100200500D01*
X109596539Y-100200500D01*
X109603421Y-100201042D01*
X109616092Y-100203048D01*
X109654767Y-100209174D01*
X109667854Y-100213425D01*
X109711053Y-100235437D01*
X109722189Y-100243527D01*
X109756472Y-100277810D01*
X109764563Y-100288947D01*
X109784574Y-100328221D01*
X109786572Y-100332141D01*
X109790826Y-100345234D01*
X109798958Y-100396577D01*
X109799500Y-100403460D01*
X109799500Y-102239097D01*
X109786613Y-102270210D01*
X109755500Y-102283097D01*
X109733500Y-102277202D01*
X109696783Y-102256003D01*
X109696778Y-102256001D01*
X109616536Y-102234500D01*
X109533464Y-102234500D01*
X109479969Y-102248834D01*
X109453221Y-102256001D01*
X109453217Y-102256003D01*
X109381280Y-102297537D01*
X109381279Y-102297537D01*
X109322537Y-102356279D01*
X109322537Y-102356280D01*
X109281003Y-102428217D01*
X109281001Y-102428221D01*
X109275825Y-102447538D01*
X109259500Y-102508464D01*
X109259500Y-102591536D01*
X109277434Y-102658465D01*
X109281001Y-102671778D01*
X109281003Y-102671782D01*
X109307276Y-102717287D01*
X109311672Y-102750675D01*
X109291172Y-102777392D01*
X109256278Y-102797538D01*
X109197537Y-102856279D01*
X109197537Y-102856280D01*
X109156003Y-102928217D01*
X109156001Y-102928221D01*
X109148557Y-102956003D01*
X109134500Y-103008464D01*
X109134500Y-103091536D01*
X109142787Y-103122462D01*
X109156001Y-103171778D01*
X109156003Y-103171782D01*
X109168669Y-103193719D01*
X109197538Y-103243721D01*
X109256279Y-103302462D01*
X109317614Y-103337874D01*
X109338115Y-103364591D01*
X109333719Y-103397979D01*
X109326729Y-103407089D01*
X109322540Y-103411277D01*
X109322535Y-103411284D01*
X109281003Y-103483219D01*
X109281001Y-103483223D01*
X109275846Y-103502462D01*
X109259500Y-103563466D01*
X109259500Y-103646538D01*
X109273165Y-103697537D01*
X109281001Y-103726780D01*
X109281003Y-103726784D01*
X109307804Y-103773204D01*
X109312200Y-103806592D01*
X109291699Y-103833309D01*
X109281087Y-103837705D01*
X109229141Y-103851624D01*
X109229136Y-103851626D01*
X109157199Y-103893160D01*
X109157198Y-103893160D01*
X109098456Y-103951902D01*
X109098456Y-103951903D01*
X109056922Y-104023840D01*
X109056920Y-104023844D01*
X109056920Y-104023845D01*
X109035444Y-104103996D01*
X109035419Y-104104088D01*
X109035419Y-104159724D01*
X109022532Y-104190837D01*
X108723245Y-104490124D01*
X108723244Y-104490123D01*
X108685127Y-104528240D01*
X108681778Y-104536327D01*
X108673514Y-104556280D01*
X108664499Y-104578043D01*
X108664499Y-104637067D01*
X108664500Y-104637076D01*
X108664500Y-105660376D01*
X108664499Y-105660390D01*
X108664499Y-105717837D01*
X108676557Y-105746946D01*
X108676556Y-105746946D01*
X108685126Y-105767635D01*
X108685127Y-105767636D01*
X108685128Y-105767638D01*
X108723245Y-105805755D01*
X108723246Y-105805755D01*
X108961613Y-106044121D01*
X108974500Y-106075234D01*
X108974500Y-107479627D01*
X108961613Y-107510740D01*
X108868392Y-107603961D01*
X108868391Y-107603960D01*
X108830274Y-107642078D01*
X108827404Y-107649006D01*
X108827405Y-107649007D01*
X108809646Y-107691878D01*
X108809646Y-107750904D01*
X108809647Y-107750913D01*
X108809647Y-108064640D01*
X108809646Y-108064654D01*
X108809646Y-108068194D01*
X108809646Y-108122100D01*
X108809646Y-108122102D01*
X108809647Y-108122103D01*
X108818982Y-108144638D01*
X108818982Y-108144640D01*
X108818983Y-108144640D01*
X108830275Y-108171902D01*
X108868392Y-108210019D01*
X108868393Y-108210019D01*
X109036717Y-108378343D01*
X109049604Y-108409456D01*
X109036717Y-108440569D01*
X109005604Y-108453456D01*
X108943284Y-108453456D01*
X108889789Y-108467790D01*
X108863041Y-108474957D01*
X108863037Y-108474959D01*
X108791100Y-108516493D01*
X108791094Y-108516497D01*
X108732359Y-108575233D01*
X108732355Y-108575238D01*
X108711446Y-108611456D01*
X108684729Y-108631957D01*
X108673341Y-108633456D01*
X107113124Y-108633456D01*
X107113116Y-108633455D01*
X107107997Y-108633455D01*
X107054091Y-108633455D01*
X107054089Y-108633455D01*
X107020962Y-108647178D01*
X107020961Y-108647177D01*
X107004289Y-108654083D01*
X106966171Y-108692200D01*
X106966172Y-108692201D01*
X106590613Y-109067760D01*
X106559500Y-109080647D01*
X106528387Y-109067760D01*
X106515500Y-109036647D01*
X106515500Y-109008465D01*
X106514735Y-109005610D01*
X106493999Y-108928222D01*
X106452462Y-108856279D01*
X106393721Y-108797538D01*
X106393720Y-108797537D01*
X106321782Y-108756003D01*
X106321780Y-108756002D01*
X106321778Y-108756001D01*
X106248575Y-108736386D01*
X106221859Y-108715884D01*
X106217463Y-108682496D01*
X106228849Y-108662774D01*
X107217189Y-107674435D01*
X107248301Y-107661549D01*
X107279414Y-107674436D01*
X107290801Y-107694159D01*
X107300204Y-107729249D01*
X107300205Y-107729250D01*
X107300206Y-107729253D01*
X107312707Y-107750904D01*
X107341741Y-107801192D01*
X107400482Y-107859933D01*
X107472425Y-107901470D01*
X107552667Y-107922971D01*
X107552669Y-107922971D01*
X107635737Y-107922971D01*
X107635739Y-107922971D01*
X107715981Y-107901470D01*
X107787924Y-107859933D01*
X107846665Y-107801192D01*
X107888202Y-107729249D01*
X107909703Y-107649007D01*
X107909703Y-107565935D01*
X107888202Y-107485693D01*
X107846665Y-107413750D01*
X107787924Y-107355009D01*
X107787923Y-107355008D01*
X107715985Y-107313474D01*
X107715981Y-107313472D01*
X107635739Y-107291971D01*
X107552667Y-107291971D01*
X107490887Y-107308524D01*
X107457500Y-107304129D01*
X107436999Y-107277412D01*
X107435500Y-107266024D01*
X107435500Y-106823348D01*
X107961695Y-106823348D01*
X107961695Y-106906420D01*
X107983196Y-106986662D01*
X108024733Y-107058605D01*
X108083474Y-107117346D01*
X108155417Y-107158883D01*
X108235659Y-107180384D01*
X108235661Y-107180384D01*
X108318729Y-107180384D01*
X108318731Y-107180384D01*
X108398973Y-107158883D01*
X108470916Y-107117346D01*
X108529657Y-107058605D01*
X108571194Y-106986662D01*
X108592695Y-106906420D01*
X108592695Y-106823348D01*
X108571194Y-106743106D01*
X108529657Y-106671163D01*
X108470916Y-106612422D01*
X108470915Y-106612421D01*
X108398977Y-106570887D01*
X108398973Y-106570885D01*
X108386698Y-106567596D01*
X108318731Y-106549384D01*
X108235659Y-106549384D01*
X108182164Y-106563718D01*
X108155416Y-106570885D01*
X108155412Y-106570887D01*
X108083475Y-106612421D01*
X108083474Y-106612421D01*
X108024732Y-106671163D01*
X108024732Y-106671164D01*
X107983198Y-106743101D01*
X107983196Y-106743105D01*
X107983196Y-106743106D01*
X107961695Y-106823348D01*
X107435500Y-106823348D01*
X107435500Y-105525500D01*
X107435501Y-105525491D01*
X107435501Y-105466469D01*
X107435501Y-105466467D01*
X107418072Y-105424392D01*
X107414872Y-105416664D01*
X107374258Y-105376050D01*
X107374243Y-105376037D01*
X107121092Y-105122886D01*
X107108205Y-105091773D01*
X107109706Y-105080379D01*
X107110500Y-105077419D01*
X107110500Y-104994347D01*
X107088999Y-104914105D01*
X107047462Y-104842162D01*
X107013764Y-104808464D01*
X107434500Y-104808464D01*
X107434500Y-104891536D01*
X107452434Y-104958465D01*
X107456001Y-104971778D01*
X107456003Y-104971782D01*
X107469031Y-104994347D01*
X107497538Y-105043721D01*
X107556279Y-105102462D01*
X107628222Y-105143999D01*
X107645564Y-105148645D01*
X107672281Y-105169146D01*
X107676677Y-105202533D01*
X107665289Y-105222258D01*
X107628326Y-105259221D01*
X107628322Y-105259227D01*
X107586788Y-105331164D01*
X107586786Y-105331168D01*
X107576035Y-105371290D01*
X107565285Y-105411411D01*
X107565285Y-105494483D01*
X107586786Y-105574725D01*
X107628323Y-105646668D01*
X107687064Y-105705409D01*
X107759007Y-105746946D01*
X107839249Y-105768447D01*
X107839251Y-105768447D01*
X107922319Y-105768447D01*
X107922321Y-105768447D01*
X108002563Y-105746946D01*
X108074506Y-105705409D01*
X108133247Y-105646668D01*
X108174784Y-105574725D01*
X108196285Y-105494483D01*
X108196285Y-105411411D01*
X108174784Y-105331169D01*
X108133247Y-105259226D01*
X108074506Y-105200485D01*
X108074505Y-105200484D01*
X108002567Y-105158950D01*
X108002565Y-105158949D01*
X108002563Y-105158948D01*
X108002559Y-105158947D01*
X108002557Y-105158946D01*
X107985219Y-105154300D01*
X107958502Y-105133799D01*
X107954108Y-105100411D01*
X107965496Y-105080687D01*
X108002459Y-105043724D01*
X108002462Y-105043721D01*
X108043999Y-104971778D01*
X108065500Y-104891536D01*
X108065500Y-104808464D01*
X108043999Y-104728222D01*
X108002462Y-104656279D01*
X107943721Y-104597538D01*
X107943720Y-104597537D01*
X107871782Y-104556003D01*
X107871778Y-104556001D01*
X107863627Y-104553817D01*
X107791536Y-104534500D01*
X107708464Y-104534500D01*
X107654969Y-104548834D01*
X107628221Y-104556001D01*
X107628217Y-104556003D01*
X107556280Y-104597537D01*
X107556279Y-104597537D01*
X107497537Y-104656279D01*
X107497537Y-104656280D01*
X107456003Y-104728217D01*
X107456001Y-104728221D01*
X107450825Y-104747538D01*
X107434500Y-104808464D01*
X107013764Y-104808464D01*
X106988721Y-104783421D01*
X106988720Y-104783420D01*
X106916782Y-104741886D01*
X106916778Y-104741884D01*
X106836536Y-104720383D01*
X106753464Y-104720383D01*
X106699969Y-104734717D01*
X106673221Y-104741884D01*
X106673217Y-104741886D01*
X106601280Y-104783420D01*
X106601279Y-104783420D01*
X106542537Y-104842162D01*
X106542537Y-104842163D01*
X106501003Y-104914100D01*
X106501001Y-104914104D01*
X106493066Y-104943720D01*
X106479500Y-104994347D01*
X106479500Y-105077419D01*
X106501001Y-105157661D01*
X106542538Y-105229604D01*
X106601279Y-105288345D01*
X106673222Y-105329882D01*
X106753464Y-105351383D01*
X106753466Y-105351383D01*
X106836534Y-105351383D01*
X106836536Y-105351383D01*
X106914369Y-105330527D01*
X106947756Y-105334923D01*
X106956869Y-105341915D01*
X107151613Y-105536659D01*
X107164500Y-105567772D01*
X107164500Y-107325647D01*
X107151613Y-107356760D01*
X103523245Y-110985128D01*
X103523244Y-110985127D01*
X103485129Y-111023243D01*
X103485129Y-111023244D01*
X103485128Y-111023246D01*
X103464500Y-111073043D01*
X103464499Y-111073049D01*
X103464499Y-111132071D01*
X103464500Y-111132080D01*
X103464500Y-111525648D01*
X103451613Y-111556761D01*
X102806578Y-112201795D01*
X102775465Y-112214682D01*
X102744352Y-112201795D01*
X102731465Y-112170682D01*
X102737360Y-112148681D01*
X102737459Y-112148508D01*
X102737462Y-112148506D01*
X102778999Y-112076563D01*
X102800500Y-111996321D01*
X102800500Y-111913249D01*
X102778999Y-111833007D01*
X102737462Y-111761064D01*
X102678721Y-111702323D01*
X102678720Y-111702322D01*
X102678717Y-111702320D01*
X102642499Y-111681408D01*
X102621999Y-111654691D01*
X102620500Y-111643304D01*
X102620500Y-110478467D01*
X102633386Y-110447355D01*
X103712277Y-109368464D01*
X103993167Y-109368464D01*
X103993167Y-109451536D01*
X104008402Y-109508392D01*
X104014668Y-109531778D01*
X104014670Y-109531782D01*
X104037762Y-109571778D01*
X104056205Y-109603721D01*
X104114946Y-109662462D01*
X104186889Y-109703999D01*
X104267131Y-109725500D01*
X104267133Y-109725500D01*
X104350201Y-109725500D01*
X104350203Y-109725500D01*
X104430445Y-109703999D01*
X104502388Y-109662462D01*
X104561129Y-109603721D01*
X104602666Y-109531778D01*
X104624167Y-109451536D01*
X104624167Y-109368464D01*
X104602666Y-109288222D01*
X104561129Y-109216279D01*
X104502388Y-109157538D01*
X104502387Y-109157537D01*
X104430449Y-109116003D01*
X104430445Y-109116001D01*
X104350203Y-109094500D01*
X104267131Y-109094500D01*
X104213636Y-109108834D01*
X104186888Y-109116001D01*
X104186884Y-109116003D01*
X104114947Y-109157537D01*
X104114946Y-109157537D01*
X104056204Y-109216279D01*
X104056204Y-109216280D01*
X104014670Y-109288217D01*
X104014668Y-109288221D01*
X104013780Y-109291536D01*
X103993167Y-109368464D01*
X103712277Y-109368464D01*
X105372524Y-107708216D01*
X105372528Y-107708214D01*
X105376752Y-107703989D01*
X105376755Y-107703989D01*
X105414872Y-107665872D01*
X105430770Y-107627490D01*
X105435501Y-107616070D01*
X105435501Y-107562164D01*
X105435501Y-107558624D01*
X105435500Y-107558610D01*
X105435500Y-106587909D01*
X105448387Y-106556796D01*
X105479500Y-106543909D01*
X105510613Y-106556796D01*
X105556279Y-106602462D01*
X105628222Y-106643999D01*
X105708464Y-106665500D01*
X105708466Y-106665500D01*
X105791534Y-106665500D01*
X105791536Y-106665500D01*
X105871778Y-106643999D01*
X105929466Y-106610691D01*
X105962853Y-106606296D01*
X105989571Y-106626796D01*
X105993967Y-106660184D01*
X105989571Y-106670796D01*
X105973708Y-106698272D01*
X105973704Y-106698280D01*
X105973704Y-106698281D01*
X105952203Y-106778523D01*
X105952203Y-106861595D01*
X105964214Y-106906420D01*
X105973704Y-106941837D01*
X105973706Y-106941841D01*
X106015240Y-107013778D01*
X106015240Y-107013779D01*
X106073982Y-107072521D01*
X106104190Y-107089962D01*
X106124691Y-107116679D01*
X106120295Y-107150067D01*
X106113303Y-107159180D01*
X106087537Y-107184945D01*
X106087537Y-107184946D01*
X106046003Y-107256883D01*
X106046001Y-107256887D01*
X106036995Y-107290500D01*
X106024500Y-107337130D01*
X106024500Y-107420202D01*
X106046001Y-107500444D01*
X106087538Y-107572387D01*
X106146279Y-107631128D01*
X106218222Y-107672665D01*
X106298464Y-107694166D01*
X106298466Y-107694166D01*
X106381534Y-107694166D01*
X106381536Y-107694166D01*
X106461778Y-107672665D01*
X106533721Y-107631128D01*
X106592462Y-107572387D01*
X106633999Y-107500444D01*
X106655500Y-107420202D01*
X106655500Y-107337130D01*
X106633999Y-107256888D01*
X106592462Y-107184945D01*
X106533721Y-107126204D01*
X106503510Y-107108761D01*
X106483011Y-107082044D01*
X106487407Y-107048656D01*
X106494393Y-107039551D01*
X106520165Y-107013780D01*
X106561702Y-106941837D01*
X106583203Y-106861595D01*
X106583203Y-106778523D01*
X106561702Y-106698281D01*
X106520165Y-106626338D01*
X106461424Y-106567597D01*
X106461423Y-106567596D01*
X106389485Y-106526062D01*
X106389481Y-106526060D01*
X106309239Y-106504559D01*
X106226167Y-106504559D01*
X106172672Y-106518893D01*
X106145924Y-106526060D01*
X106145919Y-106526062D01*
X106088236Y-106559366D01*
X106054848Y-106563762D01*
X106028131Y-106543261D01*
X106023735Y-106509873D01*
X106028128Y-106499266D01*
X106043999Y-106471778D01*
X106065500Y-106391536D01*
X106065500Y-106308464D01*
X106043999Y-106228222D01*
X106002462Y-106156279D01*
X105954647Y-106108464D01*
X106384500Y-106108464D01*
X106384500Y-106191536D01*
X106406001Y-106271778D01*
X106447538Y-106343721D01*
X106506279Y-106402462D01*
X106578222Y-106443999D01*
X106658464Y-106465500D01*
X106658466Y-106465500D01*
X106741534Y-106465500D01*
X106741536Y-106465500D01*
X106821778Y-106443999D01*
X106893721Y-106402462D01*
X106952462Y-106343721D01*
X106993999Y-106271778D01*
X107015500Y-106191536D01*
X107015500Y-106108464D01*
X106993999Y-106028222D01*
X106952462Y-105956279D01*
X106893721Y-105897538D01*
X106893720Y-105897537D01*
X106821782Y-105856003D01*
X106821778Y-105856001D01*
X106741536Y-105834500D01*
X106658464Y-105834500D01*
X106604969Y-105848834D01*
X106578221Y-105856001D01*
X106578217Y-105856003D01*
X106506280Y-105897537D01*
X106506279Y-105897537D01*
X106447537Y-105956279D01*
X106447537Y-105956280D01*
X106406003Y-106028217D01*
X106406001Y-106028221D01*
X106398557Y-106056003D01*
X106384500Y-106108464D01*
X105954647Y-106108464D01*
X105943721Y-106097538D01*
X105943720Y-106097537D01*
X105871782Y-106056003D01*
X105871778Y-106056001D01*
X105791536Y-106034500D01*
X105708464Y-106034500D01*
X105654969Y-106048834D01*
X105628221Y-106056001D01*
X105628217Y-106056003D01*
X105556280Y-106097537D01*
X105556279Y-106097537D01*
X105510613Y-106143204D01*
X105479500Y-106156091D01*
X105448387Y-106143204D01*
X105435500Y-106112091D01*
X105435500Y-104414350D01*
X105448386Y-104383238D01*
X105705562Y-104126061D01*
X105736674Y-104113175D01*
X105748062Y-104114674D01*
X105788464Y-104125500D01*
X105788465Y-104125500D01*
X105871534Y-104125500D01*
X105871536Y-104125500D01*
X105951778Y-104103999D01*
X106023721Y-104062462D01*
X106082462Y-104003721D01*
X106123999Y-103931778D01*
X106145500Y-103851536D01*
X106145500Y-103768464D01*
X106123999Y-103688222D01*
X106082462Y-103616279D01*
X106023721Y-103557538D01*
X106023720Y-103557537D01*
X105951782Y-103516003D01*
X105951778Y-103516001D01*
X105871536Y-103494500D01*
X105788464Y-103494500D01*
X105734969Y-103508834D01*
X105708221Y-103516001D01*
X105708217Y-103516003D01*
X105636280Y-103557537D01*
X105636279Y-103557537D01*
X105577537Y-103616279D01*
X105577537Y-103616280D01*
X105536003Y-103688217D01*
X105536001Y-103688221D01*
X105536001Y-103688222D01*
X105514500Y-103768464D01*
X105514500Y-103851536D01*
X105521537Y-103877799D01*
X105525325Y-103891935D01*
X105520929Y-103925323D01*
X105513937Y-103934436D01*
X105223245Y-104225128D01*
X105223244Y-104225127D01*
X105185129Y-104263243D01*
X105182811Y-104268840D01*
X105182810Y-104268841D01*
X105164500Y-104313043D01*
X105164499Y-104313049D01*
X105164499Y-104372071D01*
X105164500Y-104372080D01*
X105164500Y-107514765D01*
X105151613Y-107545878D01*
X103889264Y-108808227D01*
X103858151Y-108821114D01*
X103827038Y-108808227D01*
X103814151Y-108777114D01*
X103814151Y-108766732D01*
X103810777Y-108754139D01*
X103792650Y-108686489D01*
X103751113Y-108614546D01*
X103692372Y-108555805D01*
X103692371Y-108555804D01*
X103620433Y-108514270D01*
X103620429Y-108514268D01*
X103610013Y-108511477D01*
X103540187Y-108492767D01*
X103457115Y-108492767D01*
X103416235Y-108503721D01*
X103376872Y-108514268D01*
X103376868Y-108514270D01*
X103304931Y-108555804D01*
X103304930Y-108555804D01*
X103246188Y-108614546D01*
X103246188Y-108614547D01*
X103204654Y-108686484D01*
X103204652Y-108686488D01*
X103193901Y-108726610D01*
X103183151Y-108766731D01*
X103183151Y-108849803D01*
X103204652Y-108930045D01*
X103246189Y-109001988D01*
X103304930Y-109060729D01*
X103376873Y-109102266D01*
X103457115Y-109123767D01*
X103457117Y-109123767D01*
X103467498Y-109123767D01*
X103498611Y-109136654D01*
X103511498Y-109167767D01*
X103498611Y-109198879D01*
X102939026Y-109758464D01*
X102408246Y-110289244D01*
X102408245Y-110289245D01*
X102408244Y-110289244D01*
X102370129Y-110327360D01*
X102370129Y-110327361D01*
X102370128Y-110327363D01*
X102349500Y-110377160D01*
X102349499Y-110377166D01*
X102349499Y-110436188D01*
X102349500Y-110436197D01*
X102349500Y-111643304D01*
X102336613Y-111674417D01*
X102327501Y-111681408D01*
X102291282Y-111702320D01*
X102291279Y-111702322D01*
X102232537Y-111761064D01*
X102232537Y-111761065D01*
X102191003Y-111833002D01*
X102191001Y-111833006D01*
X102191001Y-111833007D01*
X102169500Y-111913249D01*
X102169500Y-111996321D01*
X102177902Y-112027676D01*
X102189709Y-112071742D01*
X102185313Y-112105130D01*
X102158596Y-112125630D01*
X102135789Y-112131741D01*
X102111149Y-112138344D01*
X102111145Y-112138346D01*
X102039208Y-112179880D01*
X102039207Y-112179880D01*
X101980465Y-112238622D01*
X101980463Y-112238625D01*
X101973671Y-112250389D01*
X101946954Y-112270889D01*
X101913566Y-112266492D01*
X101897462Y-112250388D01*
X101894774Y-112245732D01*
X101836033Y-112186991D01*
X101836032Y-112186990D01*
X101764094Y-112145456D01*
X101764090Y-112145454D01*
X101748893Y-112141382D01*
X101683848Y-112123953D01*
X101600776Y-112123953D01*
X101553521Y-112136615D01*
X101520533Y-112145454D01*
X101520529Y-112145456D01*
X101448592Y-112186990D01*
X101448591Y-112186990D01*
X101389849Y-112245732D01*
X101389849Y-112245733D01*
X101348315Y-112317670D01*
X101348313Y-112317674D01*
X101339033Y-112352308D01*
X101326812Y-112397917D01*
X101326812Y-112480989D01*
X101344235Y-112546010D01*
X101348313Y-112561231D01*
X101348315Y-112561235D01*
X101363517Y-112587565D01*
X101389850Y-112633174D01*
X101448591Y-112691915D01*
X101520534Y-112733452D01*
X101600776Y-112754953D01*
X101600778Y-112754953D01*
X101683846Y-112754953D01*
X101683848Y-112754953D01*
X101764090Y-112733452D01*
X101836033Y-112691915D01*
X101894774Y-112633174D01*
X101901567Y-112621408D01*
X101928282Y-112600907D01*
X101961670Y-112605301D01*
X101977777Y-112621407D01*
X101980466Y-112626064D01*
X102039207Y-112684805D01*
X102111150Y-112726342D01*
X102191392Y-112747843D01*
X102191394Y-112747843D01*
X102274462Y-112747843D01*
X102274464Y-112747843D01*
X102354706Y-112726342D01*
X102426649Y-112684805D01*
X102485390Y-112626064D01*
X102506302Y-112589842D01*
X102533019Y-112569342D01*
X102544407Y-112567843D01*
X102735577Y-112567843D01*
X102735585Y-112567844D01*
X102740704Y-112567844D01*
X102794609Y-112567844D01*
X102794610Y-112567844D01*
X102829824Y-112553256D01*
X102844412Y-112547215D01*
X102882529Y-112509098D01*
X102882529Y-112509097D01*
X102888714Y-112502912D01*
X102888715Y-112502909D01*
X103676753Y-111714872D01*
X103676755Y-111714872D01*
X103714872Y-111676755D01*
X103726043Y-111649786D01*
X103735501Y-111626953D01*
X103735501Y-111573047D01*
X103735501Y-111569507D01*
X103735500Y-111569493D01*
X103735500Y-111174351D01*
X103748387Y-111143238D01*
X105459387Y-109432238D01*
X105490500Y-109419351D01*
X105521613Y-109432238D01*
X105534500Y-109463351D01*
X105534500Y-109491536D01*
X105556001Y-109571778D01*
X105597538Y-109643721D01*
X105656279Y-109702462D01*
X105728222Y-109743999D01*
X105801422Y-109763613D01*
X105828138Y-109784113D01*
X105832534Y-109817501D01*
X105821146Y-109837226D01*
X104018246Y-111640127D01*
X104018245Y-111640128D01*
X104018244Y-111640127D01*
X103980127Y-111678244D01*
X103976778Y-111686331D01*
X103963725Y-111717846D01*
X103959499Y-111728047D01*
X103959499Y-111787071D01*
X103959500Y-111787080D01*
X103959500Y-112112746D01*
X103946613Y-112143859D01*
X103937501Y-112150850D01*
X103901281Y-112171762D01*
X103842536Y-112230507D01*
X103842536Y-112230508D01*
X103801002Y-112302445D01*
X103801000Y-112302449D01*
X103796922Y-112317670D01*
X103779499Y-112382692D01*
X103779499Y-112465764D01*
X103792859Y-112515622D01*
X103801000Y-112546006D01*
X103801002Y-112546010D01*
X103813608Y-112567843D01*
X103842537Y-112617949D01*
X103901278Y-112676690D01*
X103973221Y-112718227D01*
X104053463Y-112739728D01*
X104053465Y-112739728D01*
X104136533Y-112739728D01*
X104136535Y-112739728D01*
X104216777Y-112718227D01*
X104288720Y-112676690D01*
X104347461Y-112617949D01*
X104388998Y-112546006D01*
X104410499Y-112465764D01*
X104410499Y-112423466D01*
X105034500Y-112423466D01*
X105034500Y-112506538D01*
X105055797Y-112586018D01*
X105056001Y-112586780D01*
X105056003Y-112586784D01*
X105073996Y-112617948D01*
X105097538Y-112658723D01*
X105156279Y-112717464D01*
X105228222Y-112759001D01*
X105308464Y-112780502D01*
X105308466Y-112780502D01*
X105391534Y-112780502D01*
X105391536Y-112780502D01*
X105471778Y-112759001D01*
X105543721Y-112717464D01*
X105602462Y-112658723D01*
X105643999Y-112586780D01*
X105665500Y-112506538D01*
X105665500Y-112423466D01*
X105643999Y-112343224D01*
X105602462Y-112271281D01*
X105543721Y-112212540D01*
X105543720Y-112212539D01*
X105471782Y-112171005D01*
X105471778Y-112171003D01*
X105464243Y-112168984D01*
X105391536Y-112149502D01*
X105308464Y-112149502D01*
X105256220Y-112163501D01*
X105228221Y-112171003D01*
X105228217Y-112171005D01*
X105156280Y-112212539D01*
X105156279Y-112212539D01*
X105097537Y-112271281D01*
X105097537Y-112271282D01*
X105056003Y-112343219D01*
X105056001Y-112343223D01*
X105052104Y-112357766D01*
X105034500Y-112423466D01*
X104410499Y-112423466D01*
X104410499Y-112382692D01*
X104388998Y-112302450D01*
X104347461Y-112230507D01*
X104288720Y-112171766D01*
X104287398Y-112171003D01*
X104252499Y-112150853D01*
X104231999Y-112124135D01*
X104230500Y-112112748D01*
X104230500Y-111829352D01*
X104243387Y-111798239D01*
X104281279Y-111760347D01*
X104323780Y-111717845D01*
X104354892Y-111704959D01*
X104386005Y-111717846D01*
X104398892Y-111748959D01*
X104397392Y-111760347D01*
X104384500Y-111808464D01*
X104384500Y-111891536D01*
X104406001Y-111971778D01*
X104447538Y-112043721D01*
X104506279Y-112102462D01*
X104578222Y-112143999D01*
X104658464Y-112165500D01*
X104658466Y-112165500D01*
X104741534Y-112165500D01*
X104741536Y-112165500D01*
X104821778Y-112143999D01*
X104893721Y-112102462D01*
X104952462Y-112043721D01*
X104972818Y-112008464D01*
X105744500Y-112008464D01*
X105744500Y-112091536D01*
X105758948Y-112145456D01*
X105766001Y-112171778D01*
X105766003Y-112171782D01*
X105785613Y-112205746D01*
X105807538Y-112243721D01*
X105866279Y-112302462D01*
X105938222Y-112343999D01*
X106018464Y-112365500D01*
X106018466Y-112365500D01*
X106092690Y-112365500D01*
X106123803Y-112378387D01*
X106136690Y-112409500D01*
X106135191Y-112420886D01*
X106134500Y-112423466D01*
X106134500Y-112506538D01*
X106155797Y-112586018D01*
X106156001Y-112586780D01*
X106156003Y-112586784D01*
X106173996Y-112617948D01*
X106197097Y-112657960D01*
X106197537Y-112658721D01*
X106197537Y-112658722D01*
X106256279Y-112717464D01*
X106256961Y-112717858D01*
X106257202Y-112718172D01*
X106258565Y-112719218D01*
X106258284Y-112719583D01*
X106277462Y-112744575D01*
X106273066Y-112777963D01*
X106246350Y-112798463D01*
X106218227Y-112805999D01*
X106218217Y-112806003D01*
X106146280Y-112847537D01*
X106146279Y-112847537D01*
X106087537Y-112906279D01*
X106087537Y-112906280D01*
X106046003Y-112978217D01*
X106046001Y-112978221D01*
X106046001Y-112978222D01*
X106024500Y-113058464D01*
X106024500Y-113141536D01*
X106046001Y-113221778D01*
X106046003Y-113221782D01*
X106065920Y-113256279D01*
X106087538Y-113293721D01*
X106146279Y-113352462D01*
X106218222Y-113393999D01*
X106298464Y-113415500D01*
X106298466Y-113415500D01*
X106381534Y-113415500D01*
X106381536Y-113415500D01*
X106407794Y-113408464D01*
X107884500Y-113408464D01*
X107884500Y-113491536D01*
X107906001Y-113571778D01*
X107947538Y-113643721D01*
X108006279Y-113702462D01*
X108078222Y-113743999D01*
X108158464Y-113765500D01*
X108158466Y-113765500D01*
X108241534Y-113765500D01*
X108241536Y-113765500D01*
X108321778Y-113743999D01*
X108393721Y-113702462D01*
X108452462Y-113643721D01*
X108493999Y-113571778D01*
X108515500Y-113491536D01*
X108515500Y-113408464D01*
X108493999Y-113328222D01*
X108452462Y-113256279D01*
X108393721Y-113197538D01*
X108393720Y-113197537D01*
X108337556Y-113165110D01*
X108321783Y-113156003D01*
X108321778Y-113156001D01*
X108241536Y-113134500D01*
X108158464Y-113134500D01*
X108104969Y-113148834D01*
X108078221Y-113156001D01*
X108078217Y-113156003D01*
X108006280Y-113197537D01*
X108006279Y-113197537D01*
X107947537Y-113256279D01*
X107947537Y-113256280D01*
X107906003Y-113328217D01*
X107906001Y-113328221D01*
X107906001Y-113328222D01*
X107884500Y-113408464D01*
X106407794Y-113408464D01*
X106461778Y-113393999D01*
X106533721Y-113352462D01*
X106592462Y-113293721D01*
X106633999Y-113221778D01*
X106655500Y-113141536D01*
X106655500Y-113129889D01*
X108672568Y-113129889D01*
X108672568Y-113212961D01*
X108694069Y-113293203D01*
X108694071Y-113293207D01*
X108721760Y-113341165D01*
X108735606Y-113365146D01*
X108794347Y-113423887D01*
X108866290Y-113465424D01*
X108946532Y-113486925D01*
X108946534Y-113486925D01*
X109029602Y-113486925D01*
X109029604Y-113486925D01*
X109109846Y-113465424D01*
X109181789Y-113423887D01*
X109240530Y-113365146D01*
X109282067Y-113293203D01*
X109303568Y-113212961D01*
X109303568Y-113129889D01*
X109282067Y-113049647D01*
X109240530Y-112977704D01*
X109181789Y-112918963D01*
X109181788Y-112918962D01*
X109109850Y-112877428D01*
X109109846Y-112877426D01*
X109096011Y-112873719D01*
X109029604Y-112855925D01*
X108946532Y-112855925D01*
X108893037Y-112870259D01*
X108866289Y-112877426D01*
X108866285Y-112877428D01*
X108794348Y-112918962D01*
X108794347Y-112918962D01*
X108735605Y-112977704D01*
X108735605Y-112977705D01*
X108694071Y-113049642D01*
X108694069Y-113049646D01*
X108686412Y-113078222D01*
X108672568Y-113129889D01*
X106655500Y-113129889D01*
X106655500Y-113058464D01*
X106633999Y-112978222D01*
X106592462Y-112906279D01*
X106533721Y-112847538D01*
X106533720Y-112847537D01*
X106533034Y-112847141D01*
X106532791Y-112846824D01*
X106531435Y-112845784D01*
X106531713Y-112845420D01*
X106512536Y-112820422D01*
X106516935Y-112787034D01*
X106543648Y-112766538D01*
X106571778Y-112759001D01*
X106643721Y-112717464D01*
X106702462Y-112658723D01*
X106743999Y-112586780D01*
X106765500Y-112506538D01*
X106765500Y-112423466D01*
X106743999Y-112343224D01*
X106702462Y-112271281D01*
X106643721Y-112212540D01*
X106643720Y-112212539D01*
X106571782Y-112171005D01*
X106571778Y-112171003D01*
X106564243Y-112168984D01*
X106491536Y-112149502D01*
X106417310Y-112149502D01*
X106386197Y-112136615D01*
X106373310Y-112105502D01*
X106374809Y-112094114D01*
X106375500Y-112091535D01*
X106375500Y-112008465D01*
X106375500Y-112008464D01*
X106353999Y-111928222D01*
X106312462Y-111856279D01*
X106253721Y-111797538D01*
X106253720Y-111797537D01*
X106181782Y-111756003D01*
X106181778Y-111756001D01*
X106155497Y-111748959D01*
X106101536Y-111734500D01*
X106018464Y-111734500D01*
X105964969Y-111748834D01*
X105938221Y-111756001D01*
X105938217Y-111756003D01*
X105866280Y-111797537D01*
X105866279Y-111797537D01*
X105807537Y-111856279D01*
X105807537Y-111856280D01*
X105766003Y-111928217D01*
X105766001Y-111928221D01*
X105758363Y-111956728D01*
X105744500Y-112008464D01*
X104972818Y-112008464D01*
X104993999Y-111971778D01*
X105015500Y-111891536D01*
X105015500Y-111808464D01*
X104993999Y-111728222D01*
X104952462Y-111656279D01*
X104893721Y-111597538D01*
X104893720Y-111597537D01*
X104821782Y-111556003D01*
X104821778Y-111556001D01*
X104741536Y-111534500D01*
X104658464Y-111534500D01*
X104610347Y-111547393D01*
X104576959Y-111542997D01*
X104556458Y-111516280D01*
X104560854Y-111482892D01*
X104567842Y-111473783D01*
X105594065Y-110447560D01*
X107801711Y-110447560D01*
X107801711Y-110530632D01*
X107812018Y-110569097D01*
X107823212Y-110610874D01*
X107823214Y-110610878D01*
X107844294Y-110647388D01*
X107864749Y-110682817D01*
X107923490Y-110741558D01*
X107995433Y-110783095D01*
X108075675Y-110804596D01*
X108075677Y-110804596D01*
X108158745Y-110804596D01*
X108158747Y-110804596D01*
X108238989Y-110783095D01*
X108310932Y-110741558D01*
X108369673Y-110682817D01*
X108411210Y-110610874D01*
X108432711Y-110530632D01*
X108432711Y-110447560D01*
X108411210Y-110367318D01*
X108369673Y-110295375D01*
X108310932Y-110236634D01*
X108310931Y-110236633D01*
X108238993Y-110195099D01*
X108238989Y-110195097D01*
X108158747Y-110173596D01*
X108075675Y-110173596D01*
X108022180Y-110187930D01*
X107995432Y-110195097D01*
X107995428Y-110195099D01*
X107923491Y-110236633D01*
X107923490Y-110236633D01*
X107864748Y-110295375D01*
X107864748Y-110295376D01*
X107823214Y-110367313D01*
X107823212Y-110367317D01*
X107820575Y-110377160D01*
X107801711Y-110447560D01*
X105594065Y-110447560D01*
X106464468Y-109577157D01*
X106495580Y-109564271D01*
X106526693Y-109577158D01*
X106539580Y-109608271D01*
X106533685Y-109630271D01*
X106506003Y-109678216D01*
X106506001Y-109678221D01*
X106506001Y-109678222D01*
X106484500Y-109758464D01*
X106484500Y-109841536D01*
X106506001Y-109921778D01*
X106547538Y-109993721D01*
X106606279Y-110052462D01*
X106678222Y-110093999D01*
X106758464Y-110115500D01*
X106758466Y-110115500D01*
X106841534Y-110115500D01*
X106841536Y-110115500D01*
X106921778Y-110093999D01*
X106993721Y-110052462D01*
X107052462Y-109993721D01*
X107093999Y-109921778D01*
X107115500Y-109841536D01*
X107115500Y-109758464D01*
X107093999Y-109678222D01*
X107052462Y-109606279D01*
X106993721Y-109547538D01*
X106993720Y-109547537D01*
X106921782Y-109506003D01*
X106921778Y-109506001D01*
X106908570Y-109502462D01*
X106841536Y-109484500D01*
X106758464Y-109484500D01*
X106704969Y-109498834D01*
X106678221Y-109506001D01*
X106678216Y-109506003D01*
X106630271Y-109533685D01*
X106596883Y-109538081D01*
X106570166Y-109517580D01*
X106565770Y-109484192D01*
X106577156Y-109464469D01*
X107124283Y-108917343D01*
X107155396Y-108904456D01*
X108673341Y-108904456D01*
X108704454Y-108917343D01*
X108711444Y-108926454D01*
X108713518Y-108930045D01*
X108732355Y-108962673D01*
X108732359Y-108962678D01*
X108785471Y-109015791D01*
X108798358Y-109046903D01*
X108785471Y-109078015D01*
X108742541Y-109120945D01*
X108742537Y-109120951D01*
X108701003Y-109192888D01*
X108701001Y-109192892D01*
X108694735Y-109216279D01*
X108679500Y-109273135D01*
X108679500Y-109356207D01*
X108696420Y-109419351D01*
X108701001Y-109436449D01*
X108701003Y-109436453D01*
X108742537Y-109508390D01*
X108742537Y-109508391D01*
X108801279Y-109567133D01*
X108863247Y-109602911D01*
X108883748Y-109629628D01*
X108879352Y-109663016D01*
X108851336Y-109711540D01*
X108851334Y-109711544D01*
X108851334Y-109711545D01*
X108829833Y-109791787D01*
X108829833Y-109874859D01*
X108842405Y-109921778D01*
X108851334Y-109955101D01*
X108851336Y-109955105D01*
X108881203Y-110006836D01*
X108885599Y-110040224D01*
X108865099Y-110066941D01*
X108806235Y-110100927D01*
X108747494Y-110159668D01*
X108747494Y-110159669D01*
X108705960Y-110231606D01*
X108705958Y-110231610D01*
X108705958Y-110231611D01*
X108684457Y-110311853D01*
X108684457Y-110394925D01*
X108698561Y-110447560D01*
X108705958Y-110475167D01*
X108705960Y-110475171D01*
X108747494Y-110547108D01*
X108747494Y-110547109D01*
X108806236Y-110605851D01*
X108806239Y-110605853D01*
X108807693Y-110606693D01*
X108808207Y-110607363D01*
X108808522Y-110607605D01*
X108808457Y-110607689D01*
X108828193Y-110633410D01*
X108823796Y-110666798D01*
X108797079Y-110687298D01*
X108785692Y-110688797D01*
X108773464Y-110688797D01*
X108719969Y-110703131D01*
X108693221Y-110710298D01*
X108693217Y-110710300D01*
X108621280Y-110751834D01*
X108621279Y-110751834D01*
X108562537Y-110810576D01*
X108562537Y-110810577D01*
X108521003Y-110882514D01*
X108521001Y-110882518D01*
X108521001Y-110882519D01*
X108499500Y-110962761D01*
X108499500Y-111045833D01*
X108501386Y-111052870D01*
X108521001Y-111126075D01*
X108521003Y-111126079D01*
X108530910Y-111143238D01*
X108562538Y-111198018D01*
X108621279Y-111256759D01*
X108693222Y-111298296D01*
X108734178Y-111309270D01*
X108760895Y-111329771D01*
X108765291Y-111363159D01*
X108753903Y-111382884D01*
X108192946Y-111943842D01*
X108161833Y-111956729D01*
X108130523Y-111956729D01*
X108130515Y-111956728D01*
X108125396Y-111956728D01*
X108071490Y-111956728D01*
X108071488Y-111956728D01*
X108036274Y-111971315D01*
X108021687Y-111977357D01*
X107983570Y-112015473D01*
X107983571Y-112015474D01*
X107983570Y-112015475D01*
X107983569Y-112015475D01*
X107940253Y-112058790D01*
X107909140Y-112071677D01*
X107878028Y-112058789D01*
X107865141Y-112027676D01*
X107867679Y-112014924D01*
X107867253Y-112014810D01*
X107868000Y-112012024D01*
X107889501Y-111931782D01*
X107889501Y-111848710D01*
X107868000Y-111768468D01*
X107826463Y-111696525D01*
X107767722Y-111637784D01*
X107767721Y-111637783D01*
X107695783Y-111596249D01*
X107695779Y-111596247D01*
X107615537Y-111574746D01*
X107532465Y-111574746D01*
X107478970Y-111589080D01*
X107452222Y-111596247D01*
X107452218Y-111596249D01*
X107380281Y-111637783D01*
X107380280Y-111637783D01*
X107321538Y-111696525D01*
X107321538Y-111696526D01*
X107280004Y-111768463D01*
X107280002Y-111768467D01*
X107276388Y-111781955D01*
X107258501Y-111848710D01*
X107258501Y-111931782D01*
X107275794Y-111996319D01*
X107280002Y-112012024D01*
X107280004Y-112012028D01*
X107307002Y-112058789D01*
X107321539Y-112083967D01*
X107380280Y-112142708D01*
X107452223Y-112184245D01*
X107463803Y-112187347D01*
X107490519Y-112207848D01*
X107494915Y-112241236D01*
X107483528Y-112260959D01*
X107473973Y-112270514D01*
X107473969Y-112270520D01*
X107432435Y-112342457D01*
X107432433Y-112342461D01*
X107432433Y-112342462D01*
X107410932Y-112422704D01*
X107410932Y-112505776D01*
X107427563Y-112567843D01*
X107432433Y-112586018D01*
X107432435Y-112586022D01*
X107459658Y-112633172D01*
X107473970Y-112657961D01*
X107532711Y-112716702D01*
X107604654Y-112758239D01*
X107684896Y-112779740D01*
X107684898Y-112779740D01*
X107767966Y-112779740D01*
X107767968Y-112779740D01*
X107848210Y-112758239D01*
X107920153Y-112716702D01*
X107978894Y-112657961D01*
X108020431Y-112586018D01*
X108041932Y-112505776D01*
X108041932Y-112422704D01*
X108031106Y-112382302D01*
X108035502Y-112348915D01*
X108042495Y-112339802D01*
X108141683Y-112240616D01*
X108172795Y-112227729D01*
X108204105Y-112227729D01*
X108204113Y-112227730D01*
X108256724Y-112227730D01*
X108287837Y-112240617D01*
X108300724Y-112271730D01*
X108299225Y-112283115D01*
X108280685Y-112352308D01*
X108280685Y-112435380D01*
X108294324Y-112486280D01*
X108302186Y-112515622D01*
X108302188Y-112515626D01*
X108328519Y-112561231D01*
X108343723Y-112587565D01*
X108402464Y-112646306D01*
X108474407Y-112687843D01*
X108554649Y-112709344D01*
X108554651Y-112709344D01*
X108637719Y-112709344D01*
X108637721Y-112709344D01*
X108717963Y-112687843D01*
X108789906Y-112646306D01*
X108848647Y-112587565D01*
X108890184Y-112515622D01*
X108911685Y-112435380D01*
X108911685Y-112352308D01*
X108890184Y-112272066D01*
X108848647Y-112200123D01*
X108789906Y-112141382D01*
X108789905Y-112141381D01*
X108717967Y-112099847D01*
X108717963Y-112099845D01*
X108637721Y-112078344D01*
X108554649Y-112078344D01*
X108554648Y-112078344D01*
X108553073Y-112078551D01*
X108552301Y-112078344D01*
X108551765Y-112078344D01*
X108551765Y-112078200D01*
X108520546Y-112069829D01*
X108503713Y-112040661D01*
X108512435Y-112008134D01*
X108516217Y-112003821D01*
X109251753Y-111268286D01*
X109251755Y-111268286D01*
X109289872Y-111230169D01*
X109307004Y-111188808D01*
X109310501Y-111180367D01*
X109310501Y-111167375D01*
X109323388Y-111136262D01*
X109354501Y-111123375D01*
X109378491Y-111131520D01*
X109378781Y-111131020D01*
X109399943Y-111143238D01*
X109453222Y-111173999D01*
X109533464Y-111195500D01*
X109533466Y-111195500D01*
X109616534Y-111195500D01*
X109616536Y-111195500D01*
X109696778Y-111173999D01*
X109733500Y-111152796D01*
X109766887Y-111148401D01*
X109793605Y-111168901D01*
X109799500Y-111190902D01*
X109799500Y-112392625D01*
X109786613Y-112423738D01*
X109755500Y-112436625D01*
X109731506Y-112428481D01*
X109731219Y-112428980D01*
X109656782Y-112386003D01*
X109656778Y-112386001D01*
X109576536Y-112364500D01*
X109493464Y-112364500D01*
X109441638Y-112378387D01*
X109413221Y-112386001D01*
X109413217Y-112386003D01*
X109341280Y-112427537D01*
X109341279Y-112427537D01*
X109282537Y-112486279D01*
X109282537Y-112486280D01*
X109241003Y-112558217D01*
X109241001Y-112558221D01*
X109238423Y-112567843D01*
X109219500Y-112638464D01*
X109219500Y-112721536D01*
X109241001Y-112801778D01*
X109282538Y-112873721D01*
X109341279Y-112932462D01*
X109413222Y-112973999D01*
X109493464Y-112995500D01*
X109493466Y-112995500D01*
X109576534Y-112995500D01*
X109576536Y-112995500D01*
X109656778Y-112973999D01*
X109728721Y-112932462D01*
X109728720Y-112932462D01*
X109731219Y-112931020D01*
X109731608Y-112931693D01*
X109761234Y-112923749D01*
X109790402Y-112940581D01*
X109799500Y-112967374D01*
X109799500Y-115136953D01*
X109786613Y-115168066D01*
X109755500Y-115180953D01*
X109724387Y-115168066D01*
X109720599Y-115163747D01*
X109688320Y-115121680D01*
X109570190Y-115031036D01*
X109432625Y-114974055D01*
X109322068Y-114959500D01*
X108297932Y-114959500D01*
X108187374Y-114974055D01*
X108049812Y-115031035D01*
X108049808Y-115031037D01*
X107931965Y-115121461D01*
X107899437Y-115130177D01*
X107870272Y-115113338D01*
X107862681Y-115097946D01*
X107843999Y-115028222D01*
X107802462Y-114956279D01*
X107743721Y-114897538D01*
X107743720Y-114897537D01*
X107671782Y-114856003D01*
X107671778Y-114856001D01*
X107591536Y-114834500D01*
X107508464Y-114834500D01*
X107473014Y-114843999D01*
X107428221Y-114856001D01*
X107428217Y-114856003D01*
X107356280Y-114897537D01*
X107356279Y-114897537D01*
X107297537Y-114956279D01*
X107297537Y-114956280D01*
X107256003Y-115028217D01*
X107256001Y-115028221D01*
X107234497Y-115108473D01*
X107234257Y-115110301D01*
X107233793Y-115111104D01*
X107233754Y-115111250D01*
X107233714Y-115111239D01*
X107217414Y-115139462D01*
X107184883Y-115148171D01*
X107155728Y-115131334D01*
X107148320Y-115121680D01*
X107030190Y-115031036D01*
X106892625Y-114974055D01*
X106782068Y-114959500D01*
X105867845Y-114959500D01*
X105836732Y-114946613D01*
X105126812Y-114236693D01*
X105098583Y-114208464D01*
X107954500Y-114208464D01*
X107954500Y-114291536D01*
X107974517Y-114366238D01*
X107976001Y-114371778D01*
X107976003Y-114371782D01*
X107987407Y-114391534D01*
X108017538Y-114443721D01*
X108076279Y-114502462D01*
X108148222Y-114543999D01*
X108228464Y-114565500D01*
X108228466Y-114565500D01*
X108311534Y-114565500D01*
X108311536Y-114565500D01*
X108391778Y-114543999D01*
X108463721Y-114502462D01*
X108522462Y-114443721D01*
X108563999Y-114371778D01*
X108580964Y-114308464D01*
X108934500Y-114308464D01*
X108934500Y-114391536D01*
X108956001Y-114471778D01*
X108997538Y-114543721D01*
X109056279Y-114602462D01*
X109128222Y-114643999D01*
X109208464Y-114665500D01*
X109208466Y-114665500D01*
X109291534Y-114665500D01*
X109291536Y-114665500D01*
X109371778Y-114643999D01*
X109443721Y-114602462D01*
X109502462Y-114543721D01*
X109543999Y-114471778D01*
X109565500Y-114391536D01*
X109565500Y-114308464D01*
X109543999Y-114228222D01*
X109502462Y-114156279D01*
X109443721Y-114097538D01*
X109443720Y-114097537D01*
X109371782Y-114056003D01*
X109371778Y-114056001D01*
X109291536Y-114034500D01*
X109208464Y-114034500D01*
X109154969Y-114048834D01*
X109128221Y-114056001D01*
X109128217Y-114056003D01*
X109056280Y-114097537D01*
X109056279Y-114097537D01*
X108997537Y-114156279D01*
X108997537Y-114156280D01*
X108956003Y-114228217D01*
X108956001Y-114228221D01*
X108946698Y-114262942D01*
X108934500Y-114308464D01*
X108580964Y-114308464D01*
X108585500Y-114291536D01*
X108585500Y-114208464D01*
X108563999Y-114128222D01*
X108522462Y-114056279D01*
X108463721Y-113997538D01*
X108463720Y-113997537D01*
X108391782Y-113956003D01*
X108391778Y-113956001D01*
X108311536Y-113934500D01*
X108228464Y-113934500D01*
X108174969Y-113948834D01*
X108148221Y-113956001D01*
X108148217Y-113956003D01*
X108076280Y-113997537D01*
X108076279Y-113997537D01*
X108017537Y-114056279D01*
X108017537Y-114056280D01*
X107976003Y-114128217D01*
X107976001Y-114128221D01*
X107970825Y-114147538D01*
X107954500Y-114208464D01*
X105098583Y-114208464D01*
X104634115Y-113743996D01*
X104136233Y-113246114D01*
X104047839Y-113209500D01*
X104047838Y-113209500D01*
X103197839Y-113209500D01*
X103102161Y-113209500D01*
X103072510Y-113221782D01*
X103013767Y-113246114D01*
X102463268Y-113796613D01*
X102432155Y-113809500D01*
X100857839Y-113809500D01*
X100762162Y-113809500D01*
X100673768Y-113846114D01*
X100598269Y-113921613D01*
X100571156Y-113932843D01*
X100571325Y-113934123D01*
X100568469Y-113934499D01*
X100568465Y-113934500D01*
X100568464Y-113934500D01*
X100523603Y-113946520D01*
X100488221Y-113956001D01*
X100488217Y-113956003D01*
X100416280Y-113997537D01*
X100416279Y-113997537D01*
X100357537Y-114056279D01*
X100357537Y-114056280D01*
X100316003Y-114128217D01*
X100316001Y-114128221D01*
X100310825Y-114147538D01*
X100294500Y-114208464D01*
X100294500Y-114291536D01*
X100314517Y-114366238D01*
X100316001Y-114371778D01*
X100316003Y-114371782D01*
X100327407Y-114391534D01*
X100357538Y-114443721D01*
X100416279Y-114502462D01*
X100488222Y-114543999D01*
X100568464Y-114565500D01*
X100568466Y-114565500D01*
X100651534Y-114565500D01*
X100651536Y-114565500D01*
X100731778Y-114543999D01*
X100803721Y-114502462D01*
X100862462Y-114443721D01*
X100903999Y-114371778D01*
X100917039Y-114323111D01*
X100937540Y-114296395D01*
X100959540Y-114290500D01*
X101059305Y-114290500D01*
X101090418Y-114303387D01*
X101103305Y-114334500D01*
X101097410Y-114356500D01*
X101056003Y-114428217D01*
X101056001Y-114428221D01*
X101051848Y-114443720D01*
X101034500Y-114508464D01*
X101034500Y-114591536D01*
X101052681Y-114659387D01*
X101056001Y-114671778D01*
X101056003Y-114671782D01*
X101081244Y-114715500D01*
X101097538Y-114743721D01*
X101156279Y-114802462D01*
X101228222Y-114843999D01*
X101308464Y-114865500D01*
X101308466Y-114865500D01*
X101391534Y-114865500D01*
X101391536Y-114865500D01*
X101471778Y-114843999D01*
X101543721Y-114802462D01*
X101602462Y-114743721D01*
X101643999Y-114671778D01*
X101665500Y-114591536D01*
X101665500Y-114508464D01*
X101643999Y-114428222D01*
X101602590Y-114356500D01*
X101598194Y-114323112D01*
X101618695Y-114296395D01*
X101640695Y-114290500D01*
X102477463Y-114290500D01*
X102508576Y-114303387D01*
X102521463Y-114334500D01*
X102508576Y-114365613D01*
X102499463Y-114372605D01*
X102456280Y-114397537D01*
X102456279Y-114397537D01*
X102397537Y-114456279D01*
X102397537Y-114456280D01*
X102356003Y-114528217D01*
X102356001Y-114528221D01*
X102346012Y-114565500D01*
X102334500Y-114608464D01*
X102334500Y-114691536D01*
X102356001Y-114771778D01*
X102397538Y-114843721D01*
X102456279Y-114902462D01*
X102528222Y-114943999D01*
X102608464Y-114965500D01*
X102608466Y-114965500D01*
X102691534Y-114965500D01*
X102691536Y-114965500D01*
X102771778Y-114943999D01*
X102843721Y-114902462D01*
X102902462Y-114843721D01*
X102943999Y-114771778D01*
X102965500Y-114691536D01*
X102965500Y-114608464D01*
X102943999Y-114528222D01*
X102902462Y-114456279D01*
X102843721Y-114397538D01*
X102843720Y-114397537D01*
X102771782Y-114356003D01*
X102771780Y-114356002D01*
X102771778Y-114356001D01*
X102695343Y-114335520D01*
X102668627Y-114315019D01*
X102664231Y-114281630D01*
X102683115Y-114257020D01*
X102682630Y-114256294D01*
X102686228Y-114253889D01*
X102686229Y-114253887D01*
X102686233Y-114253886D01*
X103236732Y-113703387D01*
X103267845Y-113690500D01*
X103329305Y-113690500D01*
X103360418Y-113703387D01*
X103373305Y-113734500D01*
X103367410Y-113756500D01*
X103326003Y-113828217D01*
X103326001Y-113828221D01*
X103326001Y-113828222D01*
X103304500Y-113908464D01*
X103304500Y-113991536D01*
X103326001Y-114071778D01*
X103367538Y-114143721D01*
X103426279Y-114202462D01*
X103426929Y-114202837D01*
X103427159Y-114203137D01*
X103428565Y-114204216D01*
X103428276Y-114204592D01*
X103447431Y-114229554D01*
X103443036Y-114262942D01*
X103436043Y-114272055D01*
X103413807Y-114294291D01*
X103413803Y-114294297D01*
X103372269Y-114366234D01*
X103372267Y-114366238D01*
X103365489Y-114391534D01*
X103350766Y-114446481D01*
X103350766Y-114529553D01*
X103372267Y-114609795D01*
X103413804Y-114681738D01*
X103472545Y-114740479D01*
X103544488Y-114782016D01*
X103624730Y-114803517D01*
X103624732Y-114803517D01*
X103707800Y-114803517D01*
X103707802Y-114803517D01*
X103788044Y-114782016D01*
X103859987Y-114740479D01*
X103918728Y-114681738D01*
X103932819Y-114657330D01*
X103959534Y-114636832D01*
X103992922Y-114641226D01*
X104002036Y-114648219D01*
X104006279Y-114652462D01*
X104078222Y-114693999D01*
X104158464Y-114715500D01*
X104158466Y-114715500D01*
X104241534Y-114715500D01*
X104241536Y-114715500D01*
X104321778Y-114693999D01*
X104393721Y-114652462D01*
X104452462Y-114593721D01*
X104493999Y-114521778D01*
X104515500Y-114441536D01*
X104515500Y-114411845D01*
X104528387Y-114380732D01*
X104559500Y-114367845D01*
X104590613Y-114380732D01*
X104869268Y-114659387D01*
X104882155Y-114690500D01*
X104869268Y-114721613D01*
X104838155Y-114734500D01*
X104808464Y-114734500D01*
X104754969Y-114748834D01*
X104728221Y-114756001D01*
X104728217Y-114756003D01*
X104656280Y-114797537D01*
X104656279Y-114797537D01*
X104597537Y-114856279D01*
X104597537Y-114856280D01*
X104556003Y-114928217D01*
X104556001Y-114928220D01*
X104556001Y-114928222D01*
X104543720Y-114974055D01*
X104537615Y-114996839D01*
X104517114Y-115023555D01*
X104483725Y-115027951D01*
X104478276Y-115026101D01*
X104352625Y-114974055D01*
X104242068Y-114959500D01*
X103217932Y-114959500D01*
X103107374Y-114974055D01*
X102969812Y-115031035D01*
X102969808Y-115031037D01*
X102851682Y-115121678D01*
X102851678Y-115121682D01*
X102761037Y-115239808D01*
X102761035Y-115239812D01*
X102704055Y-115377374D01*
X102689500Y-115487932D01*
X102689500Y-117055500D01*
X102676613Y-117086613D01*
X102645500Y-117099500D01*
X102274500Y-117099500D01*
X102243387Y-117086613D01*
X102230500Y-117055500D01*
X102230500Y-115487932D01*
X102224716Y-115443998D01*
X102215945Y-115377375D01*
X102158964Y-115239810D01*
X102068320Y-115121680D01*
X101950190Y-115031036D01*
X101812625Y-114974055D01*
X101702068Y-114959500D01*
X100677932Y-114959500D01*
X100567374Y-114974055D01*
X100429812Y-115031035D01*
X100429808Y-115031037D01*
X100311682Y-115121678D01*
X100311681Y-115121679D01*
X100311680Y-115121680D01*
X100279406Y-115163739D01*
X100250243Y-115180577D01*
X100217714Y-115171861D01*
X100200876Y-115142696D01*
X100200500Y-115136953D01*
X100200500Y-113158464D01*
X105084500Y-113158464D01*
X105084500Y-113241536D01*
X105098483Y-113293719D01*
X105106001Y-113321778D01*
X105106003Y-113321782D01*
X105123716Y-113352461D01*
X105147538Y-113393721D01*
X105206279Y-113452462D01*
X105278222Y-113493999D01*
X105358464Y-113515500D01*
X105358466Y-113515500D01*
X105441534Y-113515500D01*
X105441536Y-113515500D01*
X105521778Y-113493999D01*
X105593721Y-113452462D01*
X105652462Y-113393721D01*
X105693999Y-113321778D01*
X105715500Y-113241536D01*
X105715500Y-113158464D01*
X105693999Y-113078222D01*
X105652462Y-113006279D01*
X105593721Y-112947538D01*
X105593720Y-112947537D01*
X105521782Y-112906003D01*
X105521778Y-112906001D01*
X105441536Y-112884500D01*
X105358464Y-112884500D01*
X105304969Y-112898834D01*
X105278221Y-112906001D01*
X105278217Y-112906003D01*
X105206280Y-112947537D01*
X105206279Y-112947537D01*
X105147537Y-113006279D01*
X105147537Y-113006280D01*
X105106003Y-113078217D01*
X105106001Y-113078221D01*
X105106001Y-113078222D01*
X105084500Y-113158464D01*
X100200500Y-113158464D01*
X100200500Y-110283467D01*
X101369500Y-110283467D01*
X101369500Y-110366539D01*
X101372346Y-110377160D01*
X101391001Y-110446781D01*
X101391003Y-110446785D01*
X101391451Y-110447561D01*
X101432538Y-110518724D01*
X101491279Y-110577465D01*
X101563222Y-110619002D01*
X101643464Y-110640503D01*
X101643466Y-110640503D01*
X101726534Y-110640503D01*
X101726536Y-110640503D01*
X101806778Y-110619002D01*
X101878721Y-110577465D01*
X101937462Y-110518724D01*
X101978999Y-110446781D01*
X102000500Y-110366539D01*
X102000500Y-110283467D01*
X101978999Y-110203225D01*
X101937462Y-110131282D01*
X101878721Y-110072541D01*
X101878720Y-110072540D01*
X101806782Y-110031006D01*
X101806778Y-110031004D01*
X101791999Y-110027044D01*
X101726536Y-110009503D01*
X101643464Y-110009503D01*
X101589969Y-110023837D01*
X101563221Y-110031004D01*
X101563217Y-110031006D01*
X101491280Y-110072540D01*
X101491279Y-110072540D01*
X101432537Y-110131282D01*
X101432537Y-110131283D01*
X101391003Y-110203220D01*
X101391001Y-110203224D01*
X101391001Y-110203225D01*
X101369500Y-110283467D01*
X100200500Y-110283467D01*
X100200500Y-109358015D01*
X100213387Y-109326902D01*
X100244500Y-109314015D01*
X100266497Y-109319909D01*
X100308222Y-109343999D01*
X100388464Y-109365500D01*
X100388466Y-109365500D01*
X100471534Y-109365500D01*
X100471536Y-109365500D01*
X100551778Y-109343999D01*
X100623721Y-109302462D01*
X100682462Y-109243721D01*
X100702818Y-109208464D01*
X101334500Y-109208464D01*
X101334500Y-109291536D01*
X101356001Y-109371778D01*
X101397538Y-109443721D01*
X101456279Y-109502462D01*
X101528222Y-109543999D01*
X101608464Y-109565500D01*
X101608466Y-109565500D01*
X101691534Y-109565500D01*
X101691536Y-109565500D01*
X101771778Y-109543999D01*
X101843721Y-109502462D01*
X101902462Y-109443721D01*
X101943999Y-109371778D01*
X101965500Y-109291536D01*
X101965500Y-109208464D01*
X101943999Y-109128222D01*
X101902462Y-109056279D01*
X101843721Y-108997538D01*
X101843720Y-108997537D01*
X101771782Y-108956003D01*
X101771778Y-108956001D01*
X101691536Y-108934500D01*
X101608464Y-108934500D01*
X101554969Y-108948834D01*
X101528221Y-108956001D01*
X101528217Y-108956003D01*
X101456280Y-108997537D01*
X101456279Y-108997537D01*
X101397537Y-109056279D01*
X101397537Y-109056280D01*
X101356003Y-109128217D01*
X101356001Y-109128221D01*
X101349284Y-109153291D01*
X101334500Y-109208464D01*
X100702818Y-109208464D01*
X100723999Y-109171778D01*
X100745500Y-109091536D01*
X100745500Y-109008464D01*
X100723999Y-108928222D01*
X100682462Y-108856279D01*
X100623721Y-108797538D01*
X100623720Y-108797537D01*
X100551782Y-108756003D01*
X100551778Y-108756001D01*
X100544818Y-108754136D01*
X100471536Y-108734500D01*
X100388464Y-108734500D01*
X100334969Y-108748834D01*
X100308221Y-108756001D01*
X100308217Y-108756003D01*
X100266500Y-108780089D01*
X100233112Y-108784485D01*
X100206395Y-108763984D01*
X100200500Y-108741984D01*
X100200500Y-108268464D01*
X100974500Y-108268464D01*
X100974500Y-108351536D01*
X100981683Y-108378343D01*
X100996001Y-108431778D01*
X100996003Y-108431782D01*
X101008517Y-108453456D01*
X101037538Y-108503721D01*
X101096279Y-108562462D01*
X101168222Y-108603999D01*
X101248464Y-108625500D01*
X101248466Y-108625500D01*
X101331534Y-108625500D01*
X101331536Y-108625500D01*
X101411778Y-108603999D01*
X101483721Y-108562462D01*
X101542462Y-108503721D01*
X101583999Y-108431778D01*
X101587529Y-108418604D01*
X102274360Y-108418604D01*
X102274360Y-108501676D01*
X102288864Y-108555804D01*
X102295861Y-108581918D01*
X102295863Y-108581922D01*
X102308608Y-108603996D01*
X102337398Y-108653861D01*
X102396139Y-108712602D01*
X102468082Y-108754139D01*
X102548324Y-108775640D01*
X102548326Y-108775640D01*
X102631394Y-108775640D01*
X102631396Y-108775640D01*
X102711638Y-108754139D01*
X102783581Y-108712602D01*
X102842322Y-108653861D01*
X102883859Y-108581918D01*
X102905360Y-108501676D01*
X102905360Y-108418604D01*
X102883859Y-108338362D01*
X102842322Y-108266419D01*
X102783581Y-108207678D01*
X102783580Y-108207677D01*
X102711642Y-108166143D01*
X102711638Y-108166141D01*
X102695993Y-108161949D01*
X102631396Y-108144640D01*
X102548324Y-108144640D01*
X102494829Y-108158974D01*
X102468081Y-108166141D01*
X102468077Y-108166143D01*
X102396140Y-108207677D01*
X102396139Y-108207677D01*
X102337397Y-108266419D01*
X102337397Y-108266420D01*
X102295863Y-108338357D01*
X102295861Y-108338361D01*
X102292331Y-108351536D01*
X102274360Y-108418604D01*
X101587529Y-108418604D01*
X101605500Y-108351536D01*
X101605500Y-108268464D01*
X101583999Y-108188222D01*
X101542462Y-108116279D01*
X101483721Y-108057538D01*
X101483720Y-108057537D01*
X101411782Y-108016003D01*
X101411778Y-108016001D01*
X101331536Y-107994500D01*
X101248464Y-107994500D01*
X101194969Y-108008834D01*
X101168221Y-108016001D01*
X101168217Y-108016003D01*
X101096280Y-108057537D01*
X101096279Y-108057537D01*
X101037537Y-108116279D01*
X101037537Y-108116280D01*
X100996003Y-108188217D01*
X100996001Y-108188221D01*
X100990788Y-108207677D01*
X100974500Y-108268464D01*
X100200500Y-108268464D01*
X100200500Y-107544000D01*
X100213387Y-107512887D01*
X100244500Y-107500000D01*
X101971221Y-107500000D01*
X102002334Y-107512887D01*
X102015221Y-107544000D01*
X102013722Y-107555386D01*
X101999500Y-107608464D01*
X101999500Y-107691536D01*
X102014140Y-107746171D01*
X102021001Y-107771778D01*
X102021003Y-107771782D01*
X102037982Y-107801190D01*
X102062538Y-107843721D01*
X102121279Y-107902462D01*
X102193222Y-107943999D01*
X102273464Y-107965500D01*
X102273466Y-107965500D01*
X102356534Y-107965500D01*
X102356536Y-107965500D01*
X102436778Y-107943999D01*
X102508721Y-107902462D01*
X102552719Y-107858464D01*
X103034500Y-107858464D01*
X103034500Y-107941536D01*
X103056001Y-108021778D01*
X103097538Y-108093721D01*
X103156279Y-108152462D01*
X103228222Y-108193999D01*
X103308464Y-108215500D01*
X103308466Y-108215500D01*
X103391534Y-108215500D01*
X103391536Y-108215500D01*
X103471778Y-108193999D01*
X103543721Y-108152462D01*
X103602462Y-108093721D01*
X103643999Y-108021778D01*
X103665500Y-107941536D01*
X103665500Y-107858464D01*
X103643999Y-107778222D01*
X103602462Y-107706279D01*
X103543721Y-107647538D01*
X103543720Y-107647537D01*
X103471782Y-107606003D01*
X103471778Y-107606001D01*
X103464161Y-107603960D01*
X103391536Y-107584500D01*
X103308464Y-107584500D01*
X103254969Y-107598834D01*
X103228221Y-107606001D01*
X103228217Y-107606003D01*
X103156280Y-107647537D01*
X103156279Y-107647537D01*
X103097537Y-107706279D01*
X103097537Y-107706280D01*
X103056003Y-107778217D01*
X103056001Y-107778221D01*
X103056001Y-107778222D01*
X103034500Y-107858464D01*
X102552719Y-107858464D01*
X102567462Y-107843721D01*
X102608999Y-107771778D01*
X102630500Y-107691536D01*
X102630500Y-107608464D01*
X102608999Y-107528222D01*
X102567462Y-107456279D01*
X102508721Y-107397538D01*
X102508720Y-107397537D01*
X102436782Y-107356003D01*
X102436778Y-107356001D01*
X102433072Y-107355008D01*
X102356536Y-107334500D01*
X102294000Y-107334500D01*
X102262887Y-107321613D01*
X102250000Y-107290500D01*
X102250000Y-106308464D01*
X103484500Y-106308464D01*
X103484500Y-106391536D01*
X103487428Y-106402462D01*
X103506001Y-106471778D01*
X103506003Y-106471782D01*
X103533692Y-106519740D01*
X103547538Y-106543721D01*
X103606279Y-106602462D01*
X103678222Y-106643999D01*
X103758464Y-106665500D01*
X103758466Y-106665500D01*
X103841534Y-106665500D01*
X103841536Y-106665500D01*
X103921778Y-106643999D01*
X103993721Y-106602462D01*
X104052462Y-106543721D01*
X104093999Y-106471778D01*
X104115500Y-106391536D01*
X104115500Y-106308464D01*
X104434500Y-106308464D01*
X104434500Y-106391536D01*
X104437428Y-106402462D01*
X104456001Y-106471778D01*
X104456003Y-106471782D01*
X104483692Y-106519740D01*
X104497538Y-106543721D01*
X104556279Y-106602462D01*
X104628222Y-106643999D01*
X104708464Y-106665500D01*
X104708466Y-106665500D01*
X104791534Y-106665500D01*
X104791536Y-106665500D01*
X104871778Y-106643999D01*
X104943721Y-106602462D01*
X105002462Y-106543721D01*
X105043999Y-106471778D01*
X105065500Y-106391536D01*
X105065500Y-106308464D01*
X105043999Y-106228222D01*
X105002462Y-106156279D01*
X104943721Y-106097538D01*
X104943720Y-106097537D01*
X104871782Y-106056003D01*
X104871778Y-106056001D01*
X104791536Y-106034500D01*
X104708464Y-106034500D01*
X104654969Y-106048834D01*
X104628221Y-106056001D01*
X104628217Y-106056003D01*
X104556280Y-106097537D01*
X104556279Y-106097537D01*
X104497537Y-106156279D01*
X104497537Y-106156280D01*
X104456003Y-106228217D01*
X104456001Y-106228221D01*
X104456001Y-106228222D01*
X104434500Y-106308464D01*
X104115500Y-106308464D01*
X104093999Y-106228222D01*
X104052462Y-106156279D01*
X103993721Y-106097538D01*
X103993720Y-106097537D01*
X103921782Y-106056003D01*
X103921778Y-106056001D01*
X103841536Y-106034500D01*
X103758464Y-106034500D01*
X103704969Y-106048834D01*
X103678221Y-106056001D01*
X103678217Y-106056003D01*
X103606280Y-106097537D01*
X103606279Y-106097537D01*
X103547537Y-106156279D01*
X103547537Y-106156280D01*
X103506003Y-106228217D01*
X103506001Y-106228221D01*
X103506001Y-106228222D01*
X103484500Y-106308464D01*
X102250000Y-106308464D01*
X102250000Y-105708464D01*
X102534500Y-105708464D01*
X102534500Y-105791536D01*
X102551774Y-105856001D01*
X102556001Y-105871778D01*
X102556003Y-105871782D01*
X102586224Y-105924125D01*
X102597538Y-105943721D01*
X102656279Y-106002462D01*
X102728222Y-106043999D01*
X102808464Y-106065500D01*
X102808466Y-106065500D01*
X102891534Y-106065500D01*
X102891536Y-106065500D01*
X102971778Y-106043999D01*
X103043721Y-106002462D01*
X103102462Y-105943721D01*
X103143999Y-105871778D01*
X103165500Y-105791536D01*
X103165500Y-105708464D01*
X103143999Y-105628222D01*
X103102462Y-105556279D01*
X103043721Y-105497538D01*
X103043720Y-105497537D01*
X102971782Y-105456003D01*
X102971778Y-105456001D01*
X102891536Y-105434500D01*
X102808464Y-105434500D01*
X102754969Y-105448834D01*
X102728221Y-105456001D01*
X102728217Y-105456003D01*
X102656280Y-105497537D01*
X102656279Y-105497537D01*
X102597537Y-105556279D01*
X102597537Y-105556280D01*
X102556003Y-105628217D01*
X102556001Y-105628221D01*
X102546434Y-105663927D01*
X102534500Y-105708464D01*
X102250000Y-105708464D01*
X102250000Y-105046179D01*
X102262887Y-105015066D01*
X102294000Y-105002179D01*
X102315997Y-105008073D01*
X102378222Y-105043999D01*
X102458464Y-105065500D01*
X102458466Y-105065500D01*
X102541534Y-105065500D01*
X102541536Y-105065500D01*
X102621778Y-105043999D01*
X102693721Y-105002462D01*
X102737719Y-104958464D01*
X103184500Y-104958464D01*
X103184500Y-105041536D01*
X103194991Y-105080687D01*
X103206001Y-105121778D01*
X103206003Y-105121782D01*
X103221513Y-105148645D01*
X103247538Y-105193721D01*
X103306279Y-105252462D01*
X103378222Y-105293999D01*
X103458464Y-105315500D01*
X103458466Y-105315500D01*
X103541534Y-105315500D01*
X103541536Y-105315500D01*
X103621778Y-105293999D01*
X103693721Y-105252462D01*
X103752462Y-105193721D01*
X103793999Y-105121778D01*
X103815500Y-105041536D01*
X103815500Y-104958464D01*
X103793999Y-104878222D01*
X103752462Y-104806279D01*
X103693721Y-104747538D01*
X103693720Y-104747537D01*
X103621782Y-104706003D01*
X103621778Y-104706001D01*
X103541536Y-104684500D01*
X103458464Y-104684500D01*
X103404969Y-104698834D01*
X103378221Y-104706001D01*
X103378217Y-104706003D01*
X103306280Y-104747537D01*
X103306279Y-104747537D01*
X103247537Y-104806279D01*
X103247537Y-104806280D01*
X103206003Y-104878217D01*
X103206001Y-104878221D01*
X103206001Y-104878222D01*
X103184500Y-104958464D01*
X102737719Y-104958464D01*
X102752462Y-104943721D01*
X102793999Y-104871778D01*
X102815500Y-104791536D01*
X102815500Y-104708464D01*
X102793999Y-104628222D01*
X102752462Y-104556279D01*
X102693721Y-104497538D01*
X102693720Y-104497537D01*
X102621782Y-104456003D01*
X102621778Y-104456001D01*
X102613638Y-104453820D01*
X102541536Y-104434500D01*
X102458464Y-104434500D01*
X102404969Y-104448834D01*
X102378221Y-104456001D01*
X102378217Y-104456003D01*
X102316000Y-104491925D01*
X102282612Y-104496321D01*
X102255895Y-104475820D01*
X102250000Y-104453820D01*
X102250000Y-104363279D01*
X102262887Y-104332166D01*
X102273512Y-104325067D01*
X102273270Y-104324648D01*
X102275768Y-104323206D01*
X102347711Y-104281669D01*
X102406452Y-104222928D01*
X102447989Y-104150985D01*
X102469490Y-104070743D01*
X102469490Y-103987671D01*
X102447989Y-103907429D01*
X102406452Y-103835486D01*
X102347711Y-103776745D01*
X102347710Y-103776744D01*
X102273271Y-103733766D01*
X102273953Y-103732583D01*
X102253343Y-103711957D01*
X102250000Y-103695134D01*
X102250000Y-102658464D01*
X102784500Y-102658464D01*
X102784500Y-102741536D01*
X102794108Y-102777392D01*
X102806001Y-102821778D01*
X102806003Y-102821782D01*
X102819635Y-102845392D01*
X102847538Y-102893721D01*
X102906279Y-102952462D01*
X102978222Y-102993999D01*
X102978223Y-102993999D01*
X102979676Y-102994838D01*
X103000177Y-103021555D01*
X102995781Y-103054943D01*
X102988789Y-103064055D01*
X102961570Y-103091274D01*
X102961566Y-103091280D01*
X102920032Y-103163217D01*
X102920030Y-103163221D01*
X102911858Y-103193719D01*
X102898529Y-103243464D01*
X102898529Y-103326536D01*
X102908726Y-103364591D01*
X102920030Y-103406778D01*
X102920032Y-103406782D01*
X102941358Y-103443719D01*
X102961567Y-103478721D01*
X103020308Y-103537462D01*
X103092251Y-103578999D01*
X103172493Y-103600500D01*
X103172495Y-103600500D01*
X103255563Y-103600500D01*
X103255565Y-103600500D01*
X103335807Y-103578999D01*
X103407750Y-103537462D01*
X103466491Y-103478721D01*
X103508028Y-103406778D01*
X103529529Y-103326536D01*
X103529529Y-103243464D01*
X103508028Y-103163222D01*
X103466491Y-103091279D01*
X103407750Y-103032538D01*
X103407749Y-103032537D01*
X103340457Y-102993685D01*
X103340456Y-102993684D01*
X103334351Y-102990159D01*
X103313851Y-102963442D01*
X103314507Y-102958464D01*
X103634500Y-102958464D01*
X103634500Y-103041536D01*
X103647829Y-103091279D01*
X103656001Y-103121778D01*
X103656003Y-103121782D01*
X103679929Y-103163222D01*
X103697538Y-103193721D01*
X103756279Y-103252462D01*
X103828222Y-103293999D01*
X103908464Y-103315500D01*
X103908466Y-103315500D01*
X103991534Y-103315500D01*
X103991536Y-103315500D01*
X104071778Y-103293999D01*
X104143721Y-103252462D01*
X104202462Y-103193721D01*
X104243999Y-103121778D01*
X104265500Y-103041536D01*
X104265500Y-102958464D01*
X104243999Y-102878222D01*
X104225044Y-102845392D01*
X104215271Y-102828464D01*
X104584500Y-102828464D01*
X104584500Y-102911536D01*
X104604288Y-102985386D01*
X104606001Y-102991778D01*
X104606003Y-102991782D01*
X104615635Y-103008464D01*
X104647538Y-103063721D01*
X104706279Y-103122462D01*
X104778222Y-103163999D01*
X104858464Y-103185500D01*
X104858466Y-103185500D01*
X104941534Y-103185500D01*
X104941536Y-103185500D01*
X105021778Y-103163999D01*
X105093721Y-103122462D01*
X105152462Y-103063721D01*
X105193999Y-102991778D01*
X105215500Y-102911536D01*
X105215500Y-102828464D01*
X105193999Y-102748222D01*
X105152462Y-102676279D01*
X105111312Y-102635129D01*
X105098425Y-102604016D01*
X105111312Y-102572903D01*
X105120417Y-102565916D01*
X105143721Y-102552462D01*
X105202462Y-102493721D01*
X105243999Y-102421778D01*
X105265500Y-102341536D01*
X105265500Y-102258464D01*
X105243999Y-102178222D01*
X105240978Y-102172989D01*
X105236584Y-102139601D01*
X105257085Y-102112884D01*
X105267686Y-102108492D01*
X105321778Y-102093999D01*
X105393721Y-102052462D01*
X105452462Y-101993721D01*
X105493999Y-101921778D01*
X105509853Y-101862607D01*
X105530353Y-101835893D01*
X105563741Y-101831497D01*
X105574352Y-101835893D01*
X105581329Y-101839921D01*
X105661571Y-101861422D01*
X105661573Y-101861422D01*
X105744641Y-101861422D01*
X105744643Y-101861422D01*
X105824885Y-101839921D01*
X105896828Y-101798384D01*
X105955569Y-101739643D01*
X105974876Y-101706201D01*
X106001593Y-101685701D01*
X106034981Y-101690097D01*
X106055482Y-101716814D01*
X106074229Y-101786778D01*
X106074231Y-101786782D01*
X106080930Y-101798384D01*
X106115766Y-101858721D01*
X106174507Y-101917462D01*
X106246450Y-101958999D01*
X106326692Y-101980500D01*
X106326694Y-101980500D01*
X106409762Y-101980500D01*
X106409764Y-101980500D01*
X106454069Y-101968628D01*
X106487455Y-101973024D01*
X106507956Y-101999741D01*
X106506283Y-102025311D01*
X106506748Y-102025436D01*
X106506123Y-102027767D01*
X106506111Y-102027954D01*
X106506004Y-102028212D01*
X106506001Y-102028220D01*
X106506001Y-102028222D01*
X106484500Y-102108464D01*
X106484500Y-102191536D01*
X106502434Y-102258465D01*
X106506001Y-102271778D01*
X106506003Y-102271782D01*
X106512536Y-102283097D01*
X106547538Y-102343721D01*
X106606279Y-102402462D01*
X106678222Y-102443999D01*
X106758464Y-102465500D01*
X106758466Y-102465500D01*
X106841533Y-102465500D01*
X106841536Y-102465500D01*
X106917185Y-102445229D01*
X106950571Y-102449625D01*
X106971072Y-102476341D01*
X106966677Y-102509729D01*
X106956002Y-102528218D01*
X106956001Y-102528221D01*
X106949506Y-102552461D01*
X106934500Y-102608464D01*
X106934500Y-102691536D01*
X106956001Y-102771778D01*
X106997538Y-102843721D01*
X107056279Y-102902462D01*
X107128222Y-102943999D01*
X107208464Y-102965500D01*
X107208466Y-102965500D01*
X107291533Y-102965500D01*
X107291536Y-102965500D01*
X107333429Y-102954274D01*
X107366814Y-102958669D01*
X107387316Y-102985386D01*
X107382921Y-103018774D01*
X107375928Y-103027887D01*
X107347541Y-103056274D01*
X107347537Y-103056280D01*
X107306003Y-103128217D01*
X107306001Y-103128221D01*
X107306001Y-103128222D01*
X107284500Y-103208464D01*
X107284500Y-103291536D01*
X107306001Y-103371778D01*
X107347538Y-103443721D01*
X107406279Y-103502462D01*
X107478222Y-103543999D01*
X107528606Y-103557499D01*
X107555323Y-103578000D01*
X107559719Y-103611388D01*
X107539218Y-103638105D01*
X107528609Y-103642499D01*
X107496014Y-103651233D01*
X107478221Y-103656001D01*
X107478217Y-103656003D01*
X107406280Y-103697537D01*
X107406279Y-103697537D01*
X107347537Y-103756279D01*
X107347537Y-103756280D01*
X107306003Y-103828217D01*
X107306001Y-103828221D01*
X107295250Y-103868343D01*
X107284500Y-103908464D01*
X107284500Y-103991536D01*
X107303505Y-104062462D01*
X107306001Y-104071778D01*
X107306003Y-104071782D01*
X107324604Y-104103999D01*
X107347538Y-104143721D01*
X107406279Y-104202462D01*
X107478222Y-104243999D01*
X107558464Y-104265500D01*
X107558466Y-104265500D01*
X107641534Y-104265500D01*
X107641536Y-104265500D01*
X107721778Y-104243999D01*
X107793721Y-104202462D01*
X107852462Y-104143721D01*
X107893999Y-104071778D01*
X107915500Y-103991536D01*
X107915500Y-103908464D01*
X107893999Y-103828222D01*
X107852462Y-103756279D01*
X107793721Y-103697538D01*
X107793720Y-103697537D01*
X107721782Y-103656003D01*
X107721778Y-103656001D01*
X107671391Y-103642499D01*
X107644676Y-103622000D01*
X107640280Y-103588612D01*
X107660781Y-103561895D01*
X107671387Y-103557501D01*
X107721778Y-103543999D01*
X107793721Y-103502462D01*
X107852462Y-103443721D01*
X107893999Y-103371778D01*
X107915500Y-103291536D01*
X107915500Y-103208464D01*
X107893999Y-103128222D01*
X107852462Y-103056279D01*
X107793721Y-102997538D01*
X107793720Y-102997537D01*
X107721782Y-102956003D01*
X107721778Y-102956001D01*
X107708570Y-102952462D01*
X107641536Y-102934500D01*
X107558464Y-102934500D01*
X107516572Y-102945725D01*
X107483184Y-102941329D01*
X107462683Y-102914612D01*
X107467079Y-102881224D01*
X107474072Y-102872111D01*
X107502459Y-102843724D01*
X107502462Y-102843721D01*
X107543999Y-102771778D01*
X107565500Y-102691536D01*
X107565500Y-102608464D01*
X107543999Y-102528222D01*
X107532592Y-102508464D01*
X108284500Y-102508464D01*
X108284500Y-102591536D01*
X108302434Y-102658465D01*
X108306001Y-102671778D01*
X108306003Y-102671782D01*
X108308600Y-102676280D01*
X108347538Y-102743721D01*
X108406279Y-102802462D01*
X108478222Y-102843999D01*
X108558464Y-102865500D01*
X108558466Y-102865500D01*
X108641534Y-102865500D01*
X108641536Y-102865500D01*
X108721778Y-102843999D01*
X108793721Y-102802462D01*
X108852462Y-102743721D01*
X108893999Y-102671778D01*
X108915500Y-102591536D01*
X108915500Y-102508464D01*
X108893999Y-102428222D01*
X108852462Y-102356279D01*
X108793721Y-102297538D01*
X108793720Y-102297537D01*
X108721782Y-102256003D01*
X108721778Y-102256001D01*
X108641536Y-102234500D01*
X108558464Y-102234500D01*
X108504969Y-102248834D01*
X108478221Y-102256001D01*
X108478217Y-102256003D01*
X108406280Y-102297537D01*
X108406279Y-102297537D01*
X108347537Y-102356279D01*
X108347537Y-102356280D01*
X108306003Y-102428217D01*
X108306001Y-102428221D01*
X108300825Y-102447538D01*
X108284500Y-102508464D01*
X107532592Y-102508464D01*
X107502462Y-102456279D01*
X107443721Y-102397538D01*
X107443720Y-102397537D01*
X107371782Y-102356003D01*
X107371778Y-102356001D01*
X107367184Y-102354770D01*
X107291536Y-102334500D01*
X107208464Y-102334500D01*
X107132816Y-102354770D01*
X107099428Y-102350374D01*
X107078927Y-102323657D01*
X107083323Y-102290269D01*
X107093999Y-102271778D01*
X107115500Y-102191536D01*
X107115500Y-102108464D01*
X107093999Y-102028222D01*
X107052462Y-101956279D01*
X106993721Y-101897538D01*
X106993720Y-101897537D01*
X106921782Y-101856003D01*
X106921778Y-101856001D01*
X106908570Y-101852462D01*
X106841536Y-101834500D01*
X106758464Y-101834500D01*
X106753262Y-101835894D01*
X106714159Y-101846371D01*
X106680771Y-101841975D01*
X106660271Y-101815257D01*
X106661948Y-101789689D01*
X106661480Y-101789564D01*
X106662111Y-101787208D01*
X106662123Y-101787028D01*
X106662223Y-101786784D01*
X106662227Y-101786778D01*
X106683728Y-101706536D01*
X106683728Y-101658464D01*
X107384500Y-101658464D01*
X107384500Y-101741536D01*
X107396623Y-101786778D01*
X107406001Y-101821778D01*
X107406003Y-101821782D01*
X107406417Y-101822499D01*
X107447538Y-101893721D01*
X107506279Y-101952462D01*
X107578222Y-101993999D01*
X107658464Y-102015500D01*
X107658466Y-102015500D01*
X107741534Y-102015500D01*
X107741536Y-102015500D01*
X107821778Y-101993999D01*
X107893721Y-101952462D01*
X107952462Y-101893721D01*
X107993999Y-101821778D01*
X108015500Y-101741536D01*
X108015500Y-101658464D01*
X107993999Y-101578222D01*
X107952462Y-101506279D01*
X107893721Y-101447538D01*
X107893720Y-101447537D01*
X107821782Y-101406003D01*
X107821778Y-101406001D01*
X107812560Y-101403531D01*
X107741536Y-101384500D01*
X107658464Y-101384500D01*
X107604969Y-101398834D01*
X107578221Y-101406001D01*
X107578217Y-101406003D01*
X107506280Y-101447537D01*
X107506279Y-101447537D01*
X107447537Y-101506279D01*
X107447537Y-101506280D01*
X107406003Y-101578217D01*
X107406001Y-101578221D01*
X107398483Y-101606279D01*
X107384500Y-101658464D01*
X106683728Y-101658464D01*
X106683728Y-101623464D01*
X106662227Y-101543222D01*
X106620690Y-101471279D01*
X106561949Y-101412538D01*
X106561948Y-101412537D01*
X106490010Y-101371003D01*
X106490006Y-101371001D01*
X106409764Y-101349500D01*
X106326692Y-101349500D01*
X106273197Y-101363834D01*
X106246449Y-101371001D01*
X106246445Y-101371003D01*
X106174508Y-101412537D01*
X106174507Y-101412537D01*
X106115766Y-101471278D01*
X106096458Y-101504720D01*
X106069740Y-101525220D01*
X106036352Y-101520824D01*
X106015853Y-101494108D01*
X105997106Y-101424144D01*
X105955569Y-101352201D01*
X105896828Y-101293460D01*
X105896827Y-101293459D01*
X105824889Y-101251925D01*
X105824885Y-101251923D01*
X105744643Y-101230422D01*
X105661571Y-101230422D01*
X105608076Y-101244756D01*
X105581328Y-101251923D01*
X105581324Y-101251925D01*
X105509387Y-101293459D01*
X105509386Y-101293459D01*
X105450644Y-101352201D01*
X105450644Y-101352202D01*
X105409110Y-101424139D01*
X105409108Y-101424142D01*
X105409108Y-101424144D01*
X105396478Y-101471279D01*
X105393254Y-101483312D01*
X105372753Y-101510028D01*
X105339364Y-101514424D01*
X105328755Y-101510029D01*
X105321778Y-101506001D01*
X105241536Y-101484500D01*
X105158464Y-101484500D01*
X105104969Y-101498834D01*
X105078221Y-101506001D01*
X105078217Y-101506003D01*
X105006280Y-101547537D01*
X105006279Y-101547537D01*
X104947537Y-101606279D01*
X104947537Y-101606280D01*
X104906003Y-101678217D01*
X104906001Y-101678221D01*
X104906001Y-101678222D01*
X104884500Y-101758464D01*
X104884500Y-101841536D01*
X104899277Y-101896683D01*
X104906001Y-101921778D01*
X104906003Y-101921782D01*
X104909022Y-101927012D01*
X104913415Y-101960400D01*
X104892912Y-101987116D01*
X104882303Y-101991509D01*
X104873014Y-101993999D01*
X104828221Y-102006001D01*
X104828217Y-102006003D01*
X104756280Y-102047537D01*
X104756279Y-102047537D01*
X104697537Y-102106279D01*
X104697537Y-102106280D01*
X104656003Y-102178217D01*
X104656001Y-102178221D01*
X104656001Y-102178222D01*
X104634500Y-102258464D01*
X104634500Y-102341536D01*
X104648483Y-102393721D01*
X104656001Y-102421778D01*
X104656003Y-102421782D01*
X104669541Y-102445229D01*
X104697537Y-102493720D01*
X104697540Y-102493724D01*
X104738686Y-102534869D01*
X104751574Y-102565981D01*
X104738687Y-102597094D01*
X104729576Y-102604086D01*
X104706279Y-102617537D01*
X104647537Y-102676279D01*
X104647537Y-102676280D01*
X104606003Y-102748217D01*
X104606001Y-102748221D01*
X104599689Y-102771778D01*
X104584500Y-102828464D01*
X104215271Y-102828464D01*
X104211413Y-102821782D01*
X104202462Y-102806279D01*
X104143721Y-102747538D01*
X104143720Y-102747537D01*
X104071782Y-102706003D01*
X104071778Y-102706001D01*
X103991536Y-102684500D01*
X103908464Y-102684500D01*
X103854969Y-102698834D01*
X103828221Y-102706001D01*
X103828217Y-102706003D01*
X103756280Y-102747537D01*
X103756279Y-102747537D01*
X103697537Y-102806279D01*
X103697537Y-102806280D01*
X103656003Y-102878217D01*
X103656001Y-102878221D01*
X103651848Y-102893720D01*
X103634500Y-102958464D01*
X103314507Y-102958464D01*
X103318248Y-102930054D01*
X103325233Y-102920949D01*
X103352462Y-102893721D01*
X103393999Y-102821778D01*
X103415500Y-102741536D01*
X103415500Y-102658464D01*
X103393999Y-102578222D01*
X103352462Y-102506279D01*
X103293721Y-102447538D01*
X103293720Y-102447537D01*
X103221782Y-102406003D01*
X103221778Y-102406001D01*
X103208570Y-102402462D01*
X103141536Y-102384500D01*
X103058464Y-102384500D01*
X103009810Y-102397537D01*
X102978221Y-102406001D01*
X102978217Y-102406003D01*
X102906280Y-102447537D01*
X102906279Y-102447537D01*
X102847537Y-102506279D01*
X102847537Y-102506280D01*
X102806003Y-102578217D01*
X102806001Y-102578221D01*
X102800944Y-102597094D01*
X102784500Y-102658464D01*
X102250000Y-102658464D01*
X102250000Y-102400001D01*
X102250000Y-102400000D01*
X102249999Y-102400000D01*
X100825048Y-102400000D01*
X100793935Y-102387113D01*
X100781048Y-102356000D01*
X100786943Y-102334000D01*
X100793996Y-102321783D01*
X100793995Y-102321783D01*
X100793999Y-102321778D01*
X100815500Y-102241536D01*
X100815500Y-102208464D01*
X103684500Y-102208464D01*
X103684500Y-102291536D01*
X103706001Y-102371778D01*
X103747538Y-102443721D01*
X103806279Y-102502462D01*
X103878222Y-102543999D01*
X103958464Y-102565500D01*
X103958466Y-102565500D01*
X104041534Y-102565500D01*
X104041536Y-102565500D01*
X104121778Y-102543999D01*
X104193721Y-102502462D01*
X104252462Y-102443721D01*
X104293999Y-102371778D01*
X104315500Y-102291536D01*
X104315500Y-102208464D01*
X104293999Y-102128222D01*
X104252462Y-102056279D01*
X104193721Y-101997538D01*
X104193720Y-101997537D01*
X104121782Y-101956003D01*
X104121778Y-101956001D01*
X104108570Y-101952462D01*
X104041536Y-101934500D01*
X103958464Y-101934500D01*
X103909806Y-101947538D01*
X103878221Y-101956001D01*
X103878217Y-101956003D01*
X103806280Y-101997537D01*
X103806279Y-101997537D01*
X103747537Y-102056279D01*
X103747537Y-102056280D01*
X103706003Y-102128217D01*
X103706001Y-102128221D01*
X103706001Y-102128222D01*
X103684500Y-102208464D01*
X100815500Y-102208464D01*
X100815500Y-102158464D01*
X100793999Y-102078222D01*
X100752462Y-102006279D01*
X100702295Y-101956112D01*
X100689408Y-101924999D01*
X100701243Y-101896424D01*
X100700705Y-101896011D01*
X100702247Y-101894000D01*
X100702293Y-101893889D01*
X100702462Y-101893721D01*
X100743999Y-101821778D01*
X100765500Y-101741536D01*
X100765500Y-101659500D01*
X100778387Y-101628387D01*
X100809500Y-101615500D01*
X100841534Y-101615500D01*
X100841536Y-101615500D01*
X100921778Y-101593999D01*
X100983325Y-101558464D01*
X103134500Y-101558464D01*
X103134500Y-101641536D01*
X103151827Y-101706202D01*
X103156001Y-101721778D01*
X103156003Y-101721782D01*
X103167454Y-101741615D01*
X103197538Y-101793721D01*
X103256279Y-101852462D01*
X103328222Y-101893999D01*
X103408464Y-101915500D01*
X103408466Y-101915500D01*
X103491534Y-101915500D01*
X103491536Y-101915500D01*
X103571778Y-101893999D01*
X103643721Y-101852462D01*
X103702462Y-101793721D01*
X103743999Y-101721778D01*
X103765500Y-101641536D01*
X103765500Y-101558464D01*
X103746341Y-101486964D01*
X104077517Y-101486964D01*
X104077517Y-101570036D01*
X104099018Y-101650278D01*
X104140555Y-101722221D01*
X104199296Y-101780962D01*
X104271239Y-101822499D01*
X104351481Y-101844000D01*
X104351483Y-101844000D01*
X104434551Y-101844000D01*
X104434553Y-101844000D01*
X104514795Y-101822499D01*
X104586738Y-101780962D01*
X104645479Y-101722221D01*
X104687016Y-101650278D01*
X104708517Y-101570036D01*
X104708517Y-101486964D01*
X104687016Y-101406722D01*
X104645479Y-101334779D01*
X104586738Y-101276038D01*
X104586737Y-101276037D01*
X104514799Y-101234503D01*
X104514795Y-101234501D01*
X104499572Y-101230422D01*
X104434553Y-101213000D01*
X104351481Y-101213000D01*
X104297986Y-101227334D01*
X104271238Y-101234501D01*
X104271234Y-101234503D01*
X104199297Y-101276037D01*
X104199296Y-101276037D01*
X104140554Y-101334779D01*
X104140554Y-101334780D01*
X104099020Y-101406717D01*
X104099018Y-101406721D01*
X104094351Y-101424139D01*
X104077517Y-101486964D01*
X103746341Y-101486964D01*
X103743999Y-101478222D01*
X103702462Y-101406279D01*
X103643721Y-101347538D01*
X103643720Y-101347537D01*
X103571782Y-101306003D01*
X103571778Y-101306001D01*
X103491536Y-101284500D01*
X103408464Y-101284500D01*
X103354969Y-101298834D01*
X103328221Y-101306001D01*
X103328217Y-101306003D01*
X103256280Y-101347537D01*
X103256279Y-101347537D01*
X103197537Y-101406279D01*
X103197537Y-101406280D01*
X103156003Y-101478217D01*
X103156001Y-101478221D01*
X103146301Y-101514424D01*
X103134500Y-101558464D01*
X100983325Y-101558464D01*
X100993721Y-101552462D01*
X101052462Y-101493721D01*
X101093999Y-101421778D01*
X101115500Y-101341536D01*
X101115500Y-101258464D01*
X101093999Y-101178222D01*
X101052462Y-101106279D01*
X100993721Y-101047538D01*
X100993720Y-101047537D01*
X100921782Y-101006003D01*
X100921778Y-101006001D01*
X100908570Y-101002462D01*
X100841536Y-100984500D01*
X100841534Y-100984500D01*
X100809500Y-100984500D01*
X100778387Y-100971613D01*
X100765500Y-100940500D01*
X100765500Y-100908465D01*
X100755671Y-100871782D01*
X100743999Y-100828222D01*
X100733190Y-100809500D01*
X100731458Y-100806500D01*
X100727062Y-100773112D01*
X100747563Y-100746395D01*
X100769563Y-100740500D01*
X100841534Y-100740500D01*
X100841536Y-100740500D01*
X100921778Y-100718999D01*
X100993721Y-100677462D01*
X101052462Y-100618721D01*
X101093999Y-100546778D01*
X101115500Y-100466536D01*
X101115500Y-100383464D01*
X101093999Y-100303222D01*
X101072796Y-100266499D01*
X101068401Y-100233113D01*
X101088901Y-100206395D01*
X101110902Y-100200500D01*
X103122091Y-100200500D01*
X103153204Y-100213387D01*
G37*
%TD.AperFunction*%
%TD*%
M02*
