%TF.GenerationSoftware,KiCad,Pcbnew,10.0.0*%
%TF.CreationDate,2026-08-06T18:40:37+02:00*%
%TF.ProjectId,OpenRX-Mono,4f70656e-5258-42d4-9d6f-6e6f2e6b6963,rev?*%
%TF.SameCoordinates,Original*%
%TF.FileFunction,Paste,Top*%
%TF.FilePolarity,Positive*%
%FSLAX46Y46*%
G04 Gerber Fmt 4.6, Leading zero omitted, Abs format (unit mm)*
G04 Created by KiCad (PCBNEW 10.0.0) date 2026-08-06 18:40:37*
%MOMM*%
%LPD*%
G01*
G04 APERTURE LIST*
G04 Aperture macros list*
%AMRoundRect*
0 Rectangle with rounded corners*
0 $1 Rounding radius*
0 $2 $3 $4 $5 $6 $7 $8 $9 X,Y pos of 4 corners*
0 Add a 4 corners polygon primitive as box body*
4,1,4,$2,$3,$4,$5,$6,$7,$8,$9,$2,$3,0*
0 Add four circle primitives for the rounded corners*
1,1,$1+$1,$2,$3*
1,1,$1+$1,$4,$5*
1,1,$1+$1,$6,$7*
1,1,$1+$1,$8,$9*
0 Add four rect primitives between the rounded corners*
20,1,$1+$1,$2,$3,$4,$5,0*
20,1,$1+$1,$4,$5,$6,$7,0*
20,1,$1+$1,$6,$7,$8,$9,0*
20,1,$1+$1,$8,$9,$2,$3,0*%
%AMRotRect*
0 Rectangle, with rotation*
0 The origin of the aperture is its center*
0 $1 length*
0 $2 width*
0 $3 Rotation angle, in degrees counterclockwise*
0 Add horizontal line*
21,1,$1,$2,0,0,$3*%
G04 Aperture macros list end*
%ADD10RoundRect,0.079500X-0.100500X0.079500X-0.100500X-0.079500X0.100500X-0.079500X0.100500X0.079500X0*%
%ADD11RoundRect,0.113900X-0.113900X-0.134900X0.113900X-0.134900X0.113900X0.134900X-0.113900X0.134900X0*%
%ADD12RoundRect,0.079500X0.079500X0.100500X-0.079500X0.100500X-0.079500X-0.100500X0.079500X-0.100500X0*%
%ADD13R,0.280000X0.280000*%
%ADD14R,0.128000X0.329600*%
%ADD15R,0.329600X0.128000*%
%ADD16RotRect,0.338000X0.380000X45.000000*%
%ADD17RotRect,0.212000X0.212000X45.000000*%
%ADD18R,0.338000X0.338000*%
%ADD19RoundRect,0.107600X-0.132800X0.107600X-0.132800X-0.107600X0.132800X-0.107600X0.132800X0.107600X0*%
%ADD20RoundRect,0.200000X0.200000X-0.221000X0.200000X0.221000X-0.200000X0.221000X-0.200000X-0.221000X0*%
%ADD21RoundRect,0.200476X0.220524X-0.703524X0.220524X0.703524X-0.220524X0.703524X-0.220524X-0.703524X0*%
%ADD22R,0.195200X0.514400*%
%ADD23R,0.514400X0.195200*%
%ADD24R,1.388000X1.388000*%
%ADD25RoundRect,0.167785X-0.332215X-0.332215X0.332215X-0.332215X0.332215X0.332215X-0.332215X0.332215X0*%
%ADD26RoundRect,0.042500X-0.273500X-0.042500X0.273500X-0.042500X0.273500X0.042500X-0.273500X0.042500X0*%
%ADD27RoundRect,0.042500X-0.042500X-0.273500X0.042500X-0.273500X0.042500X0.273500X-0.042500X0.273500X0*%
%ADD28RoundRect,0.079500X0.100500X-0.079500X0.100500X0.079500X-0.100500X0.079500X-0.100500X-0.079500X0*%
%ADD29R,0.212000X0.464000*%
%ADD30R,0.464000X0.212000*%
%ADD31R,0.716000X0.548000*%
%ADD32RoundRect,0.079500X-0.079500X-0.100500X0.079500X-0.100500X0.079500X0.100500X-0.079500X0.100500X0*%
G04 APERTURE END LIST*
D10*
%TO.C,R8*%
X109400000Y-100755000D03*
X109400000Y-101445000D03*
%TD*%
D11*
%TO.C,L5*%
X102315000Y-107150000D03*
X103285000Y-107150000D03*
%TD*%
D12*
%TO.C,C13*%
X102795000Y-113950000D03*
X102105000Y-113950000D03*
%TD*%
D10*
%TO.C,C26*%
X108900000Y-106705000D03*
X108900000Y-107395000D03*
%TD*%
D12*
%TO.C,C12*%
X101095000Y-109050000D03*
X100405000Y-109050000D03*
%TD*%
D10*
%TO.C,L3*%
X109600000Y-108805000D03*
X109600000Y-109495000D03*
%TD*%
%TO.C,C4*%
X109600000Y-106705000D03*
X109600000Y-107395000D03*
%TD*%
D13*
%TO.C,U5*%
X104710000Y-103990000D03*
X105090000Y-103990000D03*
X104710000Y-103610000D03*
X105090000Y-103610000D03*
D14*
X104400000Y-104730000D03*
X104900000Y-104730000D03*
X105400000Y-104730000D03*
D15*
X105830000Y-104300000D03*
X105830000Y-103800000D03*
X105830000Y-103300000D03*
D14*
X105400000Y-102870000D03*
X104900000Y-102870000D03*
X104400000Y-102870000D03*
D15*
X103970000Y-103300000D03*
X103970000Y-103800000D03*
X103970000Y-104300000D03*
%TD*%
D16*
%TO.C,FL1*%
X107289878Y-106860122D03*
D17*
X107912132Y-106662132D03*
D16*
X108110122Y-106039878D03*
D17*
X107487868Y-106237868D03*
%TD*%
D18*
%TO.C,D1*%
X100430000Y-107480000D03*
X101270000Y-107480000D03*
X100430000Y-108320000D03*
X101270000Y-108320000D03*
%TD*%
D19*
%TO.C,C11*%
X109450000Y-111720000D03*
X109450000Y-112680000D03*
%TD*%
D20*
%TO.C,J1*%
X102200000Y-102825000D03*
D21*
X100725000Y-101300000D03*
X103675000Y-101300000D03*
%TD*%
D10*
%TO.C,R6*%
X102200000Y-109755000D03*
X102200000Y-110445000D03*
%TD*%
D12*
%TO.C,C20*%
X105445000Y-114200000D03*
X104755000Y-114200000D03*
%TD*%
%TO.C,C22*%
X105745000Y-102250000D03*
X105055000Y-102250000D03*
%TD*%
D22*
%TO.C,U4*%
X107250000Y-104850000D03*
X107750000Y-104850000D03*
X108250000Y-104850000D03*
X108750000Y-104850000D03*
D23*
X109450000Y-104150000D03*
X109450000Y-103650000D03*
X109450000Y-103150000D03*
X109450000Y-102650000D03*
D22*
X108750000Y-101950000D03*
X108250000Y-101950000D03*
X107750000Y-101950000D03*
X107250000Y-101950000D03*
D23*
X106550000Y-102650000D03*
X106550000Y-103150000D03*
X106550000Y-103650000D03*
X106550000Y-104150000D03*
D24*
X108000000Y-103400000D03*
%TD*%
D25*
%TO.C,U3*%
X104900000Y-110000000D03*
X104900000Y-111500000D03*
X106400000Y-110000000D03*
X106400000Y-111500000D03*
D26*
X103200000Y-109000000D03*
X103200000Y-109500000D03*
X103200000Y-110000000D03*
X103200000Y-110500000D03*
X103200000Y-111500000D03*
X103200000Y-112000000D03*
X103200000Y-112500000D03*
D27*
X103900000Y-113200000D03*
X104400000Y-113200000D03*
X104900000Y-113200000D03*
X105400000Y-113200000D03*
X105900000Y-113200000D03*
X106400000Y-113200000D03*
X106900000Y-113200000D03*
X107400000Y-113200000D03*
D26*
X108100000Y-111500000D03*
X108100000Y-111000000D03*
X108100000Y-110500000D03*
X108100000Y-110000000D03*
X108100000Y-109500000D03*
X108100000Y-109000000D03*
D27*
X107400000Y-108300000D03*
X106900000Y-108300000D03*
X106400000Y-108300000D03*
X105900000Y-108300000D03*
X105400000Y-108300000D03*
X104900000Y-108300000D03*
X104400000Y-108300000D03*
X103900000Y-108300000D03*
%TD*%
D28*
%TO.C,R7*%
X109600000Y-105995000D03*
X109600000Y-105305000D03*
%TD*%
D12*
%TO.C,C23*%
X107095000Y-101150000D03*
X106405000Y-101150000D03*
%TD*%
%TO.C,C7*%
X101495000Y-109800000D03*
X100805000Y-109800000D03*
%TD*%
%TO.C,C25*%
X109445000Y-108100000D03*
X108755000Y-108100000D03*
%TD*%
D10*
%TO.C,C2*%
X102200000Y-108005000D03*
X102200000Y-108695000D03*
%TD*%
%TO.C,C9*%
X109600000Y-110205000D03*
X109600000Y-110895000D03*
%TD*%
D29*
%TO.C,T1*%
X104050000Y-107100000D03*
X104550000Y-107100000D03*
X105050000Y-107100000D03*
X105550000Y-107100000D03*
D30*
X105800000Y-106350000D03*
D29*
X105550000Y-105600000D03*
X105050000Y-105600000D03*
X104550000Y-105600000D03*
X104050000Y-105600000D03*
D30*
X103800000Y-106350000D03*
%TD*%
D31*
%TO.C,OSC1*%
X101950000Y-113100000D03*
X101950000Y-111300000D03*
X100750000Y-111300000D03*
X100750000Y-113100000D03*
%TD*%
D32*
%TO.C,R1*%
X102305000Y-106300000D03*
X102995000Y-106300000D03*
%TD*%
D12*
%TO.C,C24*%
X103345000Y-103800000D03*
X102655000Y-103800000D03*
%TD*%
M02*
