%TF.GenerationSoftware,KiCad,Pcbnew,10.0.0*%
%TF.CreationDate,2026-08-06T18:40:37+02:00*%
%TF.ProjectId,OpenRX-Mono,4f70656e-5258-42d4-9d6f-6e6f2e6b6963,rev?*%
%TF.SameCoordinates,Original*%
%TF.FileFunction,Legend,Bot*%
%TF.FilePolarity,Positive*%
%FSLAX46Y46*%
G04 Gerber Fmt 4.6, Leading zero omitted, Abs format (unit mm)*
G04 Created by KiCad (PCBNEW 10.0.0) date 2026-08-06 18:40:37*
%MOMM*%
%LPD*%
G01*
G04 APERTURE LIST*
%ADD10C,0.150000*%
%ADD11C,0.250000*%
%ADD12C,0.100000*%
%ADD13C,0.120000*%
G04 APERTURE END LIST*
D10*
G36*
X109802232Y-113630000D02*
G01*
X109532588Y-113630000D01*
X109495858Y-113625431D01*
X109463231Y-113612002D01*
X109433608Y-113589211D01*
X109410555Y-113559891D01*
X109396890Y-113526994D01*
X109392209Y-113489316D01*
X109392209Y-113278412D01*
X109396591Y-113243607D01*
X109556035Y-113243607D01*
X109556035Y-113443520D01*
X109563118Y-113459030D01*
X109580154Y-113466051D01*
X109638406Y-113466051D01*
X109638406Y-113219672D01*
X109580215Y-113219672D01*
X109563118Y-113226755D01*
X109556035Y-113243607D01*
X109396591Y-113243607D01*
X109396948Y-113240775D01*
X109410799Y-113207881D01*
X109434219Y-113178517D01*
X109474824Y-113137728D01*
X109434219Y-113097245D01*
X109410783Y-113068079D01*
X109396941Y-113035447D01*
X109392209Y-112998143D01*
X109392209Y-112835233D01*
X109556035Y-112835233D01*
X109556035Y-113032154D01*
X109563118Y-113048824D01*
X109580154Y-113055724D01*
X109638406Y-113055724D01*
X109638406Y-112813068D01*
X109580215Y-112813068D01*
X109563118Y-112819357D01*
X109556035Y-112835233D01*
X109392209Y-112835233D01*
X109392209Y-112788705D01*
X109396883Y-112751360D01*
X109410539Y-112718725D01*
X109433608Y-112689603D01*
X109463210Y-112666996D01*
X109495838Y-112653660D01*
X109532588Y-112649120D01*
X109802232Y-112649120D01*
X109802232Y-113630000D01*
G37*
G36*
X109209018Y-112653727D02*
G01*
X109241838Y-112667163D01*
X109271065Y-112689787D01*
X109293724Y-112718941D01*
X109307178Y-112751699D01*
X109311792Y-112789255D01*
X109311792Y-113489865D01*
X109307180Y-113527423D01*
X109293726Y-113560202D01*
X109271065Y-113589394D01*
X109241843Y-113611981D01*
X109209022Y-113625398D01*
X109171414Y-113630000D01*
X109042209Y-113630000D01*
X109005468Y-113625448D01*
X108972840Y-113612075D01*
X108943230Y-113589394D01*
X108920131Y-113560150D01*
X108906452Y-113527374D01*
X108901770Y-113489865D01*
X108901770Y-112835478D01*
X109065596Y-112835478D01*
X109065596Y-113443642D01*
X109072679Y-113459762D01*
X109089715Y-113466051D01*
X109125252Y-113466051D01*
X109141555Y-113459762D01*
X109147966Y-113443642D01*
X109147966Y-112835478D01*
X109141555Y-112819419D01*
X109125252Y-112813068D01*
X109089776Y-112813068D01*
X109072679Y-112819419D01*
X109065596Y-112835478D01*
X108901770Y-112835478D01*
X108901770Y-112789255D01*
X108906454Y-112751748D01*
X108920133Y-112718993D01*
X108943230Y-112689787D01*
X108972844Y-112667069D01*
X109005472Y-112653677D01*
X109042209Y-112649120D01*
X109171414Y-112649120D01*
X109209018Y-112653727D01*
G37*
G36*
X108710763Y-112653727D02*
G01*
X108743583Y-112667163D01*
X108772809Y-112689787D01*
X108795468Y-112718941D01*
X108808923Y-112751699D01*
X108813537Y-112789255D01*
X108813537Y-113489865D01*
X108808924Y-113527423D01*
X108795470Y-113560202D01*
X108772809Y-113589394D01*
X108743587Y-113611981D01*
X108710767Y-113625398D01*
X108673158Y-113630000D01*
X108543954Y-113630000D01*
X108507212Y-113625448D01*
X108474584Y-113612075D01*
X108444974Y-113589394D01*
X108421875Y-113560150D01*
X108408197Y-113527374D01*
X108403514Y-113489865D01*
X108403514Y-112835478D01*
X108567340Y-112835478D01*
X108567340Y-113443642D01*
X108574423Y-113459762D01*
X108591459Y-113466051D01*
X108626996Y-113466051D01*
X108643300Y-113459762D01*
X108649711Y-113443642D01*
X108649711Y-112835478D01*
X108643300Y-112819419D01*
X108626996Y-112813068D01*
X108591520Y-112813068D01*
X108574423Y-112819419D01*
X108567340Y-112835478D01*
X108403514Y-112835478D01*
X108403514Y-112789255D01*
X108408198Y-112751748D01*
X108421877Y-112718993D01*
X108444974Y-112689787D01*
X108474588Y-112667069D01*
X108507216Y-112653677D01*
X108543954Y-112649120D01*
X108673158Y-112649120D01*
X108710763Y-112653727D01*
G37*
G36*
X108354360Y-112649120D02*
G01*
X107944032Y-112649120D01*
X107944032Y-112813068D01*
X108069085Y-112813068D01*
X108069085Y-113630000D01*
X108232911Y-113630000D01*
X108232911Y-112813068D01*
X108354360Y-112813068D01*
X108354360Y-112649120D01*
G37*
D11*
G36*
X106328350Y-101424525D02*
G01*
X106381493Y-101444682D01*
X106432894Y-101479460D01*
X106476055Y-101524198D01*
X106506268Y-101574121D01*
X106524576Y-101630310D01*
X106743113Y-102681226D01*
X106748040Y-102739778D01*
X106738041Y-102789490D01*
X106713895Y-102832992D01*
X106678020Y-102867097D01*
X106633641Y-102887714D01*
X106578066Y-102895000D01*
X106388472Y-102895000D01*
X106333566Y-102888368D01*
X106280714Y-102868281D01*
X106228646Y-102833359D01*
X106184809Y-102788546D01*
X106154259Y-102738623D01*
X106135864Y-102682508D01*
X105931498Y-101699736D01*
X106177904Y-101699736D01*
X106367498Y-102611892D01*
X106381969Y-102634423D01*
X106407065Y-102643216D01*
X106459180Y-102643216D01*
X106478872Y-102634881D01*
X106482628Y-102613174D01*
X106293034Y-101700835D01*
X106279570Y-101678395D01*
X106255482Y-101669603D01*
X106203458Y-101669603D01*
X106182667Y-101678029D01*
X106177904Y-101699736D01*
X105931498Y-101699736D01*
X105917328Y-101631592D01*
X105912538Y-101573115D01*
X105922910Y-101523447D01*
X105947736Y-101479918D01*
X105984172Y-101445609D01*
X106028296Y-101425032D01*
X106082558Y-101417819D01*
X106272151Y-101417819D01*
X106328350Y-101424525D01*
G37*
G36*
X106028702Y-102895000D02*
G01*
X105782414Y-102895000D01*
X105654461Y-102279508D01*
X105501962Y-102279508D01*
X105446925Y-102272888D01*
X105394011Y-102252853D01*
X105341953Y-102218050D01*
X105298010Y-102173349D01*
X105267666Y-102124195D01*
X105249629Y-102069581D01*
X105172582Y-101699278D01*
X105418889Y-101699278D01*
X105480255Y-101994659D01*
X105494910Y-102018015D01*
X105518174Y-102027724D01*
X105602163Y-102027724D01*
X105527608Y-101669603D01*
X105442428Y-101669603D01*
X105423743Y-101677937D01*
X105418889Y-101699278D01*
X105172582Y-101699278D01*
X105158404Y-101631134D01*
X105153614Y-101572781D01*
X105163983Y-101523203D01*
X105188812Y-101479734D01*
X105225234Y-101445537D01*
X105269358Y-101425015D01*
X105323634Y-101417819D01*
X105721598Y-101417819D01*
X106028702Y-102895000D01*
G37*
G36*
X104459473Y-101669603D02*
G01*
X104818326Y-101669603D01*
X104892882Y-102027724D01*
X104654470Y-102027724D01*
X104706769Y-102279508D01*
X104945180Y-102279508D01*
X105020834Y-102643216D01*
X104661980Y-102643216D01*
X104714279Y-102895000D01*
X105319421Y-102895000D01*
X105012316Y-101417819D01*
X104407174Y-101417819D01*
X104459473Y-101669603D01*
G37*
G36*
X103937404Y-101417819D02*
G01*
X103691115Y-101417819D01*
X103998220Y-102895000D01*
X104243867Y-102895000D01*
X104232968Y-102271997D01*
X104359455Y-102895000D01*
X104605744Y-102895000D01*
X104298639Y-101417819D01*
X104052991Y-101417819D01*
X104065265Y-102047141D01*
X103937404Y-101417819D01*
G37*
%TO.C,X1*%
D10*
X103500000Y-103800000D02*
X104200000Y-103800000D01*
X103500000Y-104450000D02*
X103500000Y-103800000D01*
%TO.C,U2*%
D12*
X100790000Y-112400000D02*
X100790000Y-113490000D01*
X101270000Y-113500000D02*
X101430000Y-113500000D01*
X101330000Y-112400000D02*
X101290000Y-112400000D01*
X101330000Y-112400000D02*
X101420000Y-112400000D01*
X101900000Y-112580000D02*
X101900000Y-112410000D01*
X101900000Y-112580000D02*
X101900000Y-113500000D01*
X101070000Y-112180000D02*
G75*
G02*
X100970000Y-112180000I-50000J0D01*
G01*
X100970000Y-112180000D02*
G75*
G02*
X101070000Y-112180000I50000J0D01*
G01*
%TO.C,L1*%
D13*
X105712779Y-112790000D02*
X105387221Y-112790000D01*
X105712779Y-113810000D02*
X105387221Y-113810000D01*
%TO.C,AE1*%
D11*
X100850000Y-104090000D02*
X101350000Y-104090000D01*
X100850000Y-104600000D02*
X100850000Y-104090000D01*
X101350000Y-104090000D02*
X101350000Y-104600000D01*
X101350000Y-104600000D02*
X100850000Y-104600000D01*
%TO.C,U1*%
D13*
X104340000Y-105990000D02*
X104340000Y-106465000D01*
X104340000Y-110735000D02*
X104340000Y-111210000D01*
X104340000Y-111210000D02*
X104815000Y-111210000D01*
X104815000Y-105990000D02*
X104340000Y-105990000D01*
X109085000Y-111210000D02*
X109560000Y-111210000D01*
X109560000Y-105990000D02*
X109085000Y-105990000D01*
X109560000Y-106465000D02*
X109560000Y-105990000D01*
X109560000Y-111210000D02*
X109560000Y-110735000D01*
X110390000Y-107090000D02*
X110060000Y-106850000D01*
X110390000Y-106610000D01*
X110390000Y-107090000D01*
G36*
X110390000Y-107090000D02*
G01*
X110060000Y-106850000D01*
X110390000Y-106610000D01*
X110390000Y-107090000D01*
G37*
%TO.C,C18*%
X100942164Y-110590000D02*
X101157836Y-110590000D01*
X100942164Y-111310000D02*
X101157836Y-111310000D01*
%TO.C,C8*%
X100942164Y-113890000D02*
X101157836Y-113890000D01*
X100942164Y-114610000D02*
X101157836Y-114610000D01*
%TD*%
M02*
