%TF.GenerationSoftware,KiCad,Pcbnew,10.0.0*%
%TF.CreationDate,2026-08-06T18:40:37+02:00*%
%TF.ProjectId,OpenRX-Mono,4f70656e-5258-42d4-9d6f-6e6f2e6b6963,rev?*%
%TF.SameCoordinates,Original*%
%TF.FileFunction,AssemblyDrawing,Top*%
%FSLAX46Y46*%
G04 Gerber Fmt 4.6, Leading zero omitted, Abs format (unit mm)*
G04 Created by KiCad (PCBNEW 10.0.0) date 2026-08-06 18:40:37*
%MOMM*%
%LPD*%
G01*
G04 APERTURE LIST*
%ADD10C,0.040000*%
%ADD11C,0.050000*%
%ADD12C,0.070000*%
%ADD13C,0.150000*%
%ADD14C,0.090000*%
%ADD15C,0.100000*%
%ADD16C,0.060000*%
G04 APERTURE END LIST*
D10*
X109513574Y-101141666D02*
X109394527Y-101224999D01*
X109513574Y-101284523D02*
X109263574Y-101284523D01*
X109263574Y-101284523D02*
X109263574Y-101189285D01*
X109263574Y-101189285D02*
X109275479Y-101165475D01*
X109275479Y-101165475D02*
X109287384Y-101153570D01*
X109287384Y-101153570D02*
X109311193Y-101141666D01*
X109311193Y-101141666D02*
X109346908Y-101141666D01*
X109346908Y-101141666D02*
X109370717Y-101153570D01*
X109370717Y-101153570D02*
X109382622Y-101165475D01*
X109382622Y-101165475D02*
X109394527Y-101189285D01*
X109394527Y-101189285D02*
X109394527Y-101284523D01*
X109370717Y-100998808D02*
X109358812Y-101022618D01*
X109358812Y-101022618D02*
X109346908Y-101034523D01*
X109346908Y-101034523D02*
X109323098Y-101046427D01*
X109323098Y-101046427D02*
X109311193Y-101046427D01*
X109311193Y-101046427D02*
X109287384Y-101034523D01*
X109287384Y-101034523D02*
X109275479Y-101022618D01*
X109275479Y-101022618D02*
X109263574Y-100998808D01*
X109263574Y-100998808D02*
X109263574Y-100951189D01*
X109263574Y-100951189D02*
X109275479Y-100927380D01*
X109275479Y-100927380D02*
X109287384Y-100915475D01*
X109287384Y-100915475D02*
X109311193Y-100903570D01*
X109311193Y-100903570D02*
X109323098Y-100903570D01*
X109323098Y-100903570D02*
X109346908Y-100915475D01*
X109346908Y-100915475D02*
X109358812Y-100927380D01*
X109358812Y-100927380D02*
X109370717Y-100951189D01*
X109370717Y-100951189D02*
X109370717Y-100998808D01*
X109370717Y-100998808D02*
X109382622Y-101022618D01*
X109382622Y-101022618D02*
X109394527Y-101034523D01*
X109394527Y-101034523D02*
X109418336Y-101046427D01*
X109418336Y-101046427D02*
X109465955Y-101046427D01*
X109465955Y-101046427D02*
X109489765Y-101034523D01*
X109489765Y-101034523D02*
X109501670Y-101022618D01*
X109501670Y-101022618D02*
X109513574Y-100998808D01*
X109513574Y-100998808D02*
X109513574Y-100951189D01*
X109513574Y-100951189D02*
X109501670Y-100927380D01*
X109501670Y-100927380D02*
X109489765Y-100915475D01*
X109489765Y-100915475D02*
X109465955Y-100903570D01*
X109465955Y-100903570D02*
X109418336Y-100903570D01*
X109418336Y-100903570D02*
X109394527Y-100915475D01*
X109394527Y-100915475D02*
X109382622Y-100927380D01*
X109382622Y-100927380D02*
X109370717Y-100951189D01*
X102758333Y-107263574D02*
X102639285Y-107263574D01*
X102639285Y-107263574D02*
X102639285Y-107013574D01*
X102960714Y-107013574D02*
X102841666Y-107013574D01*
X102841666Y-107013574D02*
X102829762Y-107132622D01*
X102829762Y-107132622D02*
X102841666Y-107120717D01*
X102841666Y-107120717D02*
X102865476Y-107108812D01*
X102865476Y-107108812D02*
X102925000Y-107108812D01*
X102925000Y-107108812D02*
X102948809Y-107120717D01*
X102948809Y-107120717D02*
X102960714Y-107132622D01*
X102960714Y-107132622D02*
X102972619Y-107156431D01*
X102972619Y-107156431D02*
X102972619Y-107215955D01*
X102972619Y-107215955D02*
X102960714Y-107239765D01*
X102960714Y-107239765D02*
X102948809Y-107251670D01*
X102948809Y-107251670D02*
X102925000Y-107263574D01*
X102925000Y-107263574D02*
X102865476Y-107263574D01*
X102865476Y-107263574D02*
X102841666Y-107251670D01*
X102841666Y-107251670D02*
X102829762Y-107239765D01*
X102289285Y-114039765D02*
X102277381Y-114051670D01*
X102277381Y-114051670D02*
X102241666Y-114063574D01*
X102241666Y-114063574D02*
X102217857Y-114063574D01*
X102217857Y-114063574D02*
X102182143Y-114051670D01*
X102182143Y-114051670D02*
X102158333Y-114027860D01*
X102158333Y-114027860D02*
X102146428Y-114004050D01*
X102146428Y-114004050D02*
X102134524Y-113956431D01*
X102134524Y-113956431D02*
X102134524Y-113920717D01*
X102134524Y-113920717D02*
X102146428Y-113873098D01*
X102146428Y-113873098D02*
X102158333Y-113849289D01*
X102158333Y-113849289D02*
X102182143Y-113825479D01*
X102182143Y-113825479D02*
X102217857Y-113813574D01*
X102217857Y-113813574D02*
X102241666Y-113813574D01*
X102241666Y-113813574D02*
X102277381Y-113825479D01*
X102277381Y-113825479D02*
X102289285Y-113837384D01*
X102527381Y-114063574D02*
X102384524Y-114063574D01*
X102455952Y-114063574D02*
X102455952Y-113813574D01*
X102455952Y-113813574D02*
X102432143Y-113849289D01*
X102432143Y-113849289D02*
X102408333Y-113873098D01*
X102408333Y-113873098D02*
X102384524Y-113885003D01*
X102610714Y-113813574D02*
X102765476Y-113813574D01*
X102765476Y-113813574D02*
X102682142Y-113908812D01*
X102682142Y-113908812D02*
X102717857Y-113908812D01*
X102717857Y-113908812D02*
X102741666Y-113920717D01*
X102741666Y-113920717D02*
X102753571Y-113932622D01*
X102753571Y-113932622D02*
X102765476Y-113956431D01*
X102765476Y-113956431D02*
X102765476Y-114015955D01*
X102765476Y-114015955D02*
X102753571Y-114039765D01*
X102753571Y-114039765D02*
X102741666Y-114051670D01*
X102741666Y-114051670D02*
X102717857Y-114063574D01*
X102717857Y-114063574D02*
X102646428Y-114063574D01*
X102646428Y-114063574D02*
X102622619Y-114051670D01*
X102622619Y-114051670D02*
X102610714Y-114039765D01*
X108989765Y-107210714D02*
X109001670Y-107222618D01*
X109001670Y-107222618D02*
X109013574Y-107258333D01*
X109013574Y-107258333D02*
X109013574Y-107282142D01*
X109013574Y-107282142D02*
X109001670Y-107317856D01*
X109001670Y-107317856D02*
X108977860Y-107341666D01*
X108977860Y-107341666D02*
X108954050Y-107353571D01*
X108954050Y-107353571D02*
X108906431Y-107365475D01*
X108906431Y-107365475D02*
X108870717Y-107365475D01*
X108870717Y-107365475D02*
X108823098Y-107353571D01*
X108823098Y-107353571D02*
X108799289Y-107341666D01*
X108799289Y-107341666D02*
X108775479Y-107317856D01*
X108775479Y-107317856D02*
X108763574Y-107282142D01*
X108763574Y-107282142D02*
X108763574Y-107258333D01*
X108763574Y-107258333D02*
X108775479Y-107222618D01*
X108775479Y-107222618D02*
X108787384Y-107210714D01*
X108787384Y-107115475D02*
X108775479Y-107103571D01*
X108775479Y-107103571D02*
X108763574Y-107079761D01*
X108763574Y-107079761D02*
X108763574Y-107020237D01*
X108763574Y-107020237D02*
X108775479Y-106996428D01*
X108775479Y-106996428D02*
X108787384Y-106984523D01*
X108787384Y-106984523D02*
X108811193Y-106972618D01*
X108811193Y-106972618D02*
X108835003Y-106972618D01*
X108835003Y-106972618D02*
X108870717Y-106984523D01*
X108870717Y-106984523D02*
X109013574Y-107127380D01*
X109013574Y-107127380D02*
X109013574Y-106972618D01*
X108763574Y-106758333D02*
X108763574Y-106805952D01*
X108763574Y-106805952D02*
X108775479Y-106829761D01*
X108775479Y-106829761D02*
X108787384Y-106841666D01*
X108787384Y-106841666D02*
X108823098Y-106865476D01*
X108823098Y-106865476D02*
X108870717Y-106877380D01*
X108870717Y-106877380D02*
X108965955Y-106877380D01*
X108965955Y-106877380D02*
X108989765Y-106865476D01*
X108989765Y-106865476D02*
X109001670Y-106853571D01*
X109001670Y-106853571D02*
X109013574Y-106829761D01*
X109013574Y-106829761D02*
X109013574Y-106782142D01*
X109013574Y-106782142D02*
X109001670Y-106758333D01*
X109001670Y-106758333D02*
X108989765Y-106746428D01*
X108989765Y-106746428D02*
X108965955Y-106734523D01*
X108965955Y-106734523D02*
X108906431Y-106734523D01*
X108906431Y-106734523D02*
X108882622Y-106746428D01*
X108882622Y-106746428D02*
X108870717Y-106758333D01*
X108870717Y-106758333D02*
X108858812Y-106782142D01*
X108858812Y-106782142D02*
X108858812Y-106829761D01*
X108858812Y-106829761D02*
X108870717Y-106853571D01*
X108870717Y-106853571D02*
X108882622Y-106865476D01*
X108882622Y-106865476D02*
X108906431Y-106877380D01*
X100589285Y-109139765D02*
X100577381Y-109151670D01*
X100577381Y-109151670D02*
X100541666Y-109163574D01*
X100541666Y-109163574D02*
X100517857Y-109163574D01*
X100517857Y-109163574D02*
X100482143Y-109151670D01*
X100482143Y-109151670D02*
X100458333Y-109127860D01*
X100458333Y-109127860D02*
X100446428Y-109104050D01*
X100446428Y-109104050D02*
X100434524Y-109056431D01*
X100434524Y-109056431D02*
X100434524Y-109020717D01*
X100434524Y-109020717D02*
X100446428Y-108973098D01*
X100446428Y-108973098D02*
X100458333Y-108949289D01*
X100458333Y-108949289D02*
X100482143Y-108925479D01*
X100482143Y-108925479D02*
X100517857Y-108913574D01*
X100517857Y-108913574D02*
X100541666Y-108913574D01*
X100541666Y-108913574D02*
X100577381Y-108925479D01*
X100577381Y-108925479D02*
X100589285Y-108937384D01*
X100827381Y-109163574D02*
X100684524Y-109163574D01*
X100755952Y-109163574D02*
X100755952Y-108913574D01*
X100755952Y-108913574D02*
X100732143Y-108949289D01*
X100732143Y-108949289D02*
X100708333Y-108973098D01*
X100708333Y-108973098D02*
X100684524Y-108985003D01*
X100922619Y-108937384D02*
X100934523Y-108925479D01*
X100934523Y-108925479D02*
X100958333Y-108913574D01*
X100958333Y-108913574D02*
X101017857Y-108913574D01*
X101017857Y-108913574D02*
X101041666Y-108925479D01*
X101041666Y-108925479D02*
X101053571Y-108937384D01*
X101053571Y-108937384D02*
X101065476Y-108961193D01*
X101065476Y-108961193D02*
X101065476Y-108985003D01*
X101065476Y-108985003D02*
X101053571Y-109020717D01*
X101053571Y-109020717D02*
X100910714Y-109163574D01*
X100910714Y-109163574D02*
X101065476Y-109163574D01*
X109713574Y-109191666D02*
X109713574Y-109310714D01*
X109713574Y-109310714D02*
X109463574Y-109310714D01*
X109463574Y-109132142D02*
X109463574Y-108977380D01*
X109463574Y-108977380D02*
X109558812Y-109060714D01*
X109558812Y-109060714D02*
X109558812Y-109024999D01*
X109558812Y-109024999D02*
X109570717Y-109001190D01*
X109570717Y-109001190D02*
X109582622Y-108989285D01*
X109582622Y-108989285D02*
X109606431Y-108977380D01*
X109606431Y-108977380D02*
X109665955Y-108977380D01*
X109665955Y-108977380D02*
X109689765Y-108989285D01*
X109689765Y-108989285D02*
X109701670Y-109001190D01*
X109701670Y-109001190D02*
X109713574Y-109024999D01*
X109713574Y-109024999D02*
X109713574Y-109096428D01*
X109713574Y-109096428D02*
X109701670Y-109120237D01*
X109701670Y-109120237D02*
X109689765Y-109132142D01*
X109689765Y-107091666D02*
X109701670Y-107103570D01*
X109701670Y-107103570D02*
X109713574Y-107139285D01*
X109713574Y-107139285D02*
X109713574Y-107163094D01*
X109713574Y-107163094D02*
X109701670Y-107198808D01*
X109701670Y-107198808D02*
X109677860Y-107222618D01*
X109677860Y-107222618D02*
X109654050Y-107234523D01*
X109654050Y-107234523D02*
X109606431Y-107246427D01*
X109606431Y-107246427D02*
X109570717Y-107246427D01*
X109570717Y-107246427D02*
X109523098Y-107234523D01*
X109523098Y-107234523D02*
X109499289Y-107222618D01*
X109499289Y-107222618D02*
X109475479Y-107198808D01*
X109475479Y-107198808D02*
X109463574Y-107163094D01*
X109463574Y-107163094D02*
X109463574Y-107139285D01*
X109463574Y-107139285D02*
X109475479Y-107103570D01*
X109475479Y-107103570D02*
X109487384Y-107091666D01*
X109546908Y-106877380D02*
X109713574Y-106877380D01*
X109451670Y-106936904D02*
X109630241Y-106996427D01*
X109630241Y-106996427D02*
X109630241Y-106841666D01*
D11*
X104682447Y-104104761D02*
X105006257Y-104104761D01*
X105006257Y-104104761D02*
X105044352Y-104085714D01*
X105044352Y-104085714D02*
X105063400Y-104066666D01*
X105063400Y-104066666D02*
X105082447Y-104028571D01*
X105082447Y-104028571D02*
X105082447Y-103952380D01*
X105082447Y-103952380D02*
X105063400Y-103914285D01*
X105063400Y-103914285D02*
X105044352Y-103895238D01*
X105044352Y-103895238D02*
X105006257Y-103876190D01*
X105006257Y-103876190D02*
X104682447Y-103876190D01*
X104682447Y-103495237D02*
X104682447Y-103685713D01*
X104682447Y-103685713D02*
X104872923Y-103704761D01*
X104872923Y-103704761D02*
X104853876Y-103685713D01*
X104853876Y-103685713D02*
X104834828Y-103647618D01*
X104834828Y-103647618D02*
X104834828Y-103552380D01*
X104834828Y-103552380D02*
X104853876Y-103514285D01*
X104853876Y-103514285D02*
X104872923Y-103495237D01*
X104872923Y-103495237D02*
X104911019Y-103476190D01*
X104911019Y-103476190D02*
X105006257Y-103476190D01*
X105006257Y-103476190D02*
X105044352Y-103495237D01*
X105044352Y-103495237D02*
X105063400Y-103514285D01*
X105063400Y-103514285D02*
X105082447Y-103552380D01*
X105082447Y-103552380D02*
X105082447Y-103647618D01*
X105082447Y-103647618D02*
X105063400Y-103685713D01*
X105063400Y-103685713D02*
X105044352Y-103704761D01*
D12*
X107471354Y-106638883D02*
X107377073Y-106733164D01*
X107525229Y-106881319D02*
X107242386Y-106598477D01*
X107242386Y-106598477D02*
X107377073Y-106463790D01*
X107902352Y-106504196D02*
X107767665Y-106638883D01*
X107767665Y-106638883D02*
X107484822Y-106356040D01*
X108144789Y-106261759D02*
X107983165Y-106423383D01*
X108063977Y-106342571D02*
X107781134Y-106059728D01*
X107781134Y-106059728D02*
X107794603Y-106127072D01*
X107794603Y-106127072D02*
X107794603Y-106180947D01*
X107794603Y-106180947D02*
X107781134Y-106221353D01*
D13*
X100111905Y-108354819D02*
X100111905Y-107354819D01*
X100111905Y-107354819D02*
X100350000Y-107354819D01*
X100350000Y-107354819D02*
X100492857Y-107402438D01*
X100492857Y-107402438D02*
X100588095Y-107497676D01*
X100588095Y-107497676D02*
X100635714Y-107592914D01*
X100635714Y-107592914D02*
X100683333Y-107783390D01*
X100683333Y-107783390D02*
X100683333Y-107926247D01*
X100683333Y-107926247D02*
X100635714Y-108116723D01*
X100635714Y-108116723D02*
X100588095Y-108211961D01*
X100588095Y-108211961D02*
X100492857Y-108307200D01*
X100492857Y-108307200D02*
X100350000Y-108354819D01*
X100350000Y-108354819D02*
X100111905Y-108354819D01*
X101635714Y-108354819D02*
X101064286Y-108354819D01*
X101350000Y-108354819D02*
X101350000Y-107354819D01*
X101350000Y-107354819D02*
X101254762Y-107497676D01*
X101254762Y-107497676D02*
X101159524Y-107592914D01*
X101159524Y-107592914D02*
X101064286Y-107640533D01*
D10*
X109539765Y-112360714D02*
X109551670Y-112372618D01*
X109551670Y-112372618D02*
X109563574Y-112408333D01*
X109563574Y-112408333D02*
X109563574Y-112432142D01*
X109563574Y-112432142D02*
X109551670Y-112467856D01*
X109551670Y-112467856D02*
X109527860Y-112491666D01*
X109527860Y-112491666D02*
X109504050Y-112503571D01*
X109504050Y-112503571D02*
X109456431Y-112515475D01*
X109456431Y-112515475D02*
X109420717Y-112515475D01*
X109420717Y-112515475D02*
X109373098Y-112503571D01*
X109373098Y-112503571D02*
X109349289Y-112491666D01*
X109349289Y-112491666D02*
X109325479Y-112467856D01*
X109325479Y-112467856D02*
X109313574Y-112432142D01*
X109313574Y-112432142D02*
X109313574Y-112408333D01*
X109313574Y-112408333D02*
X109325479Y-112372618D01*
X109325479Y-112372618D02*
X109337384Y-112360714D01*
X109563574Y-112122618D02*
X109563574Y-112265475D01*
X109563574Y-112194047D02*
X109313574Y-112194047D01*
X109313574Y-112194047D02*
X109349289Y-112217856D01*
X109349289Y-112217856D02*
X109373098Y-112241666D01*
X109373098Y-112241666D02*
X109385003Y-112265475D01*
X109563574Y-111884523D02*
X109563574Y-112027380D01*
X109563574Y-111955952D02*
X109313574Y-111955952D01*
X109313574Y-111955952D02*
X109349289Y-111979761D01*
X109349289Y-111979761D02*
X109373098Y-112003571D01*
X109373098Y-112003571D02*
X109385003Y-112027380D01*
D14*
X101999999Y-100972891D02*
X101999999Y-101401462D01*
X101999999Y-101401462D02*
X101971428Y-101487177D01*
X101971428Y-101487177D02*
X101914285Y-101544320D01*
X101914285Y-101544320D02*
X101828571Y-101572891D01*
X101828571Y-101572891D02*
X101771428Y-101572891D01*
X102599999Y-101572891D02*
X102257142Y-101572891D01*
X102428571Y-101572891D02*
X102428571Y-100972891D01*
X102428571Y-100972891D02*
X102371428Y-101058605D01*
X102371428Y-101058605D02*
X102314285Y-101115748D01*
X102314285Y-101115748D02*
X102257142Y-101144320D01*
D10*
X102313574Y-110141666D02*
X102194527Y-110224999D01*
X102313574Y-110284523D02*
X102063574Y-110284523D01*
X102063574Y-110284523D02*
X102063574Y-110189285D01*
X102063574Y-110189285D02*
X102075479Y-110165475D01*
X102075479Y-110165475D02*
X102087384Y-110153570D01*
X102087384Y-110153570D02*
X102111193Y-110141666D01*
X102111193Y-110141666D02*
X102146908Y-110141666D01*
X102146908Y-110141666D02*
X102170717Y-110153570D01*
X102170717Y-110153570D02*
X102182622Y-110165475D01*
X102182622Y-110165475D02*
X102194527Y-110189285D01*
X102194527Y-110189285D02*
X102194527Y-110284523D01*
X102063574Y-109927380D02*
X102063574Y-109974999D01*
X102063574Y-109974999D02*
X102075479Y-109998808D01*
X102075479Y-109998808D02*
X102087384Y-110010713D01*
X102087384Y-110010713D02*
X102123098Y-110034523D01*
X102123098Y-110034523D02*
X102170717Y-110046427D01*
X102170717Y-110046427D02*
X102265955Y-110046427D01*
X102265955Y-110046427D02*
X102289765Y-110034523D01*
X102289765Y-110034523D02*
X102301670Y-110022618D01*
X102301670Y-110022618D02*
X102313574Y-109998808D01*
X102313574Y-109998808D02*
X102313574Y-109951189D01*
X102313574Y-109951189D02*
X102301670Y-109927380D01*
X102301670Y-109927380D02*
X102289765Y-109915475D01*
X102289765Y-109915475D02*
X102265955Y-109903570D01*
X102265955Y-109903570D02*
X102206431Y-109903570D01*
X102206431Y-109903570D02*
X102182622Y-109915475D01*
X102182622Y-109915475D02*
X102170717Y-109927380D01*
X102170717Y-109927380D02*
X102158812Y-109951189D01*
X102158812Y-109951189D02*
X102158812Y-109998808D01*
X102158812Y-109998808D02*
X102170717Y-110022618D01*
X102170717Y-110022618D02*
X102182622Y-110034523D01*
X102182622Y-110034523D02*
X102206431Y-110046427D01*
X104939285Y-114289765D02*
X104927381Y-114301670D01*
X104927381Y-114301670D02*
X104891666Y-114313574D01*
X104891666Y-114313574D02*
X104867857Y-114313574D01*
X104867857Y-114313574D02*
X104832143Y-114301670D01*
X104832143Y-114301670D02*
X104808333Y-114277860D01*
X104808333Y-114277860D02*
X104796428Y-114254050D01*
X104796428Y-114254050D02*
X104784524Y-114206431D01*
X104784524Y-114206431D02*
X104784524Y-114170717D01*
X104784524Y-114170717D02*
X104796428Y-114123098D01*
X104796428Y-114123098D02*
X104808333Y-114099289D01*
X104808333Y-114099289D02*
X104832143Y-114075479D01*
X104832143Y-114075479D02*
X104867857Y-114063574D01*
X104867857Y-114063574D02*
X104891666Y-114063574D01*
X104891666Y-114063574D02*
X104927381Y-114075479D01*
X104927381Y-114075479D02*
X104939285Y-114087384D01*
X105034524Y-114087384D02*
X105046428Y-114075479D01*
X105046428Y-114075479D02*
X105070238Y-114063574D01*
X105070238Y-114063574D02*
X105129762Y-114063574D01*
X105129762Y-114063574D02*
X105153571Y-114075479D01*
X105153571Y-114075479D02*
X105165476Y-114087384D01*
X105165476Y-114087384D02*
X105177381Y-114111193D01*
X105177381Y-114111193D02*
X105177381Y-114135003D01*
X105177381Y-114135003D02*
X105165476Y-114170717D01*
X105165476Y-114170717D02*
X105022619Y-114313574D01*
X105022619Y-114313574D02*
X105177381Y-114313574D01*
X105332142Y-114063574D02*
X105355952Y-114063574D01*
X105355952Y-114063574D02*
X105379761Y-114075479D01*
X105379761Y-114075479D02*
X105391666Y-114087384D01*
X105391666Y-114087384D02*
X105403571Y-114111193D01*
X105403571Y-114111193D02*
X105415476Y-114158812D01*
X105415476Y-114158812D02*
X105415476Y-114218336D01*
X105415476Y-114218336D02*
X105403571Y-114265955D01*
X105403571Y-114265955D02*
X105391666Y-114289765D01*
X105391666Y-114289765D02*
X105379761Y-114301670D01*
X105379761Y-114301670D02*
X105355952Y-114313574D01*
X105355952Y-114313574D02*
X105332142Y-114313574D01*
X105332142Y-114313574D02*
X105308333Y-114301670D01*
X105308333Y-114301670D02*
X105296428Y-114289765D01*
X105296428Y-114289765D02*
X105284523Y-114265955D01*
X105284523Y-114265955D02*
X105272619Y-114218336D01*
X105272619Y-114218336D02*
X105272619Y-114158812D01*
X105272619Y-114158812D02*
X105284523Y-114111193D01*
X105284523Y-114111193D02*
X105296428Y-114087384D01*
X105296428Y-114087384D02*
X105308333Y-114075479D01*
X105308333Y-114075479D02*
X105332142Y-114063574D01*
X105239285Y-102339765D02*
X105227381Y-102351670D01*
X105227381Y-102351670D02*
X105191666Y-102363574D01*
X105191666Y-102363574D02*
X105167857Y-102363574D01*
X105167857Y-102363574D02*
X105132143Y-102351670D01*
X105132143Y-102351670D02*
X105108333Y-102327860D01*
X105108333Y-102327860D02*
X105096428Y-102304050D01*
X105096428Y-102304050D02*
X105084524Y-102256431D01*
X105084524Y-102256431D02*
X105084524Y-102220717D01*
X105084524Y-102220717D02*
X105096428Y-102173098D01*
X105096428Y-102173098D02*
X105108333Y-102149289D01*
X105108333Y-102149289D02*
X105132143Y-102125479D01*
X105132143Y-102125479D02*
X105167857Y-102113574D01*
X105167857Y-102113574D02*
X105191666Y-102113574D01*
X105191666Y-102113574D02*
X105227381Y-102125479D01*
X105227381Y-102125479D02*
X105239285Y-102137384D01*
X105334524Y-102137384D02*
X105346428Y-102125479D01*
X105346428Y-102125479D02*
X105370238Y-102113574D01*
X105370238Y-102113574D02*
X105429762Y-102113574D01*
X105429762Y-102113574D02*
X105453571Y-102125479D01*
X105453571Y-102125479D02*
X105465476Y-102137384D01*
X105465476Y-102137384D02*
X105477381Y-102161193D01*
X105477381Y-102161193D02*
X105477381Y-102185003D01*
X105477381Y-102185003D02*
X105465476Y-102220717D01*
X105465476Y-102220717D02*
X105322619Y-102363574D01*
X105322619Y-102363574D02*
X105477381Y-102363574D01*
X105572619Y-102137384D02*
X105584523Y-102125479D01*
X105584523Y-102125479D02*
X105608333Y-102113574D01*
X105608333Y-102113574D02*
X105667857Y-102113574D01*
X105667857Y-102113574D02*
X105691666Y-102125479D01*
X105691666Y-102125479D02*
X105703571Y-102137384D01*
X105703571Y-102137384D02*
X105715476Y-102161193D01*
X105715476Y-102161193D02*
X105715476Y-102185003D01*
X105715476Y-102185003D02*
X105703571Y-102220717D01*
X105703571Y-102220717D02*
X105560714Y-102363574D01*
X105560714Y-102363574D02*
X105715476Y-102363574D01*
D13*
X107238095Y-102854819D02*
X107238095Y-103664342D01*
X107238095Y-103664342D02*
X107285714Y-103759580D01*
X107285714Y-103759580D02*
X107333333Y-103807200D01*
X107333333Y-103807200D02*
X107428571Y-103854819D01*
X107428571Y-103854819D02*
X107619047Y-103854819D01*
X107619047Y-103854819D02*
X107714285Y-103807200D01*
X107714285Y-103807200D02*
X107761904Y-103759580D01*
X107761904Y-103759580D02*
X107809523Y-103664342D01*
X107809523Y-103664342D02*
X107809523Y-102854819D01*
X108714285Y-103188152D02*
X108714285Y-103854819D01*
X108476190Y-102807200D02*
X108238095Y-103521485D01*
X108238095Y-103521485D02*
X108857142Y-103521485D01*
X104888095Y-110204819D02*
X104888095Y-111014342D01*
X104888095Y-111014342D02*
X104935714Y-111109580D01*
X104935714Y-111109580D02*
X104983333Y-111157200D01*
X104983333Y-111157200D02*
X105078571Y-111204819D01*
X105078571Y-111204819D02*
X105269047Y-111204819D01*
X105269047Y-111204819D02*
X105364285Y-111157200D01*
X105364285Y-111157200D02*
X105411904Y-111109580D01*
X105411904Y-111109580D02*
X105459523Y-111014342D01*
X105459523Y-111014342D02*
X105459523Y-110204819D01*
X105840476Y-110204819D02*
X106459523Y-110204819D01*
X106459523Y-110204819D02*
X106126190Y-110585771D01*
X106126190Y-110585771D02*
X106269047Y-110585771D01*
X106269047Y-110585771D02*
X106364285Y-110633390D01*
X106364285Y-110633390D02*
X106411904Y-110681009D01*
X106411904Y-110681009D02*
X106459523Y-110776247D01*
X106459523Y-110776247D02*
X106459523Y-111014342D01*
X106459523Y-111014342D02*
X106411904Y-111109580D01*
X106411904Y-111109580D02*
X106364285Y-111157200D01*
X106364285Y-111157200D02*
X106269047Y-111204819D01*
X106269047Y-111204819D02*
X105983333Y-111204819D01*
X105983333Y-111204819D02*
X105888095Y-111157200D01*
X105888095Y-111157200D02*
X105840476Y-111109580D01*
D10*
X109713574Y-105691666D02*
X109594527Y-105774999D01*
X109713574Y-105834523D02*
X109463574Y-105834523D01*
X109463574Y-105834523D02*
X109463574Y-105739285D01*
X109463574Y-105739285D02*
X109475479Y-105715475D01*
X109475479Y-105715475D02*
X109487384Y-105703570D01*
X109487384Y-105703570D02*
X109511193Y-105691666D01*
X109511193Y-105691666D02*
X109546908Y-105691666D01*
X109546908Y-105691666D02*
X109570717Y-105703570D01*
X109570717Y-105703570D02*
X109582622Y-105715475D01*
X109582622Y-105715475D02*
X109594527Y-105739285D01*
X109594527Y-105739285D02*
X109594527Y-105834523D01*
X109463574Y-105608332D02*
X109463574Y-105441666D01*
X109463574Y-105441666D02*
X109713574Y-105548808D01*
X106589285Y-101239765D02*
X106577381Y-101251670D01*
X106577381Y-101251670D02*
X106541666Y-101263574D01*
X106541666Y-101263574D02*
X106517857Y-101263574D01*
X106517857Y-101263574D02*
X106482143Y-101251670D01*
X106482143Y-101251670D02*
X106458333Y-101227860D01*
X106458333Y-101227860D02*
X106446428Y-101204050D01*
X106446428Y-101204050D02*
X106434524Y-101156431D01*
X106434524Y-101156431D02*
X106434524Y-101120717D01*
X106434524Y-101120717D02*
X106446428Y-101073098D01*
X106446428Y-101073098D02*
X106458333Y-101049289D01*
X106458333Y-101049289D02*
X106482143Y-101025479D01*
X106482143Y-101025479D02*
X106517857Y-101013574D01*
X106517857Y-101013574D02*
X106541666Y-101013574D01*
X106541666Y-101013574D02*
X106577381Y-101025479D01*
X106577381Y-101025479D02*
X106589285Y-101037384D01*
X106684524Y-101037384D02*
X106696428Y-101025479D01*
X106696428Y-101025479D02*
X106720238Y-101013574D01*
X106720238Y-101013574D02*
X106779762Y-101013574D01*
X106779762Y-101013574D02*
X106803571Y-101025479D01*
X106803571Y-101025479D02*
X106815476Y-101037384D01*
X106815476Y-101037384D02*
X106827381Y-101061193D01*
X106827381Y-101061193D02*
X106827381Y-101085003D01*
X106827381Y-101085003D02*
X106815476Y-101120717D01*
X106815476Y-101120717D02*
X106672619Y-101263574D01*
X106672619Y-101263574D02*
X106827381Y-101263574D01*
X106910714Y-101013574D02*
X107065476Y-101013574D01*
X107065476Y-101013574D02*
X106982142Y-101108812D01*
X106982142Y-101108812D02*
X107017857Y-101108812D01*
X107017857Y-101108812D02*
X107041666Y-101120717D01*
X107041666Y-101120717D02*
X107053571Y-101132622D01*
X107053571Y-101132622D02*
X107065476Y-101156431D01*
X107065476Y-101156431D02*
X107065476Y-101215955D01*
X107065476Y-101215955D02*
X107053571Y-101239765D01*
X107053571Y-101239765D02*
X107041666Y-101251670D01*
X107041666Y-101251670D02*
X107017857Y-101263574D01*
X107017857Y-101263574D02*
X106946428Y-101263574D01*
X106946428Y-101263574D02*
X106922619Y-101251670D01*
X106922619Y-101251670D02*
X106910714Y-101239765D01*
X101108333Y-109889765D02*
X101096429Y-109901670D01*
X101096429Y-109901670D02*
X101060714Y-109913574D01*
X101060714Y-109913574D02*
X101036905Y-109913574D01*
X101036905Y-109913574D02*
X101001191Y-109901670D01*
X101001191Y-109901670D02*
X100977381Y-109877860D01*
X100977381Y-109877860D02*
X100965476Y-109854050D01*
X100965476Y-109854050D02*
X100953572Y-109806431D01*
X100953572Y-109806431D02*
X100953572Y-109770717D01*
X100953572Y-109770717D02*
X100965476Y-109723098D01*
X100965476Y-109723098D02*
X100977381Y-109699289D01*
X100977381Y-109699289D02*
X101001191Y-109675479D01*
X101001191Y-109675479D02*
X101036905Y-109663574D01*
X101036905Y-109663574D02*
X101060714Y-109663574D01*
X101060714Y-109663574D02*
X101096429Y-109675479D01*
X101096429Y-109675479D02*
X101108333Y-109687384D01*
X101191667Y-109663574D02*
X101358333Y-109663574D01*
X101358333Y-109663574D02*
X101251191Y-109913574D01*
X108939285Y-108189765D02*
X108927381Y-108201670D01*
X108927381Y-108201670D02*
X108891666Y-108213574D01*
X108891666Y-108213574D02*
X108867857Y-108213574D01*
X108867857Y-108213574D02*
X108832143Y-108201670D01*
X108832143Y-108201670D02*
X108808333Y-108177860D01*
X108808333Y-108177860D02*
X108796428Y-108154050D01*
X108796428Y-108154050D02*
X108784524Y-108106431D01*
X108784524Y-108106431D02*
X108784524Y-108070717D01*
X108784524Y-108070717D02*
X108796428Y-108023098D01*
X108796428Y-108023098D02*
X108808333Y-107999289D01*
X108808333Y-107999289D02*
X108832143Y-107975479D01*
X108832143Y-107975479D02*
X108867857Y-107963574D01*
X108867857Y-107963574D02*
X108891666Y-107963574D01*
X108891666Y-107963574D02*
X108927381Y-107975479D01*
X108927381Y-107975479D02*
X108939285Y-107987384D01*
X109034524Y-107987384D02*
X109046428Y-107975479D01*
X109046428Y-107975479D02*
X109070238Y-107963574D01*
X109070238Y-107963574D02*
X109129762Y-107963574D01*
X109129762Y-107963574D02*
X109153571Y-107975479D01*
X109153571Y-107975479D02*
X109165476Y-107987384D01*
X109165476Y-107987384D02*
X109177381Y-108011193D01*
X109177381Y-108011193D02*
X109177381Y-108035003D01*
X109177381Y-108035003D02*
X109165476Y-108070717D01*
X109165476Y-108070717D02*
X109022619Y-108213574D01*
X109022619Y-108213574D02*
X109177381Y-108213574D01*
X109403571Y-107963574D02*
X109284523Y-107963574D01*
X109284523Y-107963574D02*
X109272619Y-108082622D01*
X109272619Y-108082622D02*
X109284523Y-108070717D01*
X109284523Y-108070717D02*
X109308333Y-108058812D01*
X109308333Y-108058812D02*
X109367857Y-108058812D01*
X109367857Y-108058812D02*
X109391666Y-108070717D01*
X109391666Y-108070717D02*
X109403571Y-108082622D01*
X109403571Y-108082622D02*
X109415476Y-108106431D01*
X109415476Y-108106431D02*
X109415476Y-108165955D01*
X109415476Y-108165955D02*
X109403571Y-108189765D01*
X109403571Y-108189765D02*
X109391666Y-108201670D01*
X109391666Y-108201670D02*
X109367857Y-108213574D01*
X109367857Y-108213574D02*
X109308333Y-108213574D01*
X109308333Y-108213574D02*
X109284523Y-108201670D01*
X109284523Y-108201670D02*
X109272619Y-108189765D01*
X102289765Y-108391666D02*
X102301670Y-108403570D01*
X102301670Y-108403570D02*
X102313574Y-108439285D01*
X102313574Y-108439285D02*
X102313574Y-108463094D01*
X102313574Y-108463094D02*
X102301670Y-108498808D01*
X102301670Y-108498808D02*
X102277860Y-108522618D01*
X102277860Y-108522618D02*
X102254050Y-108534523D01*
X102254050Y-108534523D02*
X102206431Y-108546427D01*
X102206431Y-108546427D02*
X102170717Y-108546427D01*
X102170717Y-108546427D02*
X102123098Y-108534523D01*
X102123098Y-108534523D02*
X102099289Y-108522618D01*
X102099289Y-108522618D02*
X102075479Y-108498808D01*
X102075479Y-108498808D02*
X102063574Y-108463094D01*
X102063574Y-108463094D02*
X102063574Y-108439285D01*
X102063574Y-108439285D02*
X102075479Y-108403570D01*
X102075479Y-108403570D02*
X102087384Y-108391666D01*
X102087384Y-108296427D02*
X102075479Y-108284523D01*
X102075479Y-108284523D02*
X102063574Y-108260713D01*
X102063574Y-108260713D02*
X102063574Y-108201189D01*
X102063574Y-108201189D02*
X102075479Y-108177380D01*
X102075479Y-108177380D02*
X102087384Y-108165475D01*
X102087384Y-108165475D02*
X102111193Y-108153570D01*
X102111193Y-108153570D02*
X102135003Y-108153570D01*
X102135003Y-108153570D02*
X102170717Y-108165475D01*
X102170717Y-108165475D02*
X102313574Y-108308332D01*
X102313574Y-108308332D02*
X102313574Y-108153570D01*
X109689765Y-110591666D02*
X109701670Y-110603570D01*
X109701670Y-110603570D02*
X109713574Y-110639285D01*
X109713574Y-110639285D02*
X109713574Y-110663094D01*
X109713574Y-110663094D02*
X109701670Y-110698808D01*
X109701670Y-110698808D02*
X109677860Y-110722618D01*
X109677860Y-110722618D02*
X109654050Y-110734523D01*
X109654050Y-110734523D02*
X109606431Y-110746427D01*
X109606431Y-110746427D02*
X109570717Y-110746427D01*
X109570717Y-110746427D02*
X109523098Y-110734523D01*
X109523098Y-110734523D02*
X109499289Y-110722618D01*
X109499289Y-110722618D02*
X109475479Y-110698808D01*
X109475479Y-110698808D02*
X109463574Y-110663094D01*
X109463574Y-110663094D02*
X109463574Y-110639285D01*
X109463574Y-110639285D02*
X109475479Y-110603570D01*
X109475479Y-110603570D02*
X109487384Y-110591666D01*
X109713574Y-110472618D02*
X109713574Y-110424999D01*
X109713574Y-110424999D02*
X109701670Y-110401189D01*
X109701670Y-110401189D02*
X109689765Y-110389285D01*
X109689765Y-110389285D02*
X109654050Y-110365475D01*
X109654050Y-110365475D02*
X109606431Y-110353570D01*
X109606431Y-110353570D02*
X109511193Y-110353570D01*
X109511193Y-110353570D02*
X109487384Y-110365475D01*
X109487384Y-110365475D02*
X109475479Y-110377380D01*
X109475479Y-110377380D02*
X109463574Y-110401189D01*
X109463574Y-110401189D02*
X109463574Y-110448808D01*
X109463574Y-110448808D02*
X109475479Y-110472618D01*
X109475479Y-110472618D02*
X109487384Y-110484523D01*
X109487384Y-110484523D02*
X109511193Y-110496427D01*
X109511193Y-110496427D02*
X109570717Y-110496427D01*
X109570717Y-110496427D02*
X109594527Y-110484523D01*
X109594527Y-110484523D02*
X109606431Y-110472618D01*
X109606431Y-110472618D02*
X109618336Y-110448808D01*
X109618336Y-110448808D02*
X109618336Y-110401189D01*
X109618336Y-110401189D02*
X109606431Y-110377380D01*
X109606431Y-110377380D02*
X109594527Y-110365475D01*
X109594527Y-110365475D02*
X109570717Y-110353570D01*
D13*
X104038095Y-105804819D02*
X104609523Y-105804819D01*
X104323809Y-106804819D02*
X104323809Y-105804819D01*
X105466666Y-106804819D02*
X104895238Y-106804819D01*
X105180952Y-106804819D02*
X105180952Y-105804819D01*
X105180952Y-105804819D02*
X105085714Y-105947676D01*
X105085714Y-105947676D02*
X104990476Y-106042914D01*
X104990476Y-106042914D02*
X104895238Y-106090533D01*
X101019771Y-113128571D02*
X101019771Y-113014285D01*
X101019771Y-113014285D02*
X101048342Y-112957142D01*
X101048342Y-112957142D02*
X101105485Y-112899999D01*
X101105485Y-112899999D02*
X101219771Y-112871428D01*
X101219771Y-112871428D02*
X101419771Y-112871428D01*
X101419771Y-112871428D02*
X101534057Y-112899999D01*
X101534057Y-112899999D02*
X101591200Y-112957142D01*
X101591200Y-112957142D02*
X101619771Y-113014285D01*
X101619771Y-113014285D02*
X101619771Y-113128571D01*
X101619771Y-113128571D02*
X101591200Y-113185714D01*
X101591200Y-113185714D02*
X101534057Y-113242856D01*
X101534057Y-113242856D02*
X101419771Y-113271428D01*
X101419771Y-113271428D02*
X101219771Y-113271428D01*
X101219771Y-113271428D02*
X101105485Y-113242856D01*
X101105485Y-113242856D02*
X101048342Y-113185714D01*
X101048342Y-113185714D02*
X101019771Y-113128571D01*
X101591200Y-112642857D02*
X101619771Y-112557143D01*
X101619771Y-112557143D02*
X101619771Y-112414285D01*
X101619771Y-112414285D02*
X101591200Y-112357143D01*
X101591200Y-112357143D02*
X101562628Y-112328571D01*
X101562628Y-112328571D02*
X101505485Y-112300000D01*
X101505485Y-112300000D02*
X101448342Y-112300000D01*
X101448342Y-112300000D02*
X101391200Y-112328571D01*
X101391200Y-112328571D02*
X101362628Y-112357143D01*
X101362628Y-112357143D02*
X101334057Y-112414285D01*
X101334057Y-112414285D02*
X101305485Y-112528571D01*
X101305485Y-112528571D02*
X101276914Y-112585714D01*
X101276914Y-112585714D02*
X101248342Y-112614285D01*
X101248342Y-112614285D02*
X101191200Y-112642857D01*
X101191200Y-112642857D02*
X101134057Y-112642857D01*
X101134057Y-112642857D02*
X101076914Y-112614285D01*
X101076914Y-112614285D02*
X101048342Y-112585714D01*
X101048342Y-112585714D02*
X101019771Y-112528571D01*
X101019771Y-112528571D02*
X101019771Y-112385714D01*
X101019771Y-112385714D02*
X101048342Y-112300000D01*
X101562628Y-111699999D02*
X101591200Y-111728571D01*
X101591200Y-111728571D02*
X101619771Y-111814285D01*
X101619771Y-111814285D02*
X101619771Y-111871428D01*
X101619771Y-111871428D02*
X101591200Y-111957142D01*
X101591200Y-111957142D02*
X101534057Y-112014285D01*
X101534057Y-112014285D02*
X101476914Y-112042856D01*
X101476914Y-112042856D02*
X101362628Y-112071428D01*
X101362628Y-112071428D02*
X101276914Y-112071428D01*
X101276914Y-112071428D02*
X101162628Y-112042856D01*
X101162628Y-112042856D02*
X101105485Y-112014285D01*
X101105485Y-112014285D02*
X101048342Y-111957142D01*
X101048342Y-111957142D02*
X101019771Y-111871428D01*
X101019771Y-111871428D02*
X101019771Y-111814285D01*
X101019771Y-111814285D02*
X101048342Y-111728571D01*
X101048342Y-111728571D02*
X101076914Y-111699999D01*
X101619771Y-111128571D02*
X101619771Y-111471428D01*
X101619771Y-111299999D02*
X101019771Y-111299999D01*
X101019771Y-111299999D02*
X101105485Y-111357142D01*
X101105485Y-111357142D02*
X101162628Y-111414285D01*
X101162628Y-111414285D02*
X101191200Y-111471428D01*
D10*
X102608333Y-106413574D02*
X102525000Y-106294527D01*
X102465476Y-106413574D02*
X102465476Y-106163574D01*
X102465476Y-106163574D02*
X102560714Y-106163574D01*
X102560714Y-106163574D02*
X102584524Y-106175479D01*
X102584524Y-106175479D02*
X102596429Y-106187384D01*
X102596429Y-106187384D02*
X102608333Y-106211193D01*
X102608333Y-106211193D02*
X102608333Y-106246908D01*
X102608333Y-106246908D02*
X102596429Y-106270717D01*
X102596429Y-106270717D02*
X102584524Y-106282622D01*
X102584524Y-106282622D02*
X102560714Y-106294527D01*
X102560714Y-106294527D02*
X102465476Y-106294527D01*
X102846429Y-106413574D02*
X102703572Y-106413574D01*
X102775000Y-106413574D02*
X102775000Y-106163574D01*
X102775000Y-106163574D02*
X102751191Y-106199289D01*
X102751191Y-106199289D02*
X102727381Y-106223098D01*
X102727381Y-106223098D02*
X102703572Y-106235003D01*
X102839285Y-103889765D02*
X102827381Y-103901670D01*
X102827381Y-103901670D02*
X102791666Y-103913574D01*
X102791666Y-103913574D02*
X102767857Y-103913574D01*
X102767857Y-103913574D02*
X102732143Y-103901670D01*
X102732143Y-103901670D02*
X102708333Y-103877860D01*
X102708333Y-103877860D02*
X102696428Y-103854050D01*
X102696428Y-103854050D02*
X102684524Y-103806431D01*
X102684524Y-103806431D02*
X102684524Y-103770717D01*
X102684524Y-103770717D02*
X102696428Y-103723098D01*
X102696428Y-103723098D02*
X102708333Y-103699289D01*
X102708333Y-103699289D02*
X102732143Y-103675479D01*
X102732143Y-103675479D02*
X102767857Y-103663574D01*
X102767857Y-103663574D02*
X102791666Y-103663574D01*
X102791666Y-103663574D02*
X102827381Y-103675479D01*
X102827381Y-103675479D02*
X102839285Y-103687384D01*
X102934524Y-103687384D02*
X102946428Y-103675479D01*
X102946428Y-103675479D02*
X102970238Y-103663574D01*
X102970238Y-103663574D02*
X103029762Y-103663574D01*
X103029762Y-103663574D02*
X103053571Y-103675479D01*
X103053571Y-103675479D02*
X103065476Y-103687384D01*
X103065476Y-103687384D02*
X103077381Y-103711193D01*
X103077381Y-103711193D02*
X103077381Y-103735003D01*
X103077381Y-103735003D02*
X103065476Y-103770717D01*
X103065476Y-103770717D02*
X102922619Y-103913574D01*
X102922619Y-103913574D02*
X103077381Y-103913574D01*
X103291666Y-103746908D02*
X103291666Y-103913574D01*
X103232142Y-103651670D02*
X103172619Y-103830241D01*
X103172619Y-103830241D02*
X103327380Y-103830241D01*
%TO.C,R8*%
D15*
X109250000Y-100800000D02*
X109550000Y-100800000D01*
X109550000Y-101400000D01*
X109250000Y-101400000D01*
X109250000Y-100800000D01*
%TO.C,L5*%
X102300000Y-106900000D02*
X103300000Y-106900000D01*
X103300000Y-107400000D01*
X102300000Y-107400000D01*
X102300000Y-106900000D01*
%TO.C,C13*%
X102150000Y-113800000D02*
X102750000Y-113800000D01*
X102750000Y-114100000D01*
X102150000Y-114100000D01*
X102150000Y-113800000D01*
%TO.C,C26*%
X108750000Y-106750000D02*
X109050000Y-106750000D01*
X109050000Y-107350000D01*
X108750000Y-107350000D01*
X108750000Y-106750000D01*
%TO.C,C12*%
X100450000Y-108900000D02*
X101050000Y-108900000D01*
X101050000Y-109200000D01*
X100450000Y-109200000D01*
X100450000Y-108900000D01*
%TO.C,L3*%
X109450000Y-108850000D02*
X109750000Y-108850000D01*
X109750000Y-109450000D01*
X109450000Y-109450000D01*
X109450000Y-108850000D01*
%TO.C,C4*%
X109450000Y-106750000D02*
X109750000Y-106750000D01*
X109750000Y-107350000D01*
X109450000Y-107350000D01*
X109450000Y-106750000D01*
%TO.C,U5*%
D13*
X103900000Y-102800000D02*
X103900000Y-103800000D01*
X103900000Y-103800000D02*
X104900000Y-104800000D01*
X104900000Y-104800000D02*
X105900000Y-104800000D01*
X105900000Y-102800000D02*
X103900000Y-102800000D01*
X105900000Y-104800000D02*
X105900000Y-102800000D01*
%TO.C,D1*%
D16*
X100380000Y-107400000D02*
G75*
G02*
X100320000Y-107400000I-30000J0D01*
G01*
X100320000Y-107400000D02*
G75*
G02*
X100380000Y-107400000I30000J0D01*
G01*
%TO.C,C11*%
D15*
X109200000Y-111700000D02*
X109700000Y-111700000D01*
X109700000Y-112700000D01*
X109200000Y-112700000D01*
X109200000Y-111700000D01*
%TO.C,J1*%
X100700000Y-100400000D02*
X100900000Y-100400000D01*
X100700000Y-102200000D02*
X100700000Y-100400000D01*
X100700000Y-102200000D02*
X100900000Y-102200000D01*
X100900000Y-100000000D02*
X100900000Y-100400000D01*
X100900000Y-100000000D02*
X103500000Y-100000000D01*
X100900000Y-102200000D02*
X100900000Y-102600000D01*
X101900000Y-102600000D02*
X100900000Y-102600000D01*
X101900000Y-102700000D02*
X101900000Y-102600000D01*
X101900000Y-102700000D02*
X102050000Y-102850000D01*
X102500000Y-102600000D02*
X103500000Y-102600000D01*
X102500000Y-102850000D02*
X102050000Y-102850000D01*
X102500000Y-102850000D02*
X102500000Y-102600000D01*
X103500000Y-100000000D02*
X103500000Y-100400000D01*
X103500000Y-102200000D02*
X103500000Y-102600000D01*
X103700000Y-100400000D02*
X103500000Y-100400000D01*
X103700000Y-102200000D02*
X103500000Y-102200000D01*
X103700000Y-102200000D02*
X103700000Y-100400000D01*
%TO.C,R6*%
X102050000Y-109800000D02*
X102350000Y-109800000D01*
X102350000Y-110400000D01*
X102050000Y-110400000D01*
X102050000Y-109800000D01*
%TO.C,C20*%
X104800000Y-114050000D02*
X105400000Y-114050000D01*
X105400000Y-114350000D01*
X104800000Y-114350000D01*
X104800000Y-114050000D01*
%TO.C,C22*%
X105100000Y-102100000D02*
X105700000Y-102100000D01*
X105700000Y-102400000D01*
X105100000Y-102400000D01*
X105100000Y-102100000D01*
%TO.C,U4*%
D16*
X106530000Y-104900000D02*
G75*
G02*
X106470000Y-104900000I-30000J0D01*
G01*
X106470000Y-104900000D02*
G75*
G02*
X106530000Y-104900000I30000J0D01*
G01*
D15*
%TO.C,U3*%
X108150000Y-113250000D02*
X103150000Y-113250000D01*
X103150000Y-109250000D01*
X104150000Y-108250000D01*
X108150000Y-108250000D01*
X108150000Y-113250000D01*
%TO.C,R7*%
X109450000Y-105350000D02*
X109750000Y-105350000D01*
X109750000Y-105950000D01*
X109450000Y-105950000D01*
X109450000Y-105350000D01*
%TO.C,C23*%
X106450000Y-101000000D02*
X107050000Y-101000000D01*
X107050000Y-101300000D01*
X106450000Y-101300000D01*
X106450000Y-101000000D01*
%TO.C,C7*%
X100850000Y-109650000D02*
X101450000Y-109650000D01*
X101450000Y-109950000D01*
X100850000Y-109950000D01*
X100850000Y-109650000D01*
%TO.C,C25*%
X108800000Y-107950000D02*
X109400000Y-107950000D01*
X109400000Y-108250000D01*
X108800000Y-108250000D01*
X108800000Y-107950000D01*
%TO.C,C2*%
X102050000Y-108050000D02*
X102350000Y-108050000D01*
X102350000Y-108650000D01*
X102050000Y-108650000D01*
X102050000Y-108050000D01*
%TO.C,C9*%
X109450000Y-110250000D02*
X109750000Y-110250000D01*
X109750000Y-110850000D01*
X109450000Y-110850000D01*
X109450000Y-110250000D01*
%TO.C,T1*%
D16*
X103830000Y-107150000D02*
G75*
G02*
X103770000Y-107150000I-30000J0D01*
G01*
X103770000Y-107150000D02*
G75*
G02*
X103830000Y-107150000I30000J0D01*
G01*
%TO.C,OSC1*%
X102180000Y-113200000D02*
G75*
G02*
X102120000Y-113200000I-30000J0D01*
G01*
X102120000Y-113200000D02*
G75*
G02*
X102180000Y-113200000I30000J0D01*
G01*
%TO.C,R1*%
D15*
X102350000Y-106150000D02*
X102950000Y-106150000D01*
X102950000Y-106450000D01*
X102350000Y-106450000D01*
X102350000Y-106150000D01*
%TO.C,C24*%
X102700000Y-103650000D02*
X103300000Y-103650000D01*
X103300000Y-103950000D01*
X102700000Y-103950000D01*
X102700000Y-103650000D01*
%TD*%
M02*
